<svg xmlns="http://www.w3.org/2000/svg" xmlns:xlink="http://www.w3.org/1999/xlink" width="200" zoomAndPan="magnify" viewBox="0 0 150 149.999998" height="200" preserveAspectRatio="xMidYMid meet" version="1.0"><defs><clipPath id="eb36488b90"><path d="M 15 15.601562 L 135.75 15.601562 L 135.75 134.851562 L 15 134.851562 Z M 15 15.601562 " clip-rule="nonzero"/></clipPath></defs><g clip-path="url(#eb36488b90)"><path fill="#1a2e22" d="M 129.859375 60.738281 L 112.695312 60.738281 C 111.632812 60.734375 110.652344 61.015625 109.75 61.578125 L 88.890625 40.742188 C 89.25 40 89.429688 39.214844 89.429688 38.386719 L 89.429688 21.226562 C 89.429688 20.859375 89.394531 20.496094 89.320312 20.136719 C 89.25 19.78125 89.144531 19.429688 89.003906 19.09375 C 88.863281 18.753906 88.691406 18.433594 88.488281 18.128906 C 88.285156 17.828125 88.050781 17.546875 87.792969 17.285156 C 87.535156 17.027344 87.253906 16.796875 86.949219 16.59375 C 86.644531 16.390625 86.324219 16.21875 85.988281 16.078125 C 85.648438 15.9375 85.300781 15.832031 84.941406 15.757812 C 84.582031 15.6875 84.222656 15.652344 83.855469 15.648438 L 66.691406 15.648438 C 66.328125 15.652344 65.964844 15.6875 65.605469 15.757812 C 65.246094 15.832031 64.898438 15.9375 64.5625 16.078125 C 64.222656 16.21875 63.902344 16.390625 63.597656 16.59375 C 63.292969 16.796875 63.011719 17.027344 62.753906 17.285156 C 62.496094 17.546875 62.265625 17.828125 62.0625 18.128906 C 61.855469 18.433594 61.683594 18.753906 61.546875 19.09375 C 61.40625 19.429688 61.296875 19.78125 61.226562 20.136719 C 61.15625 20.496094 61.117188 20.859375 61.117188 21.226562 L 61.117188 38.386719 C 61.117188 39.203125 61.292969 39.980469 61.644531 40.71875 L 40.808594 61.578125 C 39.921875 61.03125 38.957031 60.753906 37.914062 60.75 L 20.753906 60.75 C 20.386719 60.75 20.023438 60.785156 19.664062 60.855469 C 19.308594 60.929688 18.957031 61.035156 18.621094 61.171875 C 18.28125 61.3125 17.960938 61.484375 17.65625 61.6875 C 17.351562 61.890625 17.070312 62.121094 16.808594 62.378906 C 16.550781 62.636719 16.320312 62.917969 16.117188 63.21875 C 15.910156 63.523438 15.738281 63.84375 15.597656 64.183594 C 15.457031 64.519531 15.347656 64.867188 15.277344 65.226562 C 15.203125 65.585938 15.167969 65.945312 15.164062 66.3125 L 15.164062 83.476562 C 15.164062 83.84375 15.203125 84.207031 15.273438 84.5625 C 15.347656 84.921875 15.453125 85.273438 15.59375 85.609375 C 15.734375 85.949219 15.90625 86.269531 16.109375 86.574219 C 16.316406 86.878906 16.546875 87.160156 16.804688 87.417969 C 17.066406 87.675781 17.347656 87.910156 17.652344 88.113281 C 17.957031 88.316406 18.277344 88.488281 18.617188 88.625 C 18.957031 88.765625 19.304688 88.871094 19.664062 88.945312 C 20.023438 89.015625 20.386719 89.050781 20.753906 89.050781 L 37.914062 89.050781 C 38.957031 89.046875 39.921875 88.769531 40.808594 88.222656 L 61.980469 109.394531 C 61.40625 110.289062 61.117188 111.265625 61.117188 112.328125 L 61.117188 129.492188 C 61.117188 129.855469 61.15625 130.21875 61.226562 130.578125 C 61.296875 130.9375 61.40625 131.285156 61.546875 131.621094 C 61.683594 131.960938 61.855469 132.28125 62.0625 132.585938 C 62.265625 132.890625 62.496094 133.171875 62.753906 133.429688 C 63.011719 133.6875 63.292969 133.917969 63.597656 134.121094 C 63.902344 134.324219 64.222656 134.496094 64.5625 134.636719 C 64.898438 134.777344 65.246094 134.882812 65.605469 134.957031 C 65.964844 135.027344 66.328125 135.066406 66.691406 135.066406 L 83.855469 135.066406 C 84.222656 135.066406 84.582031 135.027344 84.941406 134.957031 C 85.300781 134.882812 85.648438 134.777344 85.988281 134.636719 C 86.324219 134.496094 86.644531 134.324219 86.949219 134.121094 C 87.253906 133.917969 87.535156 133.6875 87.792969 133.429688 C 88.050781 133.171875 88.285156 132.890625 88.488281 132.585938 C 88.691406 132.28125 88.863281 131.960938 89.003906 131.621094 C 89.144531 131.285156 89.25 130.9375 89.320312 130.578125 C 89.394531 130.21875 89.429688 129.855469 89.429688 129.492188 L 89.429688 112.328125 C 89.429688 111.261719 89.144531 110.28125 88.566406 109.382812 L 109.75 88.1875 C 110.648438 88.765625 111.628906 89.050781 112.695312 89.050781 L 129.859375 89.050781 C 130.222656 89.050781 130.585938 89.015625 130.945312 88.941406 C 131.304688 88.871094 131.652344 88.761719 131.988281 88.625 C 132.328125 88.484375 132.648438 88.3125 132.953125 88.109375 C 133.257812 87.902344 133.539062 87.671875 133.796875 87.414062 C 134.054688 87.15625 134.285156 86.875 134.488281 86.570312 C 134.691406 86.265625 134.863281 85.945312 135.003906 85.609375 C 135.144531 85.269531 135.25 84.921875 135.324219 84.5625 C 135.394531 84.203125 135.433594 83.84375 135.433594 83.476562 L 135.433594 66.3125 C 135.433594 65.945312 135.394531 65.585938 135.324219 65.226562 C 135.25 64.867188 135.144531 64.519531 135.003906 64.179688 C 134.863281 63.84375 134.691406 63.523438 134.488281 63.21875 C 134.285156 62.914062 134.054688 62.632812 133.796875 62.375 C 133.539062 62.117188 133.257812 61.882812 132.953125 61.679688 C 132.648438 61.476562 132.328125 61.304688 131.988281 61.164062 C 131.652344 61.023438 131.304688 60.917969 130.945312 60.847656 C 130.585938 60.773438 130.222656 60.738281 129.859375 60.738281 Z M 74.046875 106.753906 L 66.667969 106.753906 C 66.347656 106.753906 66.027344 106.789062 65.714844 106.851562 L 65.4375 106.851562 C 65.179688 106.902344 64.929688 106.976562 64.6875 107.078125 C 64.617188 107.097656 64.550781 107.121094 64.488281 107.152344 C 64.226562 107.261719 63.976562 107.394531 63.734375 107.542969 L 42.613281 86.484375 C 42.765625 86.234375 42.902344 85.976562 43.015625 85.707031 C 43.015625 85.707031 43.015625 85.566406 43.101562 85.492188 C 43.191406 85.246094 43.265625 84.996094 43.328125 84.742188 C 43.355469 84.65625 43.375 84.566406 43.390625 84.476562 C 43.453125 84.148438 43.488281 83.8125 43.492188 83.476562 L 43.492188 76.148438 L 61.105469 76.148438 L 61.105469 83.476562 C 61.105469 83.84375 61.140625 84.203125 61.210938 84.5625 C 61.285156 84.921875 61.390625 85.269531 61.527344 85.609375 C 61.667969 85.949219 61.839844 86.269531 62.042969 86.574219 C 62.246094 86.878906 62.480469 87.160156 62.738281 87.417969 C 62.996094 87.675781 63.277344 87.90625 63.582031 88.113281 C 63.886719 88.316406 64.207031 88.488281 64.546875 88.625 C 64.882812 88.765625 65.234375 88.871094 65.59375 88.945312 C 65.949219 89.015625 66.3125 89.050781 66.679688 89.050781 L 74.046875 89.050781 Z M 74.046875 60.738281 L 66.679688 60.738281 C 66.3125 60.738281 65.953125 60.773438 65.59375 60.847656 C 65.234375 60.917969 64.886719 61.023438 64.546875 61.164062 C 64.210938 61.304688 63.890625 61.476562 63.585938 61.679688 C 63.28125 61.882812 63 62.117188 62.742188 62.375 C 62.484375 62.632812 62.25 62.914062 62.046875 63.21875 C 61.84375 63.523438 61.671875 63.84375 61.53125 64.179688 C 61.390625 64.519531 61.285156 64.867188 61.214844 65.226562 C 61.140625 65.585938 61.105469 65.945312 61.105469 66.3125 L 61.105469 73.640625 L 43.492188 73.640625 L 43.492188 66.3125 C 43.488281 65.976562 43.457031 65.640625 43.390625 65.3125 C 43.390625 65.222656 43.390625 65.136719 43.328125 65.046875 C 43.265625 64.78125 43.1875 64.523438 43.089844 64.269531 L 43.015625 64.082031 C 42.898438 63.816406 42.765625 63.554688 42.613281 63.304688 L 63.183594 42.785156 L 63.273438 42.847656 C 63.457031 42.992188 63.65625 43.121094 63.859375 43.238281 L 64.035156 43.347656 C 64.277344 43.480469 64.527344 43.59375 64.789062 43.6875 L 64.9375 43.6875 C 65.15625 43.757812 65.378906 43.816406 65.601562 43.863281 L 65.851562 43.863281 C 66.125 43.914062 66.402344 43.9375 66.679688 43.9375 L 74.046875 43.9375 Z M 86.824219 107.605469 C 86.566406 107.445312 86.292969 107.304688 86.011719 107.191406 L 85.757812 107.105469 C 85.539062 107.019531 85.3125 106.949219 85.082031 106.902344 L 84.808594 106.839844 C 84.503906 106.785156 84.199219 106.757812 83.894531 106.753906 L 76.550781 106.753906 L 76.550781 89.050781 L 83.855469 89.050781 C 84.222656 89.050781 84.585938 89.015625 84.945312 88.945312 C 85.304688 88.871094 85.652344 88.765625 85.992188 88.625 C 86.328125 88.488281 86.652344 88.316406 86.957031 88.113281 C 87.261719 87.910156 87.542969 87.675781 87.800781 87.417969 C 88.0625 87.160156 88.292969 86.878906 88.496094 86.574219 C 88.699219 86.269531 88.875 85.949219 89.015625 85.609375 C 89.15625 85.273438 89.261719 84.921875 89.332031 84.5625 C 89.40625 84.207031 89.441406 83.84375 89.441406 83.476562 L 89.441406 76.148438 L 107.121094 76.148438 L 107.121094 83.476562 C 107.121094 83.800781 107.15625 84.121094 107.21875 84.441406 C 107.21875 84.527344 107.21875 84.628906 107.21875 84.714844 C 107.28125 84.960938 107.355469 85.203125 107.445312 85.441406 L 107.519531 85.65625 C 107.628906 85.921875 107.757812 86.175781 107.910156 86.421875 Z M 107.570312 64.082031 C 107.570312 64.15625 107.570312 64.246094 107.484375 64.332031 C 107.398438 64.5625 107.328125 64.796875 107.269531 65.035156 C 107.269531 65.121094 107.269531 65.222656 107.269531 65.3125 C 107.207031 65.628906 107.171875 65.949219 107.167969 66.273438 L 107.167969 73.605469 L 89.429688 73.605469 L 89.429688 66.3125 C 89.429688 65.945312 89.394531 65.582031 89.320312 65.222656 C 89.25 64.867188 89.140625 64.515625 89 64.179688 C 88.859375 63.839844 88.6875 63.519531 88.484375 63.214844 C 88.28125 62.910156 88.046875 62.628906 87.789062 62.371094 C 87.53125 62.109375 87.246094 61.878906 86.941406 61.675781 C 86.636719 61.472656 86.316406 61.300781 85.976562 61.160156 C 85.640625 61.023438 85.289062 60.917969 84.929688 60.84375 C 84.570312 60.773438 84.210938 60.738281 83.84375 60.738281 L 76.550781 60.738281 L 76.550781 43.964844 L 83.878906 43.964844 C 84.164062 43.964844 84.441406 43.9375 84.71875 43.886719 L 84.933594 43.886719 C 85.183594 43.839844 85.429688 43.777344 85.671875 43.699219 L 85.746094 43.699219 C 86.019531 43.597656 86.28125 43.476562 86.535156 43.335938 L 86.648438 43.273438 C 86.886719 43.148438 87.109375 43 87.3125 42.824219 L 107.960938 63.355469 C 107.8125 63.589844 107.679688 63.832031 107.570312 64.082031 Z M 107.570312 64.082031 " fill-opacity="1" fill-rule="nonzero"/></g></svg>