<svg xmlns="http://www.w3.org/2000/svg" xmlns:xlink="http://www.w3.org/1999/xlink" width="200" zoomAndPan="magnify" viewBox="0 0 150 149.999998" height="200" preserveAspectRatio="xMidYMid meet" version="1.0"><defs><clipPath id="08b6cb247d"><path d="M 27.449219 19.707031 L 122.699219 19.707031 L 122.699219 129.957031 L 27.449219 129.957031 Z M 27.449219 19.707031 " clip-rule="nonzero"/></clipPath></defs><g clip-path="url(#08b6cb247d)"><path fill="#1a2e22" d="M 97.394531 105.101562 C 97.261719 105.492188 97.195312 105.910156 97.195312 106.347656 C 97.195312 108.464844 98.914062 110.183594 101.023438 110.183594 C 103.144531 110.183594 104.863281 108.464844 104.863281 106.347656 C 104.863281 104.230469 103.144531 102.511719 101.023438 102.511719 C 100.351562 102.511719 99.71875 102.683594 99.171875 102.988281 C 98.757812 103.21875 98.394531 103.523438 98.085938 103.878906 C 97.785156 104.238281 97.546875 104.652344 97.394531 105.101562 Z M 65.902344 99.878906 C 65.375 98.410156 63.953125 97.355469 62.304688 97.355469 C 60.179688 97.355469 58.460938 99.074219 58.460938 101.191406 C 58.460938 103.308594 60.179688 105.027344 62.304688 105.027344 C 63.90625 105.027344 65.277344 104.039062 65.855469 102.640625 C 66.027344 102.214844 66.125 101.75 66.132812 101.265625 C 66.132812 101.238281 66.132812 101.214844 66.132812 101.191406 C 66.132812 100.730469 66.054688 100.289062 65.902344 99.878906 Z M 46.757812 81.925781 C 46.214844 80.492188 44.8125 79.472656 43.179688 79.472656 C 41.066406 79.472656 39.351562 81.191406 39.351562 83.308594 C 39.351562 85.425781 41.070312 87.144531 43.179688 87.144531 C 44.8125 87.144531 46.214844 86.121094 46.757812 84.6875 C 46.933594 84.257812 47.019531 83.792969 47.019531 83.308594 C 47.019531 82.820312 46.933594 82.355469 46.757812 81.925781 Z M 102.328125 91.011719 C 102.886719 92.449219 104.277344 93.46875 105.90625 93.46875 C 108.027344 93.46875 109.746094 91.75 109.746094 89.632812 C 109.746094 87.515625 108.027344 85.796875 105.90625 85.796875 C 104.277344 85.796875 102.886719 86.816406 102.328125 88.253906 C 102.164062 88.683594 102.078125 89.148438 102.078125 89.632812 C 102.078125 90.121094 102.167969 90.585938 102.328125 91.011719 Z M 63.40625 70.015625 C 62.847656 68.578125 61.457031 67.558594 59.828125 67.558594 C 57.714844 67.558594 55.996094 69.277344 55.996094 71.394531 C 55.996094 73.511719 57.714844 75.230469 59.828125 75.230469 C 61.457031 75.230469 62.851562 74.210938 63.40625 72.773438 C 63.578125 72.347656 63.664062 71.882812 63.664062 71.394531 C 63.664062 70.910156 63.578125 70.441406 63.40625 70.015625 Z M 94.96875 89.632812 L 94.96875 84.710938 L 82.625 84.710938 L 82.625 97.175781 L 94.96875 97.175781 Z M 80.003906 99.273438 C 79.886719 99.070312 79.820312 98.832031 79.820312 98.578125 L 79.820312 95.488281 L 75.441406 99.859375 L 67.371094 99.859375 C 67.476562 100.285156 67.542969 100.730469 67.542969 101.1875 C 67.542969 101.699219 67.46875 102.199219 67.332031 102.664062 L 76.027344 102.664062 C 76.402344 102.664062 76.757812 102.519531 77.015625 102.253906 Z M 96.175781 99.984375 L 92.203125 99.984375 L 96.300781 104.078125 C 96.714844 103.21875 97.355469 102.484375 98.152344 101.964844 Z M 93.488281 81.90625 L 96.367188 81.90625 C 96.675781 81.90625 96.960938 82 97.191406 82.167969 L 98.921875 80.441406 C 98.054688 80.035156 97.316406 79.394531 96.789062 78.609375 Z M 97.777344 88.226562 L 97.777344 91.035156 L 100.859375 91.035156 C 100.734375 90.585938 100.667969 90.117188 100.667969 89.632812 C 100.667969 89.144531 100.734375 88.675781 100.859375 88.226562 Z M 99.949219 79.34375 C 100.324219 79.46875 100.726562 79.53125 101.140625 79.53125 C 103.261719 79.53125 104.980469 77.8125 104.980469 75.695312 C 104.980469 73.578125 103.261719 71.859375 101.140625 71.859375 C 99.027344 71.859375 97.308594 73.578125 97.308594 75.695312 C 97.308594 76.386719 97.492188 77.035156 97.808594 77.59375 C 98.039062 78.003906 98.355469 78.367188 98.714844 78.664062 C 99.074219 78.960938 99.488281 79.191406 99.949219 79.34375 Z M 85.40625 81.90625 L 89.378906 81.90625 L 77.867188 70.402344 C 77.609375 70.140625 77.253906 69.992188 76.878906 69.992188 L 64.875 69.992188 C 65 70.4375 65.066406 70.910156 65.066406 71.394531 C 65.066406 71.882812 65 72.351562 64.875 72.796875 L 76.296875 72.796875 Z M 48.230469 81.90625 C 48.355469 82.351562 48.421875 82.820312 48.421875 83.308594 C 48.421875 83.792969 48.355469 84.261719 48.230469 84.710938 L 79.820312 84.710938 L 79.820312 83.308594 C 79.820312 82.53125 80.445312 81.90625 81.222656 81.90625 Z M 82.667969 117.804688 C 83.265625 118.308594 83.871094 118.847656 84.445312 119.421875 C 86.75 121.699219 88.660156 124.480469 89.128906 127.480469 L 95.953125 127.480469 L 92.375 115.882812 C 90.964844 116.464844 87.105469 117.855469 82.667969 117.804688 Z M 47.796875 60.578125 C 47.796875 60.578125 48.710938 60.035156 48.941406 59.90625 C 52.101562 58.0625 56.714844 57.097656 63.414062 58.871094 L 63.414062 49.863281 C 63.414062 49.453125 63.183594 49.078125 62.820312 48.789062 C 62.34375 48.402344 61.679688 48.203125 60.996094 48.203125 L 56.78125 48.203125 C 54.835938 48.203125 53.070312 47.261719 52.195312 45.867188 C 51.195312 44.289062 51.371094 42.394531 52.671875 40.96875 L 70.558594 21.414062 C 71.519531 20.359375 73.042969 19.707031 74.664062 19.707031 C 76.296875 19.707031 77.8125 20.359375 78.78125 21.414062 L 96.664062 40.96875 C 97.972656 42.394531 98.144531 44.289062 97.144531 45.867188 C 96.261719 47.265625 94.503906 48.203125 92.554688 48.203125 L 85.921875 48.203125 L 85.921875 56.179688 C 84.984375 55.746094 84.03125 55.394531 83.089844 55.097656 C 73.617188 52.351562 66.359375 59.785156 66.359375 59.785156 C 68.480469 58.296875 75.402344 54.09375 83.109375 56.511719 L 85.921875 57.6875 C 87.910156 58.742188 89.925781 60.292969 91.882812 62.5 C 93.535156 62.410156 97.652344 62.339844 101.730469 63.585938 L 104.542969 64.671875 C 108.824219 66.730469 112.441406 70.59375 112.464844 77.777344 C 112.636719 77.863281 112.808594 77.953125 112.980469 78.054688 L 112.980469 76.917969 C 112.808594 76.816406 113.644531 67.878906 104.546875 63.535156 C 103.566406 63.0625 102.636719 62.683594 101.734375 62.359375 L 101.734375 57.015625 C 101.722656 56.996094 101.675781 56.949219 101.648438 56.925781 C 101.464844 56.789062 101.21875 56.726562 100.957031 56.726562 L 98.546875 56.726562 C 97.222656 56.726562 96.042969 56.089844 95.4375 55.183594 C 95.253906 54.90625 95.128906 54.613281 95.050781 54.316406 L 94.976562 53.84375 L 94.984375 53.367188 C 95.042969 52.777344 95.304688 52.195312 95.78125 51.699219 L 105.996094 41.082031 C 106.648438 40.40625 107.664062 39.96875 108.757812 39.96875 C 109.863281 39.96875 110.882812 40.402344 111.53125 41.082031 L 121.734375 51.699219 C 122.214844 52.195312 122.476562 52.777344 122.542969 53.367188 L 122.550781 53.84375 L 122.476562 54.316406 C 122.398438 54.613281 122.273438 54.90625 122.082031 55.183594 C 121.488281 56.089844 120.296875 56.726562 118.972656 56.726562 L 115.785156 56.726562 L 115.785156 80.441406 C 116.304688 81.035156 116.792969 81.699219 117.242188 82.433594 C 120.855469 88.289062 122.128906 98.441406 112.339844 107.441406 C 112.136719 109.453125 111.0625 113.761719 107.078125 116.058594 C 104.613281 117.472656 100.976562 118.171875 95.609375 116.855469 L 99.191406 128.472656 C 99.324219 128.898438 99.246094 129.359375 98.976562 129.71875 C 98.71875 130.078125 98.296875 130.285156 97.855469 130.285156 L 87.835938 130.285156 C 87.058594 130.285156 86.433594 129.65625 86.433594 128.882812 C 86.433594 126.066406 84.589844 123.515625 82.46875 121.417969 C 79.648438 118.617188 76.230469 116.636719 75.125 116.035156 C 74.992188 115.964844 74.855469 115.890625 74.722656 115.816406 C 72.898438 114.804688 71.152344 113.351562 69.613281 111.289062 C 67.992188 111.609375 64.527344 112.132812 60.851562 111.671875 C 55.8125 111.035156 50.417969 108.609375 48.410156 101.65625 C 44.273438 101.660156 30.875 100.523438 29.445312 85.671875 C 29.445312 85.640625 29.445312 85.605469 29.445312 85.570312 C 29.445312 85.570312 29.300781 77.5625 34.234375 72.53125 L 34.234375 57.015625 C 34.214844 56.996094 34.175781 56.949219 34.148438 56.925781 C 33.964844 56.789062 33.714844 56.726562 33.457031 56.726562 L 31.046875 56.726562 C 29.722656 56.726562 28.53125 56.089844 27.9375 55.183594 C 27.746094 54.90625 27.621094 54.613281 27.542969 54.316406 L 27.46875 53.84375 L 27.476562 53.367188 C 27.542969 52.777344 27.804688 52.195312 28.285156 51.699219 L 38.488281 41.082031 C 39.140625 40.40625 40.15625 39.96875 41.261719 39.96875 C 42.355469 39.96875 43.375 40.402344 44.023438 41.082031 L 54.238281 51.699219 C 54.714844 52.195312 54.976562 52.777344 55.035156 53.367188 L 55.042969 53.84375 L 54.96875 54.316406 C 54.890625 54.613281 54.765625 54.90625 54.582031 55.183594 C 53.976562 56.089844 52.796875 56.726562 51.472656 56.726562 L 48.285156 56.726562 L 48.285156 59.558594 L 46.90625 60.449219 C 43.648438 62.683594 42.222656 66.710938 41.847656 68.007812 C 38.476562 68.460938 37.035156 70.375 37.035156 70.375 C 38.503906 69.550781 40.25 68.949219 42.335938 68.691406 C 42.71875 67.359375 44.179688 62.980469 47.796875 60.578125 Z M 47.796875 60.578125 " fill-opacity="1" fill-rule="evenodd"/></g></svg>