<svg xmlns="http://www.w3.org/2000/svg" xmlns:xlink="http://www.w3.org/1999/xlink" width="200" zoomAndPan="magnify" viewBox="0 0 150 149.999998" height="200" preserveAspectRatio="xMidYMid meet" version="1.0"><defs><clipPath id="5458283394"><path d="M 17.539062 19.695312 L 132.289062 19.695312 L 132.289062 129.945312 L 17.539062 129.945312 Z M 17.539062 19.695312 " clip-rule="nonzero"/></clipPath></defs><g clip-path="url(#5458283394)"><path fill="#1a2e22" d="M 85.210938 82.777344 C 92.859375 75.128906 105.261719 75.128906 112.910156 82.777344 C 119.96875 89.835938 120.511719 100.949219 114.539062 108.628906 L 114.542969 108.625 L 116.476562 110.5625 L 112.996094 114.039062 L 111.0625 112.105469 L 111.066406 112.101562 C 103.382812 118.074219 92.273438 117.535156 85.210938 110.472656 C 77.566406 102.828125 77.566406 90.425781 85.210938 82.777344 Z M 67.835938 22.753906 C 79.410156 22.753906 90.171875 26.226562 99.132812 32.1875 C 107.804688 37.957031 114.796875 46.0625 119.214844 55.601562 L 96.917969 61.605469 L 86.007812 64.542969 C 88.738281 67.890625 90.476562 71.90625 91.054688 76.171875 L 100.644531 70.082031 L 121.632812 56.75 L 121.652344 56.738281 L 121.828125 56.625 L 121.875 56.59375 L 121.894531 56.582031 L 121.914062 56.566406 L 121.917969 56.566406 L 121.933594 56.554688 L 121.9375 56.554688 L 121.953125 56.542969 L 121.957031 56.539062 L 121.972656 56.527344 L 121.976562 56.527344 L 121.996094 56.507812 L 122.007812 56.5 L 122.023438 56.484375 L 122.03125 56.480469 L 122.042969 56.472656 L 122.074219 56.441406 L 122.085938 56.433594 L 122.09375 56.429688 L 122.117188 56.40625 L 122.125 56.402344 L 122.132812 56.390625 L 122.164062 56.359375 L 122.167969 56.359375 L 122.179688 56.347656 L 122.179688 56.34375 L 122.191406 56.332031 L 122.195312 56.332031 L 122.242188 56.269531 L 122.253906 56.257812 L 122.253906 56.253906 L 122.261719 56.242188 L 122.265625 56.238281 L 122.273438 56.226562 L 122.273438 56.222656 L 122.28125 56.210938 L 122.285156 56.207031 L 122.292969 56.195312 L 122.296875 56.191406 L 122.300781 56.179688 L 122.308594 56.164062 L 122.316406 56.15625 L 122.320312 56.148438 L 122.324219 56.136719 L 122.328125 56.132812 L 122.332031 56.121094 L 122.335938 56.117188 L 122.339844 56.105469 L 122.34375 56.097656 L 122.347656 56.085938 L 122.347656 56.082031 L 122.351562 56.070312 L 122.355469 56.066406 L 122.359375 56.054688 L 122.359375 56.050781 L 122.363281 56.035156 L 122.367188 56.035156 L 122.371094 56.019531 L 122.375 56 L 122.386719 55.953125 L 122.390625 55.933594 L 122.390625 55.917969 L 122.394531 55.90625 L 122.394531 55.863281 L 122.398438 55.851562 L 122.398438 55.785156 L 122.394531 55.765625 L 122.394531 55.722656 L 122.386719 55.691406 L 122.386719 55.6875 L 122.382812 55.671875 L 122.378906 55.636719 L 122.375 55.632812 L 122.371094 55.617188 L 122.371094 55.613281 L 122.367188 55.597656 L 122.363281 55.578125 L 122.359375 55.578125 L 122.355469 55.5625 C 117.757812 45.035156 110.195312 36.09375 100.722656 29.792969 C 91.304688 23.527344 79.996094 19.875 67.84375 19.875 C 67.046875 19.875 66.402344 20.519531 66.402344 21.316406 C 66.398438 22.109375 67.039062 22.753906 67.835938 22.753906 Z M 69.273438 29.113281 C 81.753906 29.460938 93.089844 34.363281 101.691406 42.210938 L 89.582031 54.320312 L 89.53125 54.375 C 84.058594 49.617188 77.011719 46.628906 69.273438 46.296875 Z M 67.835938 65.109375 C 71.6875 65.109375 74.8125 68.234375 74.8125 72.089844 C 74.8125 75.941406 71.691406 79.066406 67.835938 79.066406 C 63.980469 79.066406 60.859375 75.941406 60.859375 72.089844 C 60.859375 68.234375 63.980469 65.109375 67.835938 65.109375 Z M 79.425781 87.164062 C 76.582031 83.972656 72.445312 81.960938 67.835938 81.960938 C 61.65625 81.960938 56.316406 85.578125 53.824219 90.8125 C 51.261719 87.6875 49.726562 83.691406 49.726562 79.339844 C 49.726562 74.335938 51.753906 69.808594 55.03125 66.53125 C 58.308594 63.253906 62.835938 61.226562 67.835938 61.226562 C 72.835938 61.226562 77.367188 63.257812 80.644531 66.53125 C 83.894531 69.78125 85.914062 74.265625 85.945312 79.21875 C 86.839844 78.542969 87.773438 77.945312 88.742188 77.425781 C 88.285156 72.394531 86.054688 67.871094 82.679688 64.496094 C 78.878906 60.699219 73.632812 58.347656 67.835938 58.347656 C 62.039062 58.347656 56.792969 60.699219 52.996094 64.496094 C 49.195312 68.292969 46.847656 73.542969 46.847656 79.339844 C 46.847656 85.132812 49.195312 90.382812 52.996094 94.179688 C 56.792969 97.980469 62.042969 100.328125 67.839844 100.328125 C 71.25 100.328125 74.46875 99.515625 77.316406 98.070312 C 77.070312 94.355469 77.773438 90.585938 79.425781 87.164062 Z M 103.761719 44.210938 C 106.980469 47.5 109.746094 51.230469 111.96875 55.300781 L 94.644531 59.964844 C 93.71875 58.691406 92.707031 57.484375 91.617188 56.355469 Z M 115.453125 63.25 L 100.28125 72.886719 C 100.414062 73.546875 100.523438 74.214844 100.613281 74.886719 C 104.773438 75.183594 108.867188 76.664062 112.335938 79.339844 L 118.082031 79.339844 C 118.082031 73.710938 117.15625 68.300781 115.453125 63.25 Z M 66.398438 46.296875 C 58.347656 46.640625 51.042969 49.863281 45.488281 54.957031 L 45.464844 54.933594 L 33.339844 42.804688 C 42.015625 34.609375 53.609375 29.472656 66.398438 29.113281 Z M 43.453125 56.992188 L 43.429688 56.96875 L 31.304688 44.839844 C 22.800781 53.839844 17.589844 65.980469 17.589844 79.335938 L 34.761719 79.335938 C 34.761719 70.722656 38.054688 62.875 43.453125 56.992188 Z M 90.777344 90.632812 C 90.015625 90.632812 89.394531 91.253906 89.394531 92.019531 L 89.394531 99.359375 L 88.433594 99.359375 C 87.636719 99.359375 86.992188 100.003906 86.992188 100.800781 C 86.992188 101.597656 87.636719 102.242188 88.433594 102.242188 L 109.691406 102.242188 C 110.484375 102.242188 111.128906 101.597656 111.128906 100.800781 C 111.128906 100.003906 110.484375 99.359375 109.691406 99.359375 L 108.730469 99.359375 L 108.730469 88.902344 C 108.730469 88.136719 108.105469 87.515625 107.34375 87.515625 L 104.964844 87.515625 C 104.203125 87.515625 103.582031 88.136719 103.582031 88.902344 L 103.582031 99.359375 L 101.636719 99.359375 L 101.636719 95.140625 C 101.636719 94.378906 101.015625 93.757812 100.25 93.757812 L 97.871094 93.757812 C 97.109375 93.757812 96.488281 94.378906 96.488281 95.140625 L 96.488281 99.359375 L 94.542969 99.359375 L 94.542969 92.019531 C 94.542969 91.253906 93.921875 90.632812 93.15625 90.632812 Z M 131.105469 128.671875 C 132.453125 127.324219 132.453125 125.121094 131.105469 123.773438 L 119.105469 111.773438 C 118.890625 111.558594 118.542969 111.558594 118.332031 111.773438 L 114.207031 115.894531 C 113.996094 116.105469 113.996094 116.453125 114.207031 116.667969 L 126.210938 128.671875 C 127.558594 130.019531 129.757812 130.019531 131.105469 128.671875 Z M 88.304688 85.867188 C 82.363281 91.808594 82.359375 101.445312 88.304688 107.386719 C 94.246094 113.328125 103.878906 113.328125 109.820312 107.386719 C 115.761719 101.445312 115.761719 91.808594 109.820312 85.867188 C 103.878906 79.925781 94.242188 79.925781 88.304688 85.867188 Z M 88.304688 85.867188 " fill-opacity="1" fill-rule="evenodd"/></g></svg>