<svg xmlns="http://www.w3.org/2000/svg" xmlns:xlink="http://www.w3.org/1999/xlink" width="500" zoomAndPan="magnify" viewBox="0 0 375 374.999991" height="500" preserveAspectRatio="xMidYMid meet" version="1.0"><defs><clipPath id="41d3f75013"><path d="M 49 46.230469 L 326 46.230469 L 326 228 L 49 228 Z M 49 46.230469 " clip-rule="nonzero"/></clipPath><clipPath id="460ce9f2f4"><path d="M 160.410156 46.929688 C 154.273438 47.9375 148.339844 49.90625 142.375 52.921875 C 129.308594 59.523438 119.746094 69.542969 113.613281 83.054688 C 109.695312 91.695312 108.589844 96.722656 108.246094 107.480469 C 107.945312 117.042969 108.324219 120.558594 110.488281 128.25 C 111.125 130.511719 111.535156 132.480469 111.398438 132.621094 C 111.265625 132.761719 109.363281 132.429688 107.171875 131.890625 C 102.144531 130.644531 92.300781 130.5 87.019531 131.59375 C 77.128906 133.640625 69.609375 137.929688 62.09375 145.8125 C 46.511719 162.152344 44.613281 188.0625 57.609375 207.140625 C 64.539062 217.320312 75.773438 224.667969 87.886719 226.949219 C 94.257812 228.152344 280.695312 228.160156 287.117188 226.957031 C 305.972656 223.433594 321.023438 208.183594 325.042969 188.523438 C 326.113281 183.296875 325.773438 172.203125 324.375 166.808594 C 323.859375 164.824219 322.289062 160.765625 320.882812 157.792969 C 316.277344 148.050781 309.472656 140.953125 300.113281 136.121094 C 294.867188 133.414062 287.324219 131.046875 283.945312 131.046875 C 281.511719 131.046875 281.296875 130.710938 282.246094 128.34375 C 282.6875 127.242188 283.335938 124.414062 283.6875 122.058594 C 286.359375 104.152344 270.964844 86.582031 252.46875 86.429688 C 244.949219 86.367188 238.683594 88.597656 233.308594 93.25 C 231.824219 94.535156 230.484375 95.589844 230.332031 95.589844 C 230.183594 95.589844 229.488281 93.628906 228.792969 91.230469 C 222.8125 70.675781 205.722656 53.875 185.191406 48.371094 C 178.707031 46.628906 166.539062 45.925781 160.410156 46.929688 Z M 160.410156 46.929688 " clip-rule="evenodd"/></clipPath><clipPath id="87ceb4944f"><path d="M 48.796875 136 L 326 136 L 326 328.980469 L 48.796875 328.980469 Z M 48.796875 136 " clip-rule="nonzero"/></clipPath><clipPath id="5463e212c5"><path d="M 214 328.253906 C 220.132812 327.183594 226.066406 325.09375 232.023438 321.894531 C 245.085938 314.882812 254.644531 304.25 260.777344 289.902344 C 264.695312 280.734375 265.800781 275.398438 266.140625 263.976562 C 266.445312 253.824219 266.066406 250.09375 263.902344 241.929688 C 263.265625 239.527344 262.855469 237.441406 262.988281 237.292969 C 263.125 237.140625 265.027344 237.492188 267.214844 238.066406 C 272.242188 239.386719 282.082031 239.539062 287.359375 238.378906 C 297.246094 236.207031 304.761719 231.65625 312.277344 223.289062 C 327.855469 205.941406 329.75 178.4375 316.761719 158.183594 C 309.832031 147.382812 298.601562 139.578125 286.496094 137.15625 C 280.125 135.882812 93.757812 135.875 87.339844 137.148438 C 68.492188 140.890625 53.449219 157.078125 49.425781 177.945312 C 48.359375 183.5 48.699219 195.273438 50.097656 201 C 50.613281 203.105469 52.183594 207.410156 53.589844 210.570312 C 58.191406 220.910156 64.992188 228.445312 74.351562 233.574219 C 79.59375 236.445312 87.132812 238.960938 90.507812 238.960938 C 92.945312 238.960938 93.15625 239.320312 92.207031 241.828125 C 91.765625 242.996094 91.117188 246 90.765625 248.5 C 88.097656 267.507812 103.488281 286.160156 121.972656 286.320312 C 129.492188 286.386719 135.753906 284.019531 141.128906 279.082031 C 142.613281 277.71875 143.953125 276.601562 144.101562 276.601562 C 144.253906 276.601562 144.945312 278.679688 145.640625 281.226562 C 151.621094 303.046875 168.703125 320.878906 189.226562 326.722656 C 195.707031 328.570312 207.871094 329.320312 214 328.253906 Z M 214 328.253906 " clip-rule="evenodd"/></clipPath><clipPath id="d3e4f72644"><path d="M 110 106 L 265 106 L 265 269 L 110 269 Z M 110 106 " clip-rule="nonzero"/></clipPath><clipPath id="78547dd307"><path d="M 182.390625 106.679688 C 181.78125 106.957031 181.394531 107.417969 181.003906 108.332031 C 180.402344 109.757812 180.324219 107.933594 181.949219 130.484375 C 182.289062 135.191406 182.753906 141.8125 182.984375 145.195312 C 183.210938 148.578125 183.453125 151.613281 183.515625 151.941406 C 183.628906 152.527344 183.671875 152.53125 187.546875 152.4375 L 191.460938 152.335938 L 192.285156 141.410156 C 192.738281 135.402344 193.46875 125.769531 193.910156 120.003906 L 194.714844 109.523438 L 194.191406 108.292969 C 193.414062 106.464844 192.785156 106.277344 187.550781 106.289062 C 184.394531 106.296875 183.011719 106.402344 182.390625 106.679688 Z M 164.21875 109.796875 C 162.191406 110.503906 158.4375 112.039062 157.324219 112.617188 C 155.855469 113.378906 155.210938 114.617188 155.453125 116.199219 C 155.582031 117.03125 157.625 122.105469 158.441406 123.613281 C 158.574219 123.863281 159.101562 125.027344 159.613281 126.203125 C 160.574219 128.40625 164.78125 137.867188 169.585938 148.628906 C 171.085938 151.988281 172.316406 154.839844 172.316406 154.964844 C 172.316406 155.539062 172.992188 155.453125 175.203125 154.589844 C 176.511719 154.078125 178.160156 153.515625 178.867188 153.335938 C 179.574219 153.152344 180.183594 152.984375 180.21875 152.957031 C 180.253906 152.929688 180.113281 152.375 179.914062 151.726562 C 179.710938 151.078125 178.210938 145.730469 176.582031 139.84375 C 168 108.855469 168.832031 111.605469 167.699219 110.492188 C 166.613281 109.421875 165.78125 109.253906 164.21875 109.796875 Z M 207.164062 110.300781 C 206.675781 110.75 206.097656 111.625 205.878906 112.242188 C 205.664062 112.859375 203.390625 121.1875 200.832031 130.75 C 198.273438 140.3125 195.894531 149.203125 195.542969 150.507812 C 195.195312 151.8125 194.953125 152.929688 195.011719 152.988281 C 195.066406 153.050781 195.914062 153.328125 196.886719 153.613281 C 197.859375 153.894531 199.496094 154.484375 200.515625 154.925781 L 202.375 155.726562 L 202.863281 154.605469 C 204.644531 150.5 215.792969 125.128906 218.398438 119.25 C 219.652344 116.421875 219.839844 114.515625 218.960938 113.488281 C 218.332031 112.75 216.21875 111.722656 212.699219 110.449219 C 209.359375 109.238281 208.359375 109.214844 207.164062 110.300781 Z M 230.117188 121.863281 C 229.597656 122.226562 227.5625 124.917969 225.113281 128.484375 C 211.53125 148.265625 205.65625 156.933594 205.628906 157.222656 C 205.609375 157.402344 206.425781 158.199219 207.4375 158.992188 C 208.449219 159.789062 209.800781 160.953125 210.441406 161.578125 C 211.082031 162.203125 211.699219 162.699219 211.816406 162.679688 C 211.929688 162.660156 213.527344 161.003906 215.363281 158.996094 C 217.199219 156.992188 220.265625 153.667969 222.175781 151.609375 C 239.972656 132.429688 240.128906 132.25 240.640625 131.238281 C 241.023438 130.480469 241.003906 128.769531 240.605469 128.042969 C 240.222656 127.347656 238.164062 125.394531 235.320312 123.035156 C 233.433594 121.46875 233.042969 121.257812 232.082031 121.257812 C 231.371094 121.257812 230.683594 121.46875 230.117188 121.863281 Z M 141.5625 121.867188 C 140.644531 122.40625 135.921875 126.554688 134.941406 127.6875 C 133.878906 128.910156 133.722656 130.195312 134.46875 131.617188 C 134.894531 132.421875 141.507812 139.617188 153.960938 152.816406 C 156.945312 155.980469 160.222656 159.496094 161.246094 160.625 L 163.105469 162.683594 L 164.945312 161.0625 C 165.960938 160.167969 167.398438 159.015625 168.140625 158.5 C 168.878906 157.980469 169.488281 157.507812 169.488281 157.445312 C 169.488281 157.316406 166.632812 153.125 164.566406 150.214844 C 163.808594 149.148438 162.554688 147.359375 161.777344 146.234375 C 159.453125 142.875 155.519531 137.230469 150.253906 129.695312 C 146.273438 123.996094 145.085938 122.476562 144.289062 122.050781 C 143.15625 121.453125 142.363281 121.398438 141.5625 121.867188 Z M 244.660156 142.71875 C 242.753906 144.082031 238.964844 146.832031 236.246094 148.832031 C 233.523438 150.832031 227.539062 155.210938 222.945312 158.558594 C 218.351562 161.910156 214.441406 164.796875 214.253906 164.980469 C 213.980469 165.25 214.167969 165.671875 215.28125 167.289062 C 216.035156 168.378906 216.996094 169.960938 217.417969 170.808594 C 217.84375 171.652344 218.28125 172.34375 218.390625 172.34375 C 218.910156 172.34375 254.773438 153.476562 255.386719 152.875 C 256.210938 152.074219 256.726562 150.640625 256.507812 149.746094 C 256.335938 149.027344 253.761719 144.234375 252.519531 142.324219 C 251.429688 140.640625 250.828125 140.246094 249.359375 140.246094 C 248.230469 140.246094 247.847656 140.449219 244.660156 142.71875 Z M 124.082031 140.898438 C 123.777344 141.128906 123.261719 141.765625 122.941406 142.320312 C 122.617188 142.871094 122.285156 143.382812 122.199219 143.457031 C 121.941406 143.683594 119.160156 148.894531 118.875 149.6875 C 118.578125 150.507812 119 151.9375 119.832031 152.917969 C 120.214844 153.371094 125.449219 156.117188 136.078125 161.445312 C 137.703125 162.257812 141.921875 164.394531 145.457031 166.191406 C 153.253906 170.15625 156.609375 171.808594 156.84375 171.804688 C 156.945312 171.804688 157.503906 170.925781 158.089844 169.855469 C 158.675781 168.785156 159.5625 167.351562 160.066406 166.667969 C 160.800781 165.667969 160.910156 165.371094 160.632812 165.132812 C 160.445312 164.972656 157.648438 162.925781 154.417969 160.585938 C 151.1875 158.25 148.019531 155.953125 147.386719 155.488281 C 143.195312 152.421875 136.574219 147.605469 134.355469 146.011719 C 132.914062 144.972656 130.671875 143.351562 129.367188 142.410156 C 126.746094 140.511719 125.1875 140.0625 124.082031 140.898438 Z M 114.230469 163.332031 C 112.929688 163.96875 112.679688 164.644531 111.164062 171.59375 C 110.542969 174.441406 111.03125 176 112.8125 176.871094 C 113.457031 177.1875 115.734375 177.640625 118.855469 178.078125 C 121.613281 178.460938 124.96875 178.953125 126.3125 179.167969 C 128.71875 179.554688 133.625 180.296875 145.714844 182.117188 C 149.105469 182.625 152.253906 183.109375 152.707031 183.1875 C 153.488281 183.324219 153.535156 183.28125 153.691406 182.316406 C 153.871094 181.203125 154.960938 176.742188 155.21875 176.058594 C 155.417969 175.527344 155.316406 175.488281 149.183594 173.535156 C 146.570312 172.703125 139.976562 170.585938 134.535156 168.828125 C 129.09375 167.066406 123.308594 165.203125 121.683594 164.6875 C 120.058594 164.167969 118.214844 163.570312 117.589844 163.363281 C 116.242188 162.910156 115.113281 162.902344 114.230469 163.332031 Z M 238.878906 169.585938 C 228.347656 172.902344 219.703125 175.644531 219.664062 175.679688 C 219.625 175.714844 219.828125 176.511719 220.117188 177.453125 C 220.402344 178.394531 220.808594 180.179688 221.023438 181.417969 C 221.234375 182.65625 221.457031 183.722656 221.519531 183.785156 C 221.636719 183.910156 224.621094 183.488281 247.726562 180.085938 C 260.605469 178.1875 262.199219 177.902344 263.042969 177.320312 C 263.5625 176.964844 264.136719 176.292969 264.320312 175.828125 C 264.707031 174.855469 264.492188 173.246094 263.285156 168.070312 C 262.671875 165.453125 262.449219 164.886719 261.769531 164.257812 C 260.277344 162.871094 260.011719 162.933594 238.878906 169.585938 Z M 185.292969 165.65625 C 180.398438 166.226562 176.433594 168.136719 172.890625 171.640625 C 170.027344 174.472656 168.125 177.632812 166.917969 181.570312 C 166.042969 184.414062 165.90625 189.859375 166.625 192.996094 C 168.445312 200.929688 173.742188 206.851562 181.308594 209.414062 C 183.292969 210.085938 183.851562 210.152344 187.351562 210.164062 C 191.652344 210.175781 193.179688 209.863281 196.390625 208.320312 C 202.320312 205.472656 206.652344 200.027344 208.300781 193.339844 C 208.976562 190.601562 209.027344 185.882812 208.410156 183.058594 C 206.570312 174.640625 200.386719 168.082031 192.515625 166.199219 C 189.863281 165.566406 187.566406 165.394531 185.292969 165.65625 Z M 113.625 189.320312 C 112.171875 189.855469 111.1875 190.972656 110.734375 192.59375 C 110.402344 193.785156 110.386719 194.410156 110.636719 196.613281 C 111.800781 206.9375 114.261719 215.738281 118.398438 224.367188 C 130.324219 249.25 153.429688 265.855469 179.988281 268.625 C 186.0625 269.257812 195.164062 268.855469 201.355469 267.683594 C 216.554688 264.804688 230.71875 257.070312 241.722656 245.640625 C 252.792969 234.148438 260.109375 219.984375 263.144531 204.171875 C 264.730469 195.902344 264.691406 192.933594 262.960938 190.882812 C 261.234375 188.835938 262.390625 188.941406 240.886719 188.933594 L 221.691406 188.925781 L 221.546875 190.195312 C 221.175781 193.40625 220.585938 196.546875 219.964844 198.59375 C 216.230469 210.894531 206.351562 220.074219 193.902344 222.804688 C 190.84375 223.476562 184.085938 223.46875 181.054688 222.789062 C 177.625 222.023438 175.75 221.355469 172.664062 219.808594 C 167.738281 217.34375 162.90625 213.089844 159.710938 208.410156 C 156.492188 203.691406 153.972656 196.597656 153.628906 191.265625 L 153.476562 188.925781 L 134.046875 188.9375 C 118.222656 188.949219 114.433594 189.019531 113.625 189.320312 Z M 113.625 189.320312 " clip-rule="evenodd"/></clipPath></defs><g clip-path="url(#41d3f75013)"><g clip-path="url(#460ce9f2f4)"><path fill="#1a2e22" d="M 48.796875 46.230469 L 48.796875 228.160156 L 326.113281 228.160156 L 326.113281 46.230469 Z M 48.796875 46.230469 " fill-opacity="1" fill-rule="nonzero"/></g></g><g clip-path="url(#87ceb4944f)"><g clip-path="url(#5463e212c5)"><path fill="#1a2e22" d="M 48.796875 135.875 L 48.796875 328.980469 L 326.296875 328.980469 L 326.296875 135.875 Z M 48.796875 135.875 " fill-opacity="1" fill-rule="nonzero"/></g></g><g clip-path="url(#d3e4f72644)"><g clip-path="url(#78547dd307)"><path fill="#c6f135" d="M 110.386719 106.277344 L 110.386719 269.257812 L 264.730469 269.257812 L 264.730469 106.277344 Z M 110.386719 106.277344 " fill-opacity="1" fill-rule="nonzero"/></g></g></svg>