<svg xmlns="http://www.w3.org/2000/svg" xmlns:xlink="http://www.w3.org/1999/xlink" width="200" zoomAndPan="magnify" viewBox="0 0 150 157.92" height="200" preserveAspectRatio="xMidYMid meet" version="1.0"><defs><clipPath id="6bc8c19d15"><path d="M 12.21875 23.324219 L 138 23.324219 L 138 126.769531 L 12.21875 126.769531 Z M 12.21875 23.324219 " clip-rule="nonzero"/></clipPath></defs><path fill="#c6f135" d="M 107.691406 90.082031 C 108.671875 88.914062 110.144531 88.167969 111.792969 88.167969 C 114.746094 88.167969 117.144531 90.566406 117.144531 93.523438 C 117.144531 96.480469 114.746094 98.878906 111.792969 98.878906 C 108.835938 98.878906 106.4375 96.480469 106.4375 93.523438 C 106.4375 92.214844 106.90625 91.015625 107.691406 90.082031 Z M 39.859375 84.96875 C 39.859375 84.96875 15.992188 87.136719 13.824219 64.476562 C 13.824219 64.476562 13.34375 43.984375 31.421875 42.78125 C 31.421875 42.78125 35.28125 20.117188 63.730469 30.726562 C 63.730469 30.726562 82.292969 15.539062 98.203125 34.34375 C 98.203125 34.34375 126.796875 31.242188 125.769531 54.980469 C 133.527344 57.078125 144.722656 77.253906 125.6875 94.128906 C 125.652344 97.25 123.042969 112.503906 101.289062 105.308594 C 100.753906 105.132812 100.207031 104.945312 99.648438 104.738281 C 99.648438 104.738281 96.328125 106.339844 91.660156 107.144531 L 86.929688 98.878906 L 94.71875 91.089844 L 94.71875 86.355469 L 106.644531 78.300781 L 107.066406 70.195312 L 113.257812 70.195312 C 113.257812 73.152344 115.65625 75.550781 118.609375 75.550781 C 121.566406 75.550781 123.964844 73.152344 123.964844 70.195312 C 123.964844 67.238281 121.566406 64.839844 118.609375 64.839844 C 115.65625 64.839844 113.257812 67.238281 113.257812 70.195312 L 107.066406 70.195312 L 107.4375 62.996094 L 102.285156 61.164062 L 108.5625 54.886719 C 109.488281 55.644531 110.667969 56.097656 111.953125 56.097656 C 114.90625 56.097656 117.304688 53.699219 117.304688 50.746094 C 117.304688 47.789062 114.90625 45.390625 111.953125 45.390625 C 108.996094 45.390625 106.597656 47.789062 106.597656 50.746094 C 106.597656 52.414062 107.363281 53.90625 108.5625 54.886719 L 102.285156 61.164062 L 93.460938 58.03125 L 91.925781 58.578125 L 78.085938 44.734375 L 59.632812 44.734375 C 59.632812 41.78125 57.234375 39.382812 54.277344 39.382812 C 51.320312 39.382812 48.921875 41.78125 48.921875 44.734375 C 48.921875 47.691406 51.320312 50.089844 54.277344 50.089844 C 57.234375 50.089844 59.632812 47.691406 59.632812 44.734375 L 78.085938 44.734375 L 91.925781 58.578125 L 84.070312 61.367188 L 36.402344 61.367188 C 36.402344 58.410156 34.003906 56.011719 31.046875 56.011719 C 28.089844 56.011719 25.691406 58.410156 25.691406 61.367188 C 25.691406 64.324219 28.089844 66.722656 31.046875 66.722656 C 34.003906 66.722656 36.402344 64.320312 36.402344 61.367188 L 84.074219 61.367188 L 79.488281 62.996094 L 80.445312 78.300781 L 83.167969 80.160156 L 76.894531 86.433594 L 63.089844 86.433594 C 63.089844 86.398438 63.089844 86.363281 63.089844 86.328125 C 63.089844 83.371094 60.6875 80.972656 57.734375 80.972656 C 54.777344 80.972656 52.378906 83.371094 52.378906 86.328125 C 52.378906 89.28125 54.777344 91.683594 57.734375 91.683594 C 60.65625 91.683594 63.03125 89.339844 63.089844 86.433594 L 76.894531 86.433594 L 83.167969 80.160156 L 93.464844 87.199219 L 94.722656 86.351562 L 94.722656 91.089844 L 86.933594 98.875 L 91.664062 107.140625 C 87.269531 107.898438 81.679688 107.953125 76.542969 105.304688 C 76.214844 105.125 76.03125 105.03125 76.03125 105.03125 C 73.414062 103.582031 70.925781 101.40625 68.792969 98.230469 C 68.789062 98.226562 44.199219 104.738281 39.859375 84.96875 Z M 39.859375 84.96875 " fill-opacity="1" fill-rule="evenodd"/><path fill="#c6f135" d="M 107.691406 90.082031 C 108.671875 88.914062 110.144531 88.167969 111.792969 88.167969 C 114.746094 88.167969 117.144531 90.566406 117.144531 93.523438 C 117.144531 96.480469 114.746094 98.878906 111.792969 98.878906 C 108.835938 98.878906 106.4375 96.480469 106.4375 93.523438 C 106.4375 92.214844 106.90625 91.015625 107.691406 90.082031 Z M 107.691406 90.082031 " fill-opacity="1" fill-rule="evenodd"/><path fill="#c6f135" d="M 59.636719 44.734375 C 59.636719 47.6875 57.238281 50.089844 54.28125 50.089844 C 51.324219 50.089844 48.925781 47.6875 48.925781 44.734375 C 48.925781 41.777344 51.324219 39.378906 54.28125 39.378906 C 57.238281 39.378906 59.636719 41.777344 59.636719 44.734375 Z M 59.636719 44.734375 " fill-opacity="1" fill-rule="evenodd"/><path fill="#c6f135" d="M 76.539062 105.304688 C 79.40625 106.878906 93.378906 115.039062 93.378906 124.988281 L 107.359375 124.988281 L 101.285156 105.308594 C 100.75 105.132812 100.203125 104.945312 99.644531 104.738281 C 99.644531 104.738281 96.324219 106.339844 91.65625 107.144531 C 87.261719 107.898438 81.675781 107.953125 76.539062 105.304688 Z M 76.539062 105.304688 " fill-opacity="1" fill-rule="evenodd"/><path fill="#c6f135" d="M 76.539062 105.304688 C 76.367188 105.214844 76.195312 105.125 76.027344 105.03125 C 76.027344 105.03125 76.207031 105.125 76.539062 105.304688 Z M 76.539062 105.304688 " fill-opacity="1" fill-rule="evenodd"/><path fill="#c6f135" d="M 108.566406 54.882812 C 107.367188 53.902344 106.597656 52.40625 106.597656 50.738281 C 106.597656 47.785156 108.996094 45.382812 111.953125 45.382812 C 114.910156 45.382812 117.308594 47.785156 117.308594 50.738281 C 117.308594 53.695312 114.910156 56.09375 111.953125 56.09375 C 110.667969 56.09375 109.488281 55.640625 108.566406 54.882812 Z M 108.566406 54.882812 " fill-opacity="1" fill-rule="evenodd"/><path fill="#c6f135" d="M 36.402344 61.363281 C 36.402344 64.320312 34.003906 66.71875 31.046875 66.71875 C 28.089844 66.71875 25.691406 64.316406 25.691406 61.363281 C 25.691406 58.410156 28.089844 56.011719 31.046875 56.011719 C 34.003906 56.011719 36.402344 58.410156 36.402344 61.363281 Z M 36.402344 61.363281 " fill-opacity="1" fill-rule="evenodd"/><path fill="#c6f135" d="M 63.085938 86.433594 C 63.03125 89.339844 60.652344 91.683594 57.730469 91.683594 C 54.773438 91.683594 52.375 89.28125 52.375 86.328125 C 52.375 83.371094 54.773438 80.972656 57.730469 80.972656 C 60.6875 80.972656 63.085938 83.371094 63.085938 86.328125 C 63.085938 86.359375 63.085938 86.394531 63.085938 86.433594 Z M 63.085938 86.433594 " fill-opacity="1" fill-rule="evenodd"/><path fill="#c6f135" d="M 113.257812 70.191406 C 113.257812 67.238281 115.65625 64.839844 118.613281 64.839844 C 121.570312 64.839844 123.96875 67.238281 123.96875 70.191406 C 123.96875 73.148438 121.570312 75.546875 118.613281 75.546875 C 115.65625 75.546875 113.257812 73.148438 113.257812 70.191406 Z M 113.257812 70.191406 " fill-opacity="1" fill-rule="evenodd"/><path fill="#c6f135" d="M 107.4375 62.996094 L 106.644531 78.296875 L 93.460938 87.199219 L 93.460938 69.390625 Z M 107.4375 62.996094 " fill-opacity="1" fill-rule="evenodd"/><path fill="#c6f135" d="M 93.460938 87.199219 L 80.441406 78.296875 L 79.488281 62.996094 L 93.460938 69.390625 Z M 93.460938 87.199219 " fill-opacity="1" fill-rule="evenodd"/><path fill="#c6f135" d="M 93.460938 58.027344 L 107.4375 62.996094 L 93.460938 69.390625 L 79.488281 62.996094 Z M 93.460938 58.027344 " fill-opacity="1" fill-rule="evenodd"/><path fill="#c6f135" d="M 76.539062 105.304688 C 81.675781 107.953125 87.261719 107.898438 91.65625 107.140625 C 96.328125 106.335938 99.644531 104.734375 99.644531 104.734375 C 100.207031 104.9375 100.75 105.128906 101.285156 105.308594 L 107.363281 124.984375 L 93.382812 124.984375 C 93.378906 115.039062 79.40625 106.878906 76.539062 105.304688 Z M 76.539062 105.304688 " fill-opacity="1" fill-rule="evenodd"/><path fill="#c6f135" d="M 107.691406 90.082031 C 106.90625 91.015625 106.4375 92.214844 106.4375 93.527344 C 106.4375 96.480469 108.835938 98.878906 111.792969 98.878906 C 114.746094 98.878906 117.144531 96.480469 117.144531 93.527344 C 117.144531 90.570312 114.746094 88.171875 111.792969 88.171875 C 110.144531 88.167969 108.671875 88.914062 107.691406 90.082031 Z M 134.804688 81.226562 C 133.296875 85.511719 130.429688 89.925781 125.6875 94.128906 C 125.648438 97.25 123.039062 112.503906 101.285156 105.308594 C 100.753906 105.132812 100.207031 104.945312 99.644531 104.738281 C 99.644531 104.738281 96.328125 106.339844 91.65625 107.144531 L 86.929688 98.878906 L 94.359375 91.445312 C 98.558594 91.402344 102.785156 90.675781 106.667969 89.066406 C 109.773438 87.785156 112.65625 85.941406 115.132812 83.4375 C 123.988281 74.488281 131.195312 76.074219 134.804688 81.226562 Z M 134.804688 81.226562 " fill-opacity="1" fill-rule="evenodd"/><path fill="#c6f135" d="M 63.085938 86.433594 C 63.085938 86.398438 63.085938 86.363281 63.085938 86.328125 C 63.085938 83.371094 60.6875 80.972656 57.730469 80.972656 C 54.773438 80.972656 52.375 83.371094 52.375 86.328125 C 52.375 89.28125 54.773438 91.683594 57.730469 91.683594 C 60.652344 91.683594 63.03125 89.339844 63.085938 86.433594 Z M 39.859375 84.96875 C 39.859375 84.96875 15.992188 87.136719 13.824219 64.476562 C 13.824219 64.476562 13.78125 62.695312 14.1875 60.152344 C 18.5625 67.738281 30.085938 70.152344 39.066406 64.839844 C 42.035156 63.085938 44.921875 61.957031 47.648438 61.363281 L 56.582031 61.363281 C 63.46875 63.074219 67.824219 68.871094 67.125 75.996094 C 66.753906 79.820312 69.769531 83.578125 74.578125 86.429688 C 79.757812 89.496094 87.015625 91.519531 94.359375 91.445312 L 86.929688 98.875 L 91.65625 107.140625 C 87.261719 107.898438 81.675781 107.953125 76.539062 105.304688 C 76.207031 105.125 76.027344 105.03125 76.027344 105.03125 C 73.40625 103.582031 70.917969 101.40625 68.789062 98.230469 C 68.789062 98.226562 44.199219 104.738281 39.859375 84.96875 Z M 39.859375 84.96875 " fill-opacity="1" fill-rule="evenodd"/><g clip-path="url(#6bc8c19d15)"><path fill="#1a2e22" d="M 57.71875 82.582031 C 55.644531 82.582031 53.957031 84.265625 53.957031 86.34375 C 53.957031 88.421875 55.644531 90.105469 57.71875 90.105469 C 59.796875 90.105469 61.480469 88.421875 61.480469 86.34375 C 61.480469 84.269531 59.796875 82.582031 57.71875 82.582031 Z M 108.882812 91.144531 C 108.34375 91.792969 108.019531 92.632812 108.019531 93.542969 C 108.019531 95.617188 109.703125 97.304688 111.78125 97.304688 C 113.859375 97.304688 115.542969 95.617188 115.542969 93.542969 C 115.542969 91.464844 113.859375 89.78125 111.78125 89.78125 C 110.636719 89.78125 109.609375 90.296875 108.917969 91.105469 C 108.90625 91.117188 108.894531 91.128906 108.882812 91.144531 Z M 114.839844 70.207031 C 114.839844 72.285156 116.527344 73.96875 118.601562 73.96875 C 120.675781 73.96875 122.363281 72.285156 122.363281 70.207031 C 122.363281 68.132812 120.679688 66.445312 118.601562 66.445312 C 116.527344 66.445312 114.839844 68.132812 114.839844 70.207031 Z M 105.464844 70.113281 L 105.703125 65.550781 L 95.050781 70.429688 L 95.050781 84.214844 L 105.085938 77.4375 C 105.085938 77.4375 105.464844 70.121094 105.464844 70.113281 Z M 109.582031 53.683594 C 110.226562 54.207031 111.046875 54.515625 111.941406 54.515625 C 114.019531 54.515625 115.703125 52.832031 115.703125 50.753906 C 115.703125 48.679688 114.019531 46.992188 111.941406 46.992188 C 109.867188 46.992188 108.183594 48.679688 108.183594 50.753906 C 108.183594 51.917969 108.710938 52.960938 109.539062 53.648438 C 109.554688 53.660156 109.570312 53.675781 109.582031 53.683594 Z M 58.03125 44.75 C 58.03125 42.671875 56.347656 40.988281 54.269531 40.988281 C 52.195312 40.988281 50.507812 42.671875 50.507812 44.75 C 50.507812 46.824219 52.191406 48.511719 54.269531 48.511719 C 56.347656 48.511719 58.03125 46.824219 58.03125 44.75 Z M 92.429688 60.097656 L 84.910156 62.773438 C 84.753906 62.859375 84.585938 62.921875 84.402344 62.953125 L 83.710938 63.199219 L 93.453125 67.660156 L 103.195312 63.199219 C 103.195312 63.199219 101.730469 62.679688 101.714844 62.671875 L 93.449219 59.734375 C 93.453125 59.730469 92.445312 60.09375 92.429688 60.097656 Z M 34.796875 61.378906 C 34.796875 59.304688 33.113281 57.617188 31.035156 57.617188 C 28.960938 57.617188 27.273438 59.304688 27.273438 61.378906 C 27.273438 63.457031 28.960938 65.140625 31.035156 65.140625 C 33.109375 65.140625 34.796875 63.457031 34.796875 61.378906 Z M 84.074219 78.875 L 91.863281 84.199219 L 91.863281 70.433594 L 81.234375 65.566406 L 81.972656 77.4375 L 84.03125 78.84375 C 84.042969 78.855469 84.058594 78.863281 84.074219 78.875 Z M 85.097656 109.140625 C 86.203125 110.027344 87.316406 111.003906 88.378906 112.054688 C 91.617188 115.261719 94.300781 119.175781 94.855469 123.410156 L 105.191406 123.410156 L 99.992188 106.570312 C 99.890625 106.535156 99.792969 106.503906 99.695312 106.464844 C 98.726562 106.871094 96.722656 107.636719 94.109375 108.253906 L 100.164062 118.839844 C 100.601562 119.601562 100.335938 120.574219 99.574219 121.011719 C 98.808594 121.449219 97.835938 121.183594 97.398438 120.421875 L 90.792969 108.871094 C 89.019531 109.121094 87.09375 109.246094 85.097656 109.140625 Z M 124.167969 54.894531 C 124.628906 44.03125 118.316406 39.300781 111.886719 37.292969 C 105.183594 35.203125 98.363281 35.941406 98.363281 35.941406 C 97.835938 36 97.316406 35.789062 96.976562 35.386719 C 82.089844 17.796875 64.726562 31.976562 64.726562 31.976562 C 64.285156 32.335938 63.691406 32.433594 63.160156 32.234375 C 52.4375 28.234375 45.421875 29.117188 40.863281 31.78125 C 34.253906 35.636719 32.984375 43.066406 32.984375 43.066406 C 32.859375 43.792969 32.253906 44.339844 31.519531 44.386719 C 15.390625 45.464844 15.390625 63.273438 15.40625 64.402344 C 17.164062 82.351562 33.570312 83.503906 38.382812 83.457031 C 38.722656 80.925781 39.964844 75.816406 44.511719 72.378906 C 47.140625 70.390625 50.882812 68.929688 56.246094 68.929688 C 57.125 68.929688 57.839844 69.644531 57.839844 70.523438 C 57.839844 71.402344 57.125 72.117188 56.246094 72.117188 C 51.769531 72.117188 48.628906 73.257812 46.4375 74.917969 C 41.910156 78.339844 41.488281 83.828125 41.449219 84.828125 C 43.484375 93.71875 50.070312 96.683594 56.144531 97.449219 C 62.285156 98.222656 67.945312 96.816406 68.351562 96.710938 C 68.425781 96.691406 68.496094 96.675781 68.570312 96.667969 C 68.835938 96.632812 69.101562 96.664062 69.34375 96.757812 C 69.582031 96.84375 69.804688 96.996094 69.980469 97.199219 C 70.03125 97.257812 70.078125 97.316406 70.121094 97.382812 C 72.082031 100.296875 74.363281 102.308594 76.769531 103.648438 C 76.832031 103.679688 77 103.765625 77.257812 103.90625 C 81.207031 105.941406 85.4375 106.269531 89.105469 105.925781 L 85.535156 99.6875 C 85.179688 99.0625 85.285156 98.277344 85.792969 97.769531 L 93.113281 90.445312 L 93.113281 88.777344 C 92.914062 88.734375 92.726562 88.652344 92.554688 88.539062 L 83.347656 82.242188 L 78.007812 87.582031 C 77.710938 87.878906 77.304688 88.046875 76.882812 88.046875 L 64.457031 88.046875 C 63.703125 91.0625 60.96875 93.296875 57.71875 93.296875 C 53.886719 93.296875 50.773438 90.1875 50.773438 86.351562 C 50.773438 82.515625 53.886719 79.402344 57.71875 79.402344 C 61.042969 79.402344 63.824219 81.742188 64.507812 84.863281 L 76.222656 84.863281 L 80.667969 80.414062 L 79.535156 79.636719 C 79.128906 79.363281 78.871094 78.914062 78.84375 78.425781 L 77.886719 63.121094 C 77.886719 63.078125 77.882812 63.03125 77.886719 62.988281 L 37.796875 62.988281 C 37.078125 66.054688 34.320312 68.339844 31.035156 68.339844 C 27.199219 68.339844 24.085938 65.226562 24.085938 61.394531 C 24.085938 57.558594 27.199219 54.445312 31.035156 54.445312 C 34.320312 54.445312 37.078125 56.730469 37.796875 59.800781 L 83.785156 59.800781 L 89.003906 57.945312 L 77.414062 46.355469 L 61.03125 46.355469 C 60.308594 49.421875 57.554688 51.710938 54.265625 51.710938 C 50.433594 51.710938 47.320312 48.597656 47.320312 44.761719 C 47.320312 40.925781 50.433594 37.816406 54.265625 37.816406 C 57.554688 37.816406 60.308594 40.101562 61.03125 43.167969 L 78.074219 43.167969 C 78.496094 43.167969 78.902344 43.335938 79.203125 43.632812 L 92.328125 56.761719 L 92.917969 56.554688 C 93.265625 56.429688 93.640625 56.429688 93.984375 56.554688 L 101.859375 59.351562 L 106.335938 54.875 C 105.492188 53.722656 104.992188 52.304688 104.992188 50.769531 C 104.992188 46.933594 108.105469 43.820312 111.941406 43.820312 C 115.777344 43.820312 118.886719 46.933594 118.886719 50.769531 C 118.886719 54.601562 115.777344 57.714844 111.941406 57.714844 C 110.796875 57.714844 109.71875 57.4375 108.769531 56.949219 L 105.183594 60.53125 L 107.960938 61.523438 C 108.125 61.578125 108.269531 61.660156 108.402344 61.757812 C 108.601562 61.910156 108.765625 62.117188 108.875 62.359375 C 108.980469 62.59375 109.03125 62.851562 109.015625 63.105469 L 108.726562 68.625 L 111.832031 68.625 C 112.554688 65.558594 115.308594 63.273438 118.597656 63.273438 C 122.433594 63.273438 125.546875 66.382812 125.546875 70.21875 C 125.546875 74.054688 122.433594 77.167969 118.597656 77.167969 C 115.308594 77.167969 112.554688 74.878906 111.832031 71.8125 L 108.5625 71.8125 L 108.222656 78.40625 C 108.195312 78.90625 107.9375 79.363281 107.519531 79.644531 L 102.710938 82.894531 L 107.722656 87.90625 C 108.863281 87.085938 110.265625 86.601562 111.777344 86.601562 C 115.609375 86.601562 118.722656 89.714844 118.722656 93.550781 C 118.722656 97.382812 115.609375 100.496094 111.777344 100.496094 C 107.941406 100.496094 104.828125 97.382812 104.828125 93.550781 C 104.828125 92.382812 105.117188 91.28125 105.625 90.316406 L 100.019531 84.710938 L 96.296875 87.226562 L 96.296875 91.113281 C 96.296875 91.539062 96.128906 91.945312 95.828125 92.242188 L 88.898438 99.171875 L 92.472656 105.417969 C 96.304688 104.613281 98.933594 103.332031 98.933594 103.332031 C 99.132812 103.234375 99.34375 103.1875 99.550781 103.175781 C 99.757812 103.164062 99.96875 103.195312 100.175781 103.273438 C 100.71875 103.472656 101.246094 103.65625 101.765625 103.828125 C 101.765625 103.828125 101.769531 103.828125 101.769531 103.828125 C 109.84375 106.496094 115.074219 105.972656 118.449219 104.03125 C 123.238281 101.273438 124.054688 95.785156 124.074219 94.140625 C 124.078125 93.910156 124.128906 93.695312 124.21875 93.496094 C 124.3125 93.300781 124.4375 93.117188 124.613281 92.964844 C 137.128906 81.867188 135.859375 69.28125 131.394531 62.035156 C 129.621094 59.152344 127.386719 57.113281 125.359375 56.550781 C 125.257812 56.527344 125.15625 56.488281 125.0625 56.445312 C 124.820312 56.328125 124.617188 56.15625 124.464844 55.949219 C 124.3125 55.738281 124.210938 55.496094 124.171875 55.230469 C 124.164062 55.109375 124.160156 55.003906 124.167969 54.894531 Z M 38.613281 86.625 C 33.285156 86.6875 14.21875 85.433594 12.226562 64.644531 C 12.222656 64.605469 12.222656 64.570312 12.21875 64.53125 C 12.21875 64.53125 11.816406 43.398438 30.128906 41.3125 C 30.851562 38.71875 33.140625 32.59375 39.25 29.027344 C 44.246094 26.109375 51.878906 24.820312 63.449219 28.945312 C 67.152344 26.300781 84 15.859375 98.867188 32.707031 C 101.027344 32.570312 106.972656 32.421875 112.832031 34.25 C 120.203125 36.550781 127.441406 41.867188 127.375 53.890625 C 129.683594 54.933594 132.167969 57.1875 134.113281 60.351562 C 139.09375 68.433594 140.820312 82.464844 127.226562 94.890625 C 126.988281 97.5625 125.578125 103.589844 120.042969 106.773438 C 116.566406 108.777344 111.378906 109.710938 103.671875 107.695312 L 108.871094 124.53125 C 109.019531 125.015625 108.929688 125.539062 108.628906 125.945312 C 108.328125 126.355469 107.851562 126.59375 107.347656 126.59375 L 93.367188 126.59375 C 92.484375 126.59375 91.773438 125.878906 91.773438 125 C 91.773438 120.972656 89.164062 117.3125 86.136719 114.320312 C 82.152344 110.375 77.34375 107.585938 75.796875 106.734375 C 75.609375 106.640625 75.425781 106.542969 75.242188 106.441406 C 72.679688 105.023438 70.234375 102.960938 68.085938 100.035156 C 65.957031 100.472656 61.011719 101.273438 55.738281 100.609375 C 48.78125 99.730469 41.296875 96.355469 38.613281 86.625 Z M 38.613281 86.625 " fill-opacity="1" fill-rule="evenodd"/></g></svg>