<svg xmlns="http://www.w3.org/2000/svg" xmlns:xlink="http://www.w3.org/1999/xlink" width="200" zoomAndPan="magnify" viewBox="0 0 150 149.999998" height="200" preserveAspectRatio="xMidYMid meet" version="1.0"><defs><clipPath id="64c112e952"><path d="M 16.535156 35.023438 L 133.535156 35.023438 L 133.535156 106 L 16.535156 106 Z M 16.535156 35.023438 " clip-rule="nonzero"/></clipPath></defs><path fill="#c6f135" d="M 101.257812 99.28125 C 101.257812 99.152344 101.234375 99.023438 101.183594 98.902344 C 101.132812 98.78125 101.0625 98.675781 100.96875 98.582031 C 100.878906 98.488281 100.769531 98.417969 100.648438 98.367188 C 100.527344 98.320312 100.402344 98.292969 100.273438 98.292969 L 93.996094 98.292969 L 93.996094 89.105469 L 100.273438 89.105469 C 100.542969 89.101562 100.773438 89.003906 100.964844 88.8125 C 101.15625 88.621094 101.25 88.390625 101.25 88.117188 C 101.25 87.847656 101.15625 87.617188 100.964844 87.421875 C 100.773438 87.230469 100.542969 87.132812 100.273438 87.128906 L 93.996094 87.128906 L 93.996094 77.941406 L 100.273438 77.941406 C 100.402344 77.941406 100.53125 77.917969 100.652344 77.871094 C 100.773438 77.820312 100.882812 77.75 100.976562 77.65625 C 101.070312 77.5625 101.144531 77.457031 101.195312 77.332031 C 101.246094 77.210938 101.269531 77.085938 101.269531 76.953125 C 101.269531 76.820312 101.246094 76.695312 101.195312 76.574219 C 101.144531 76.453125 101.070312 76.34375 100.976562 76.25 C 100.882812 76.160156 100.773438 76.085938 100.652344 76.039062 C 100.53125 75.988281 100.402344 75.964844 100.273438 75.964844 L 93.996094 75.964844 L 93.996094 74.535156 C 93.992188 74.136719 93.953125 73.742188 93.875 73.351562 C 93.796875 72.960938 93.683594 72.578125 93.53125 72.210938 C 93.375 71.84375 93.1875 71.492188 92.96875 71.160156 C 92.746094 70.828125 92.492188 70.523438 92.210938 70.238281 C 91.929688 69.957031 91.621094 69.707031 91.289062 69.484375 C 90.957031 69.261719 90.609375 69.074219 90.238281 68.921875 C 89.871094 68.769531 89.488281 68.652344 89.097656 68.574219 C 88.707031 68.496094 88.3125 68.457031 87.914062 68.457031 L 86.296875 68.457031 L 86.296875 62.230469 C 86.292969 61.957031 86.195312 61.726562 86.003906 61.539062 C 85.808594 61.347656 85.578125 61.25 85.308594 61.25 C 85.035156 61.25 84.804688 61.347656 84.613281 61.539062 C 84.417969 61.726562 84.320312 61.957031 84.320312 62.230469 L 84.320312 68.457031 L 75.132812 68.457031 L 75.132812 62.230469 C 75.128906 61.957031 75.03125 61.726562 74.839844 61.539062 C 74.644531 61.347656 74.414062 61.25 74.144531 61.25 C 73.871094 61.25 73.640625 61.347656 73.449219 61.539062 C 73.257812 61.726562 73.160156 61.957031 73.15625 62.230469 L 73.15625 68.457031 L 63.96875 68.457031 L 63.96875 62.230469 C 63.96875 61.957031 63.871094 61.722656 63.679688 61.53125 C 63.484375 61.339844 63.253906 61.242188 62.980469 61.242188 C 62.707031 61.242188 62.472656 61.339844 62.28125 61.53125 C 62.089844 61.722656 61.992188 61.957031 61.992188 62.230469 L 61.992188 68.457031 C 61.59375 68.460938 61.199219 68.5 60.8125 68.582031 C 60.421875 68.660156 60.042969 68.777344 59.675781 68.933594 C 59.308594 69.085938 58.960938 69.273438 58.632812 69.496094 C 58.300781 69.71875 57.996094 69.96875 57.714844 70.253906 C 57.4375 70.535156 57.1875 70.839844 56.964844 71.171875 C 56.746094 71.503906 56.558594 71.851562 56.40625 72.21875 C 56.253906 72.585938 56.140625 72.964844 56.0625 73.355469 C 55.984375 73.746094 55.945312 74.140625 55.945312 74.535156 L 55.945312 75.964844 L 49.71875 75.964844 C 49.445312 75.964844 49.210938 76.0625 49.019531 76.253906 C 48.824219 76.449219 48.730469 76.679688 48.730469 76.953125 C 48.730469 77.226562 48.824219 77.460938 49.019531 77.652344 C 49.210938 77.84375 49.445312 77.941406 49.71875 77.941406 L 55.945312 77.941406 L 55.945312 87.128906 L 49.71875 87.128906 C 49.445312 87.132812 49.214844 87.230469 49.023438 87.421875 C 48.835938 87.617188 48.738281 87.847656 48.738281 88.117188 C 48.738281 88.390625 48.835938 88.621094 49.023438 88.8125 C 49.214844 89.003906 49.445312 89.101562 49.71875 89.105469 L 55.945312 89.105469 L 55.945312 98.292969 L 49.71875 98.292969 C 49.445312 98.296875 49.214844 98.394531 49.023438 98.585938 C 48.835938 98.777344 48.738281 99.011719 48.738281 99.28125 C 48.738281 99.550781 48.835938 99.785156 49.023438 99.976562 C 49.214844 100.167969 49.445312 100.265625 49.71875 100.269531 L 55.945312 100.269531 L 55.945312 101.699219 C 55.945312 102.097656 55.984375 102.488281 56.0625 102.878906 C 56.140625 103.269531 56.253906 103.648438 56.40625 104.015625 C 56.558594 104.382812 56.746094 104.734375 56.964844 105.0625 C 57.183594 105.394531 57.4375 105.703125 57.714844 105.984375 C 57.996094 106.265625 58.300781 106.519531 58.632812 106.738281 C 58.960938 106.960938 59.308594 107.148438 59.675781 107.304688 C 60.042969 107.457031 60.421875 107.574219 60.8125 107.65625 C 61.199219 107.734375 61.59375 107.773438 61.992188 107.777344 L 61.992188 114.003906 C 61.992188 114.277344 62.089844 114.511719 62.28125 114.703125 C 62.472656 114.898438 62.707031 114.992188 62.980469 114.992188 C 63.253906 114.992188 63.484375 114.898438 63.679688 114.703125 C 63.871094 114.511719 63.96875 114.277344 63.96875 114.003906 L 63.96875 107.78125 L 73.15625 107.78125 L 73.15625 114.003906 C 73.15625 114.277344 73.253906 114.511719 73.445312 114.703125 C 73.636719 114.898438 73.871094 114.992188 74.144531 114.992188 C 74.417969 114.992188 74.648438 114.898438 74.84375 114.703125 C 75.035156 114.511719 75.132812 114.277344 75.132812 114.003906 L 75.132812 107.78125 L 84.320312 107.78125 L 84.320312 114.003906 C 84.320312 114.277344 84.417969 114.511719 84.609375 114.703125 C 84.800781 114.894531 85.035156 114.992188 85.308594 114.992188 C 85.578125 114.992188 85.8125 114.894531 86.003906 114.703125 C 86.199219 114.511719 86.292969 114.277344 86.296875 114.003906 L 86.296875 107.78125 L 87.914062 107.78125 C 88.3125 107.777344 88.707031 107.738281 89.097656 107.660156 C 89.492188 107.582031 89.871094 107.46875 90.238281 107.316406 C 90.609375 107.160156 90.957031 106.972656 91.289062 106.753906 C 91.621094 106.53125 91.929688 106.277344 92.210938 105.996094 C 92.492188 105.714844 92.746094 105.40625 92.96875 105.074219 C 93.1875 104.742188 93.375 104.394531 93.53125 104.023438 C 93.683594 103.65625 93.796875 103.277344 93.875 102.882812 C 93.953125 102.492188 93.992188 102.097656 93.996094 101.699219 L 93.996094 100.269531 L 100.273438 100.269531 C 100.402344 100.269531 100.527344 100.246094 100.648438 100.195312 C 100.769531 100.144531 100.878906 100.074219 100.96875 99.980469 C 101.0625 99.886719 101.132812 99.78125 101.183594 99.660156 C 101.234375 99.539062 101.257812 99.414062 101.257812 99.28125 Z M 83.6875 97.714844 L 66.304688 97.714844 C 65.667969 97.71875 65.046875 97.613281 64.445312 97.40625 C 63.84375 97.203125 63.289062 96.902344 62.789062 96.511719 C 62.285156 96.117188 61.859375 95.65625 61.515625 95.121094 C 61.167969 94.585938 60.917969 94.011719 60.765625 93.394531 C 60.609375 92.777344 60.5625 92.148438 60.617188 91.515625 C 60.675781 90.878906 60.832031 90.273438 61.09375 89.691406 C 61.351562 89.109375 61.699219 88.585938 62.136719 88.121094 C 62.574219 87.660156 63.070312 87.277344 63.636719 86.980469 L 63.636719 86.960938 C 63.636719 86.625 63.667969 86.292969 63.730469 85.964844 C 63.796875 85.636719 63.890625 85.316406 64.015625 85.007812 C 64.140625 84.699219 64.296875 84.402344 64.476562 84.121094 C 64.660156 83.839844 64.867188 83.582031 65.101562 83.339844 C 65.332031 83.097656 65.585938 82.882812 65.859375 82.691406 C 66.132812 82.5 66.425781 82.335938 66.730469 82.199219 C 67.035156 82.0625 67.351562 81.957031 67.675781 81.882812 C 68.003906 81.804688 68.332031 81.761719 68.667969 81.75 C 68.75 81.039062 69.019531 80.410156 69.472656 79.855469 C 69.925781 79.304688 70.496094 78.917969 71.175781 78.695312 C 71.855469 78.476562 72.539062 78.457031 73.230469 78.640625 C 73.921875 78.820312 74.511719 79.175781 74.996094 79.703125 C 75.476562 79.175781 76.066406 78.820312 76.757812 78.640625 C 77.449219 78.457031 78.132812 78.476562 78.816406 78.695312 C 79.496094 78.917969 80.0625 79.304688 80.515625 79.855469 C 80.96875 80.410156 81.238281 81.039062 81.320312 81.75 C 81.65625 81.761719 81.984375 81.804688 82.3125 81.882812 C 82.636719 81.957031 82.953125 82.0625 83.257812 82.199219 C 83.566406 82.335938 83.855469 82.5 84.128906 82.691406 C 84.402344 82.882812 84.65625 83.097656 84.886719 83.339844 C 85.121094 83.582031 85.328125 83.839844 85.511719 84.121094 C 85.691406 84.402344 85.847656 84.699219 85.972656 85.007812 C 86.097656 85.316406 86.191406 85.636719 86.257812 85.964844 C 86.320312 86.292969 86.355469 86.625 86.355469 86.960938 L 86.355469 86.980469 C 86.917969 87.277344 87.417969 87.660156 87.851562 88.121094 C 88.289062 88.585938 88.636719 89.109375 88.894531 89.691406 C 89.15625 90.273438 89.316406 90.878906 89.371094 91.515625 C 89.429688 92.148438 89.378906 92.777344 89.226562 93.394531 C 89.070312 94.011719 88.820312 94.585938 88.476562 95.121094 C 88.128906 95.65625 87.703125 96.117188 87.203125 96.511719 C 86.699219 96.902344 86.148438 97.203125 85.542969 97.40625 C 84.941406 97.613281 84.324219 97.71875 83.683594 97.714844 Z M 83.6875 97.714844 " fill-opacity="1" fill-rule="nonzero"/><path fill="#c6f135" d="M 72.3125 80.496094 C 72.085938 80.496094 71.871094 80.539062 71.664062 80.625 C 71.457031 80.710938 71.273438 80.832031 71.113281 80.992188 C 70.957031 81.152344 70.832031 81.335938 70.746094 81.542969 C 70.660156 81.75 70.617188 81.964844 70.617188 82.191406 C 70.632812 82.320312 70.660156 82.445312 70.703125 82.566406 C 70.8125 82.9375 70.742188 83.269531 70.488281 83.5625 C 70.238281 83.847656 69.925781 83.953125 69.554688 83.886719 C 69.457031 83.863281 69.355469 83.835938 69.257812 83.808594 C 69.125 83.761719 68.988281 83.734375 68.847656 83.722656 C 68.417969 83.722656 68.003906 83.804688 67.609375 83.96875 C 67.214844 84.136719 66.863281 84.367188 66.558594 84.671875 C 66.257812 84.976562 66.023438 85.324219 65.859375 85.722656 C 65.695312 86.117188 65.613281 86.53125 65.609375 86.960938 C 65.617188 86.984375 65.628906 87.023438 65.640625 87.066406 C 65.675781 87.183594 65.703125 87.300781 65.722656 87.421875 C 65.757812 87.65625 65.714844 87.875 65.59375 88.078125 C 65.472656 88.28125 65.296875 88.421875 65.074219 88.503906 C 64.660156 88.644531 64.28125 88.859375 63.9375 89.136719 C 63.597656 89.414062 63.316406 89.742188 63.089844 90.121094 C 62.867188 90.5 62.714844 90.90625 62.632812 91.339844 C 62.554688 91.773438 62.550781 92.207031 62.625 92.640625 C 62.699219 93.074219 62.84375 93.484375 63.0625 93.867188 C 63.28125 94.25 63.558594 94.582031 63.894531 94.867188 C 64.234375 95.148438 64.609375 95.367188 65.023438 95.515625 C 65.4375 95.667969 65.863281 95.742188 66.304688 95.738281 L 74.007812 95.738281 L 74.007812 91.652344 C 74.007812 91.253906 73.929688 90.871094 73.777344 90.503906 C 73.625 90.136719 73.40625 89.8125 73.125 89.53125 C 72.84375 89.25 72.519531 89.03125 72.152344 88.878906 C 71.785156 88.726562 71.402344 88.652344 71.007812 88.652344 C 70.875 88.652344 70.746094 88.628906 70.625 88.578125 C 70.503906 88.53125 70.394531 88.457031 70.300781 88.367188 C 70.207031 88.273438 70.136719 88.164062 70.085938 88.042969 C 70.035156 87.921875 70.007812 87.796875 70.007812 87.664062 C 70.007812 87.53125 70.035156 87.40625 70.085938 87.285156 C 70.136719 87.160156 70.207031 87.054688 70.300781 86.960938 C 70.394531 86.867188 70.503906 86.796875 70.625 86.75 C 70.746094 86.699219 70.875 86.675781 71.007812 86.675781 C 72.125 86.679688 73.125 87.023438 74.007812 87.707031 L 74.007812 82.191406 C 74.007812 81.964844 73.964844 81.75 73.878906 81.542969 C 73.792969 81.335938 73.667969 81.152344 73.511719 80.992188 C 73.351562 80.832031 73.167969 80.710938 72.960938 80.625 C 72.753906 80.539062 72.535156 80.496094 72.3125 80.496094 Z M 72.3125 80.496094 " fill-opacity="1" fill-rule="nonzero"/><g clip-path="url(#64c112e952)"><path fill="#c6f135" d="M 116.0625 69.570312 C 115.925781 69.5625 115.796875 69.527344 115.675781 69.46875 C 115.554688 69.410156 115.449219 69.328125 115.363281 69.222656 C 115.273438 69.121094 115.210938 69.003906 115.167969 68.875 C 115.128906 68.746094 115.117188 68.613281 115.132812 68.476562 C 115.222656 67.617188 115.28125 66.75 115.300781 65.886719 C 115.316406 65.019531 115.300781 64.152344 115.246094 63.289062 C 115.1875 62.425781 115.097656 61.5625 114.964844 60.707031 C 114.835938 59.851562 114.671875 59 114.46875 58.160156 C 114.265625 57.316406 114.027344 56.484375 113.75 55.664062 C 113.476562 54.84375 113.167969 54.035156 112.824219 53.238281 C 112.480469 52.445312 112.101562 51.664062 111.691406 50.902344 C 111.277344 50.140625 110.835938 49.398438 110.359375 48.671875 C 109.882812 47.949219 109.378906 47.246094 108.84375 46.566406 C 108.308594 45.882812 107.742188 45.226562 107.148438 44.59375 C 106.558594 43.964844 105.9375 43.359375 105.292969 42.777344 C 104.648438 42.199219 103.980469 41.648438 103.289062 41.128906 C 102.597656 40.609375 101.886719 40.117188 101.152344 39.65625 C 100.417969 39.199219 99.664062 38.769531 98.894531 38.375 C 98.121094 37.980469 97.335938 37.617188 96.53125 37.292969 C 95.730469 36.964844 94.914062 36.671875 94.089844 36.414062 C 93.261719 36.15625 92.425781 35.9375 91.578125 35.753906 C 90.730469 35.566406 89.878906 35.417969 89.019531 35.308594 C 88.160156 35.195312 87.296875 35.121094 86.433594 35.085938 C 85.566406 35.046875 84.703125 35.046875 83.835938 35.085938 C 82.96875 35.121094 82.109375 35.195312 81.25 35.308594 C 80.390625 35.417969 79.539062 35.566406 78.691406 35.753906 C 77.84375 35.9375 77.007812 36.160156 76.179688 36.417969 C 75.351562 36.675781 74.539062 36.964844 73.734375 37.292969 C 72.933594 37.621094 72.148438 37.984375 71.375 38.378906 C 70.605469 38.773438 69.851562 39.199219 69.117188 39.660156 C 68.386719 40.121094 67.671875 40.609375 66.980469 41.132812 C 66.289062 41.652344 65.621094 42.203125 64.976562 42.78125 C 64.332031 43.363281 63.710938 43.96875 63.121094 44.601562 C 62.527344 45.230469 61.964844 45.886719 61.429688 46.570312 C 60.890625 47.25 60.386719 47.953125 59.910156 48.675781 C 59.4375 49.402344 58.992188 50.144531 58.582031 50.90625 C 58.476562 51.101562 58.324219 51.242188 58.125 51.335938 C 57.925781 51.425781 57.71875 51.449219 57.503906 51.402344 C 56.859375 51.261719 56.210938 51.152344 55.554688 51.082031 C 54.898438 51.015625 54.242188 50.980469 53.582031 50.984375 C 52.921875 50.984375 52.265625 51.023438 51.613281 51.101562 C 50.957031 51.175781 50.308594 51.289062 49.667969 51.4375 C 49.023438 51.585938 48.390625 51.765625 47.769531 51.984375 C 47.148438 52.203125 46.539062 52.453125 45.945312 52.742188 C 45.351562 53.027344 44.777344 53.34375 44.214844 53.691406 C 43.65625 54.042969 43.121094 54.421875 42.605469 54.832031 C 42.085938 55.238281 41.59375 55.675781 41.125 56.140625 C 40.660156 56.605469 40.21875 57.09375 39.804688 57.605469 C 39.390625 58.117188 39.003906 58.652344 38.648438 59.207031 C 38.296875 59.765625 37.972656 60.335938 37.683594 60.929688 C 37.390625 61.519531 37.132812 62.125 36.910156 62.746094 C 36.6875 63.367188 36.496094 63.996094 36.34375 64.636719 C 36.191406 65.277344 36.074219 65.925781 35.992188 66.578125 C 35.910156 67.234375 35.863281 67.890625 35.855469 68.550781 C 35.851562 68.6875 35.816406 68.816406 35.757812 68.941406 C 35.699219 69.066406 35.621094 69.175781 35.515625 69.265625 C 35.414062 69.359375 35.296875 69.425781 35.164062 69.46875 C 35.035156 69.511719 34.898438 69.527344 34.761719 69.515625 C 34.167969 69.519531 33.578125 69.550781 32.988281 69.613281 C 32.398438 69.671875 31.8125 69.761719 31.230469 69.882812 C 30.648438 70 30.074219 70.144531 29.507812 70.320312 C 28.941406 70.496094 28.382812 70.699219 27.835938 70.925781 C 27.289062 71.15625 26.753906 71.414062 26.234375 71.695312 C 25.710938 71.976562 25.203125 72.285156 24.710938 72.613281 C 24.21875 72.945312 23.746094 73.300781 23.289062 73.679688 C 22.832031 74.058594 22.394531 74.457031 21.976562 74.878906 C 21.558594 75.300781 21.160156 75.738281 20.785156 76.199219 C 20.410156 76.660156 20.0625 77.136719 19.734375 77.632812 C 19.40625 78.125 19.101562 78.636719 18.824219 79.160156 C 18.546875 79.683594 18.292969 80.21875 18.070312 80.769531 C 17.84375 81.316406 17.644531 81.875 17.476562 82.445312 C 17.304688 83.011719 17.164062 83.589844 17.046875 84.171875 C 16.933594 84.753906 16.847656 85.339844 16.792969 85.929688 C 16.734375 86.519531 16.707031 87.113281 16.710938 87.703125 C 16.710938 88.296875 16.742188 88.890625 16.800781 89.480469 C 16.859375 90.070312 16.949219 90.65625 17.066406 91.238281 C 17.183594 91.820312 17.328125 92.394531 17.5 92.960938 C 17.675781 93.527344 17.875 94.085938 18.105469 94.632812 C 18.332031 95.183594 18.585938 95.71875 18.867188 96.238281 C 19.148438 96.761719 19.453125 97.269531 19.78125 97.761719 C 20.113281 98.257812 20.46875 98.730469 20.84375 99.191406 C 21.222656 99.648438 21.621094 100.085938 22.039062 100.503906 C 22.460938 100.925781 22.898438 101.320312 23.359375 101.699219 C 23.816406 102.074219 24.292969 102.425781 24.785156 102.753906 C 25.28125 103.085938 25.789062 103.386719 26.3125 103.667969 C 26.835938 103.945312 27.371094 104.199219 27.921875 104.425781 C 28.46875 104.652344 29.027344 104.851562 29.59375 105.023438 C 30.160156 105.195312 30.738281 105.339844 31.320312 105.457031 C 31.898438 105.570312 32.488281 105.660156 33.078125 105.714844 C 33.667969 105.773438 34.257812 105.804688 34.851562 105.804688 L 55.105469 105.804688 C 54.445312 104.707031 54.074219 103.519531 53.988281 102.246094 L 49.71875 102.246094 C 49.324219 102.246094 48.945312 102.167969 48.582031 102.019531 C 48.21875 101.867188 47.898438 101.65625 47.621094 101.378906 C 47.34375 101.097656 47.128906 100.777344 46.980469 100.414062 C 46.828125 100.050781 46.753906 99.675781 46.753906 99.28125 C 46.753906 98.886719 46.828125 98.511719 46.980469 98.148438 C 47.128906 97.785156 47.34375 97.464844 47.621094 97.1875 C 47.898438 96.90625 48.21875 96.695312 48.582031 96.542969 C 48.945312 96.394531 49.324219 96.316406 49.71875 96.316406 L 53.96875 96.316406 L 53.96875 91.082031 L 49.71875 91.082031 C 49.324219 91.082031 48.945312 91.007812 48.582031 90.855469 C 48.21875 90.707031 47.898438 90.492188 47.621094 90.214844 C 47.34375 89.9375 47.128906 89.613281 46.980469 89.253906 C 46.828125 88.890625 46.753906 88.511719 46.753906 88.117188 C 46.753906 87.726562 46.828125 87.347656 46.980469 86.984375 C 47.128906 86.621094 47.34375 86.300781 47.621094 86.023438 C 47.898438 85.746094 48.21875 85.53125 48.582031 85.378906 C 48.945312 85.230469 49.324219 85.15625 49.71875 85.15625 L 53.96875 85.15625 L 53.96875 79.917969 L 49.71875 79.917969 C 49.324219 79.917969 48.945312 79.84375 48.582031 79.691406 C 48.21875 79.542969 47.898438 79.328125 47.617188 79.050781 C 47.339844 78.773438 47.125 78.453125 46.972656 78.089844 C 46.824219 77.726562 46.75 77.347656 46.75 76.953125 C 46.75 76.558594 46.824219 76.179688 46.972656 75.816406 C 47.125 75.453125 47.339844 75.132812 47.617188 74.855469 C 47.898438 74.578125 48.21875 74.363281 48.582031 74.214844 C 48.945312 74.0625 49.324219 73.988281 49.71875 73.988281 L 53.988281 73.988281 C 54.046875 73.144531 54.234375 72.332031 54.550781 71.546875 C 54.867188 70.761719 55.292969 70.042969 55.835938 69.394531 C 56.375 68.742188 57.003906 68.191406 57.71875 67.738281 C 58.429688 67.28125 59.199219 66.949219 60.015625 66.738281 L 60.015625 62.230469 C 60.015625 61.835938 60.089844 61.457031 60.242188 61.09375 C 60.390625 60.730469 60.605469 60.40625 60.882812 60.128906 C 61.160156 59.851562 61.480469 59.636719 61.84375 59.484375 C 62.207031 59.335938 62.585938 59.257812 62.980469 59.257812 C 63.375 59.257812 63.753906 59.335938 64.117188 59.484375 C 64.480469 59.636719 64.800781 59.851562 65.078125 60.128906 C 65.355469 60.40625 65.570312 60.730469 65.71875 61.09375 C 65.871094 61.457031 65.945312 61.835938 65.945312 62.230469 L 65.945312 66.480469 L 71.179688 66.480469 L 71.179688 62.230469 C 71.179688 61.835938 71.253906 61.457031 71.40625 61.09375 C 71.554688 60.730469 71.769531 60.410156 72.046875 60.132812 C 72.324219 59.851562 72.644531 59.636719 73.007812 59.488281 C 73.371094 59.335938 73.75 59.261719 74.144531 59.261719 C 74.539062 59.261719 74.914062 59.335938 75.277344 59.488281 C 75.640625 59.636719 75.960938 59.851562 76.242188 60.132812 C 76.519531 60.410156 76.734375 60.730469 76.882812 61.09375 C 77.03125 61.457031 77.109375 61.835938 77.105469 62.230469 L 77.105469 66.480469 L 82.34375 66.480469 L 82.34375 62.230469 C 82.34375 61.835938 82.417969 61.457031 82.566406 61.09375 C 82.71875 60.730469 82.933594 60.410156 83.210938 60.132812 C 83.488281 59.851562 83.808594 59.636719 84.171875 59.488281 C 84.535156 59.335938 84.914062 59.261719 85.308594 59.261719 C 85.699219 59.261719 86.078125 59.335938 86.441406 59.488281 C 86.804688 59.636719 87.125 59.851562 87.402344 60.132812 C 87.683594 60.410156 87.894531 60.730469 88.046875 61.09375 C 88.195312 61.457031 88.269531 61.835938 88.269531 62.230469 L 88.269531 66.488281 C 88.761719 66.511719 89.246094 66.578125 89.722656 66.6875 C 90.203125 66.800781 90.664062 66.953125 91.117188 67.148438 C 91.566406 67.34375 91.996094 67.578125 92.402344 67.851562 C 92.808594 68.125 93.1875 68.433594 93.539062 68.777344 C 93.890625 69.121094 94.207031 69.492188 94.492188 69.890625 C 94.773438 70.292969 95.019531 70.714844 95.226562 71.160156 C 95.433594 71.605469 95.597656 72.066406 95.71875 72.542969 C 95.839844 73.019531 95.917969 73.5 95.953125 73.988281 L 100.273438 73.988281 C 100.664062 73.988281 101.042969 74.0625 101.40625 74.214844 C 101.769531 74.363281 102.089844 74.578125 102.371094 74.855469 C 102.648438 75.132812 102.863281 75.457031 103.011719 75.820312 C 103.164062 76.183594 103.238281 76.558594 103.238281 76.953125 C 103.238281 77.347656 103.164062 77.726562 103.011719 78.089844 C 102.863281 78.453125 102.648438 78.773438 102.371094 79.050781 C 102.089844 79.328125 101.769531 79.542969 101.40625 79.691406 C 101.042969 79.84375 100.664062 79.917969 100.273438 79.917969 L 95.96875 79.917969 L 95.96875 85.15625 L 100.273438 85.15625 C 100.664062 85.15625 101.042969 85.230469 101.40625 85.382812 C 101.765625 85.53125 102.085938 85.746094 102.363281 86.023438 C 102.640625 86.300781 102.855469 86.621094 103.007812 86.984375 C 103.15625 87.347656 103.230469 87.726562 103.230469 88.117188 C 103.230469 88.511719 103.15625 88.886719 103.007812 89.25 C 102.855469 89.613281 102.640625 89.933594 102.363281 90.210938 C 102.085938 90.488281 101.765625 90.703125 101.40625 90.855469 C 101.042969 91.003906 100.664062 91.082031 100.273438 91.082031 L 95.96875 91.082031 L 95.96875 96.316406 L 100.273438 96.316406 C 100.664062 96.316406 101.042969 96.394531 101.40625 96.542969 C 101.769531 96.695312 102.089844 96.90625 102.367188 97.1875 C 102.644531 97.464844 102.859375 97.785156 103.007812 98.148438 C 103.160156 98.511719 103.234375 98.886719 103.234375 99.28125 C 103.234375 99.675781 103.160156 100.050781 103.007812 100.414062 C 102.859375 100.777344 102.644531 101.097656 102.367188 101.378906 C 102.089844 101.65625 101.769531 101.867188 101.40625 102.019531 C 101.042969 102.167969 100.664062 102.246094 100.273438 102.246094 L 95.953125 102.246094 C 95.867188 103.519531 95.496094 104.707031 94.839844 105.804688 L 115.136719 105.804688 C 115.722656 105.804688 116.304688 105.777344 116.886719 105.71875 C 117.46875 105.664062 118.046875 105.582031 118.617188 105.46875 C 119.191406 105.355469 119.757812 105.21875 120.320312 105.050781 C 120.878906 104.882812 121.429688 104.691406 121.972656 104.472656 C 122.511719 104.25 123.042969 104.007812 123.558594 103.734375 C 124.078125 103.464844 124.582031 103.167969 125.070312 102.847656 C 125.558594 102.527344 126.03125 102.1875 126.488281 101.820312 C 126.941406 101.457031 127.378906 101.070312 127.800781 100.660156 C 128.21875 100.253906 128.617188 99.828125 128.992188 99.378906 C 129.371094 98.933594 129.726562 98.46875 130.058594 97.988281 C 130.390625 97.507812 130.699219 97.015625 130.984375 96.503906 C 131.265625 95.992188 131.527344 95.46875 131.761719 94.933594 C 131.996094 94.398438 132.203125 93.855469 132.382812 93.296875 C 132.566406 92.742188 132.71875 92.179688 132.847656 91.609375 C 132.972656 91.039062 133.070312 90.464844 133.144531 89.882812 C 133.214844 89.304688 133.257812 88.722656 133.273438 88.136719 C 133.285156 87.554688 133.273438 86.96875 133.230469 86.386719 C 133.191406 85.804688 133.121094 85.226562 133.023438 84.648438 C 132.925781 84.074219 132.800781 83.503906 132.648438 82.9375 C 132.496094 82.375 132.316406 81.820312 132.109375 81.273438 C 131.902344 80.726562 131.671875 80.191406 131.414062 79.667969 C 131.15625 79.140625 130.871094 78.632812 130.566406 78.132812 C 130.257812 77.636719 129.925781 77.15625 129.574219 76.691406 C 129.21875 76.226562 128.84375 75.78125 128.445312 75.351562 C 128.046875 74.921875 127.632812 74.515625 127.195312 74.125 C 126.757812 73.738281 126.304688 73.371094 125.832031 73.027344 C 125.359375 72.683594 124.871094 72.363281 124.367188 72.066406 C 123.867188 71.769531 123.347656 71.496094 122.820312 71.25 C 122.289062 71 121.75 70.78125 121.199219 70.585938 C 120.648438 70.390625 120.089844 70.222656 119.523438 70.082031 C 118.957031 69.941406 118.382812 69.828125 117.804688 69.742188 C 117.226562 69.65625 116.644531 69.597656 116.0625 69.570312 Z M 116.0625 69.570312 " fill-opacity="1" fill-rule="nonzero"/></g><path fill="#c6f135" d="M 84.914062 88.503906 C 84.691406 88.421875 84.519531 88.28125 84.394531 88.078125 C 84.273438 87.878906 84.230469 87.660156 84.265625 87.425781 C 84.285156 87.300781 84.3125 87.179688 84.347656 87.0625 C 84.363281 87.019531 84.371094 86.980469 84.378906 86.941406 C 84.375 86.511719 84.292969 86.101562 84.125 85.707031 C 83.960938 85.3125 83.726562 84.964844 83.421875 84.664062 C 83.121094 84.363281 82.769531 84.128906 82.375 83.96875 C 81.980469 83.804688 81.566406 83.722656 81.140625 83.722656 C 81 83.734375 80.867188 83.761719 80.734375 83.808594 C 80.632812 83.835938 80.535156 83.863281 80.433594 83.886719 C 80.261719 83.925781 80.09375 83.917969 79.925781 83.867188 C 79.757812 83.816406 79.613281 83.730469 79.492188 83.601562 C 79.371094 83.472656 79.292969 83.324219 79.25 83.15625 C 79.210938 82.984375 79.214844 82.816406 79.261719 82.644531 C 79.316406 82.5 79.351562 82.347656 79.371094 82.191406 C 79.371094 81.964844 79.328125 81.75 79.242188 81.539062 C 79.15625 81.332031 79.035156 81.148438 78.875 80.988281 C 78.71875 80.828125 78.535156 80.707031 78.328125 80.621094 C 78.117188 80.535156 77.902344 80.492188 77.675781 80.492188 C 77.453125 80.492188 77.234375 80.535156 77.027344 80.621094 C 76.820312 80.707031 76.636719 80.828125 76.476562 80.988281 C 76.316406 81.148438 76.195312 81.332031 76.109375 81.539062 C 76.023438 81.75 75.980469 81.964844 75.984375 82.191406 L 75.984375 87.707031 C 76.867188 87.023438 77.867188 86.679688 78.984375 86.675781 C 79.253906 86.675781 79.488281 86.773438 79.679688 86.964844 C 79.875 87.15625 79.96875 87.390625 79.96875 87.664062 C 79.96875 87.9375 79.875 88.167969 79.679688 88.363281 C 79.488281 88.554688 79.253906 88.652344 78.984375 88.652344 C 78.585938 88.652344 78.203125 88.726562 77.835938 88.878906 C 77.46875 89.03125 77.144531 89.25 76.863281 89.53125 C 76.582031 89.8125 76.363281 90.136719 76.210938 90.503906 C 76.058594 90.871094 75.984375 91.253906 75.984375 91.652344 L 75.984375 95.738281 L 83.6875 95.738281 C 84.125 95.742188 84.554688 95.667969 84.96875 95.515625 C 85.382812 95.367188 85.757812 95.148438 86.09375 94.867188 C 86.429688 94.582031 86.707031 94.25 86.925781 93.867188 C 87.144531 93.484375 87.292969 93.074219 87.367188 92.640625 C 87.4375 92.207031 87.4375 91.773438 87.355469 91.339844 C 87.277344 90.90625 87.125 90.5 86.898438 90.121094 C 86.675781 89.742188 86.390625 89.414062 86.050781 89.136719 C 85.710938 88.859375 85.332031 88.644531 84.914062 88.503906 Z M 84.914062 88.503906 " fill-opacity="1" fill-rule="nonzero"/></svg>