<svg xmlns="http://www.w3.org/2000/svg" xmlns:xlink="http://www.w3.org/1999/xlink" width="200" zoomAndPan="magnify" viewBox="0 0 150 149.999998" height="200" preserveAspectRatio="xMidYMid meet" version="1.0"><defs><clipPath id="e0d9f07fd4"><path d="M 15 15 L 135 15 L 135 135 L 15 135 Z M 15 15 " clip-rule="nonzero"/></clipPath></defs><g clip-path="url(#e0d9f07fd4)"><path fill="#c6f135" d="M 72.964844 70.953125 L 72.964844 52.074219 C 72.964844 49.582031 70.929688 47.546875 68.441406 47.546875 L 34.109375 47.546875 C 31.617188 47.546875 29.582031 49.582031 29.582031 52.074219 L 29.582031 70.953125 C 29.582031 73.445312 31.617188 75.480469 34.109375 75.480469 L 68.441406 75.480469 C 70.929688 75.480469 72.964844 73.445312 72.964844 70.953125 Z M 31.867188 70.953125 L 31.867188 52.074219 C 31.867188 50.839844 32.875 49.835938 34.109375 49.835938 L 68.441406 49.835938 C 69.675781 49.835938 70.679688 50.839844 70.679688 52.074219 L 70.679688 70.953125 C 70.679688 72.1875 69.675781 73.195312 68.441406 73.195312 L 34.109375 73.195312 C 32.875 73.195312 31.867188 72.1875 31.867188 70.953125 Z M 41.101562 54.726562 C 32.121094 54.953125 32.144531 68.097656 41.101562 68.347656 C 50.085938 68.121094 50.085938 54.976562 41.101562 54.726562 Z M 41.101562 66.039062 C 35.136719 65.878906 35.136719 57.148438 41.101562 56.988281 C 47.070312 57.148438 47.070312 65.878906 41.101562 66.039062 Z M 61.445312 54.726562 C 52.460938 54.953125 52.484375 68.097656 61.445312 68.347656 C 70.429688 68.121094 70.429688 54.976562 61.445312 54.726562 Z M 61.445312 66.039062 C 55.480469 65.878906 55.480469 57.148438 61.445312 56.988281 C 67.410156 57.148438 67.410156 65.878906 61.445312 66.039062 Z M 98.816406 107.890625 L 103.34375 89.332031 C 103.527344 88.644531 102.953125 87.890625 102.222656 87.914062 C 102.222656 87.914062 97.171875 87.914062 97.171875 87.914062 L 97.695312 85.445312 C 97.996094 83.984375 95.777344 83.503906 95.457031 84.964844 C 95.457031 84.964844 94.839844 87.890625 94.839844 87.890625 L 88.347656 87.890625 L 88.875 85.421875 C 89.171875 83.960938 86.953125 83.480469 86.632812 84.941406 C 86.632812 84.941406 86.015625 87.867188 86.015625 87.867188 L 79.527344 87.867188 L 80.050781 85.398438 C 80.347656 83.9375 78.132812 83.457031 77.8125 84.921875 C 77.8125 84.921875 77.195312 87.84375 77.195312 87.84375 L 62.566406 87.84375 L 62.566406 84.644531 L 67.753906 84.644531 C 75.34375 84.644531 80.601562 77.902344 79.824219 70.566406 C 84.164062 70.359375 87.617188 66.792969 87.617188 62.40625 L 87.617188 59.914062 C 87.617188 55.527344 84.144531 51.960938 79.824219 51.753906 L 79.824219 46.472656 C 79.824219 39.824219 74.40625 34.40625 67.753906 34.40625 L 52.417969 34.40625 L 52.417969 28.1875 C 59.960938 26.726562 59.023438 15.640625 51.273438 15.527344 C 43.527344 15.664062 42.589844 26.726562 50.132812 28.1875 L 50.132812 34.40625 L 34.792969 34.40625 C 28.144531 34.40625 22.726562 39.824219 22.726562 46.472656 L 22.726562 51.753906 C 18.382812 51.960938 14.929688 55.527344 14.929688 59.914062 L 14.929688 62.40625 C 14.929688 66.792969 18.40625 70.359375 22.726562 70.566406 C 21.949219 77.902344 27.207031 84.667969 34.792969 84.644531 C 34.792969 84.644531 39.984375 84.644531 39.984375 84.644531 L 39.984375 87.84375 L 31.777344 87.84375 C 31.617188 87.84375 31.457031 87.890625 31.320312 87.9375 C 16.234375 94.613281 15.296875 117.902344 36.210938 119.707031 C 42.292969 126.65625 53.492188 128.371094 61.421875 123.640625 L 59.230469 132.921875 C 59.046875 133.605469 59.617188 134.335938 60.347656 134.335938 C 60.347656 134.335938 91.480469 134.335938 91.480469 134.335938 C 92.003906 134.335938 92.460938 133.972656 92.601562 133.46875 L 95.089844 123.183594 C 104.210938 124.050781 107.273438 111.207031 98.816406 107.847656 Z M 47.160156 21.996094 C 47.296875 16.578125 55.230469 16.578125 55.386719 21.996094 C 55.25 27.410156 47.320312 27.410156 47.160156 21.996094 Z M 85.332031 60.003906 L 85.332031 62.496094 C 85.332031 65.628906 82.886719 68.1875 79.824219 68.394531 L 79.824219 54.109375 C 82.910156 54.3125 85.332031 56.875 85.332031 60.003906 Z M 17.195312 62.496094 L 17.195312 60.003906 C 17.195312 56.875 19.640625 54.3125 22.703125 54.109375 L 22.703125 68.394531 C 19.617188 68.1875 17.195312 65.628906 17.195312 62.496094 Z M 25.011719 72.667969 C 25.011719 66.472656 25.011719 52.691406 25.011719 46.566406 C 25.011719 41.171875 29.398438 36.78125 34.792969 36.78125 L 67.777344 36.78125 C 73.171875 36.78125 77.558594 41.171875 77.558594 46.566406 L 77.558594 52.941406 C 77.558594 55.183594 77.558594 70.863281 77.558594 72.667969 C 77.558594 78.0625 73.171875 82.453125 67.777344 82.453125 L 34.792969 82.453125 C 29.398438 82.453125 25.011719 78.0625 25.011719 72.667969 Z M 60.304688 84.714844 L 60.304688 87.890625 L 42.246094 87.890625 L 42.246094 84.714844 Z M 29.238281 115.570312 C 18.269531 109.878906 22.015625 95.617188 30.632812 90.953125 L 30.632812 105.765625 C 30.632812 106.109375 30.792969 106.429688 31.070312 106.65625 C 33.378906 108.53125 36.074219 109.695312 38.910156 110.292969 C 37.695312 112.578125 37.765625 115.34375 39 117.605469 C 35.664062 117.675781 32.371094 117.171875 29.238281 115.570312 Z M 46.246094 98.0625 C 45.46875 96.691406 47.527344 95.480469 48.347656 96.851562 C 48.347656 96.851562 58.703125 114.886719 58.703125 114.886719 C 59.480469 116.257812 57.378906 117.492188 56.578125 116.097656 C 56.578125 116.097656 46.246094 98.0625 46.246094 98.0625 Z M 51.503906 113.902344 C 51.25 121.308594 40.691406 121.332031 40.28125 113.902344 C 40.484375 106.566406 51.296875 106.519531 51.503906 113.902344 Z M 51.25 124.097656 C 46.910156 124.097656 42.769531 122.566406 39.546875 119.847656 C 39.914062 119.847656 40.28125 119.800781 40.667969 119.777344 C 44.964844 123.847656 52.601562 121.332031 53.628906 115.527344 L 54.613281 117.21875 C 56.964844 121.171875 62.910156 117.765625 60.691406 113.71875 C 60.691406 113.71875 50.335938 95.6875 50.335938 95.6875 C 47.984375 91.753906 42.0625 95.136719 44.28125 99.160156 C 44.28125 99.160156 48.460938 106.453125 48.460938 106.453125 C 45.742188 105.445312 42.519531 106.199219 40.484375 108.164062 C 37.765625 107.824219 35.136719 106.839844 32.921875 105.148438 L 32.921875 90.152344 L 69.355469 90.152344 L 62.199219 120.441406 C 59.046875 122.816406 55.273438 124.050781 51.273438 124.050781 Z M 90.589844 132.097656 L 61.789062 132.097656 C 63.480469 124.988281 69.902344 97.8125 71.6875 90.199219 L 76.714844 90.199219 L 76.1875 92.667969 C 75.890625 94.132812 78.109375 94.613281 78.429688 93.148438 C 78.429688 93.148438 79.046875 90.222656 79.046875 90.222656 L 85.539062 90.222656 L 85.011719 92.691406 C 84.714844 94.152344 86.929688 94.632812 87.25 93.171875 C 87.25 93.171875 87.867188 90.246094 87.867188 90.246094 L 94.359375 90.246094 L 93.835938 92.714844 C 93.539062 94.175781 95.753906 94.65625 96.074219 93.195312 C 96.074219 93.195312 96.691406 90.269531 96.691406 90.269531 L 100.761719 90.269531 L 96.578125 107.386719 C 87.433594 106.613281 84.394531 119.25 92.851562 122.726562 L 90.566406 132.144531 Z M 95.867188 120.988281 C 88.324219 120.761719 88.28125 109.789062 95.867188 109.558594 C 103.367188 109.8125 103.367188 120.738281 95.867188 120.988281 Z M 127.386719 28.234375 L 98.0625 28.234375 C 93.949219 28.234375 90.589844 31.59375 90.589844 35.707031 L 90.589844 56.898438 C 90.589844 61.332031 94.453125 64.714844 98.816406 64.371094 L 98.816406 73.125 C 98.816406 73.742188 99.34375 74.292969 99.960938 74.269531 C 100.234375 74.269531 100.507812 74.175781 100.738281 73.972656 L 111.25 64.371094 L 127.386719 64.371094 C 131.503906 64.371094 134.863281 61.011719 134.863281 56.898438 L 134.863281 35.707031 C 134.863281 31.59375 131.503906 28.234375 127.386719 28.234375 Z M 132.578125 56.898438 C 132.578125 59.753906 130.246094 62.085938 127.386719 62.085938 L 110.816406 62.085938 C 110.542969 62.085938 110.246094 62.199219 110.039062 62.382812 L 101.125 70.542969 L 101.125 63.230469 C 101.125 61.675781 99.070312 62.152344 98.085938 62.085938 C 95.230469 62.085938 92.898438 59.753906 92.898438 56.898438 L 92.898438 35.707031 C 92.898438 32.851562 95.230469 30.519531 98.085938 30.519531 L 127.410156 30.519531 C 130.269531 30.519531 132.601562 32.851562 132.601562 35.707031 L 132.601562 56.898438 Z M 125.21875 40.050781 C 125.21875 40.050781 100.210938 40.050781 100.210938 40.050781 C 98.703125 40.050781 98.726562 37.765625 100.210938 37.765625 L 125.21875 37.765625 C 126.726562 37.765625 126.703125 40.050781 125.21875 40.050781 Z M 125.21875 47.410156 C 125.21875 47.410156 100.210938 47.410156 100.210938 47.410156 C 98.703125 47.410156 98.726562 45.125 100.210938 45.125 L 125.21875 45.125 C 126.726562 45.125 126.703125 47.410156 125.21875 47.410156 Z M 115.984375 54.769531 C 115.984375 54.769531 100.210938 54.769531 100.210938 54.769531 C 98.703125 54.769531 98.726562 52.484375 100.210938 52.484375 L 115.984375 52.484375 C 117.492188 52.484375 117.46875 54.769531 115.984375 54.769531 Z M 115.984375 54.769531 " fill-opacity="1" fill-rule="nonzero"/></g></svg>