<svg xmlns="http://www.w3.org/2000/svg" xmlns:xlink="http://www.w3.org/1999/xlink" width="200" zoomAndPan="magnify" viewBox="0 0 150 157.92" height="200" preserveAspectRatio="xMidYMid meet" version="1.0"><defs><clipPath id="ccebdd1d09"><path d="M 23.585938 25.09375 L 126.285156 25.09375 L 126.285156 124.792969 L 23.585938 124.792969 Z M 23.585938 25.09375 " clip-rule="nonzero"/></clipPath></defs><path fill="#c6f135" d="M 26.414062 50.324219 L 62.082031 70.917969 L 62.082031 112.558594 C 62.082031 112.558594 26.414062 91.960938 26.414062 91.960938 Z M 44.5 38.933594 L 41.515625 40.65625 L 76.03125 61.472656 L 85.871094 55.789062 L 51.136719 35.097656 L 44.496094 38.929688 Z M 87.175781 57.820312 L 87.488281 62.585938 L 78.117188 71.441406 L 77.292969 63.527344 Z M 97.101562 98.566406 L 94.90625 104.832031 C 94.585938 105.746094 95.40625 106.675781 96.355469 106.410156 L 103.941406 104.292969 L 103.957031 104.289062 C 104.191406 104.242188 104.40625 104.128906 104.578125 103.957031 L 108.679688 99.855469 L 108.679688 115.554688 L 84.757812 115.554688 L 84.757812 98.566406 Z M 117.570312 81.507812 L 117.570312 80.699219 L 119.453125 78.8125 C 119.910156 78.355469 120.523438 78.105469 121.167969 78.105469 C 123.316406 78.105469 124.398438 80.714844 122.878906 82.234375 L 120.589844 84.527344 Z M 117.570312 81.507812 " fill-opacity="1" fill-rule="evenodd"/><g clip-path="url(#ccebdd1d09)"><path fill="#c6f135" d="M 100.347656 61.167969 L 99.257812 60.140625 C 97.832031 58.796875 95.605469 58.796875 94.179688 60.140625 L 79.839844 73.683594 C 79.070312 74.414062 78.691406 75.296875 78.691406 76.367188 L 78.691406 117.894531 C 78.691406 119.925781 80.351562 121.585938 82.378906 121.585938 L 111.058594 121.585938 C 113.085938 121.585938 114.746094 119.925781 114.746094 117.894531 L 114.746094 94.359375 L 111.503906 97.601562 L 111.503906 116.761719 C 111.503906 117.652344 110.78125 118.375 109.890625 118.375 L 83.546875 118.375 C 82.65625 118.375 81.933594 117.652344 81.933594 116.761719 L 81.933594 97.359375 C 81.933594 96.46875 82.65625 95.746094 83.546875 95.746094 L 98.53125 95.746094 L 114.746094 79.53125 L 114.746094 76.367188 C 114.746094 75.296875 114.367188 74.414062 113.59375 73.683594 L 100.34375 61.167969 Z M 118.308594 86.238281 L 102.875 101.671875 L 98.574219 102.871094 L 99.980469 98.855469 L 115.453125 83.382812 Z M 117.972656 81.339844 L 120.589844 83.957031 L 122.59375 81.949219 C 123.859375 80.683594 122.964844 78.511719 121.167969 78.511719 C 120.648438 78.511719 120.128906 78.707031 119.738281 79.097656 L 117.972656 80.863281 Z M 117.972656 91.132812 L 117.972656 117.894531 C 117.972656 121.707031 114.867188 124.808594 111.058594 124.808594 L 82.378906 124.808594 C 78.570312 124.808594 75.464844 121.707031 75.464844 117.894531 L 75.464844 109.464844 L 64.109375 116.023438 C 63.625 116.308594 63.007812 116.335938 62.488281 116.035156 L 43.4375 105.042969 L 24.5 94.105469 C 23.960938 93.84375 23.589844 93.292969 23.589844 92.65625 L 23.589844 48.679688 L 23.59375 48.679688 C 23.59375 48.125 23.882812 47.585938 24.398438 47.289062 L 43.4375 36.296875 L 43.441406 36.296875 L 50.273438 32.351562 C 50.320312 32.324219 50.367188 32.296875 50.414062 32.269531 L 62.464844 25.316406 C 62.945312 25.027344 63.566406 25.003906 64.085938 25.300781 L 102.039062 47.214844 C 102.59375 47.46875 102.980469 48.03125 102.980469 48.679688 L 102.980469 59.230469 L 115.800781 71.339844 C 117.226562 72.6875 117.972656 74.40625 117.972656 76.367188 C 121.363281 73.757812 126.398438 76.121094 126.398438 80.523438 C 126.398438 81.871094 125.890625 83.214844 124.875 84.230469 Z M 108.277344 100.828125 L 108.277344 115.148438 L 85.160156 115.148438 L 85.160156 98.972656 L 96.53125 98.972656 L 94.523438 104.699219 C 94.082031 105.941406 95.21875 107.148438 96.464844 106.800781 L 104.035156 104.683594 C 104.335938 104.625 104.628906 104.480469 104.863281 104.242188 Z M 96.71875 66.085938 C 100.875 66.085938 104.25 69.457031 104.25 73.617188 C 104.25 77.773438 100.875 81.144531 96.71875 81.144531 C 92.5625 81.144531 89.1875 77.773438 89.1875 73.617188 C 89.1875 69.457031 92.5625 66.085938 96.71875 66.085938 Z M 99.761719 70.574219 C 101.441406 72.253906 101.441406 74.976562 99.761719 76.660156 C 97.058594 79.363281 92.414062 77.4375 92.414062 73.617188 C 92.414062 69.792969 97.058594 67.867188 99.761719 70.574219 Z M 99.757812 56.609375 C 97.199219 55.355469 94.097656 55.789062 91.976562 57.796875 L 90.113281 59.554688 L 89.925781 56.699219 L 99.757812 51.023438 Z M 87.074219 62.425781 L 78.433594 70.589844 L 77.722656 63.746094 L 86.816406 58.496094 Z M 75.632812 74.800781 L 74.671875 65.507812 L 64.894531 71.152344 L 64.894531 111.859375 C 64.894531 111.859375 75.464844 105.757812 75.464844 105.757812 L 75.464844 76.367188 C 75.464844 75.824219 75.523438 75.304688 75.632812 74.800781 Z M 72.847656 62.84375 L 39.121094 42.503906 L 28.804688 48.460938 L 63.28125 68.367188 Z M 42.308594 40.664062 L 45.050781 39.078125 L 51.132812 35.5625 L 85.074219 55.785156 L 76.035156 61.003906 Z M 54.324219 33.722656 L 88.265625 53.941406 L 97.769531 48.457031 L 63.285156 28.546875 Z M 61.679688 71.148438 L 26.816406 51.019531 L 26.816406 91.730469 L 61.679688 111.859375 Z M 61.679688 71.148438 " fill-opacity="1" fill-rule="evenodd"/></g></svg>