<svg xmlns="http://www.w3.org/2000/svg" xmlns:xlink="http://www.w3.org/1999/xlink" width="200" zoomAndPan="magnify" viewBox="0 0 150 157.92" height="200" preserveAspectRatio="xMidYMid meet" version="1.0"><defs><clipPath id="f3285377d2"><path d="M 27.207031 108 L 38 108 L 38 113 L 27.207031 113 Z M 27.207031 108 " clip-rule="nonzero"/></clipPath><clipPath id="51bb535566"><path d="M 27.207031 89 L 38 89 L 38 94 L 27.207031 94 Z M 27.207031 89 " clip-rule="nonzero"/></clipPath><clipPath id="11e70c4912"><path d="M 50 122 L 54 122 L 54 133.527344 L 50 133.527344 Z M 50 122 " clip-rule="nonzero"/></clipPath><clipPath id="19dd673095"><path d="M 27.207031 70 L 38 70 L 38 74 L 27.207031 74 Z M 27.207031 70 " clip-rule="nonzero"/></clipPath><clipPath id="0483a98b05"><path d="M 65 16.585938 L 69 16.585938 L 69 29 L 65 29 Z M 65 16.585938 " clip-rule="nonzero"/></clipPath></defs><path fill="#c6f135" d="M 40.3125 90.828125 C 40.3125 90.828125 40.3125 109.410156 40.3125 109.421875 L 40.3125 112.453125 C 40.3125 117.722656 44.132812 121.460938 48.851562 120.582031 L 51.480469 120.09375 C 51.496094 120.089844 51.511719 120.085938 51.53125 120.082031 L 66.984375 117.210938 C 67 117.207031 67.019531 117.203125 67.035156 117.203125 L 81.378906 114.535156 C 81.394531 114.535156 81.414062 114.527344 81.429688 114.527344 L 83.664062 114.109375 C 87.402344 113.417969 90.726562 109.199219 90.726562 104.671875 C 90.726562 104.671875 90.726562 102.179688 90.726562 102.167969 C 90.726562 102.167969 90.726562 102.117188 90.726562 102.101562 C 90.726562 102.101562 90.726562 91.621094 90.726562 91.609375 C 90.726562 91.609375 90.726562 87.0625 90.726562 87.054688 L 90.726562 72.871094 C 90.574219 72.734375 90.457031 72.613281 90.375 72.53125 C 89.070312 74.039062 87.742188 75.585938 86.386719 77.171875 L 86.386719 100.128906 C 86.386719 104.636719 82.914062 108.628906 79.171875 109.191406 L 55.128906 112.800781 C 50.433594 113.503906 46.496094 109.753906 46.496094 104.636719 L 46.496094 75.699219 C 46.496094 70.710938 50.363281 66.503906 54.921875 66.550781 L 78.960938 66.792969 C 78.980469 66.792969 79.003906 66.792969 79.023438 66.792969 C 80.132812 65.542969 81.222656 64.316406 82.296875 63.117188 L 82.046875 62.824219 C 81.554688 62.242188 81.234375 61.648438 81.027344 61.085938 C 81.027344 61.085938 67.210938 60.449219 67.203125 60.449219 C 67.203125 60.449219 62.65625 60.242188 62.648438 60.242188 C 62.648438 60.242188 51.773438 59.742188 51.765625 59.742188 L 49.054688 59.617188 C 44.246094 59.398438 40.304688 63.824219 40.304688 69.171875 C 40.304688 69.171875 40.304688 72.222656 40.304688 72.230469 C 40.3125 72.230469 40.3125 90.816406 40.3125 90.828125 Z M 40.3125 90.828125 " fill-opacity="1" fill-rule="evenodd"/><path fill="#c6f135" d="M 83.1875 117.265625 L 83.1875 125.144531 C 83.1875 125.976562 82.511719 126.648438 81.683594 126.648438 C 80.851562 126.648438 80.179688 125.976562 80.179688 125.144531 L 80.179688 117.828125 Z M 83.1875 117.265625 " fill-opacity="1" fill-rule="evenodd"/><g clip-path="url(#f3285377d2)"><path fill="#c6f135" d="M 37.300781 111.125 L 28.972656 112.246094 C 28.148438 112.359375 27.390625 111.78125 27.277344 110.957031 C 27.167969 110.132812 27.742188 109.371094 28.566406 109.261719 L 37.300781 108.085938 Z M 37.300781 111.125 " fill-opacity="1" fill-rule="evenodd"/></g><path fill="#c6f135" d="M 68.792969 119.941406 L 68.792969 128.359375 C 68.792969 129.191406 68.121094 129.867188 67.289062 129.867188 C 66.457031 129.867188 65.78125 129.191406 65.78125 128.359375 L 65.78125 120.503906 Z M 68.792969 119.941406 " fill-opacity="1" fill-rule="evenodd"/><g clip-path="url(#51bb535566)"><path fill="#c6f135" d="M 37.300781 92.429688 L 28.878906 93.015625 C 28.046875 93.074219 27.328125 92.449219 27.269531 91.621094 C 27.210938 90.792969 27.835938 90.070312 28.664062 90.011719 L 37.300781 89.410156 Z M 37.300781 92.429688 " fill-opacity="1" fill-rule="evenodd"/></g><g clip-path="url(#11e70c4912)"><path fill="#c6f135" d="M 53.289062 122.820312 L 53.289062 131.824219 C 53.289062 132.65625 52.613281 133.328125 51.78125 133.328125 C 50.949219 133.328125 50.277344 132.65625 50.277344 131.824219 L 50.277344 123.382812 Z M 53.289062 122.820312 " fill-opacity="1" fill-rule="evenodd"/></g><g clip-path="url(#19dd673095)"><path fill="#c6f135" d="M 37.300781 73.738281 L 28.78125 73.78125 C 27.949219 73.785156 27.269531 73.113281 27.265625 72.28125 C 27.261719 71.449219 27.933594 70.773438 28.765625 70.769531 L 37.300781 70.726562 Z M 37.300781 73.738281 " fill-opacity="1" fill-rule="evenodd"/></g><path fill="#c6f135" d="M 94.460938 70.433594 C 94.5625 70.226562 94.585938 70.027344 94.59375 69.980469 L 96.890625 58.292969 C 96.917969 58.140625 97.082031 57.226562 96.359375 56.332031 C 96.289062 56.242188 95.828125 55.546875 95.09375 55.6875 C 89.832031 56.707031 85.417969 57.59375 84.578125 57.761719 C 83.863281 57.902344 83.78125 58.660156 83.761719 58.761719 C 83.730469 58.929688 83.542969 59.933594 84.347656 60.878906 L 85.445312 62.175781 C 85.933594 62.75 85.921875 63.59375 85.417969 64.15625 C 77.773438 72.667969 69.136719 82.574219 60.496094 92.863281 C 59.726562 93.78125 59.820312 95.285156 60.640625 96.113281 L 62.648438 98.144531 C 63.324219 98.820312 64.445312 98.78125 65.082031 97.996094 C 73.449219 87.722656 81.835938 77.773438 89.234375 69.25 C 89.28125 69.195312 89.328125 69.144531 89.386719 69.097656 C 89.949219 68.609375 90.792969 68.609375 91.359375 69.101562 C 91.410156 69.148438 91.460938 69.199219 91.507812 69.253906 L 92.542969 70.449219 Z M 94.460938 70.433594 " fill-opacity="1" fill-rule="evenodd"/><path fill="#c6f135" d="M 66.902344 31.757812 L 63.816406 31.273438 C 58.019531 30.359375 53.355469 35.320312 53.355469 41.722656 C 53.355469 41.722656 53.355469 45.386719 53.355469 45.402344 L 53.355469 56.800781 L 61.222656 57.164062 L 61.222656 50.59375 C 61.222656 44.703125 65.730469 40.222656 70.976562 40.8125 L 98.527344 43.894531 C 102.632812 44.355469 106.511719 48.675781 106.511719 53.84375 L 106.511719 82.78125 C 106.511719 87.972656 102.605469 92.214844 98.492188 92.582031 L 93.738281 93.007812 L 93.738281 100.40625 C 93.738281 100.40625 101.234375 99.398438 101.246094 99.394531 L 103.757812 99.058594 C 107.910156 98.5 111.648438 93.871094 111.648438 88.566406 C 111.648438 88.566406 111.648438 85.71875 111.648438 85.710938 C 111.648438 85.710938 111.648438 68.398438 111.648438 68.386719 C 111.648438 68.386719 111.648438 51.078125 111.648438 51.066406 L 111.648438 48.242188 C 111.648438 42.925781 107.898438 38.195312 103.726562 37.539062 C 103.726562 37.539062 101.1875 37.140625 101.171875 37.140625 C 101.171875 37.140625 84.871094 34.582031 84.855469 34.578125 C 84.859375 34.574219 66.917969 31.757812 66.902344 31.757812 Z M 66.902344 31.757812 " fill-opacity="1" fill-rule="evenodd"/><g clip-path="url(#0483a98b05)"><path fill="#c6f135" d="M 65.652344 28.507812 L 65.652344 18.09375 C 65.652344 17.261719 66.328125 16.585938 67.160156 16.585938 C 67.992188 16.585938 68.664062 17.261719 68.664062 18.09375 L 68.664062 28.984375 Z M 65.652344 28.507812 " fill-opacity="1" fill-rule="evenodd"/></g><path fill="#c6f135" d="M 114.664062 49.707031 L 121.371094 50.332031 C 122.199219 50.410156 122.808594 51.144531 122.730469 51.96875 C 122.652344 52.796875 121.917969 53.40625 121.089844 53.328125 L 114.664062 52.734375 Z M 114.664062 49.707031 " fill-opacity="1" fill-rule="evenodd"/><path fill="#c6f135" d="M 102.9375 102.207031 L 102.9375 111.453125 C 102.9375 112.285156 102.261719 112.957031 101.433594 112.957031 C 100.601562 112.957031 99.925781 112.285156 99.925781 111.453125 L 99.925781 102.613281 Z M 102.9375 102.207031 " fill-opacity="1" fill-rule="evenodd"/><path fill="#c6f135" d="M 83.613281 31.332031 L 83.613281 21.761719 C 83.613281 20.929688 84.285156 20.253906 85.117188 20.253906 C 85.949219 20.253906 86.621094 20.929688 86.621094 21.761719 L 86.621094 31.800781 Z M 83.613281 31.332031 " fill-opacity="1" fill-rule="evenodd"/><path fill="#c6f135" d="M 114.664062 66.914062 L 121.246094 66.984375 C 122.078125 66.996094 122.746094 67.675781 122.734375 68.507812 C 122.726562 69.339844 122.042969 70.007812 121.210938 69.996094 L 114.664062 69.921875 Z M 114.664062 66.914062 " fill-opacity="1" fill-rule="evenodd"/><path fill="#c6f135" d="M 99.925781 33.890625 L 99.925781 25.09375 C 99.925781 24.261719 100.601562 23.585938 101.433594 23.585938 C 102.265625 23.585938 102.9375 24.261719 102.9375 25.09375 L 102.9375 34.367188 Z M 99.925781 33.890625 " fill-opacity="1" fill-rule="evenodd"/><path fill="#c6f135" d="M 114.664062 84.109375 L 121.121094 83.652344 C 121.953125 83.59375 122.671875 84.21875 122.730469 85.050781 C 122.789062 85.878906 122.164062 86.597656 121.335938 86.65625 L 114.664062 87.125 Z M 114.664062 84.109375 " fill-opacity="1" fill-rule="evenodd"/><path fill="#c6f135" d="M 50.34375 46.757812 L 39.707031 45.769531 C 38.878906 45.691406 38.269531 44.957031 38.347656 44.132812 C 38.425781 43.304688 39.15625 42.695312 39.988281 42.773438 L 50.34375 43.734375 Z M 50.34375 46.757812 " fill-opacity="1" fill-rule="evenodd"/><path fill="#c6f135" d="M 76.386719 69.777344 L 54.890625 69.5625 C 51.902344 69.53125 49.511719 72.425781 49.511719 75.699219 L 49.511719 104.636719 C 49.511719 107.792969 51.789062 110.257812 54.683594 109.824219 L 78.722656 106.214844 C 81.195312 105.84375 83.375 103.109375 83.375 100.128906 L 83.375 80.710938 C 78.230469 86.769531 72.824219 93.265625 67.421875 99.898438 C 65.613281 102.121094 62.433594 102.191406 60.519531 100.265625 L 60.519531 100.261719 L 58.503906 98.230469 C 56.660156 96.359375 56.46875 92.980469 58.195312 90.921875 C 64.382812 83.554688 70.5625 76.382812 76.386719 69.777344 Z M 76.386719 69.777344 " fill-opacity="1" fill-rule="evenodd"/><path fill="#c6f135" d="M 93.738281 88.476562 L 93.738281 89.984375 L 98.226562 89.585938 C 101.019531 89.335938 103.5 86.308594 103.5 82.78125 L 103.5 53.84375 C 103.5 50.300781 101.007812 47.203125 98.195312 46.890625 L 70.640625 43.804688 C 67.09375 43.410156 64.234375 46.613281 64.234375 50.59375 L 64.234375 57.300781 L 65.777344 57.371094 L 65.777344 49.277344 C 65.777344 48.445312 66.449219 47.773438 67.28125 47.773438 C 68.113281 47.773438 68.789062 48.445312 68.789062 49.277344 L 68.789062 57.511719 L 80.171875 58.03125 L 80.171875 50.480469 C 80.171875 49.648438 80.84375 48.972656 81.675781 48.972656 C 82.507812 48.972656 83.179688 49.648438 83.179688 50.480469 L 83.179688 55.054688 C 83.421875 54.949219 83.6875 54.867188 83.980469 54.808594 C 84.820312 54.636719 89.246094 53.75 94.515625 52.730469 C 96.851562 52.277344 98.472656 54.160156 98.695312 54.4375 C 100.324219 56.453125 99.902344 58.527344 99.835938 58.875 L 97.566406 70.421875 L 99.59375 70.414062 C 100.425781 70.40625 101.101562 71.078125 101.109375 71.910156 C 101.113281 72.742188 100.441406 73.421875 99.609375 73.421875 L 95.640625 73.441406 C 95.332031 73.636719 94.976562 73.796875 94.566406 73.902344 C 94.277344 73.976562 93.996094 74.019531 93.730469 74.03125 L 93.730469 85.460938 L 99.496094 85.054688 C 100.324219 84.996094 101.046875 85.621094 101.105469 86.453125 C 101.164062 87.28125 100.535156 88 99.707031 88.058594 Z M 93.738281 88.476562 " fill-opacity="1" fill-rule="evenodd"/></svg>