<svg xmlns="http://www.w3.org/2000/svg" xmlns:xlink="http://www.w3.org/1999/xlink" width="200" zoomAndPan="magnify" viewBox="0 0 150 157.92" height="200" preserveAspectRatio="xMidYMid meet" version="1.0"><defs><clipPath id="eb3c4421bb"><path d="M 24.351562 15 L 125.550781 15 L 125.550781 134.933594 L 24.351562 134.933594 Z M 24.351562 15 " clip-rule="nonzero"/></clipPath></defs><g clip-path="url(#eb3c4421bb)"><path fill="#1a2e22" d="M 75.023438 15.117188 C 80.15625 15.117188 84.597656 18.242188 86.535156 22.679688 C 88.136719 26.347656 90.355469 27.972656 94.425781 26.234375 C 99.003906 24.277344 104.535156 25.160156 108.257812 28.882812 C 111.886719 32.511719 112.816406 37.859375 111.046875 42.371094 C 109.585938 46.097656 110.007812 48.8125 114.117188 50.460938 C 118.757812 52.308594 122.023438 56.835938 122.023438 62.117188 C 122.023438 67.394531 118.757812 71.925781 114.117188 73.769531 C 110.007812 75.417969 109.585938 78.136719 111.046875 81.859375 C 112.816406 86.371094 111.886719 91.71875 108.257812 95.347656 C 104.535156 99.070312 99.003906 99.953125 94.425781 98 C 90.355469 96.261719 88.136719 97.882812 86.535156 101.550781 C 84.597656 105.992188 80.15625 109.113281 75.023438 109.113281 C 69.890625 109.113281 65.449219 105.992188 63.511719 101.550781 C 61.910156 97.882812 59.691406 96.261719 55.621094 98 C 51.042969 99.953125 45.511719 99.070312 41.789062 95.347656 C 38.160156 91.71875 37.230469 86.371094 39 81.859375 C 40.460938 78.136719 40.039062 75.417969 35.929688 73.769531 C 31.289062 71.925781 28.023438 67.394531 28.023438 62.117188 C 28.023438 56.835938 31.289062 52.308594 35.929688 50.460938 C 40.039062 48.8125 40.460938 46.097656 39 42.371094 C 37.230469 37.859375 38.160156 32.511719 41.789062 28.882812 C 45.511719 25.160156 51.042969 24.277344 55.621094 26.234375 C 59.691406 27.972656 61.910156 26.351562 63.511719 22.679688 C 65.449219 18.242188 69.890625 15.117188 75.023438 15.117188 Z M 64.59375 109.890625 C 62.414062 108.183594 60.644531 105.9375 59.492188 103.304688 C 59.34375 102.957031 58.875 101.980469 58.53125 101.683594 C 58.210938 101.6875 57.582031 101.929688 57.34375 102.03125 C 51 104.742188 43.585938 103.347656 38.691406 98.449219 C 38.191406 97.949219 37.730469 97.425781 37.304688 96.878906 L 24.617188 118.851562 C 24.28125 119.4375 24.296875 120.113281 24.65625 120.683594 C 25.019531 121.253906 25.625 121.554688 26.296875 121.496094 L 38.476562 120.472656 L 39.070312 119.441406 L 42.234375 113.960938 L 42.242188 113.949219 L 43.789062 111.269531 C 44.386719 110.222656 45.722656 109.863281 46.765625 110.464844 C 47.8125 111.0625 48.171875 112.398438 47.570312 113.441406 L 46.015625 116.136719 L 42.851562 121.617188 L 42.84375 121.628906 L 42.308594 122.558594 L 47.589844 133.792969 C 47.878906 134.402344 48.441406 134.777344 49.117188 134.804688 C 49.789062 134.832031 50.382812 134.507812 50.71875 133.921875 Z M 112.742188 96.878906 C 112.316406 97.425781 111.855469 97.949219 111.355469 98.449219 C 106.460938 103.347656 99.046875 104.742188 92.703125 102.03125 C 92.464844 101.929688 91.835938 101.6875 91.515625 101.683594 C 91.171875 101.980469 90.703125 102.957031 90.554688 103.304688 C 89.402344 105.9375 87.632812 108.183594 85.449219 109.890625 L 99.328125 133.921875 C 99.664062 134.507812 100.257812 134.832031 100.929688 134.804688 C 101.605469 134.777344 102.167969 134.402344 102.457031 133.792969 L 107.738281 122.558594 L 107.195312 121.621094 L 107.195312 121.617188 L 103.757812 115.667969 L 102.476562 113.441406 C 101.875 112.398438 102.234375 111.0625 103.28125 110.464844 C 104.324219 109.863281 105.660156 110.222656 106.257812 111.269531 L 107.542969 113.488281 L 107.542969 113.492188 L 110.976562 119.441406 L 111.574219 120.472656 L 123.75 121.496094 C 124.421875 121.554688 125.027344 121.253906 125.390625 120.683594 C 125.75 120.113281 125.765625 119.4375 125.429688 118.851562 Z M 71.382812 64.230469 L 66.539062 58.273438 C 65.148438 56.558594 62.574219 56.292969 60.859375 57.683594 C 59.148438 59.078125 58.878906 61.648438 60.273438 63.363281 L 68.707031 73.742188 C 70.09375 75.449219 72.648438 75.722656 74.367188 74.347656 L 74.40625 74.316406 C 74.652344 74.132812 74.886719 73.90625 75.089844 73.65625 L 89.773438 55.582031 C 91.167969 53.867188 90.902344 51.292969 89.1875 49.902344 C 87.472656 48.507812 84.898438 48.777344 83.507812 50.492188 L 72.339844 64.230469 C 72.214844 64.386719 72.0625 64.460938 71.859375 64.460938 C 71.660156 64.460938 71.507812 64.386719 71.382812 64.230469 Z M 75.023438 35.097656 C 60.101562 35.097656 48.003906 47.195312 48.003906 62.117188 C 48.003906 77.039062 60.101562 89.136719 75.023438 89.136719 C 89.945312 89.136719 102.042969 77.039062 102.042969 62.117188 C 102.042969 47.195312 89.945312 35.097656 75.023438 35.097656 Z M 75.023438 35.097656 " fill-opacity="1" fill-rule="evenodd"/></g></svg>