<svg xmlns="http://www.w3.org/2000/svg" xmlns:xlink="http://www.w3.org/1999/xlink" width="200" zoomAndPan="magnify" viewBox="0 0 150 157.92" height="200" preserveAspectRatio="xMidYMid meet" version="1.0"><defs><clipPath id="110670a6fb"><path d="M 73 112 L 77 112 L 77 134.933594 L 73 134.933594 Z M 73 112 " clip-rule="nonzero"/></clipPath><clipPath id="bf441470bf"><path d="M 21.550781 15 L 128.746094 15 L 128.746094 79 L 21.550781 79 Z M 21.550781 15 " clip-rule="nonzero"/></clipPath></defs><path fill="#c6f135" d="M 60.621094 67.796875 L 60.621094 93.640625 L 89.359375 93.640625 L 89.359375 67.753906 C 89.558594 60.828125 88.300781 54.5625 85.320312 48.382812 L 64.648438 48.382812 C 61.671875 54.5625 60.414062 60.828125 60.621094 67.753906 Z M 84.382812 66.101562 C 84.382812 71.285156 80.167969 75.5 74.984375 75.5 C 69.800781 75.5 65.597656 71.285156 65.597656 66.101562 C 65.597656 60.921875 69.8125 56.710938 74.984375 56.710938 C 80.15625 56.710938 84.382812 60.921875 84.382812 66.101562 Z M 84.382812 66.101562 " fill-opacity="1" fill-rule="evenodd"/><path fill="#c6f135" d="M 68.65625 66.101562 C 68.65625 69.597656 71.496094 72.441406 74.984375 72.441406 C 78.472656 72.441406 81.324219 69.597656 81.324219 66.101562 C 81.324219 62.609375 78.484375 59.769531 74.984375 59.769531 C 71.488281 59.769531 68.65625 62.609375 68.65625 66.101562 Z M 68.65625 66.101562 " fill-opacity="1" fill-rule="evenodd"/><path fill="#c6f135" d="M 66.269531 45.324219 L 83.707031 45.324219 C 81.5 41.484375 78.613281 37.644531 74.980469 33.660156 C 71.359375 37.644531 68.476562 41.484375 66.269531 45.324219 Z M 66.269531 45.324219 " fill-opacity="1" fill-rule="evenodd"/><path fill="#c6f135" d="M 57.5625 94.429688 L 57.5625 76.632812 L 51.59375 83.105469 L 51.59375 99.132812 Z M 57.5625 94.429688 " fill-opacity="1" fill-rule="evenodd"/><path fill="#c6f135" d="M 92.417969 76.632812 L 92.417969 94.429688 L 98.375 99.132812 L 98.375 83.105469 Z M 92.417969 76.632812 " fill-opacity="1" fill-rule="evenodd"/><path fill="#c6f135" d="M 83.207031 96.699219 L 66.769531 96.699219 L 63.285156 105.144531 L 86.683594 105.144531 Z M 83.207031 96.699219 " fill-opacity="1" fill-rule="evenodd"/><path fill="#c6f135" d="M 66.554688 113.859375 C 66.554688 113.015625 65.867188 112.328125 65.023438 112.328125 C 64.179688 112.328125 63.496094 113.015625 63.496094 113.859375 L 63.496094 126.625 C 63.496094 127.46875 64.179688 128.15625 65.023438 128.15625 C 65.867188 128.15625 66.554688 127.46875 66.554688 126.625 Z M 66.554688 113.859375 " fill-opacity="1" fill-rule="evenodd"/><g clip-path="url(#110670a6fb)"><path fill="#c6f135" d="M 73.457031 113.859375 L 73.457031 133.339844 C 73.457031 134.183594 74.140625 134.871094 74.984375 134.871094 C 75.828125 134.871094 76.515625 134.183594 76.515625 133.339844 L 76.515625 113.859375 C 76.515625 113.015625 75.828125 112.328125 74.984375 112.328125 C 74.140625 112.328125 73.457031 113.015625 73.457031 113.859375 Z M 73.457031 113.859375 " fill-opacity="1" fill-rule="evenodd"/></g><path fill="#c6f135" d="M 83.425781 113.859375 L 83.425781 126.625 C 83.425781 127.46875 84.109375 128.15625 84.957031 128.15625 C 85.800781 128.15625 86.484375 127.46875 86.484375 126.625 L 86.484375 113.859375 C 86.484375 113.015625 85.800781 112.328125 84.957031 112.328125 C 84.109375 112.328125 83.425781 113.015625 83.425781 113.859375 Z M 83.425781 113.859375 " fill-opacity="1" fill-rule="evenodd"/><g clip-path="url(#bf441470bf)"><path fill="#c6f135" d="M 98.03125 78.214844 L 110.5625 78.214844 C 120.410156 78.214844 128.425781 70.199219 128.425781 60.347656 C 128.425781 51.042969 121.160156 43.21875 111.886719 42.53125 C 111.28125 42.488281 110.761719 42.089844 110.550781 41.519531 C 107.785156 33.742188 100.375 28.515625 92.109375 28.515625 C 90.820312 28.515625 89.515625 28.644531 88.257812 28.898438 C 87.589844 29.027344 86.914062 28.707031 86.601562 28.105469 C 82.386719 20.054688 74.121094 15.054688 65.035156 15.054688 C 51.628906 15.054688 40.71875 25.96875 40.71875 39.378906 C 40.71875 39.855469 40.730469 40.34375 40.761719 40.867188 C 40.78125 41.285156 40.636719 41.695312 40.355469 42 C 40.066406 42.304688 39.667969 42.480469 39.25 42.488281 C 29.488281 42.574219 21.546875 50.589844 21.546875 60.347656 C 21.546875 70.109375 29.5625 78.214844 39.421875 78.214844 L 51.953125 78.214844 L 57.5625 72.117188 L 57.5625 67.820312 C 57.0625 50.613281 65.539062 39.230469 73.875 30.359375 C 74.164062 30.050781 74.570312 29.878906 74.988281 29.878906 C 75.402344 29.878906 75.820312 30.050781 76.101562 30.359375 C 84.449219 39.230469 92.910156 50.613281 92.421875 67.820312 L 92.421875 72.117188 Z M 98.03125 78.214844 " fill-opacity="1" fill-rule="evenodd"/></g></svg>