<svg xmlns="http://www.w3.org/2000/svg" xmlns:xlink="http://www.w3.org/1999/xlink" width="800" zoomAndPan="magnify" viewBox="0 0 600 449.999984" height="600" preserveAspectRatio="xMidYMid meet" version="1.0"><defs><clipPath id="17b0ed746e"><path d="M 570 367 L 590 367 L 590 389 L 570 389 Z M 570 367 " clip-rule="nonzero"/></clipPath><clipPath id="f06fba7ffc"><path d="M 629.804688 548.105469 L 453.574219 511.46875 L 536.921875 110.539062 L 713.15625 147.175781 Z M 629.804688 548.105469 " clip-rule="nonzero"/></clipPath><clipPath id="328f1be9c0"><path d="M 629.804688 548.105469 L 453.574219 511.46875 L 536.921875 110.539062 L 713.15625 147.175781 Z M 629.804688 548.105469 " clip-rule="nonzero"/></clipPath><clipPath id="6e62157e99"><path d="M 517 215 L 537 215 L 537 236 L 517 236 Z M 517 215 " clip-rule="nonzero"/></clipPath><clipPath id="720a462942"><path d="M 629.804688 548.105469 L 453.574219 511.46875 L 536.921875 110.539062 L 713.15625 147.175781 Z M 629.804688 548.105469 " clip-rule="nonzero"/></clipPath><clipPath id="84fce14e19"><path d="M 629.804688 548.105469 L 453.574219 511.46875 L 536.921875 110.539062 L 713.15625 147.175781 Z M 629.804688 548.105469 " clip-rule="nonzero"/></clipPath><clipPath id="16e5d84ba6"><path d="M 592 296 L 600 296 L 600 317 L 592 317 Z M 592 296 " clip-rule="nonzero"/></clipPath><clipPath id="74378a0fae"><path d="M 629.804688 548.105469 L 453.574219 511.46875 L 536.921875 110.539062 L 713.15625 147.175781 Z M 629.804688 548.105469 " clip-rule="nonzero"/></clipPath><clipPath id="531dd39f0e"><path d="M 629.804688 548.105469 L 453.574219 511.46875 L 536.921875 110.539062 L 713.15625 147.175781 Z M 629.804688 548.105469 " clip-rule="nonzero"/></clipPath><clipPath id="6929037f77"><path d="M 591 242 L 600 242 L 600 260 L 591 260 Z M 591 242 " clip-rule="nonzero"/></clipPath><clipPath id="991bdce5e7"><path d="M 629.804688 548.105469 L 453.574219 511.46875 L 536.921875 110.539062 L 713.15625 147.175781 Z M 629.804688 548.105469 " clip-rule="nonzero"/></clipPath><clipPath id="fc296c38be"><path d="M 629.804688 548.105469 L 453.574219 511.46875 L 536.921875 110.539062 L 713.15625 147.175781 Z M 629.804688 548.105469 " clip-rule="nonzero"/></clipPath><clipPath id="a4b1133f8a"><path d="M 537 371 L 552 371 L 552 386 L 537 386 Z M 537 371 " clip-rule="nonzero"/></clipPath><clipPath id="d003ebfa72"><path d="M 629.804688 548.105469 L 453.574219 511.46875 L 536.921875 110.539062 L 713.15625 147.175781 Z M 629.804688 548.105469 " clip-rule="nonzero"/></clipPath><clipPath id="ada4336180"><path d="M 629.804688 548.105469 L 453.574219 511.46875 L 536.921875 110.539062 L 713.15625 147.175781 Z M 629.804688 548.105469 " clip-rule="nonzero"/></clipPath><clipPath id="1bf75657cd"><path d="M 586 168 L 600 168 L 600 183 L 586 183 Z M 586 168 " clip-rule="nonzero"/></clipPath><clipPath id="8b93cf3a39"><path d="M 629.804688 548.105469 L 453.574219 511.46875 L 536.921875 110.539062 L 713.15625 147.175781 Z M 629.804688 548.105469 " clip-rule="nonzero"/></clipPath><clipPath id="042b5d591f"><path d="M 629.804688 548.105469 L 453.574219 511.46875 L 536.921875 110.539062 L 713.15625 147.175781 Z M 629.804688 548.105469 " clip-rule="nonzero"/></clipPath><clipPath id="3172f29b07"><path d="M 540 422 L 555 422 L 555 436 L 540 436 Z M 540 422 " clip-rule="nonzero"/></clipPath><clipPath id="807bebce75"><path d="M 629.804688 548.105469 L 453.574219 511.46875 L 536.921875 110.539062 L 713.15625 147.175781 Z M 629.804688 548.105469 " clip-rule="nonzero"/></clipPath><clipPath id="04e85d5b63"><path d="M 629.804688 548.105469 L 453.574219 511.46875 L 536.921875 110.539062 L 713.15625 147.175781 Z M 629.804688 548.105469 " clip-rule="nonzero"/></clipPath><clipPath id="f723b05464"><path d="M 597 125 L 600 125 L 600 139 L 597 139 Z M 597 125 " clip-rule="nonzero"/></clipPath><clipPath id="8cf9d85a1f"><path d="M 629.804688 548.105469 L 453.574219 511.46875 L 536.921875 110.539062 L 713.15625 147.175781 Z M 629.804688 548.105469 " clip-rule="nonzero"/></clipPath><clipPath id="734fc92583"><path d="M 629.804688 548.105469 L 453.574219 511.46875 L 536.921875 110.539062 L 713.15625 147.175781 Z M 629.804688 548.105469 " clip-rule="nonzero"/></clipPath><clipPath id="b8dc18b0bd"><path d="M 561 320 L 574 320 L 574 333 L 561 333 Z M 561 320 " clip-rule="nonzero"/></clipPath><clipPath id="6108c5964b"><path d="M 629.804688 548.105469 L 453.574219 511.46875 L 536.921875 110.539062 L 713.15625 147.175781 Z M 629.804688 548.105469 " clip-rule="nonzero"/></clipPath><clipPath id="96ad8f9786"><path d="M 629.804688 548.105469 L 453.574219 511.46875 L 536.921875 110.539062 L 713.15625 147.175781 Z M 629.804688 548.105469 " clip-rule="nonzero"/></clipPath><clipPath id="f1059497c5"><path d="M 522 391 L 533 391 L 533 402 L 522 402 Z M 522 391 " clip-rule="nonzero"/></clipPath><clipPath id="0512c77baf"><path d="M 629.804688 548.105469 L 453.574219 511.46875 L 536.921875 110.539062 L 713.15625 147.175781 Z M 629.804688 548.105469 " clip-rule="nonzero"/></clipPath><clipPath id="1b53bf6f49"><path d="M 629.804688 548.105469 L 453.574219 511.46875 L 536.921875 110.539062 L 713.15625 147.175781 Z M 629.804688 548.105469 " clip-rule="nonzero"/></clipPath><clipPath id="710ecd93bb"><path d="M 564 274 L 574 274 L 574 284 L 564 284 Z M 564 274 " clip-rule="nonzero"/></clipPath><clipPath id="094b5d1bcc"><path d="M 629.804688 548.105469 L 453.574219 511.46875 L 536.921875 110.539062 L 713.15625 147.175781 Z M 629.804688 548.105469 " clip-rule="nonzero"/></clipPath><clipPath id="1caa2c423f"><path d="M 629.804688 548.105469 L 453.574219 511.46875 L 536.921875 110.539062 L 713.15625 147.175781 Z M 629.804688 548.105469 " clip-rule="nonzero"/></clipPath><clipPath id="444ae4161a"><path d="M 529 356 L 536 356 L 536 363 L 529 363 Z M 529 356 " clip-rule="nonzero"/></clipPath><clipPath id="281b810348"><path d="M 629.804688 548.105469 L 453.574219 511.46875 L 536.921875 110.539062 L 713.15625 147.175781 Z M 629.804688 548.105469 " clip-rule="nonzero"/></clipPath><clipPath id="749a69d598"><path d="M 629.804688 548.105469 L 453.574219 511.46875 L 536.921875 110.539062 L 713.15625 147.175781 Z M 629.804688 548.105469 " clip-rule="nonzero"/></clipPath><clipPath id="cc834c4a89"><path d="M 573 295 L 580 295 L 580 303 L 573 303 Z M 573 295 " clip-rule="nonzero"/></clipPath><clipPath id="006675dc1a"><path d="M 629.804688 548.105469 L 453.574219 511.46875 L 536.921875 110.539062 L 713.15625 147.175781 Z M 629.804688 548.105469 " clip-rule="nonzero"/></clipPath><clipPath id="b11a2cbbf2"><path d="M 629.804688 548.105469 L 453.574219 511.46875 L 536.921875 110.539062 L 713.15625 147.175781 Z M 629.804688 548.105469 " clip-rule="nonzero"/></clipPath><clipPath id="0c7ee036e4"><path d="M 589 270 L 596 270 L 596 277 L 589 277 Z M 589 270 " clip-rule="nonzero"/></clipPath><clipPath id="8f80ae47ff"><path d="M 629.804688 548.105469 L 453.574219 511.46875 L 536.921875 110.539062 L 713.15625 147.175781 Z M 629.804688 548.105469 " clip-rule="nonzero"/></clipPath><clipPath id="d5c5447fa8"><path d="M 629.804688 548.105469 L 453.574219 511.46875 L 536.921875 110.539062 L 713.15625 147.175781 Z M 629.804688 548.105469 " clip-rule="nonzero"/></clipPath><clipPath id="b2b98a88ae"><path d="M 508 421 L 515 421 L 515 428 L 508 428 Z M 508 421 " clip-rule="nonzero"/></clipPath><clipPath id="f57c42ce54"><path d="M 629.804688 548.105469 L 453.574219 511.46875 L 536.921875 110.539062 L 713.15625 147.175781 Z M 629.804688 548.105469 " clip-rule="nonzero"/></clipPath><clipPath id="8220e167e0"><path d="M 629.804688 548.105469 L 453.574219 511.46875 L 536.921875 110.539062 L 713.15625 147.175781 Z M 629.804688 548.105469 " clip-rule="nonzero"/></clipPath><clipPath id="5b6bd9334c"><path d="M 550 304 L 558 304 L 558 311 L 550 311 Z M 550 304 " clip-rule="nonzero"/></clipPath><clipPath id="8534eb6b74"><path d="M 629.804688 548.105469 L 453.574219 511.46875 L 536.921875 110.539062 L 713.15625 147.175781 Z M 629.804688 548.105469 " clip-rule="nonzero"/></clipPath><clipPath id="b05cf95812"><path d="M 629.804688 548.105469 L 453.574219 511.46875 L 536.921875 110.539062 L 713.15625 147.175781 Z M 629.804688 548.105469 " clip-rule="nonzero"/></clipPath><clipPath id="9334aad0d4"><path d="M 520 441 L 527 441 L 527 448 L 520 448 Z M 520 441 " clip-rule="nonzero"/></clipPath><clipPath id="3b3a27d430"><path d="M 629.804688 548.105469 L 453.574219 511.46875 L 536.921875 110.539062 L 713.15625 147.175781 Z M 629.804688 548.105469 " clip-rule="nonzero"/></clipPath><clipPath id="b495ce918c"><path d="M 629.804688 548.105469 L 453.574219 511.46875 L 536.921875 110.539062 L 713.15625 147.175781 Z M 629.804688 548.105469 " clip-rule="nonzero"/></clipPath><clipPath id="5da7f8b2a9"><path d="M 551 396 L 558 396 L 558 402 L 551 402 Z M 551 396 " clip-rule="nonzero"/></clipPath><clipPath id="641252338f"><path d="M 629.804688 548.105469 L 453.574219 511.46875 L 536.921875 110.539062 L 713.15625 147.175781 Z M 629.804688 548.105469 " clip-rule="nonzero"/></clipPath><clipPath id="22a03e15f5"><path d="M 629.804688 548.105469 L 453.574219 511.46875 L 536.921875 110.539062 L 713.15625 147.175781 Z M 629.804688 548.105469 " clip-rule="nonzero"/></clipPath><clipPath id="edc0183285"><path d="M 574 352 L 580 352 L 580 358 L 574 358 Z M 574 352 " clip-rule="nonzero"/></clipPath><clipPath id="31b9b1e66e"><path d="M 629.804688 548.105469 L 453.574219 511.46875 L 536.921875 110.539062 L 713.15625 147.175781 Z M 629.804688 548.105469 " clip-rule="nonzero"/></clipPath><clipPath id="addafd8927"><path d="M 629.804688 548.105469 L 453.574219 511.46875 L 536.921875 110.539062 L 713.15625 147.175781 Z M 629.804688 548.105469 " clip-rule="nonzero"/></clipPath><clipPath id="1df8f50ea2"><path d="M 552 341 L 557 341 L 557 346 L 552 346 Z M 552 341 " clip-rule="nonzero"/></clipPath><clipPath id="2ec06b980a"><path d="M 629.804688 548.105469 L 453.574219 511.46875 L 536.921875 110.539062 L 713.15625 147.175781 Z M 629.804688 548.105469 " clip-rule="nonzero"/></clipPath><clipPath id="e1b7408fa6"><path d="M 629.804688 548.105469 L 453.574219 511.46875 L 536.921875 110.539062 L 713.15625 147.175781 Z M 629.804688 548.105469 " clip-rule="nonzero"/></clipPath><clipPath id="eeb6b847ce"><path d="M 534 409 L 540 409 L 540 414 L 534 414 Z M 534 409 " clip-rule="nonzero"/></clipPath><clipPath id="83b00d54a6"><path d="M 629.804688 548.105469 L 453.574219 511.46875 L 536.921875 110.539062 L 713.15625 147.175781 Z M 629.804688 548.105469 " clip-rule="nonzero"/></clipPath><clipPath id="da6e64a08e"><path d="M 629.804688 548.105469 L 453.574219 511.46875 L 536.921875 110.539062 L 713.15625 147.175781 Z M 629.804688 548.105469 " clip-rule="nonzero"/></clipPath><clipPath id="071b0cf50f"><path d="M 571 199 L 586 199 L 586 214 L 571 214 Z M 571 199 " clip-rule="nonzero"/></clipPath><clipPath id="0bcfd36261"><path d="M 629.804688 548.105469 L 453.574219 511.46875 L 536.921875 110.539062 L 713.15625 147.175781 Z M 629.804688 548.105469 " clip-rule="nonzero"/></clipPath><clipPath id="d92009d386"><path d="M 629.804688 548.105469 L 453.574219 511.46875 L 536.921875 110.539062 L 713.15625 147.175781 Z M 629.804688 548.105469 " clip-rule="nonzero"/></clipPath><clipPath id="36afbb3b6e"><path d="M 524 167 L 539 167 L 539 182 L 524 182 Z M 524 167 " clip-rule="nonzero"/></clipPath><clipPath id="bf1ef8413f"><path d="M 629.804688 548.105469 L 453.574219 511.46875 L 536.921875 110.539062 L 713.15625 147.175781 Z M 629.804688 548.105469 " clip-rule="nonzero"/></clipPath><clipPath id="5195c9c25d"><path d="M 629.804688 548.105469 L 453.574219 511.46875 L 536.921875 110.539062 L 713.15625 147.175781 Z M 629.804688 548.105469 " clip-rule="nonzero"/></clipPath><clipPath id="918987e9be"><path d="M 556 219 L 566 219 L 566 230 L 556 230 Z M 556 219 " clip-rule="nonzero"/></clipPath><clipPath id="8e92cdd803"><path d="M 629.804688 548.105469 L 453.574219 511.46875 L 536.921875 110.539062 L 713.15625 147.175781 Z M 629.804688 548.105469 " clip-rule="nonzero"/></clipPath><clipPath id="129799cccb"><path d="M 629.804688 548.105469 L 453.574219 511.46875 L 536.921875 110.539062 L 713.15625 147.175781 Z M 629.804688 548.105469 " clip-rule="nonzero"/></clipPath><clipPath id="707b3adb89"><path d="M 563 184 L 570 184 L 570 191 L 563 191 Z M 563 184 " clip-rule="nonzero"/></clipPath><clipPath id="1d81169e7b"><path d="M 629.804688 548.105469 L 453.574219 511.46875 L 536.921875 110.539062 L 713.15625 147.175781 Z M 629.804688 548.105469 " clip-rule="nonzero"/></clipPath><clipPath id="51d5f7a2a5"><path d="M 629.804688 548.105469 L 453.574219 511.46875 L 536.921875 110.539062 L 713.15625 147.175781 Z M 629.804688 548.105469 " clip-rule="nonzero"/></clipPath><clipPath id="d5f85ce07b"><path d="M 542 250 L 548 250 L 548 256 L 542 256 Z M 542 250 " clip-rule="nonzero"/></clipPath><clipPath id="591c00990b"><path d="M 629.804688 548.105469 L 453.574219 511.46875 L 536.921875 110.539062 L 713.15625 147.175781 Z M 629.804688 548.105469 " clip-rule="nonzero"/></clipPath><clipPath id="cea4168e12"><path d="M 629.804688 548.105469 L 453.574219 511.46875 L 536.921875 110.539062 L 713.15625 147.175781 Z M 629.804688 548.105469 " clip-rule="nonzero"/></clipPath><clipPath id="dd43a97fff"><path d="M 568 237 L 573 237 L 573 243 L 568 243 Z M 568 237 " clip-rule="nonzero"/></clipPath><clipPath id="e44d16ef14"><path d="M 629.804688 548.105469 L 453.574219 511.46875 L 536.921875 110.539062 L 713.15625 147.175781 Z M 629.804688 548.105469 " clip-rule="nonzero"/></clipPath><clipPath id="dbcaf4158b"><path d="M 629.804688 548.105469 L 453.574219 511.46875 L 536.921875 110.539062 L 713.15625 147.175781 Z M 629.804688 548.105469 " clip-rule="nonzero"/></clipPath><clipPath id="b1eec8adea"><path d="M 571 403 L 576 403 L 576 408 L 571 408 Z M 571 403 " clip-rule="nonzero"/></clipPath><clipPath id="6b4bce1fa4"><path d="M 629.804688 548.105469 L 453.574219 511.46875 L 536.921875 110.539062 L 713.15625 147.175781 Z M 629.804688 548.105469 " clip-rule="nonzero"/></clipPath><clipPath id="7e8d2a227e"><path d="M 629.804688 548.105469 L 453.574219 511.46875 L 536.921875 110.539062 L 713.15625 147.175781 Z M 629.804688 548.105469 " clip-rule="nonzero"/></clipPath><clipPath id="8d88bf5992"><path d="M 0 439 L 7 439 L 7 450 L 0 450 Z M 0 439 " clip-rule="nonzero"/></clipPath><clipPath id="7dd560a4c4"><path d="M 46.292969 619.917969 L -129.941406 583.28125 L -46.589844 182.351562 L 129.640625 218.988281 Z M 46.292969 619.917969 " clip-rule="nonzero"/></clipPath><clipPath id="a9e97080c6"><path d="M 46.292969 619.917969 L -129.941406 583.28125 L -46.589844 182.351562 L 129.640625 218.988281 Z M 46.292969 619.917969 " clip-rule="nonzero"/></clipPath><clipPath id="b9f4d10642"><path d="M 8 368 L 26 368 L 26 388 L 8 388 Z M 8 368 " clip-rule="nonzero"/></clipPath><clipPath id="a1e51adfdd"><path d="M 46.292969 619.917969 L -129.941406 583.28125 L -46.589844 182.351562 L 129.640625 218.988281 Z M 46.292969 619.917969 " clip-rule="nonzero"/></clipPath><clipPath id="6e2537d944"><path d="M 46.292969 619.917969 L -129.941406 583.28125 L -46.589844 182.351562 L 129.640625 218.988281 Z M 46.292969 619.917969 " clip-rule="nonzero"/></clipPath><clipPath id="54073c3c9a"><path d="M 7 314 L 23 314 L 23 332 L 7 332 Z M 7 314 " clip-rule="nonzero"/></clipPath><clipPath id="263c75759b"><path d="M 46.292969 619.917969 L -129.941406 583.28125 L -46.589844 182.351562 L 129.640625 218.988281 Z M 46.292969 619.917969 " clip-rule="nonzero"/></clipPath><clipPath id="695390501b"><path d="M 46.292969 619.917969 L -129.941406 583.28125 L -46.589844 182.351562 L 129.640625 218.988281 Z M 46.292969 619.917969 " clip-rule="nonzero"/></clipPath><clipPath id="23c28a2a3a"><path d="M 3 240 L 18 240 L 18 255 L 3 255 Z M 3 240 " clip-rule="nonzero"/></clipPath><clipPath id="94696e4508"><path d="M 46.292969 619.917969 L -129.941406 583.28125 L -46.589844 182.351562 L 129.640625 218.988281 Z M 46.292969 619.917969 " clip-rule="nonzero"/></clipPath><clipPath id="628560a687"><path d="M 46.292969 619.917969 L -129.941406 583.28125 L -46.589844 182.351562 L 129.640625 218.988281 Z M 46.292969 619.917969 " clip-rule="nonzero"/></clipPath><clipPath id="68bf6d95f2"><path d="M 44 340 L 59 340 L 59 356 L 44 356 Z M 44 340 " clip-rule="nonzero"/></clipPath><clipPath id="a0511cf50c"><path d="M 46.292969 619.917969 L -129.941406 583.28125 L -46.589844 182.351562 L 129.640625 218.988281 Z M 46.292969 619.917969 " clip-rule="nonzero"/></clipPath><clipPath id="50f8ffa9d0"><path d="M 46.292969 619.917969 L -129.941406 583.28125 L -46.589844 182.351562 L 129.640625 218.988281 Z M 46.292969 619.917969 " clip-rule="nonzero"/></clipPath><clipPath id="dbd22861d8"><path d="M 14 196 L 26 196 L 26 211 L 14 211 Z M 14 196 " clip-rule="nonzero"/></clipPath><clipPath id="120fabbd0f"><path d="M 46.292969 619.917969 L -129.941406 583.28125 L -46.589844 182.351562 L 129.640625 218.988281 Z M 46.292969 619.917969 " clip-rule="nonzero"/></clipPath><clipPath id="3bcbe3e7d5"><path d="M 46.292969 619.917969 L -129.941406 583.28125 L -46.589844 182.351562 L 129.640625 218.988281 Z M 46.292969 619.917969 " clip-rule="nonzero"/></clipPath><clipPath id="a6353d8e5b"><path d="M 44 305 L 54 305 L 54 314 L 44 314 Z M 44 305 " clip-rule="nonzero"/></clipPath><clipPath id="102ece7277"><path d="M 46.292969 619.917969 L -129.941406 583.28125 L -46.589844 182.351562 L 129.640625 218.988281 Z M 46.292969 619.917969 " clip-rule="nonzero"/></clipPath><clipPath id="00804c1678"><path d="M 46.292969 619.917969 L -129.941406 583.28125 L -46.589844 182.351562 L 129.640625 218.988281 Z M 46.292969 619.917969 " clip-rule="nonzero"/></clipPath><clipPath id="dcce47dd41"><path d="M 27 340 L 35 340 L 35 349 L 27 349 Z M 27 340 " clip-rule="nonzero"/></clipPath><clipPath id="7b368d6b94"><path d="M 46.292969 619.917969 L -129.941406 583.28125 L -46.589844 182.351562 L 129.640625 218.988281 Z M 46.292969 619.917969 " clip-rule="nonzero"/></clipPath><clipPath id="9c81d94dec"><path d="M 46.292969 619.917969 L -129.941406 583.28125 L -46.589844 182.351562 L 129.640625 218.988281 Z M 46.292969 619.917969 " clip-rule="nonzero"/></clipPath><clipPath id="7ddb4dba2d"><path d="M 5 342 L 12 342 L 12 349 L 5 349 Z M 5 342 " clip-rule="nonzero"/></clipPath><clipPath id="f91a0e3838"><path d="M 46.292969 619.917969 L -129.941406 583.28125 L -46.589844 182.351562 L 129.640625 218.988281 Z M 46.292969 619.917969 " clip-rule="nonzero"/></clipPath><clipPath id="647b47477b"><path d="M 46.292969 619.917969 L -129.941406 583.28125 L -46.589844 182.351562 L 129.640625 218.988281 Z M 46.292969 619.917969 " clip-rule="nonzero"/></clipPath><clipPath id="8cf1b0eb35"><path d="M 82 347 L 92 347 L 92 357 L 82 357 Z M 82 347 " clip-rule="nonzero"/></clipPath><clipPath id="88bf6d9eb5"><path d="M 46.292969 619.917969 L -129.941406 583.28125 L -46.589844 182.351562 L 129.640625 218.988281 Z M 46.292969 619.917969 " clip-rule="nonzero"/></clipPath><clipPath id="06114e9abb"><path d="M 46.292969 619.917969 L -129.941406 583.28125 L -46.589844 182.351562 L 129.640625 218.988281 Z M 46.292969 619.917969 " clip-rule="nonzero"/></clipPath><clipPath id="852411db9e"><path d="M 90 369 L 97 369 L 97 376 L 90 376 Z M 90 369 " clip-rule="nonzero"/></clipPath><clipPath id="6c5c623e98"><path d="M 46.292969 619.917969 L -129.941406 583.28125 L -46.589844 182.351562 L 129.640625 218.988281 Z M 46.292969 619.917969 " clip-rule="nonzero"/></clipPath><clipPath id="20ac477052"><path d="M 46.292969 619.917969 L -129.941406 583.28125 L -46.589844 182.351562 L 129.640625 218.988281 Z M 46.292969 619.917969 " clip-rule="nonzero"/></clipPath><clipPath id="faad7b4daf"><path d="M 68 378 L 75 378 L 75 385 L 68 385 Z M 68 378 " clip-rule="nonzero"/></clipPath><clipPath id="48b05fe6a3"><path d="M 46.292969 619.917969 L -129.941406 583.28125 L -46.589844 182.351562 L 129.640625 218.988281 Z M 46.292969 619.917969 " clip-rule="nonzero"/></clipPath><clipPath id="4a4f7b60e4"><path d="M 46.292969 619.917969 L -129.941406 583.28125 L -46.589844 182.351562 L 129.640625 218.988281 Z M 46.292969 619.917969 " clip-rule="nonzero"/></clipPath><clipPath id="ec27a0c919"><path d="M 27 445 L 38 445 L 38 450 L 27 450 Z M 27 445 " clip-rule="nonzero"/></clipPath><clipPath id="1c704c50dc"><path d="M 46.292969 619.917969 L -129.941406 583.28125 L -46.589844 182.351562 L 129.640625 218.988281 Z M 46.292969 619.917969 " clip-rule="nonzero"/></clipPath><clipPath id="19aba4bbba"><path d="M 46.292969 619.917969 L -129.941406 583.28125 L -46.589844 182.351562 L 129.640625 218.988281 Z M 46.292969 619.917969 " clip-rule="nonzero"/></clipPath><clipPath id="1eedc25aff"><path d="M 62 407 L 69 407 L 69 414 L 62 414 Z M 62 407 " clip-rule="nonzero"/></clipPath><clipPath id="c36983f74b"><path d="M 46.292969 619.917969 L -129.941406 583.28125 L -46.589844 182.351562 L 129.640625 218.988281 Z M 46.292969 619.917969 " clip-rule="nonzero"/></clipPath><clipPath id="b8fd66e39c"><path d="M 46.292969 619.917969 L -129.941406 583.28125 L -46.589844 182.351562 L 129.640625 218.988281 Z M 46.292969 619.917969 " clip-rule="nonzero"/></clipPath><clipPath id="5e5c1e0ccb"><path d="M 74 428 L 81 428 L 81 435 L 74 435 Z M 74 428 " clip-rule="nonzero"/></clipPath><clipPath id="ffab22926d"><path d="M 46.292969 619.917969 L -129.941406 583.28125 L -46.589844 182.351562 L 129.640625 218.988281 Z M 46.292969 619.917969 " clip-rule="nonzero"/></clipPath><clipPath id="41ced46a88"><path d="M 46.292969 619.917969 L -129.941406 583.28125 L -46.589844 182.351562 L 129.640625 218.988281 Z M 46.292969 619.917969 " clip-rule="nonzero"/></clipPath><clipPath id="d28dfec6b9"><path d="M 21 401 L 27 401 L 27 408 L 21 408 Z M 21 401 " clip-rule="nonzero"/></clipPath><clipPath id="6663ffac22"><path d="M 46.292969 619.917969 L -129.941406 583.28125 L -46.589844 182.351562 L 129.640625 218.988281 Z M 46.292969 619.917969 " clip-rule="nonzero"/></clipPath><clipPath id="f271b79a0a"><path d="M 46.292969 619.917969 L -129.941406 583.28125 L -46.589844 182.351562 L 129.640625 218.988281 Z M 46.292969 619.917969 " clip-rule="nonzero"/></clipPath><clipPath id="2187889c1e"><path d="M 0 271 L 2 271 L 2 286 L 0 286 Z M 0 271 " clip-rule="nonzero"/></clipPath><clipPath id="7ae4158ad4"><path d="M 46.292969 619.917969 L -129.941406 583.28125 L -46.589844 182.351562 L 129.640625 218.988281 Z M 46.292969 619.917969 " clip-rule="nonzero"/></clipPath><clipPath id="dc6a9d2203"><path d="M 46.292969 619.917969 L -129.941406 583.28125 L -46.589844 182.351562 L 129.640625 218.988281 Z M 46.292969 619.917969 " clip-rule="nonzero"/></clipPath></defs><rect x="-60" width="720" fill="#ffffff" y="-44.999998" height="539.99998" fill-opacity="1"/><rect x="-60" width="720" fill="#1a2e22" y="-44.999998" height="539.99998" fill-opacity="1"/><path fill="#c6f135" d="M 553.34375 19.039062 C 552.882812 18.738281 552.453125 18.402344 552.050781 18.03125 C 551.648438 17.660156 551.28125 17.253906 550.945312 16.820312 C 550.613281 16.386719 550.316406 15.925781 550.0625 15.441406 C 549.808594 14.957031 549.59375 14.453125 549.425781 13.933594 C 549.253906 13.410156 549.128906 12.878906 549.050781 12.335938 C 548.96875 11.796875 548.9375 11.25 548.949219 10.703125 C 548.960938 10.15625 549.019531 9.613281 549.125 9.074219 C 549.230469 8.535156 549.378906 8.011719 549.574219 7.5 C 551.03125 3.59375 557.917969 2.046875 560.679688 5.179688 C 561.382812 5.851562 561.972656 6.613281 562.445312 7.464844 C 562.921875 8.316406 563.257812 9.21875 563.457031 10.171875 C 563.660156 11.125 563.714844 12.085938 563.625 13.054688 C 563.53125 14.023438 563.300781 14.957031 562.925781 15.859375 C 562.753906 16.308594 562.53125 16.734375 562.265625 17.136719 C 561.996094 17.539062 561.6875 17.90625 561.339844 18.238281 C 560.988281 18.570312 560.609375 18.863281 560.195312 19.113281 C 559.78125 19.359375 559.34375 19.5625 558.886719 19.710938 C 558.425781 19.863281 557.957031 19.964844 557.476562 20.011719 C 556.996094 20.0625 556.515625 20.054688 556.039062 19.996094 C 555.558594 19.9375 555.09375 19.828125 554.636719 19.667969 C 554.183594 19.503906 553.75 19.296875 553.34375 19.039062 Z M 553.34375 19.039062 " fill-opacity="1" fill-rule="nonzero"/><path fill="#c6f135" d="M 572.777344 90.320312 C 567.757812 87.039062 567.945312 81.03125 573.171875 78.601562 C 575.101562 77.921875 577.089844 77.636719 579.132812 77.742188 C 579.523438 77.742188 579.902344 77.8125 580.269531 77.949219 C 580.636719 78.089844 580.964844 78.289062 581.257812 78.546875 C 581.550781 78.808594 581.789062 79.113281 581.96875 79.460938 C 582.148438 79.808594 582.261719 80.175781 582.308594 80.566406 C 582.679688 82.324219 582.90625 84.101562 582.980469 85.898438 C 583.035156 86.410156 583.019531 86.917969 582.933594 87.425781 C 582.851562 87.933594 582.695312 88.417969 582.476562 88.882812 C 582.253906 89.347656 581.976562 89.773438 581.636719 90.160156 C 581.296875 90.546875 580.910156 90.878906 580.480469 91.160156 C 580.046875 91.4375 579.585938 91.652344 579.09375 91.804688 C 578.601562 91.953125 578.097656 92.035156 577.585938 92.046875 C 577.070312 92.054688 576.566406 91.996094 576.066406 91.867188 C 575.570312 91.734375 575.101562 91.539062 574.65625 91.277344 C 573.972656 90.953125 573.285156 90.582031 572.777344 90.320312 Z M 572.777344 90.320312 " fill-opacity="1" fill-rule="nonzero"/><path fill="#c6f135" d="M 518.875 -11.109375 C 519.585938 -10.566406 520.191406 -9.925781 520.699219 -9.191406 C 521.207031 -8.457031 521.589844 -7.664062 521.847656 -6.808594 C 522.105469 -5.953125 522.222656 -5.078125 522.203125 -4.1875 C 522.1875 -3.292969 522.03125 -2.425781 521.738281 -1.582031 C 521.546875 -1.179688 521.3125 -0.796875 521.039062 -0.441406 C 520.765625 -0.0820312 520.460938 0.242188 520.121094 0.535156 C 519.78125 0.828125 519.414062 1.085938 519.019531 1.304688 C 518.625 1.519531 518.214844 1.695312 517.785156 1.828125 C 517.355469 1.960938 516.917969 2.050781 516.472656 2.09375 C 516.023438 2.132812 515.578125 2.128906 515.128906 2.082031 C 514.683594 2.03125 514.246094 1.933594 513.820312 1.792969 C 513.394531 1.652344 512.984375 1.472656 512.597656 1.246094 C 507.914062 -1.425781 508.167969 -5.359375 510.507812 -10.039062 C 511.671875 -12.375 516.128906 -12.742188 518.875 -11.109375 Z M 514.929688 -4.84375 C 515.6875 -4.804688 516.332031 -4.59375 516.523438 -4.800781 C 516.816406 -5.210938 516.875 -5.652344 516.707031 -6.121094 C 516.570312 -6.421875 515.957031 -6.5 515.554688 -6.675781 Z M 514.929688 -4.84375 " fill-opacity="1" fill-rule="nonzero"/><path fill="#c6f135" d="M 581.476562 133.964844 C 580.605469 134.554688 579.699219 135.085938 578.757812 135.5625 C 574.625 137.351562 572.597656 136.8125 570.996094 133.601562 C 570.746094 133.183594 570.539062 132.746094 570.371094 132.289062 C 570.207031 131.832031 570.085938 131.367188 570.007812 130.886719 C 569.933594 130.40625 569.902344 129.921875 569.917969 129.4375 C 569.933594 128.953125 569.992188 128.472656 570.097656 128 C 570.207031 127.523438 570.355469 127.066406 570.550781 126.621094 C 570.742188 126.175781 570.976562 125.75 571.253906 125.351562 C 571.527344 124.949219 571.835938 124.578125 572.179688 124.238281 C 572.527344 123.894531 572.898438 123.589844 573.304688 123.316406 C 573.753906 123.050781 574.238281 122.875 574.753906 122.789062 C 575.273438 122.703125 575.785156 122.710938 576.300781 122.8125 C 576.8125 122.914062 577.292969 123.105469 577.734375 123.382812 C 578.179688 123.660156 578.558594 124.007812 578.875 124.425781 C 579.953125 125.765625 580.71875 127.265625 581.171875 128.925781 C 581.625 130.582031 581.726562 132.265625 581.476562 133.964844 Z M 581.476562 133.964844 " fill-opacity="1" fill-rule="nonzero"/><path fill="#c6f135" d="M 523.398438 35.679688 C 522.816406 35.078125 522.273438 34.445312 521.765625 33.78125 C 521.503906 33.507812 521.289062 33.195312 521.121094 32.855469 C 520.953125 32.511719 520.839844 32.152344 520.785156 31.777344 C 520.726562 31.398438 520.726562 31.023438 520.78125 30.644531 C 520.839844 30.269531 520.949219 29.910156 521.117188 29.566406 C 522.078125 27.953125 523.730469 28.355469 525.199219 28.734375 C 526.171875 29 527.109375 29.367188 528.003906 29.839844 C 528.210938 29.914062 528.40625 30.015625 528.59375 30.132812 C 528.777344 30.253906 528.949219 30.390625 529.105469 30.542969 C 529.261719 30.699219 529.402344 30.867188 529.523438 31.050781 C 529.644531 31.238281 529.746094 31.429688 529.828125 31.636719 C 529.910156 31.839844 529.96875 32.054688 530.003906 32.269531 C 530.042969 32.488281 530.054688 32.707031 530.046875 32.925781 C 530.035156 33.148438 530.003906 33.363281 529.949219 33.578125 C 529.894531 33.792969 529.820312 34 529.722656 34.195312 C 529.566406 34.457031 529.386719 34.695312 529.179688 34.917969 C 528.976562 35.140625 528.75 35.34375 528.507812 35.519531 C 528.261719 35.699219 528 35.851562 527.726562 35.976562 C 527.449219 36.101562 527.167969 36.199219 526.871094 36.269531 C 526.578125 36.335938 526.277344 36.375 525.976562 36.386719 C 525.671875 36.394531 525.375 36.375 525.074219 36.324219 C 524.777344 36.273438 524.484375 36.195312 524.203125 36.085938 C 523.921875 35.976562 523.652344 35.84375 523.398438 35.679688 Z M 523.398438 35.679688 " fill-opacity="1" fill-rule="nonzero"/><path fill="#c6f135" d="M 476.347656 -5.695312 C 476.855469 -5.90625 477.824219 -6.714844 478.667969 -6.585938 C 480.164062 -6.390625 481.523438 -5.84375 482.734375 -4.941406 C 484.871094 -3.195312 485.328125 -0.859375 484.210938 0.414062 C 483.765625 0.871094 483.25 1.238281 482.667969 1.507812 C 482.089844 1.777344 481.480469 1.9375 480.839844 1.988281 C 480.203125 2.039062 479.574219 1.972656 478.957031 1.796875 C 478.34375 1.617188 477.777344 1.335938 477.265625 0.949219 C 477.023438 0.757812 476.800781 0.542969 476.601562 0.308594 C 476.398438 0.0742188 476.222656 -0.179688 476.070312 -0.445312 C 475.917969 -0.714844 475.789062 -0.996094 475.691406 -1.289062 C 475.589844 -1.582031 475.519531 -1.882812 475.476562 -2.1875 C 475.433594 -2.496094 475.421875 -2.804688 475.4375 -3.113281 C 475.453125 -3.421875 475.5 -3.726562 475.574219 -4.027344 C 475.648438 -4.328125 475.75 -4.617188 475.882812 -4.898438 C 476.011719 -5.179688 476.167969 -5.445312 476.347656 -5.695312 Z M 476.347656 -5.695312 " fill-opacity="1" fill-rule="nonzero"/><path fill="#c6f135" d="M 581.730469 56.703125 C 576.707031 53.421875 576.894531 47.414062 582.121094 44.984375 C 584.050781 44.304688 586.039062 44.019531 588.085938 44.128906 C 588.476562 44.125 588.855469 44.195312 589.222656 44.335938 C 589.589844 44.472656 589.917969 44.671875 590.210938 44.933594 C 590.503906 45.191406 590.742188 45.496094 590.921875 45.84375 C 591.101562 46.191406 591.214844 46.558594 591.261719 46.949219 C 591.632812 48.707031 591.859375 50.488281 591.933594 52.285156 C 591.988281 52.792969 591.972656 53.304688 591.886719 53.808594 C 591.804688 54.316406 591.648438 54.804688 591.429688 55.265625 C 591.207031 55.730469 590.929688 56.15625 590.589844 56.542969 C 590.25 56.929688 589.863281 57.261719 589.433594 57.542969 C 589 57.820312 588.539062 58.035156 588.046875 58.1875 C 587.554688 58.335938 587.054688 58.417969 586.539062 58.425781 C 586.023438 58.4375 585.519531 58.378906 585.023438 58.246094 C 584.523438 58.117188 584.054688 57.921875 583.613281 57.660156 C 582.910156 57.335938 582.238281 56.964844 581.730469 56.703125 Z M 581.730469 56.703125 " fill-opacity="1" fill-rule="nonzero"/><path fill="#c6f135" d="M 602.960938 34.007812 C 602.539062 34.304688 601.929688 35.0625 601.308594 35.078125 C 599.789062 35.183594 598.300781 35.007812 596.847656 34.550781 C 596.542969 34.453125 596.25 34.328125 595.96875 34.171875 C 595.6875 34.015625 595.425781 33.835938 595.179688 33.628906 C 594.933594 33.421875 594.710938 33.195312 594.511719 32.945312 C 594.308594 32.695312 594.136719 32.425781 593.984375 32.140625 C 593.835938 31.859375 593.71875 31.5625 593.628906 31.253906 C 593.535156 30.945312 593.476562 30.632812 593.445312 30.3125 C 593.417969 29.992188 593.417969 29.675781 593.453125 29.355469 C 593.484375 29.035156 593.546875 28.722656 593.640625 28.417969 C 593.78125 28.128906 593.945312 27.855469 594.136719 27.597656 C 594.328125 27.339844 594.542969 27.101562 594.78125 26.886719 C 595.019531 26.667969 595.273438 26.476562 595.546875 26.308594 C 595.820312 26.144531 596.109375 26.003906 596.410156 25.890625 C 596.710938 25.78125 597.019531 25.699219 597.335938 25.644531 C 597.652344 25.59375 597.972656 25.570312 598.292969 25.578125 C 598.613281 25.589844 598.929688 25.628906 599.246094 25.699219 C 599.558594 25.765625 599.863281 25.867188 600.15625 25.992188 C 602.660156 26.757812 604.277344 31.074219 602.960938 34.007812 Z M 602.960938 34.007812 " fill-opacity="1" fill-rule="nonzero"/><path fill="#c6f135" d="M 603.554688 69.617188 C 603.324219 69.921875 603.042969 70.175781 602.714844 70.371094 C 602.382812 70.566406 602.027344 70.691406 601.644531 70.742188 C 601.265625 70.796875 600.890625 70.773438 600.519531 70.671875 C 600.148438 70.574219 599.808594 70.410156 599.503906 70.175781 C 599.292969 70.09375 599.097656 69.996094 598.910156 69.871094 C 598.722656 69.746094 598.554688 69.605469 598.398438 69.441406 C 598.246094 69.28125 598.109375 69.105469 597.996094 68.914062 C 597.882812 68.71875 597.789062 68.519531 597.722656 68.304688 C 597.652344 68.09375 597.609375 67.875 597.589844 67.652344 C 597.570312 67.429688 597.574219 67.207031 597.605469 66.984375 C 597.632812 66.765625 597.6875 66.550781 597.765625 66.339844 C 597.847656 66.128906 597.945312 65.933594 598.070312 65.746094 C 598.285156 65.425781 598.550781 65.160156 598.875 64.953125 C 599.199219 64.742188 599.550781 64.609375 599.929688 64.546875 C 600.308594 64.484375 600.6875 64.5 601.058594 64.59375 C 601.433594 64.6875 601.769531 64.851562 602.078125 65.085938 C 602.476562 65.285156 602.820312 65.554688 603.113281 65.894531 C 603.40625 66.234375 603.621094 66.617188 603.757812 67.042969 C 603.898438 67.46875 603.949219 67.902344 603.914062 68.347656 C 603.878906 68.796875 603.757812 69.21875 603.554688 69.617188 Z M 603.554688 69.617188 " fill-opacity="1" fill-rule="nonzero"/><path fill="#c6f135" d="M 588.25 19.046875 C 586.933594 19.1875 585.632812 19.089844 584.351562 18.75 C 583.851562 18.480469 583.667969 16.902344 583.929688 16.101562 C 584.265625 15.066406 586.5 14.835938 587.210938 15.769531 C 587.714844 16.8125 588.0625 17.90625 588.25 19.046875 Z M 588.25 19.046875 " fill-opacity="1" fill-rule="nonzero"/><g clip-path="url(#17b0ed746e)"><g clip-path="url(#f06fba7ffc)"><g clip-path="url(#328f1be9c0)"><path fill="#c6f135" d="M 575.617188 371.363281 C 579.195312 367.621094 582.410156 367.039062 585.507812 369.277344 C 589.628906 372.246094 591.054688 376.785156 589.082031 380.6875 C 588.597656 381.601562 588.054688 382.472656 587.445312 383.308594 C 583.351562 389.183594 577.476562 389.613281 572.457031 384.414062 C 571.988281 383.96875 571.605469 383.457031 571.3125 382.875 C 571.023438 382.296875 570.839844 381.683594 570.761719 381.039062 C 570.6875 380.394531 570.722656 379.757812 570.871094 379.125 C 571.019531 378.496094 571.269531 377.910156 571.625 377.367188 C 572.949219 375.160156 574.46875 373.078125 575.617188 371.363281 Z M 579.242188 377.386719 C 578.886719 377.730469 578.609375 378.132812 578.410156 378.589844 C 578.277344 379.242188 578.144531 380.203125 578.496094 380.558594 C 578.777344 380.757812 579.09375 380.875 579.4375 380.910156 C 579.785156 380.941406 580.117188 380.890625 580.433594 380.746094 C 581.316406 379.941406 582.054688 379.019531 582.640625 377.976562 C 582.824219 377.679688 582.628906 376.761719 582.390625 376.664062 C 581.734375 376.417969 581.0625 376.347656 580.371094 376.460938 C 579.953125 376.542969 579.613281 377.0625 579.242188 377.386719 Z M 579.242188 377.386719 " fill-opacity="1" fill-rule="nonzero"/></g></g></g><g clip-path="url(#6e62157e99)"><g clip-path="url(#720a462942)"><g clip-path="url(#84fce14e19)"><path fill="#c6f135" d="M 522.566406 219.300781 C 526.132812 215.558594 529.355469 214.976562 532.457031 217.214844 C 536.574219 220.183594 538 224.722656 536.03125 228.625 C 535.546875 229.539062 535 230.410156 534.394531 231.246094 C 530.300781 237.125 524.425781 237.550781 519.40625 232.351562 C 518.933594 231.90625 518.550781 231.390625 518.261719 230.8125 C 517.96875 230.234375 517.785156 229.621094 517.710938 228.976562 C 517.632812 228.332031 517.667969 227.695312 517.816406 227.0625 C 517.964844 226.433594 518.21875 225.84375 518.574219 225.300781 C 519.894531 223.101562 521.417969 221.011719 522.566406 219.300781 Z M 526.191406 225.324219 C 525.835938 225.667969 525.558594 226.070312 525.359375 226.527344 C 525.222656 227.179688 525.09375 228.140625 525.441406 228.496094 C 525.726562 228.695312 526.042969 228.8125 526.386719 228.847656 C 526.734375 228.878906 527.0625 228.824219 527.378906 228.683594 C 528.265625 227.878906 529 226.957031 529.589844 225.914062 C 529.773438 225.617188 529.574219 224.699219 529.339844 224.601562 C 528.683594 224.355469 528.007812 224.285156 527.316406 224.398438 C 526.898438 224.480469 526.5625 225 526.191406 225.324219 Z M 526.191406 225.324219 " fill-opacity="1" fill-rule="nonzero"/></g></g></g><g clip-path="url(#16e5d84ba6)"><g clip-path="url(#74378a0fae)"><g clip-path="url(#531dd39f0e)"><path fill="#c6f135" d="M 608.6875 302.410156 C 608.566406 305.859375 607.527344 309.011719 605.574219 311.859375 C 605.1875 312.609375 604.691406 313.273438 604.085938 313.859375 C 603.476562 314.445312 602.792969 314.917969 602.03125 315.277344 C 601.269531 315.640625 600.472656 315.867188 599.632812 315.96875 C 598.796875 316.066406 597.964844 316.027344 597.140625 315.855469 C 592.984375 315.394531 591.390625 312.9375 592.40625 308.839844 C 592.960938 306.601562 593.683594 304.40625 594.296875 302.183594 C 594.644531 301.066406 595.214844 300.074219 595.996094 299.203125 C 596.777344 298.328125 597.707031 297.660156 598.78125 297.1875 C 599.175781 296.976562 599.597656 296.820312 600.039062 296.726562 C 600.480469 296.628906 600.925781 296.597656 601.378906 296.628906 C 601.828125 296.660156 602.265625 296.753906 602.691406 296.910156 C 603.117188 297.0625 603.511719 297.273438 603.875 297.542969 C 604.511719 297.976562 605.09375 298.472656 605.617188 299.042969 C 606.679688 300.152344 607.6875 301.296875 608.6875 302.410156 Z M 599.480469 308.703125 C 600.179688 308.449219 600.964844 308.367188 601.019531 308.109375 C 601.082031 307.417969 601.054688 306.726562 600.925781 306.042969 C 600.480469 306.195312 599.738281 306.242188 599.644531 306.515625 C 599.496094 307.238281 599.445312 307.96875 599.488281 308.707031 Z M 599.480469 308.703125 " fill-opacity="1" fill-rule="nonzero"/></g></g></g><g clip-path="url(#6929037f77)"><g clip-path="url(#991bdce5e7)"><g clip-path="url(#fc296c38be)"><path fill="#c6f135" d="M 602.765625 244.761719 C 603.152344 245.148438 603.503906 245.5625 603.824219 246.007812 C 604.140625 246.457031 604.417969 246.925781 604.65625 247.417969 C 604.894531 247.914062 605.089844 248.421875 605.242188 248.949219 C 605.394531 249.476562 605.5 250.011719 605.558594 250.558594 C 605.621094 251.101562 605.636719 251.648438 605.601562 252.195312 C 605.570312 252.742188 605.492188 253.28125 605.367188 253.816406 C 605.246094 254.351562 605.078125 254.871094 604.863281 255.375 C 604.652344 255.878906 604.398438 256.363281 604.105469 256.824219 C 601.882812 260.351562 594.824219 260.464844 592.757812 256.835938 C 592.207031 256.035156 591.785156 255.167969 591.492188 254.238281 C 591.203125 253.308594 591.054688 252.359375 591.054688 251.382812 C 591.050781 250.410156 591.195312 249.457031 591.480469 248.527344 C 591.765625 247.59375 592.183594 246.726562 592.730469 245.921875 C 592.992188 245.515625 593.296875 245.144531 593.640625 244.804688 C 593.984375 244.46875 594.363281 244.171875 594.773438 243.914062 C 595.179688 243.660156 595.613281 243.453125 596.070312 243.292969 C 596.527344 243.132812 596.992188 243.027344 597.472656 242.972656 C 597.953125 242.917969 598.433594 242.914062 598.914062 242.964844 C 599.394531 243.015625 599.863281 243.117188 600.320312 243.273438 C 600.777344 243.425781 601.210938 243.628906 601.625 243.882812 C 602.035156 244.132812 602.417969 244.425781 602.765625 244.761719 Z M 602.765625 244.761719 " fill-opacity="1" fill-rule="nonzero"/></g></g></g><g clip-path="url(#a4b1133f8a)"><g clip-path="url(#d003ebfa72)"><g clip-path="url(#ada4336180)"><path fill="#c6f135" d="M 549.050781 373.859375 C 553.304688 378.097656 551.894531 383.9375 546.28125 385.253906 C 544.253906 385.527344 542.25 385.402344 540.273438 384.882812 C 539.886719 384.804688 539.53125 384.65625 539.203125 384.449219 C 538.871094 384.238281 538.589844 383.972656 538.355469 383.660156 C 538.121094 383.34375 537.953125 383 537.84375 382.621094 C 537.738281 382.246094 537.703125 381.863281 537.738281 381.472656 C 537.730469 379.675781 537.871094 377.886719 538.167969 376.113281 C 538.214844 375.601562 538.332031 375.105469 538.519531 374.628906 C 538.707031 374.148438 538.957031 373.703125 539.265625 373.292969 C 539.578125 372.882812 539.9375 372.523438 540.347656 372.214844 C 540.757812 371.90625 541.203125 371.660156 541.683594 371.472656 C 542.164062 371.289062 542.660156 371.171875 543.171875 371.125 C 543.683594 371.078125 544.191406 371.101562 544.699219 371.195312 C 545.203125 371.289062 545.6875 371.449219 546.144531 371.679688 C 546.605469 371.910156 547.027344 372.195312 547.40625 372.542969 C 548.023438 373 548.609375 373.5 549.050781 373.859375 Z M 549.050781 373.859375 " fill-opacity="1" fill-rule="nonzero"/></g></g></g><g clip-path="url(#1bf75657cd)"><g clip-path="url(#8b93cf3a39)"><g clip-path="url(#042b5d591f)"><path fill="#c6f135" d="M 598.242188 171.011719 C 602.492188 175.25 601.085938 181.09375 595.472656 182.410156 C 593.445312 182.679688 591.441406 182.554688 589.464844 182.035156 C 589.078125 181.957031 588.722656 181.8125 588.390625 181.601562 C 588.0625 181.390625 587.78125 181.128906 587.546875 180.8125 C 587.3125 180.5 587.140625 180.152344 587.035156 179.777344 C 586.929688 179.398438 586.894531 179.015625 586.929688 178.625 C 586.921875 176.828125 587.0625 175.039062 587.355469 173.265625 C 587.40625 172.753906 587.523438 172.257812 587.710938 171.78125 C 587.898438 171.300781 588.144531 170.855469 588.457031 170.445312 C 588.765625 170.035156 589.128906 169.675781 589.539062 169.367188 C 589.949219 169.058594 590.394531 168.8125 590.875 168.625 C 591.355469 168.441406 591.851562 168.324219 592.363281 168.277344 C 592.875 168.230469 593.382812 168.253906 593.886719 168.347656 C 594.394531 168.441406 594.875 168.601562 595.335938 168.832031 C 595.796875 169.0625 596.21875 169.347656 596.597656 169.695312 C 597.203125 170.152344 597.796875 170.65625 598.242188 171.011719 Z M 598.242188 171.011719 " fill-opacity="1" fill-rule="nonzero"/></g></g></g><g clip-path="url(#3172f29b07)"><g clip-path="url(#807bebce75)"><g clip-path="url(#04e85d5b63)"><path fill="#c6f135" d="M 552.890625 434.382812 C 546.699219 436.476562 543.613281 435.742188 541.402344 431.832031 C 541.039062 431.300781 540.773438 430.722656 540.601562 430.105469 C 540.429688 429.484375 540.363281 428.855469 540.398438 428.214844 C 540.433594 427.574219 540.574219 426.953125 540.8125 426.359375 C 541.050781 425.761719 541.382812 425.222656 541.800781 424.734375 C 542.359375 424.210938 542.980469 423.777344 543.664062 423.433594 C 544.347656 423.09375 545.0625 422.851562 545.816406 422.71875 C 546.570312 422.582031 547.324219 422.558594 548.085938 422.640625 C 548.847656 422.726562 549.578125 422.914062 550.285156 423.210938 C 550.921875 423.519531 551.496094 423.921875 552.007812 424.414062 C 552.515625 424.90625 552.933594 425.46875 553.261719 426.097656 C 553.589844 426.726562 553.8125 427.390625 553.925781 428.089844 C 554.039062 428.789062 554.039062 429.492188 553.929688 430.191406 C 553.667969 431.667969 553.214844 433.113281 552.890625 434.382812 Z M 552.890625 434.382812 " fill-opacity="1" fill-rule="nonzero"/></g></g></g><g clip-path="url(#f723b05464)"><g clip-path="url(#8cf9d85a1f)"><g clip-path="url(#734fc92583)"><path fill="#c6f135" d="M 598.609375 126.511719 C 599.585938 126.113281 600.582031 125.777344 601.597656 125.5 C 606.007812 124.59375 607.882812 125.53125 608.800781 129.003906 C 608.957031 129.460938 609.070312 129.933594 609.140625 130.414062 C 609.210938 130.894531 609.234375 131.375 609.210938 131.863281 C 609.1875 132.347656 609.121094 132.824219 609.007812 133.296875 C 608.894531 133.769531 608.734375 134.226562 608.535156 134.667969 C 608.335938 135.113281 608.09375 135.53125 607.8125 135.929688 C 607.53125 136.324219 607.21875 136.691406 606.867188 137.027344 C 606.515625 137.363281 606.136719 137.664062 605.730469 137.929688 C 605.324219 138.195312 604.894531 138.417969 604.445312 138.601562 C 603.949219 138.769531 603.441406 138.84375 602.917969 138.824219 C 602.394531 138.804688 601.890625 138.691406 601.410156 138.484375 C 600.925781 138.28125 600.496094 137.996094 600.121094 137.636719 C 599.742188 137.273438 599.441406 136.855469 599.21875 136.382812 C 598.433594 134.851562 597.988281 133.226562 597.882812 131.511719 C 597.777344 129.792969 598.019531 128.128906 598.609375 126.511719 Z M 598.609375 126.511719 " fill-opacity="1" fill-rule="nonzero"/></g></g></g><g clip-path="url(#b8dc18b0bd)"><g clip-path="url(#6108c5964b)"><g clip-path="url(#96ad8f9786)"><path fill="#c6f135" d="M 572.101562 323.101562 C 574.675781 326.171875 574.480469 329.464844 571.582031 331.804688 C 570.894531 332.257812 570.152344 332.582031 569.347656 332.78125 C 568.546875 332.976562 567.738281 333.03125 566.917969 332.945312 C 566.097656 332.863281 565.316406 332.640625 564.570312 332.285156 C 563.828125 331.929688 563.164062 331.460938 562.585938 330.875 C 562.132812 330.179688 561.800781 329.433594 561.59375 328.628906 C 561.382812 327.828125 561.308594 327.011719 561.367188 326.1875 C 561.425781 325.359375 561.613281 324.5625 561.929688 323.796875 C 562.25 323.03125 562.679688 322.339844 563.226562 321.714844 C 563.566406 321.480469 563.925781 321.28125 564.304688 321.117188 C 564.683594 320.949219 565.074219 320.824219 565.480469 320.730469 C 565.882812 320.640625 566.292969 320.585938 566.703125 320.574219 C 567.117188 320.558594 567.527344 320.585938 567.9375 320.648438 C 568.347656 320.714844 568.746094 320.816406 569.132812 320.953125 C 569.523438 321.09375 569.898438 321.269531 570.253906 321.476562 C 570.609375 321.6875 570.941406 321.929688 571.253906 322.203125 C 571.5625 322.476562 571.847656 322.777344 572.101562 323.101562 Z M 572.101562 323.101562 " fill-opacity="1" fill-rule="nonzero"/></g></g></g><g clip-path="url(#f1059497c5)"><g clip-path="url(#0512c77baf)"><g clip-path="url(#1b53bf6f49)"><path fill="#c6f135" d="M 523.644531 391.761719 C 524.121094 391.558594 524.871094 390.9375 525.480469 391.046875 C 526.988281 391.253906 528.410156 391.730469 529.738281 392.472656 C 530.019531 392.628906 530.28125 392.8125 530.523438 393.023438 C 530.769531 393.230469 530.988281 393.460938 531.1875 393.714844 C 531.386719 393.964844 531.558594 394.234375 531.703125 394.523438 C 531.847656 394.808594 531.964844 395.105469 532.054688 395.414062 C 532.140625 395.722656 532.199219 396.035156 532.226562 396.355469 C 532.25 396.675781 532.246094 396.996094 532.210938 397.316406 C 532.175781 397.632812 532.109375 397.945312 532.011719 398.253906 C 531.914062 398.558594 531.789062 398.851562 531.632812 399.132812 C 531.4375 399.386719 531.21875 399.621094 530.980469 399.835938 C 530.738281 400.046875 530.480469 400.234375 530.207031 400.398438 C 529.929688 400.5625 529.640625 400.699219 529.339844 400.804688 C 529.035156 400.914062 528.726562 400.992188 528.410156 401.039062 C 528.089844 401.089844 527.773438 401.105469 527.453125 401.09375 C 527.132812 401.082031 526.8125 401.039062 526.503906 400.964844 C 526.191406 400.890625 525.886719 400.785156 525.59375 400.65625 C 525.300781 400.523438 525.023438 400.363281 524.761719 400.179688 C 522.464844 398.917969 521.761719 394.363281 523.644531 391.761719 Z M 523.644531 391.761719 " fill-opacity="1" fill-rule="nonzero"/></g></g></g><g clip-path="url(#710ecd93bb)"><g clip-path="url(#094b5d1bcc)"><g clip-path="url(#1caa2c423f)"><path fill="#c6f135" d="M 572.3125 282.621094 C 571.773438 282.726562 570.660156 283.320312 569.863281 283.019531 C 568.4375 282.523438 567.21875 281.710938 566.214844 280.582031 C 564.480469 278.4375 564.507812 276.054688 565.859375 275.039062 C 566.390625 274.679688 566.96875 274.425781 567.59375 274.277344 C 568.214844 274.128906 568.847656 274.097656 569.480469 274.179688 C 570.117188 274.261719 570.71875 274.453125 571.285156 274.753906 C 571.851562 275.054688 572.34375 275.445312 572.765625 275.925781 C 572.964844 276.164062 573.140625 276.417969 573.289062 276.691406 C 573.4375 276.960938 573.558594 277.242188 573.65625 277.539062 C 573.75 277.832031 573.816406 278.132812 573.855469 278.441406 C 573.894531 278.75 573.902344 279.054688 573.878906 279.363281 C 573.859375 279.675781 573.808594 279.976562 573.730469 280.277344 C 573.652344 280.578125 573.546875 280.867188 573.410156 281.144531 C 573.277344 281.421875 573.117188 281.6875 572.933594 281.9375 C 572.75 282.183594 572.542969 282.414062 572.3125 282.621094 Z M 572.3125 282.621094 " fill-opacity="1" fill-rule="nonzero"/></g></g></g><g clip-path="url(#444ae4161a)"><g clip-path="url(#281b810348)"><g clip-path="url(#749a69d598)"><path fill="#c6f135" d="M 530.3125 356.777344 C 530.601562 356.523438 530.925781 356.335938 531.289062 356.210938 C 531.652344 356.085938 532.027344 356.035156 532.410156 356.0625 C 532.792969 356.089844 533.15625 356.1875 533.5 356.359375 C 533.84375 356.53125 534.144531 356.761719 534.394531 357.054688 C 534.582031 357.175781 534.753906 357.3125 534.914062 357.472656 C 535.070312 357.632812 535.207031 357.804688 535.324219 357.996094 C 535.441406 358.183594 535.539062 358.386719 535.613281 358.597656 C 535.683594 358.808594 535.734375 359.023438 535.757812 359.246094 C 535.78125 359.46875 535.78125 359.691406 535.753906 359.914062 C 535.726562 360.136719 535.675781 360.351562 535.601562 360.5625 C 535.527344 360.773438 535.429688 360.972656 535.3125 361.160156 C 535.191406 361.351562 535.050781 361.523438 534.894531 361.679688 C 534.621094 361.953125 534.304688 362.15625 533.945312 362.292969 C 533.585938 362.433594 533.214844 362.496094 532.828125 362.480469 C 532.445312 362.464844 532.078125 362.371094 531.734375 362.203125 C 531.386719 362.035156 531.085938 361.804688 530.835938 361.515625 C 530.488281 361.234375 530.203125 360.902344 529.988281 360.507812 C 529.769531 360.117188 529.636719 359.699219 529.589844 359.253906 C 529.539062 358.8125 529.578125 358.375 529.703125 357.945312 C 529.828125 357.515625 530.03125 357.128906 530.3125 356.777344 Z M 530.3125 356.777344 " fill-opacity="1" fill-rule="nonzero"/></g></g></g><g clip-path="url(#cc834c4a89)"><g clip-path="url(#006675dc1a)"><g clip-path="url(#b11a2cbbf2)"><path fill="#c6f135" d="M 578.941406 297.3125 C 579.214844 298.300781 579.359375 299.304688 579.378906 300.332031 C 579.308594 300.644531 579.175781 300.929688 578.976562 301.183594 C 578.78125 301.4375 578.539062 301.636719 578.253906 301.78125 C 577.96875 301.929688 577.664062 302.007812 577.34375 302.019531 C 577.023438 302.03125 576.714844 301.972656 576.417969 301.847656 C 575.550781 301.324219 574.84375 300.632812 574.300781 299.777344 C 573.699219 298.71875 573.066406 297.441406 574.300781 296.3125 C 575.289062 295.40625 577.195312 295.679688 578.941406 297.3125 Z M 578.941406 297.3125 " fill-opacity="1" fill-rule="nonzero"/></g></g></g><g clip-path="url(#0c7ee036e4)"><g clip-path="url(#8f80ae47ff)"><g clip-path="url(#d5c5447fa8)"><path fill="#c6f135" d="M 590.402344 270.90625 C 590.769531 270.664062 591.167969 270.5 591.597656 270.414062 C 592.027344 270.328125 592.460938 270.324219 592.890625 270.402344 C 593.324219 270.480469 593.722656 270.640625 594.09375 270.871094 C 594.464844 271.105469 594.78125 271.402344 595.039062 271.757812 C 595.226562 272.082031 595.359375 272.425781 595.425781 272.796875 C 595.496094 273.167969 595.5 273.535156 595.441406 273.90625 C 595.378906 274.277344 595.261719 274.628906 595.078125 274.957031 C 594.898438 275.285156 594.664062 275.574219 594.382812 275.820312 C 594.089844 276.058594 593.761719 276.234375 593.402344 276.347656 C 593.042969 276.460938 592.671875 276.503906 592.296875 276.480469 C 591.917969 276.457031 591.558594 276.363281 591.21875 276.207031 C 590.875 276.046875 590.574219 275.832031 590.3125 275.558594 C 589.996094 275.25 589.757812 274.890625 589.589844 274.484375 C 589.425781 274.078125 589.347656 273.652344 589.355469 273.210938 C 589.363281 272.773438 589.457031 272.351562 589.640625 271.949219 C 589.824219 271.550781 590.078125 271.199219 590.402344 270.90625 Z M 590.402344 270.90625 " fill-opacity="1" fill-rule="nonzero"/></g></g></g><g clip-path="url(#b2b98a88ae)"><g clip-path="url(#f57c42ce54)"><g clip-path="url(#8220e167e0)"><path fill="#c6f135" d="M 509.96875 421.804688 C 511.191406 422.023438 512.339844 422.445312 513.40625 423.078125 C 513.554688 423.203125 513.683594 423.339844 513.800781 423.496094 C 513.914062 423.648438 514.015625 423.8125 514.09375 423.984375 C 514.175781 424.160156 514.234375 424.339844 514.273438 424.527344 C 514.316406 424.714844 514.335938 424.90625 514.335938 425.097656 C 514.335938 425.289062 514.3125 425.476562 514.269531 425.664062 C 514.230469 425.851562 514.167969 426.03125 514.085938 426.207031 C 514.003906 426.378906 513.90625 426.542969 513.789062 426.695312 C 513.671875 426.847656 513.542969 426.984375 513.394531 427.109375 C 513.066406 427.3125 512.714844 427.445312 512.339844 427.519531 C 511.960938 427.589844 511.582031 427.59375 511.207031 427.523438 C 510.828125 427.457031 510.472656 427.324219 510.144531 427.125 C 509.816406 426.929688 509.53125 426.679688 509.296875 426.375 C 509.023438 426.03125 508.828125 425.652344 508.714844 425.226562 C 508.601562 424.804688 508.578125 424.378906 508.640625 423.945312 C 508.703125 423.511719 508.851562 423.109375 509.082031 422.738281 C 509.3125 422.367188 509.609375 422.054688 509.96875 421.804688 Z M 509.96875 421.804688 " fill-opacity="1" fill-rule="nonzero"/></g></g></g><g clip-path="url(#5b6bd9334c)"><g clip-path="url(#8534eb6b74)"><g clip-path="url(#b05cf95812)"><path fill="#c6f135" d="M 556.511719 305.53125 C 556.785156 305.796875 556.996094 306.101562 557.144531 306.449219 C 557.296875 306.800781 557.375 307.164062 557.378906 307.546875 C 557.382812 307.925781 557.3125 308.292969 557.167969 308.644531 C 557.023438 308.996094 556.820312 309.304688 556.550781 309.574219 C 556.28125 309.847656 555.972656 310.054688 555.617188 310.199219 C 555.261719 310.339844 554.894531 310.40625 554.511719 310.398438 C 554.132812 310.386719 553.769531 310.300781 553.421875 310.140625 C 553.074219 309.980469 552.773438 309.757812 552.519531 309.472656 C 551.367188 308.421875 550.394531 307.171875 551.171875 305.53125 C 551.90625 303.980469 554.847656 304.039062 556.511719 305.53125 Z M 556.511719 305.53125 " fill-opacity="1" fill-rule="nonzero"/></g></g></g><g clip-path="url(#9334aad0d4)"><g clip-path="url(#3b3a27d430)"><g clip-path="url(#b495ce918c)"><path fill="#c6f135" d="M 521.957031 446.972656 C 521.640625 446.75 521.382812 446.46875 521.1875 446.136719 C 520.988281 445.804688 520.863281 445.445312 520.816406 445.0625 C 520.769531 444.679688 520.800781 444.300781 520.914062 443.929688 C 521.023438 443.558594 521.207031 443.226562 521.457031 442.933594 C 521.707031 442.640625 522.003906 442.40625 522.347656 442.234375 C 522.691406 442.0625 523.054688 441.960938 523.4375 441.9375 C 523.824219 441.914062 524.195312 441.964844 524.558594 442.09375 C 524.921875 442.21875 525.246094 442.414062 525.53125 442.671875 C 525.890625 442.941406 526.179688 443.273438 526.40625 443.660156 C 526.628906 444.050781 526.765625 444.46875 526.820312 444.914062 C 526.875 445.359375 526.839844 445.796875 526.714844 446.226562 C 526.59375 446.660156 526.390625 447.046875 526.105469 447.394531 C 525.792969 447.617188 525.453125 447.777344 525.082031 447.878906 C 524.710938 447.976562 524.332031 448.003906 523.953125 447.964844 C 523.570312 447.925781 523.207031 447.820312 522.863281 447.652344 C 522.519531 447.480469 522.21875 447.253906 521.957031 446.972656 Z M 521.957031 446.972656 " fill-opacity="1" fill-rule="nonzero"/></g></g></g><g clip-path="url(#5da7f8b2a9)"><g clip-path="url(#641252338f)"><g clip-path="url(#22a03e15f5)"><path fill="#c6f135" d="M 553.34375 401.207031 C 551.460938 399.464844 551.289062 397.617188 552.542969 396.703125 C 552.828125 396.496094 553.140625 396.351562 553.480469 396.261719 C 553.824219 396.171875 554.167969 396.144531 554.519531 396.183594 C 554.867188 396.226562 555.199219 396.324219 555.511719 396.488281 C 555.824219 396.652344 556.09375 396.867188 556.328125 397.132812 C 556.558594 397.394531 556.734375 397.695312 556.855469 398.023438 C 556.976562 398.355469 557.035156 398.695312 557.027344 399.050781 C 557.019531 399.402344 556.953125 399.742188 556.816406 400.066406 C 556.683594 400.390625 556.496094 400.683594 556.253906 400.9375 C 555.40625 401.480469 554.023438 401.167969 553.34375 401.207031 Z M 553.34375 401.207031 " fill-opacity="1" fill-rule="nonzero"/></g></g></g><g clip-path="url(#edc0183285)"><g clip-path="url(#31b9b1e66e)"><g clip-path="url(#addafd8927)"><path fill="#c6f135" d="M 574.523438 353.496094 C 574.691406 353.328125 574.878906 353.179688 575.082031 353.054688 C 575.285156 352.925781 575.5 352.824219 575.726562 352.746094 C 575.953125 352.667969 576.183594 352.617188 576.421875 352.589844 C 576.660156 352.5625 576.898438 352.566406 577.136719 352.59375 C 577.375 352.621094 577.605469 352.671875 577.832031 352.753906 C 578.058594 352.832031 578.273438 352.9375 578.476562 353.066406 C 578.675781 353.191406 578.863281 353.34375 579.03125 353.511719 C 579.199219 353.683594 579.347656 353.867188 579.476562 354.070312 C 579.785156 355.042969 579.691406 355.976562 579.1875 356.863281 C 578.285156 358.253906 575.929688 357.765625 574.8125 355.898438 C 574.539062 355.121094 574.441406 354.316406 574.523438 353.496094 Z M 574.523438 353.496094 " fill-opacity="1" fill-rule="nonzero"/></g></g></g><g clip-path="url(#1df8f50ea2)"><g clip-path="url(#2ec06b980a)"><g clip-path="url(#e1b7408fa6)"><path fill="#c6f135" d="M 556.894531 341.125 C 556.804688 342.441406 556.539062 343.722656 556.097656 344.964844 C 556.007812 345.09375 555.910156 345.207031 555.792969 345.3125 C 555.679688 345.414062 555.554688 345.503906 555.421875 345.578125 C 555.289062 345.65625 555.144531 345.714844 555 345.757812 C 554.851562 345.800781 554.699219 345.824219 554.546875 345.835938 C 554.390625 345.84375 554.238281 345.835938 554.085938 345.808594 C 553.9375 345.78125 553.789062 345.738281 553.648438 345.679688 C 553.503906 345.621094 553.371094 345.546875 553.246094 345.457031 C 553.121094 345.367188 553.007812 345.261719 552.90625 345.148438 C 551.761719 343.886719 551.660156 341.894531 552.960938 341.28125 C 554.265625 341.007812 555.574219 340.957031 556.894531 341.125 Z M 556.894531 341.125 " fill-opacity="1" fill-rule="nonzero"/></g></g></g><g clip-path="url(#eeb6b847ce)"><g clip-path="url(#83b00d54a6)"><g clip-path="url(#da6e64a08e)"><path fill="#c6f135" d="M 535.003906 409.402344 C 536.320312 409.535156 537.574219 409.894531 538.757812 410.488281 C 539.199219 410.851562 539.050781 412.433594 538.632812 413.164062 C 538.097656 414.109375 535.859375 413.878906 535.355469 412.824219 C 535.074219 411.699219 534.957031 410.558594 535.003906 409.402344 Z M 535.003906 409.402344 " fill-opacity="1" fill-rule="nonzero"/></g></g></g><g clip-path="url(#071b0cf50f)"><g clip-path="url(#0bcfd36261)"><g clip-path="url(#d92009d386)"><path fill="#c6f135" d="M 582.636719 202.105469 C 586.886719 206.339844 585.476562 212.183594 579.867188 213.5 C 577.839844 213.773438 575.835938 213.648438 573.855469 213.125 C 573.472656 213.046875 573.113281 212.902344 572.785156 212.691406 C 572.453125 212.480469 572.171875 212.21875 571.9375 211.902344 C 571.703125 211.589844 571.535156 211.242188 571.425781 210.867188 C 571.320312 210.488281 571.285156 210.105469 571.320312 209.714844 C 571.3125 207.917969 571.457031 206.132812 571.75 204.355469 C 571.796875 203.84375 571.914062 203.347656 572.101562 202.871094 C 572.289062 202.390625 572.539062 201.945312 572.847656 201.539062 C 573.160156 201.128906 573.519531 200.769531 573.929688 200.460938 C 574.339844 200.148438 574.785156 199.902344 575.265625 199.71875 C 575.746094 199.53125 576.242188 199.414062 576.753906 199.367188 C 577.265625 199.320312 577.773438 199.34375 578.277344 199.4375 C 578.785156 199.535156 579.265625 199.695312 579.726562 199.925781 C 580.1875 200.152344 580.609375 200.441406 580.988281 200.785156 C 581.609375 201.246094 582.191406 201.746094 582.636719 202.105469 Z M 582.636719 202.105469 " fill-opacity="1" fill-rule="nonzero"/></g></g></g><g clip-path="url(#36afbb3b6e)"><g clip-path="url(#bf1ef8413f)"><g clip-path="url(#5195c9c25d)"><path fill="#c6f135" d="M 536.167969 169.96875 C 540.414062 174.210938 539.007812 180.050781 533.398438 181.367188 C 531.367188 181.640625 529.367188 181.515625 527.386719 180.992188 C 527.003906 180.914062 526.644531 180.769531 526.316406 180.558594 C 525.984375 180.347656 525.703125 180.085938 525.46875 179.769531 C 525.234375 179.457031 525.066406 179.109375 524.957031 178.734375 C 524.851562 178.355469 524.816406 177.972656 524.851562 177.582031 C 524.84375 175.785156 524.984375 173.996094 525.28125 172.222656 C 525.328125 171.710938 525.445312 171.214844 525.632812 170.738281 C 525.820312 170.257812 526.070312 169.8125 526.378906 169.402344 C 526.691406 168.992188 527.050781 168.632812 527.460938 168.324219 C 527.871094 168.015625 528.316406 167.769531 528.796875 167.582031 C 529.277344 167.398438 529.773438 167.28125 530.285156 167.234375 C 530.796875 167.1875 531.304688 167.210938 531.8125 167.304688 C 532.316406 167.398438 532.800781 167.5625 533.261719 167.789062 C 533.722656 168.019531 534.140625 168.308594 534.523438 168.652344 C 535.136719 169.113281 535.722656 169.613281 536.167969 169.96875 Z M 536.167969 169.96875 " fill-opacity="1" fill-rule="nonzero"/></g></g></g><g clip-path="url(#918987e9be)"><g clip-path="url(#8e92cdd803)"><g clip-path="url(#129799cccb)"><path fill="#c6f135" d="M 557.230469 220.003906 C 557.703125 219.800781 558.457031 219.183594 559.066406 219.292969 C 560.574219 219.5 561.996094 219.972656 563.324219 220.71875 C 563.605469 220.875 563.867188 221.058594 564.109375 221.269531 C 564.351562 221.476562 564.574219 221.707031 564.769531 221.960938 C 564.96875 222.210938 565.140625 222.480469 565.289062 222.765625 C 565.433594 223.050781 565.550781 223.347656 565.636719 223.65625 C 565.726562 223.964844 565.78125 224.28125 565.808594 224.601562 C 565.835938 224.921875 565.828125 225.238281 565.792969 225.558594 C 565.757812 225.878906 565.691406 226.1875 565.59375 226.496094 C 565.496094 226.800781 565.371094 227.09375 565.214844 227.375 C 565.019531 227.628906 564.804688 227.863281 564.5625 228.078125 C 564.324219 228.289062 564.066406 228.480469 563.789062 228.644531 C 563.511719 228.804688 563.222656 228.941406 562.921875 229.050781 C 562.621094 229.15625 562.308594 229.234375 561.992188 229.285156 C 561.675781 229.332031 561.355469 229.351562 561.035156 229.335938 C 560.714844 229.324219 560.398438 229.28125 560.085938 229.207031 C 559.773438 229.132812 559.46875 229.03125 559.179688 228.898438 C 558.886719 228.765625 558.609375 228.605469 558.347656 228.421875 C 556.050781 227.164062 555.34375 222.609375 557.230469 220.003906 Z M 557.230469 220.003906 " fill-opacity="1" fill-rule="nonzero"/></g></g></g><g clip-path="url(#707b3adb89)"><g clip-path="url(#1d81169e7b)"><g clip-path="url(#51d5f7a2a5)"><path fill="#c6f135" d="M 563.898438 185.023438 C 564.183594 184.765625 564.511719 184.578125 564.875 184.453125 C 565.238281 184.328125 565.609375 184.28125 565.996094 184.304688 C 566.378906 184.332031 566.742188 184.433594 567.085938 184.605469 C 567.429688 184.777344 567.726562 185.007812 567.976562 185.300781 C 568.164062 185.417969 568.339844 185.558594 568.496094 185.71875 C 568.652344 185.875 568.789062 186.050781 568.910156 186.238281 C 569.027344 186.429688 569.121094 186.628906 569.195312 186.839844 C 569.269531 187.050781 569.316406 187.269531 569.339844 187.492188 C 569.367188 187.714844 569.363281 187.9375 569.339844 188.15625 C 569.3125 188.378906 569.261719 188.597656 569.1875 188.808594 C 569.113281 189.019531 569.015625 189.21875 568.894531 189.40625 C 568.777344 189.59375 568.636719 189.769531 568.480469 189.925781 C 568.203125 190.195312 567.886719 190.402344 567.527344 190.539062 C 567.171875 190.675781 566.796875 190.738281 566.414062 190.722656 C 566.03125 190.707031 565.664062 190.617188 565.316406 190.449219 C 564.972656 190.28125 564.671875 190.050781 564.421875 189.757812 C 564.070312 189.480469 563.789062 189.144531 563.570312 188.753906 C 563.355469 188.363281 563.222656 187.945312 563.171875 187.5 C 563.125 187.054688 563.160156 186.617188 563.285156 186.1875 C 563.414062 185.757812 563.617188 185.371094 563.898438 185.023438 Z M 563.898438 185.023438 " fill-opacity="1" fill-rule="nonzero"/></g></g></g><g clip-path="url(#d5f85ce07b)"><g clip-path="url(#591c00990b)"><g clip-path="url(#cea4168e12)"><path fill="#c6f135" d="M 543.550781 250.046875 C 544.773438 250.265625 545.917969 250.691406 546.988281 251.324219 C 547.136719 251.445312 547.265625 251.585938 547.382812 251.738281 C 547.496094 251.890625 547.597656 252.054688 547.675781 252.226562 C 547.757812 252.402344 547.816406 252.582031 547.859375 252.769531 C 547.898438 252.957031 547.917969 253.148438 547.917969 253.339844 C 547.917969 253.53125 547.898438 253.722656 547.855469 253.910156 C 547.8125 254.09375 547.75 254.277344 547.667969 254.449219 C 547.589844 254.625 547.488281 254.785156 547.371094 254.9375 C 547.253906 255.089844 547.121094 255.226562 546.976562 255.351562 C 546.648438 255.554688 546.296875 255.691406 545.921875 255.761719 C 545.542969 255.832031 545.164062 255.835938 544.789062 255.769531 C 544.410156 255.699219 544.054688 255.566406 543.726562 255.371094 C 543.398438 255.171875 543.117188 254.921875 542.878906 254.621094 C 542.605469 254.277344 542.414062 253.894531 542.296875 253.472656 C 542.183594 253.050781 542.160156 252.621094 542.222656 252.1875 C 542.285156 251.753906 542.433594 251.351562 542.664062 250.980469 C 542.894531 250.609375 543.191406 250.296875 543.550781 250.046875 Z M 543.550781 250.046875 " fill-opacity="1" fill-rule="nonzero"/></g></g></g><g clip-path="url(#dd43a97fff)"><g clip-path="url(#e44d16ef14)"><g clip-path="url(#dbcaf4158b)"><path fill="#c6f135" d="M 568.589844 237.644531 C 569.90625 237.777344 571.160156 238.140625 572.34375 238.730469 C 572.78125 239.097656 572.636719 240.675781 572.21875 241.410156 C 571.679688 242.355469 569.445312 242.125 568.941406 241.066406 C 568.65625 239.945312 568.539062 238.804688 568.589844 237.644531 Z M 568.589844 237.644531 " fill-opacity="1" fill-rule="nonzero"/></g></g></g><g clip-path="url(#b1eec8adea)"><g clip-path="url(#6b4bce1fa4)"><g clip-path="url(#7e8d2a227e)"><path fill="#c6f135" d="M 571.855469 407.472656 C 571.667969 406.464844 571.660156 405.460938 571.835938 404.453125 C 572.285156 403.445312 573.335938 403.332031 574.28125 404.003906 C 575.304688 404.734375 575.761719 406.71875 574.929688 407.167969 C 573.921875 407.445312 572.894531 407.546875 571.855469 407.472656 Z M 571.855469 407.472656 " fill-opacity="1" fill-rule="nonzero"/></g></g></g><path fill="#c6f135" d="M 53.53125 99.453125 C 50.800781 103.847656 47.761719 105.070312 44.269531 103.511719 C 39.632812 101.441406 37.3125 97.285156 38.449219 93.066406 C 38.738281 92.074219 39.09375 91.109375 39.515625 90.167969 C 42.328125 83.578125 47.996094 81.964844 53.964844 86.035156 C 54.519531 86.375 54.996094 86.800781 55.398438 87.308594 C 55.804688 87.816406 56.109375 88.378906 56.3125 88.992188 C 56.519531 89.609375 56.613281 90.238281 56.597656 90.886719 C 56.582031 91.535156 56.453125 92.164062 56.214844 92.765625 C 55.367188 95.1875 54.304688 97.542969 53.53125 99.453125 Z M 48.753906 94.296875 C 49.03125 93.882812 49.222656 93.4375 49.324219 92.949219 C 49.324219 92.285156 49.257812 91.3125 48.839844 91.039062 C 48.523438 90.898438 48.191406 90.847656 47.84375 90.886719 C 47.5 90.925781 47.1875 91.042969 46.90625 91.246094 C 46.203125 92.214844 45.667969 93.269531 45.308594 94.410156 C 45.1875 94.738281 45.566406 95.597656 45.820312 95.640625 C 46.511719 95.75 47.183594 95.679688 47.839844 95.429688 C 48.230469 95.265625 48.457031 94.6875 48.753906 94.296875 Z M 48.753906 94.296875 " fill-opacity="1" fill-rule="nonzero"/><path fill="#c6f135" d="M -8.066406 47.585938 C -7.554688 47.375 -6.589844 46.566406 -5.746094 46.695312 C -4.25 46.890625 -2.894531 47.441406 -1.679688 48.339844 C 0.453125 50.085938 0.914062 52.425781 -0.203125 53.695312 C -0.652344 54.15625 -1.164062 54.523438 -1.746094 54.792969 C -2.324219 55.066406 -2.933594 55.226562 -3.574219 55.273438 C -4.214844 55.324219 -4.839844 55.257812 -5.457031 55.078125 C -6.070312 54.898438 -6.636719 54.617188 -7.148438 54.234375 C -7.390625 54.039062 -7.609375 53.824219 -7.8125 53.589844 C -8.015625 53.355469 -8.191406 53.105469 -8.34375 52.835938 C -8.496094 52.566406 -8.625 52.285156 -8.722656 51.992188 C -8.824219 51.699219 -8.894531 51.398438 -8.9375 51.09375 C -8.980469 50.785156 -8.992188 50.476562 -8.976562 50.167969 C -8.960938 49.859375 -8.914062 49.554688 -8.839844 49.253906 C -8.765625 48.953125 -8.664062 48.664062 -8.53125 48.382812 C -8.402344 48.101562 -8.246094 47.835938 -8.066406 47.585938 Z M -8.066406 47.585938 " fill-opacity="1" fill-rule="nonzero"/><path fill="#c6f135" d="M 2.742188 21.9375 C 2.421875 21.734375 2.152344 21.480469 1.933594 21.167969 C 1.714844 20.855469 1.566406 20.515625 1.484375 20.144531 C 1.402344 19.773438 1.398438 19.398438 1.464844 19.023438 C 1.535156 18.652344 1.671875 18.304688 1.882812 17.988281 C 2.089844 17.667969 2.351562 17.398438 2.667969 17.1875 C 2.984375 16.976562 3.332031 16.835938 3.707031 16.769531 C 4.085938 16.699219 4.457031 16.707031 4.828125 16.796875 C 5.203125 16.882812 5.539062 17.039062 5.847656 17.265625 C 7.191406 18.0625 8.398438 19.085938 7.96875 20.851562 C 7.566406 22.519531 4.675781 23.0625 2.742188 21.9375 Z M 2.742188 21.9375 " fill-opacity="1" fill-rule="nonzero"/><path fill="#c6f135" d="M -1.785156 128.519531 C -6.808594 125.234375 -6.617188 119.226562 -1.394531 116.796875 C 0.539062 116.117188 2.527344 115.832031 4.570312 115.941406 C 4.960938 115.941406 5.339844 116.007812 5.707031 116.148438 C 6.074219 116.285156 6.402344 116.484375 6.695312 116.746094 C 6.988281 117.007812 7.226562 117.308594 7.40625 117.65625 C 7.589844 118.003906 7.703125 118.375 7.746094 118.761719 C 8.121094 120.523438 8.34375 122.300781 8.417969 124.097656 C 8.472656 124.609375 8.460938 125.117188 8.375 125.625 C 8.289062 126.128906 8.136719 126.617188 7.914062 127.082031 C 7.695312 127.546875 7.414062 127.96875 7.074219 128.355469 C 6.734375 128.742188 6.351562 129.074219 5.917969 129.355469 C 5.488281 129.632812 5.023438 129.847656 4.535156 130 C 4.042969 130.148438 3.539062 130.230469 3.023438 130.242188 C 2.511719 130.25 2.003906 130.191406 1.507812 130.0625 C 1.011719 129.929688 0.539062 129.734375 0.0976562 129.472656 C -0.601562 129.148438 -1.277344 128.777344 -1.785156 128.519531 Z M -1.785156 128.519531 " fill-opacity="1" fill-rule="nonzero"/><path fill="#c6f135" d="M 50.253906 150.519531 C 45.230469 147.234375 45.421875 141.230469 50.644531 138.800781 C 52.574219 138.121094 54.5625 137.832031 56.605469 137.941406 C 57 137.941406 57.378906 138.011719 57.742188 138.148438 C 58.109375 138.289062 58.4375 138.488281 58.730469 138.75 C 59.023438 139.007812 59.261719 139.3125 59.445312 139.660156 C 59.625 140.007812 59.738281 140.375 59.785156 140.765625 C 60.15625 142.523438 60.378906 144.300781 60.453125 146.097656 C 60.511719 146.609375 60.496094 147.121094 60.410156 147.625 C 60.324219 148.132812 60.171875 148.621094 59.953125 149.085938 C 59.730469 149.546875 59.449219 149.972656 59.113281 150.359375 C 58.773438 150.746094 58.386719 151.078125 57.953125 151.359375 C 57.523438 151.636719 57.0625 151.851562 56.570312 152.003906 C 56.078125 152.152344 55.574219 152.234375 55.058594 152.246094 C 54.546875 152.253906 54.039062 152.195312 53.542969 152.0625 C 53.046875 151.933594 52.574219 151.738281 52.132812 151.476562 C 51.4375 151.152344 50.761719 150.78125 50.253906 150.519531 Z M 50.253906 150.519531 " fill-opacity="1" fill-rule="nonzero"/><path fill="#c6f135" d="M 19.449219 105.820312 C 19.027344 106.117188 18.414062 106.875 17.792969 106.890625 C 16.273438 106.996094 14.789062 106.820312 13.335938 106.363281 C 13.03125 106.265625 12.734375 106.140625 12.457031 105.984375 C 12.175781 105.828125 11.910156 105.648438 11.664062 105.441406 C 11.421875 105.234375 11.195312 105.007812 10.996094 104.757812 C 10.796875 104.507812 10.621094 104.238281 10.472656 103.957031 C 10.324219 103.671875 10.203125 103.375 10.113281 103.066406 C 10.023438 102.761719 9.960938 102.445312 9.933594 102.128906 C 9.902344 101.808594 9.90625 101.488281 9.9375 101.167969 C 9.96875 100.851562 10.035156 100.535156 10.128906 100.230469 C 10.265625 99.941406 10.433594 99.667969 10.625 99.410156 C 10.816406 99.152344 11.03125 98.914062 11.265625 98.699219 C 11.503906 98.484375 11.757812 98.292969 12.035156 98.125 C 12.308594 97.957031 12.59375 97.816406 12.894531 97.707031 C 13.195312 97.59375 13.503906 97.511719 13.820312 97.457031 C 14.140625 97.40625 14.457031 97.382812 14.777344 97.394531 C 15.097656 97.402344 15.417969 97.441406 15.730469 97.511719 C 16.042969 97.582031 16.347656 97.679688 16.640625 97.808594 C 19.144531 98.574219 20.761719 102.890625 19.449219 105.820312 Z M 19.449219 105.820312 " fill-opacity="1" fill-rule="nonzero"/><path fill="#c6f135" d="M 20.039062 141.429688 C 19.808594 141.738281 19.53125 141.988281 19.199219 142.183594 C 18.867188 142.378906 18.511719 142.503906 18.132812 142.554688 C 17.75 142.609375 17.375 142.585938 17.003906 142.488281 C 16.632812 142.386719 16.292969 142.222656 15.988281 141.988281 C 15.78125 141.910156 15.582031 141.808594 15.394531 141.683594 C 15.210938 141.5625 15.039062 141.417969 14.886719 141.257812 C 14.730469 141.09375 14.597656 140.917969 14.480469 140.726562 C 14.367188 140.535156 14.277344 140.332031 14.207031 140.117188 C 14.136719 139.90625 14.09375 139.6875 14.074219 139.464844 C 14.054688 139.242188 14.058594 139.019531 14.089844 138.800781 C 14.121094 138.578125 14.175781 138.363281 14.253906 138.152344 C 14.332031 137.945312 14.433594 137.746094 14.554688 137.558594 C 14.769531 137.238281 15.039062 136.976562 15.359375 136.765625 C 15.683594 136.558594 16.035156 136.421875 16.414062 136.359375 C 16.792969 136.296875 17.171875 136.3125 17.542969 136.40625 C 17.917969 136.5 18.257812 136.664062 18.5625 136.898438 C 18.960938 137.097656 19.308594 137.367188 19.597656 137.707031 C 19.890625 138.046875 20.105469 138.429688 20.246094 138.855469 C 20.382812 139.28125 20.433594 139.714844 20.398438 140.164062 C 20.363281 140.609375 20.246094 141.03125 20.039062 141.429688 Z M 20.039062 141.429688 " fill-opacity="1" fill-rule="nonzero"/><path fill="#c6f135" d="M 26.722656 73.621094 C 25.484375 73.65625 24.273438 73.476562 23.097656 73.074219 C 22.929688 72.984375 22.773438 72.875 22.628906 72.746094 C 22.484375 72.621094 22.355469 72.480469 22.242188 72.328125 C 22.128906 72.171875 22.03125 72.007812 21.953125 71.832031 C 21.875 71.65625 21.816406 71.476562 21.777344 71.289062 C 21.742188 71.101562 21.722656 70.910156 21.726562 70.71875 C 21.730469 70.527344 21.753906 70.339844 21.796875 70.152344 C 21.839844 69.964844 21.90625 69.785156 21.988281 69.613281 C 22.070312 69.441406 22.171875 69.277344 22.292969 69.128906 C 22.570312 68.863281 22.886719 68.65625 23.242188 68.511719 C 23.597656 68.363281 23.964844 68.285156 24.347656 68.273438 C 24.734375 68.261719 25.105469 68.320312 25.46875 68.449219 C 25.832031 68.574219 26.160156 68.761719 26.453125 69.007812 C 26.789062 69.289062 27.054688 69.625 27.253906 70.015625 C 27.453125 70.40625 27.5625 70.820312 27.589844 71.257812 C 27.617188 71.695312 27.554688 72.117188 27.402344 72.53125 C 27.253906 72.941406 27.027344 73.304688 26.722656 73.621094 Z M 26.722656 73.621094 " fill-opacity="1" fill-rule="nonzero"/><path fill="#c6f135" d="M 4.734375 90.863281 C 3.417969 91 2.117188 90.902344 0.835938 90.566406 C 0.335938 90.292969 0.15625 88.71875 0.417969 87.917969 C 0.75 86.882812 2.988281 86.652344 3.695312 87.582031 C 4.199219 88.625 4.546875 89.71875 4.734375 90.863281 Z M 4.734375 90.863281 " fill-opacity="1" fill-rule="nonzero"/><g clip-path="url(#8d88bf5992)"><g clip-path="url(#7dd560a4c4)"><g clip-path="url(#a9e97080c6)"><path fill="#c6f135" d="M -7.898438 443.175781 C -4.320312 439.433594 -1.105469 438.855469 1.992188 441.089844 C 6.113281 444.058594 7.539062 448.601562 5.570312 452.503906 C 5.085938 453.414062 4.539062 454.289062 3.933594 455.125 C -0.160156 460.996094 -6.039062 461.425781 -11.054688 456.226562 C -11.527344 455.78125 -11.910156 455.269531 -12.199219 454.6875 C -12.492188 454.109375 -12.675781 453.496094 -12.753906 452.855469 C -12.828125 452.210938 -12.792969 451.570312 -12.644531 450.941406 C -12.496094 450.308594 -12.242188 449.722656 -11.886719 449.179688 C -10.566406 446.976562 -9.046875 444.890625 -7.898438 443.175781 Z M -4.269531 449.199219 C -4.625 449.546875 -4.902344 449.945312 -5.101562 450.402344 C -5.238281 451.054688 -5.371094 452.019531 -5.019531 452.371094 C -4.734375 452.574219 -4.421875 452.691406 -4.074219 452.722656 C -3.730469 452.757812 -3.398438 452.703125 -3.082031 452.558594 C -2.195312 451.753906 -1.460938 450.832031 -0.871094 449.789062 C -0.6875 449.492188 -0.886719 448.574219 -1.125 448.480469 C -1.777344 448.230469 -2.453125 448.164062 -3.144531 448.273438 C -3.5625 448.355469 -3.898438 448.875 -4.269531 449.199219 Z M -4.269531 449.199219 " fill-opacity="1" fill-rule="nonzero"/></g></g></g><g clip-path="url(#b9f4d10642)"><g clip-path="url(#a1e51adfdd)"><g clip-path="url(#6e2537d944)"><path fill="#c6f135" d="M 25.175781 374.222656 C 25.050781 377.671875 24.011719 380.824219 22.0625 383.671875 C 21.675781 384.421875 21.175781 385.089844 20.570312 385.671875 C 19.964844 386.257812 19.28125 386.730469 18.519531 387.09375 C 17.757812 387.453125 16.957031 387.683594 16.121094 387.78125 C 15.28125 387.878906 14.453125 387.839844 13.625 387.667969 C 9.472656 387.207031 7.875 384.75 8.890625 380.652344 C 9.445312 378.417969 10.167969 376.222656 10.78125 374 C 11.132812 372.882812 11.699219 371.886719 12.480469 371.015625 C 13.265625 370.144531 14.191406 369.472656 15.265625 369.003906 C 15.664062 368.789062 16.082031 368.632812 16.523438 368.539062 C 16.964844 368.441406 17.414062 368.410156 17.863281 368.441406 C 18.316406 368.472656 18.753906 368.566406 19.175781 368.722656 C 19.601562 368.878906 19.996094 369.089844 20.359375 369.355469 C 21 369.789062 21.582031 370.289062 22.101562 370.855469 C 23.167969 371.96875 24.171875 373.109375 25.175781 374.222656 Z M 15.964844 380.515625 C 16.664062 380.265625 17.449219 380.179688 17.503906 379.921875 C 17.570312 379.230469 17.539062 378.542969 17.414062 377.855469 C 16.964844 378.007812 16.222656 378.058594 16.128906 378.328125 C 15.980469 379.050781 15.929688 379.78125 15.972656 380.519531 Z M 15.964844 380.515625 " fill-opacity="1" fill-rule="nonzero"/></g></g></g><g clip-path="url(#54073c3c9a)"><g clip-path="url(#263c75759b)"><g clip-path="url(#695390501b)"><path fill="#c6f135" d="M 19.25 316.574219 C 19.636719 316.960938 19.992188 317.375 20.308594 317.824219 C 20.628906 318.269531 20.90625 318.738281 21.144531 319.234375 C 21.382812 319.726562 21.578125 320.238281 21.726562 320.761719 C 21.878906 321.289062 21.984375 321.824219 22.046875 322.371094 C 22.105469 322.914062 22.121094 323.460938 22.089844 324.007812 C 22.054688 324.554688 21.976562 325.09375 21.855469 325.628906 C 21.730469 326.164062 21.5625 326.683594 21.351562 327.1875 C 21.136719 327.691406 20.882812 328.175781 20.589844 328.640625 C 18.367188 332.167969 11.3125 332.277344 9.246094 328.648438 C 8.691406 327.847656 8.269531 326.980469 7.980469 326.050781 C 7.6875 325.121094 7.542969 324.171875 7.539062 323.195312 C 7.539062 322.222656 7.679688 321.269531 7.964844 320.339844 C 8.25 319.410156 8.667969 318.539062 9.21875 317.734375 C 9.480469 317.332031 9.78125 316.957031 10.125 316.621094 C 10.46875 316.28125 10.847656 315.984375 11.257812 315.730469 C 11.667969 315.472656 12.101562 315.265625 12.554688 315.105469 C 13.011719 314.949219 13.480469 314.839844 13.957031 314.785156 C 14.4375 314.730469 14.917969 314.726562 15.398438 314.777344 C 15.878906 314.828125 16.347656 314.929688 16.804688 315.085938 C 17.261719 315.242188 17.695312 315.445312 18.109375 315.695312 C 18.523438 315.945312 18.902344 316.238281 19.25 316.574219 Z M 19.25 316.574219 " fill-opacity="1" fill-rule="nonzero"/></g></g></g><g clip-path="url(#23c28a2a3a)"><g clip-path="url(#94696e4508)"><g clip-path="url(#628560a687)"><path fill="#c6f135" d="M 14.730469 242.828125 C 18.976562 247.0625 17.570312 252.90625 11.960938 254.222656 C 9.929688 254.492188 7.925781 254.367188 5.949219 253.847656 C 5.566406 253.769531 5.207031 253.625 4.878906 253.414062 C 4.546875 253.203125 4.265625 252.941406 4.03125 252.628906 C 3.796875 252.3125 3.628906 251.96875 3.519531 251.589844 C 3.414062 251.214844 3.378906 250.828125 3.414062 250.441406 C 3.40625 248.640625 3.546875 246.855469 3.839844 245.078125 C 3.890625 244.566406 4.007812 244.074219 4.195312 243.59375 C 4.382812 243.113281 4.632812 242.667969 4.941406 242.261719 C 5.253906 241.851562 5.613281 241.492188 6.023438 241.179688 C 6.433594 240.871094 6.878906 240.625 7.359375 240.4375 C 7.839844 240.253906 8.335938 240.136719 8.847656 240.089844 C 9.359375 240.042969 9.867188 240.066406 10.375 240.160156 C 10.878906 240.253906 11.363281 240.417969 11.824219 240.644531 C 12.28125 240.875 12.703125 241.160156 13.085938 241.507812 C 13.6875 241.964844 14.285156 242.46875 14.730469 242.828125 Z M 14.730469 242.828125 " fill-opacity="1" fill-rule="nonzero"/></g></g></g><g clip-path="url(#68bf6d95f2)"><g clip-path="url(#a0511cf50c)"><g clip-path="url(#50f8ffa9d0)"><path fill="#c6f135" d="M 46.859375 353.105469 C 46.273438 352.429688 45.808594 351.679688 45.460938 350.855469 C 45.113281 350.035156 44.902344 349.179688 44.824219 348.289062 C 44.746094 347.402344 44.808594 346.519531 45.007812 345.652344 C 45.207031 344.78125 45.535156 343.960938 45.992188 343.195312 C 46.265625 342.839844 46.570312 342.511719 46.910156 342.21875 C 47.25 341.925781 47.617188 341.667969 48.011719 341.449219 C 48.402344 341.230469 48.8125 341.054688 49.242188 340.921875 C 49.671875 340.789062 50.109375 340.703125 50.558594 340.660156 C 51.003906 340.617188 51.453125 340.621094 51.898438 340.667969 C 52.34375 340.71875 52.78125 340.8125 53.210938 340.953125 C 53.636719 341.09375 54.042969 341.277344 54.433594 341.5 C 54.824219 341.726562 55.183594 341.988281 55.519531 342.285156 C 59.558594 345.855469 58.511719 349.652344 55.269531 353.761719 C 53.65625 355.8125 49.214844 355.265625 46.859375 353.105469 Z M 51.996094 347.777344 C 51.261719 347.582031 50.675781 347.242188 50.445312 347.40625 C 50.078125 347.75 49.929688 348.167969 49.996094 348.664062 C 50.070312 348.984375 50.652344 349.1875 51.011719 349.441406 Z M 51.996094 347.777344 " fill-opacity="1" fill-rule="nonzero"/></g></g></g><g clip-path="url(#dbd22861d8)"><g clip-path="url(#120fabbd0f)"><g clip-path="url(#3bcbe3e7d5)"><path fill="#c6f135" d="M 15.09375 198.324219 C 16.070312 197.925781 17.066406 197.589844 18.082031 197.3125 C 22.496094 196.40625 24.367188 197.34375 25.285156 200.816406 C 25.441406 201.277344 25.558594 201.746094 25.625 202.226562 C 25.695312 202.707031 25.71875 203.191406 25.695312 203.675781 C 25.675781 204.160156 25.605469 204.640625 25.492188 205.109375 C 25.378906 205.582031 25.222656 206.039062 25.019531 206.484375 C 24.820312 206.925781 24.578125 207.34375 24.300781 207.742188 C 24.019531 208.136719 23.703125 208.503906 23.351562 208.839844 C 23.003906 209.179688 22.625 209.480469 22.214844 209.742188 C 21.808594 210.007812 21.378906 210.230469 20.929688 210.414062 C 20.433594 210.582031 19.925781 210.65625 19.402344 210.636719 C 18.878906 210.617188 18.375 210.503906 17.894531 210.300781 C 17.414062 210.09375 16.984375 209.8125 16.605469 209.449219 C 16.226562 209.085938 15.925781 208.667969 15.703125 208.195312 C 14.917969 206.664062 14.472656 205.039062 14.367188 203.324219 C 14.261719 201.605469 14.503906 199.941406 15.09375 198.324219 Z M 15.09375 198.324219 " fill-opacity="1" fill-rule="nonzero"/></g></g></g><g clip-path="url(#a6353d8e5b)"><g clip-path="url(#102ece7277)"><g clip-path="url(#00804c1678)"><path fill="#c6f135" d="M 51.957031 306.375 C 52.402344 307.082031 52.804688 307.8125 53.167969 308.566406 C 53.367188 308.890625 53.515625 309.234375 53.609375 309.605469 C 53.703125 309.976562 53.738281 310.351562 53.71875 310.730469 C 53.699219 311.109375 53.621094 311.480469 53.492188 311.835938 C 53.359375 312.195312 53.175781 312.523438 52.941406 312.824219 C 51.675781 314.207031 50.136719 313.480469 48.777344 312.808594 C 47.878906 312.351562 47.035156 311.800781 46.253906 311.15625 C 46.070312 311.039062 45.898438 310.902344 45.738281 310.75 C 45.582031 310.59375 45.441406 310.425781 45.320312 310.242188 C 45.199219 310.058594 45.09375 309.863281 45.015625 309.660156 C 44.933594 309.453125 44.871094 309.242188 44.835938 309.023438 C 44.796875 308.808594 44.785156 308.589844 44.792969 308.367188 C 44.800781 308.148438 44.832031 307.929688 44.886719 307.71875 C 44.9375 307.503906 45.015625 307.296875 45.109375 307.097656 C 45.207031 306.902344 45.324219 306.714844 45.460938 306.539062 C 45.667969 306.320312 45.890625 306.121094 46.136719 305.945312 C 46.382812 305.765625 46.644531 305.617188 46.921875 305.492188 C 47.195312 305.367188 47.480469 305.273438 47.777344 305.203125 C 48.070312 305.136719 48.371094 305.101562 48.671875 305.09375 C 48.976562 305.085938 49.277344 305.105469 49.574219 305.160156 C 49.871094 305.210938 50.160156 305.292969 50.445312 305.402344 C 50.726562 305.511719 50.992188 305.648438 51.246094 305.8125 C 51.503906 305.976562 51.738281 306.164062 51.957031 306.375 Z M 51.957031 306.375 " fill-opacity="1" fill-rule="nonzero"/></g></g></g><g clip-path="url(#dcce47dd41)"><g clip-path="url(#7b368d6b94)"><g clip-path="url(#9c81d94dec)"><path fill="#c6f135" d="M 27.722656 341.242188 C 28.535156 340.957031 29.371094 340.785156 30.226562 340.722656 C 30.515625 340.734375 30.800781 340.773438 31.082031 340.839844 C 31.363281 340.90625 31.632812 341 31.894531 341.117188 C 32.160156 341.238281 32.40625 341.382812 32.640625 341.550781 C 32.875 341.722656 33.085938 341.914062 33.285156 342.125 C 33.480469 342.335938 33.652344 342.566406 33.800781 342.8125 C 33.953125 343.058594 34.078125 343.316406 34.175781 343.585938 C 34.273438 343.859375 34.347656 344.136719 34.390625 344.421875 C 34.433594 344.707031 34.449219 344.992188 34.4375 345.28125 C 34.453125 345.503906 34.441406 345.726562 34.398438 345.945312 C 34.359375 346.164062 34.292969 346.375 34.199219 346.578125 C 34.105469 346.78125 33.984375 346.96875 33.84375 347.140625 C 33.703125 347.316406 33.542969 347.46875 33.363281 347.597656 C 33.179688 347.730469 32.988281 347.839844 32.78125 347.921875 C 32.570312 348.003906 32.359375 348.058594 32.136719 348.085938 C 31.914062 348.113281 31.691406 348.113281 31.472656 348.085938 C 31.25 348.058594 31.035156 348.003906 30.828125 347.921875 C 29.96875 347.613281 29.230469 347.117188 28.621094 346.4375 C 28.007812 345.761719 27.59375 344.976562 27.375 344.089844 C 27.328125 343.121094 27.441406 342.171875 27.722656 341.242188 Z M 27.722656 341.242188 " fill-opacity="1" fill-rule="nonzero"/></g></g></g><g clip-path="url(#7ddb4dba2d)"><g clip-path="url(#f91a0e3838)"><g clip-path="url(#647b47477b)"><path fill="#c6f135" d="M 6.886719 342.71875 C 7.253906 342.476562 7.652344 342.3125 8.085938 342.226562 C 8.515625 342.140625 8.945312 342.136719 9.375 342.214844 C 9.808594 342.296875 10.210938 342.453125 10.582031 342.6875 C 10.953125 342.921875 11.265625 343.214844 11.523438 343.570312 C 11.714844 343.894531 11.84375 344.242188 11.914062 344.609375 C 11.980469 344.980469 11.984375 345.351562 11.925781 345.71875 C 11.867188 346.089844 11.746094 346.441406 11.5625 346.769531 C 11.382812 347.097656 11.152344 347.386719 10.867188 347.636719 C 10.574219 347.871094 10.246094 348.046875 9.886719 348.160156 C 9.527344 348.273438 9.160156 348.320312 8.78125 348.292969 C 8.40625 348.269531 8.046875 348.179688 7.703125 348.019531 C 7.359375 347.859375 7.058594 347.644531 6.796875 347.371094 C 6.484375 347.0625 6.242188 346.707031 6.078125 346.296875 C 5.910156 345.890625 5.832031 345.464844 5.839844 345.027344 C 5.847656 344.585938 5.945312 344.164062 6.125 343.765625 C 6.308594 343.363281 6.5625 343.015625 6.886719 342.71875 Z M 6.886719 342.71875 " fill-opacity="1" fill-rule="nonzero"/></g></g></g><g clip-path="url(#8cf1b0eb35)"><g clip-path="url(#88bf6d9eb5)"><g clip-path="url(#06114e9abb)"><path fill="#c6f135" d="M 89.597656 356.464844 C 89.058594 356.566406 87.945312 357.160156 87.144531 356.863281 C 85.71875 356.367188 84.503906 355.550781 83.496094 354.421875 C 81.761719 352.277344 81.789062 349.898438 83.140625 348.878906 C 83.671875 348.523438 84.25 348.269531 84.875 348.121094 C 85.5 347.972656 86.128906 347.941406 86.761719 348.023438 C 87.398438 348.105469 88 348.296875 88.566406 348.597656 C 89.132812 348.894531 89.628906 349.285156 90.050781 349.765625 C 90.25 350.003906 90.421875 350.257812 90.570312 350.53125 C 90.722656 350.800781 90.84375 351.085938 90.9375 351.378906 C 91.035156 351.671875 91.101562 351.972656 91.136719 352.28125 C 91.175781 352.589844 91.183594 352.898438 91.164062 353.207031 C 91.144531 353.515625 91.09375 353.816406 91.015625 354.117188 C 90.933594 354.417969 90.828125 354.707031 90.695312 354.984375 C 90.558594 355.265625 90.402344 355.527344 90.21875 355.777344 C 90.03125 356.023438 89.828125 356.253906 89.597656 356.464844 Z M 89.597656 356.464844 " fill-opacity="1" fill-rule="nonzero"/></g></g></g><g clip-path="url(#852411db9e)"><g clip-path="url(#6c5c623e98)"><g clip-path="url(#20ac477052)"><path fill="#c6f135" d="M 96.234375 371.152344 C 96.507812 372.140625 96.652344 373.148438 96.671875 374.171875 C 96.601562 374.488281 96.46875 374.769531 96.273438 375.023438 C 96.074219 375.277344 95.835938 375.480469 95.546875 375.625 C 95.261719 375.773438 94.960938 375.851562 94.636719 375.863281 C 94.316406 375.875 94.007812 375.816406 93.714844 375.691406 C 92.84375 375.167969 92.136719 374.476562 91.59375 373.621094 C 90.992188 372.5625 90.355469 371.285156 91.59375 370.15625 C 92.582031 369.25 94.484375 369.523438 96.234375 371.152344 Z M 96.234375 371.152344 " fill-opacity="1" fill-rule="nonzero"/></g></g></g><g clip-path="url(#faad7b4daf)"><g clip-path="url(#48b05fe6a3)"><g clip-path="url(#4a4f7b60e4)"><path fill="#c6f135" d="M 73.800781 379.375 C 74.074219 379.636719 74.289062 379.945312 74.4375 380.292969 C 74.589844 380.644531 74.667969 381.007812 74.671875 381.386719 C 74.671875 381.769531 74.605469 382.136719 74.460938 382.488281 C 74.316406 382.839844 74.109375 383.148438 73.84375 383.417969 C 73.574219 383.691406 73.261719 383.898438 72.910156 384.042969 C 72.554688 384.183594 72.1875 384.25 71.804688 384.242188 C 71.421875 384.230469 71.058594 384.144531 70.710938 383.984375 C 70.367188 383.824219 70.066406 383.601562 69.8125 383.316406 C 68.660156 382.265625 67.6875 381.015625 68.476562 379.378906 C 69.203125 377.824219 72.136719 377.882812 73.800781 379.375 Z M 73.800781 379.375 " fill-opacity="1" fill-rule="nonzero"/></g></g></g><g clip-path="url(#ec27a0c919)"><g clip-path="url(#1c704c50dc)"><g clip-path="url(#19aba4bbba)"><path fill="#c6f135" d="M 36.324219 447.242188 C 36.582031 447.53125 36.808594 447.839844 37.003906 448.175781 C 37.199219 448.511719 37.359375 448.863281 37.480469 449.230469 C 37.601562 449.597656 37.6875 449.972656 37.730469 450.355469 C 37.777344 450.742188 37.78125 451.125 37.746094 451.511719 C 37.714844 451.898438 37.640625 452.277344 37.527344 452.644531 C 37.414062 453.015625 37.265625 453.371094 37.082031 453.710938 C 36.894531 454.050781 36.675781 454.367188 36.425781 454.664062 C 36.175781 454.957031 35.898438 455.222656 35.589844 455.460938 C 35.394531 455.675781 35.179688 455.871094 34.945312 456.046875 C 34.710938 456.21875 34.464844 456.367188 34.199219 456.488281 C 33.9375 456.613281 33.664062 456.710938 33.378906 456.777344 C 33.097656 456.847656 32.8125 456.886719 32.519531 456.898438 C 32.230469 456.910156 31.941406 456.894531 31.652344 456.847656 C 31.363281 456.800781 31.085938 456.726562 30.8125 456.625 C 30.539062 456.523438 30.277344 456.398438 30.03125 456.242188 C 29.785156 456.089844 29.554688 455.914062 29.34375 455.714844 C 29.054688 455.449219 28.800781 455.15625 28.574219 454.839844 C 28.347656 454.519531 28.15625 454.183594 28.003906 453.824219 C 27.847656 453.464844 27.734375 453.097656 27.65625 452.714844 C 27.578125 452.332031 27.542969 451.945312 27.546875 451.554688 C 27.554688 451.164062 27.597656 450.777344 27.683594 450.398438 C 27.769531 450.015625 27.894531 449.648438 28.058594 449.296875 C 28.222656 448.941406 28.421875 448.609375 28.65625 448.296875 C 28.890625 447.984375 29.152344 447.699219 29.445312 447.441406 C 29.65625 447.191406 29.890625 446.96875 30.144531 446.769531 C 30.402344 446.570312 30.675781 446.402344 30.96875 446.261719 C 31.261719 446.117188 31.566406 446.011719 31.882812 445.933594 C 32.195312 445.855469 32.515625 445.8125 32.839844 445.804688 C 33.164062 445.792969 33.488281 445.820312 33.808594 445.878906 C 34.125 445.9375 34.4375 446.027344 34.734375 446.152344 C 35.035156 446.273438 35.320312 446.429688 35.585938 446.613281 C 35.855469 446.796875 36.101562 447.007812 36.324219 447.242188 Z M 36.324219 447.242188 " fill-opacity="1" fill-rule="nonzero"/></g></g></g><g clip-path="url(#1eedc25aff)"><g clip-path="url(#c36983f74b)"><g clip-path="url(#b8fd66e39c)"><path fill="#c6f135" d="M 64.058594 407.996094 C 65.28125 408.214844 66.425781 408.640625 67.496094 409.269531 C 67.640625 409.394531 67.773438 409.535156 67.890625 409.6875 C 68.003906 409.839844 68.101562 410.003906 68.183594 410.175781 C 68.261719 410.351562 68.324219 410.53125 68.363281 410.71875 C 68.40625 410.90625 68.425781 411.097656 68.425781 411.289062 C 68.421875 411.480469 68.402344 411.667969 68.359375 411.855469 C 68.316406 412.042969 68.257812 412.222656 68.175781 412.398438 C 68.09375 412.570312 67.996094 412.734375 67.878906 412.886719 C 67.761719 413.039062 67.628906 413.175781 67.484375 413.300781 C 67.15625 413.5 66.804688 413.636719 66.425781 413.707031 C 66.050781 413.78125 65.671875 413.78125 65.292969 413.714844 C 64.917969 413.648438 64.5625 413.515625 64.234375 413.316406 C 63.90625 413.121094 63.621094 412.871094 63.382812 412.566406 C 63.113281 412.226562 62.917969 411.84375 62.804688 411.421875 C 62.691406 410.996094 62.664062 410.570312 62.730469 410.136719 C 62.792969 409.703125 62.941406 409.300781 63.171875 408.925781 C 63.402344 408.554688 63.699219 408.246094 64.058594 407.996094 Z M 64.058594 407.996094 " fill-opacity="1" fill-rule="nonzero"/></g></g></g><g clip-path="url(#5e5c1e0ccb)"><g clip-path="url(#ffab22926d)"><g clip-path="url(#41ced46a88)"><path fill="#c6f135" d="M 76.046875 433.164062 C 75.730469 432.9375 75.472656 432.660156 75.273438 432.328125 C 75.078125 431.996094 74.953125 431.636719 74.90625 431.253906 C 74.859375 430.871094 74.890625 430.492188 75.003906 430.121094 C 75.113281 429.75 75.296875 429.417969 75.546875 429.125 C 75.796875 428.832031 76.09375 428.597656 76.4375 428.425781 C 76.78125 428.253906 77.144531 428.15625 77.53125 428.128906 C 77.914062 428.105469 78.289062 428.15625 78.652344 428.285156 C 79.015625 428.414062 79.339844 428.605469 79.621094 428.867188 C 79.980469 429.136719 80.269531 429.464844 80.492188 429.855469 C 80.71875 430.242188 80.855469 430.660156 80.910156 431.105469 C 80.964844 431.550781 80.929688 431.988281 80.804688 432.417969 C 80.679688 432.847656 80.476562 433.238281 80.195312 433.585938 C 79.882812 433.808594 79.542969 433.96875 79.171875 434.066406 C 78.800781 434.164062 78.421875 434.195312 78.039062 434.15625 C 77.660156 434.117188 77.296875 434.011719 76.953125 433.839844 C 76.609375 433.671875 76.308594 433.445312 76.046875 433.164062 Z M 76.046875 433.164062 " fill-opacity="1" fill-rule="nonzero"/></g></g></g><g clip-path="url(#d28dfec6b9)"><g clip-path="url(#6663ffac22)"><g clip-path="url(#f271b79a0a)"><path fill="#c6f135" d="M 24.847656 401.492188 C 26.992188 403.429688 27.230469 405.863281 25.574219 407.101562 C 25.15625 407.316406 24.710938 407.421875 24.242188 407.414062 C 23.773438 407.410156 23.332031 407.296875 22.917969 407.070312 C 20.886719 405.574219 20.429688 403.046875 21.957031 401.988281 C 22.785156 401.417969 24.128906 401.59375 24.847656 401.492188 Z M 24.847656 401.492188 " fill-opacity="1" fill-rule="nonzero"/></g></g></g><g clip-path="url(#2187889c1e)"><g clip-path="url(#7ae4158ad4)"><g clip-path="url(#dc6a9d2203)"><path fill="#c6f135" d="M -0.875 273.917969 C 3.371094 278.15625 1.964844 283.996094 -3.644531 285.3125 C -5.675781 285.585938 -7.679688 285.460938 -9.660156 284.9375 C -10.042969 284.859375 -10.398438 284.714844 -10.730469 284.503906 C -11.0625 284.292969 -11.34375 284.03125 -11.578125 283.71875 C -11.8125 283.402344 -11.980469 283.058594 -12.085938 282.679688 C -12.195312 282.304688 -12.230469 281.917969 -12.195312 281.53125 C -12.203125 279.730469 -12.058594 277.945312 -11.765625 276.171875 C -11.71875 275.660156 -11.597656 275.164062 -11.414062 274.683594 C -11.226562 274.203125 -10.976562 273.761719 -10.667969 273.351562 C -10.355469 272.941406 -9.996094 272.582031 -9.585938 272.273438 C -9.171875 271.964844 -8.726562 271.714844 -8.25 271.53125 C -7.769531 271.34375 -7.273438 271.230469 -6.761719 271.183594 C -6.25 271.132812 -5.742188 271.15625 -5.234375 271.253906 C -4.730469 271.347656 -4.246094 271.507812 -3.785156 271.738281 C -3.328125 271.964844 -2.90625 272.253906 -2.527344 272.597656 C -1.90625 273.058594 -1.320312 273.558594 -0.875 273.917969 Z M -0.875 273.917969 " fill-opacity="1" fill-rule="nonzero"/></g></g></g></svg>