<svg xmlns="http://www.w3.org/2000/svg" xmlns:xlink="http://www.w3.org/1999/xlink" width="200" zoomAndPan="magnify" viewBox="0 0 150 149.999998" height="200" preserveAspectRatio="xMidYMid meet" version="1.0"><path fill="#c6f135" d="M 95.257812 59.796875 C 94.484375 59.796875 93.851562 59.167969 93.851562 58.394531 L 93.851562 51.792969 C 93.851562 51.019531 94.484375 50.390625 95.257812 50.390625 C 96.03125 50.390625 96.660156 51.019531 96.660156 51.792969 L 96.660156 58.394531 C 96.660156 59.167969 96.03125 59.796875 95.257812 59.796875 Z M 95.257812 59.796875 " fill-opacity="1" fill-rule="evenodd"/><path fill="#c6f135" d="M 100.875 59.796875 C 100.101562 59.796875 99.46875 59.167969 99.46875 58.394531 L 99.46875 50.390625 C 99.46875 49.617188 100.101562 48.984375 100.875 48.984375 C 101.648438 48.984375 102.277344 49.617188 102.277344 50.390625 L 102.277344 58.394531 C 102.277344 59.167969 101.648438 59.796875 100.875 59.796875 Z M 100.875 59.796875 " fill-opacity="1" fill-rule="evenodd"/><path fill="#c6f135" d="M 106.703125 59.796875 C 105.929688 59.796875 105.296875 59.167969 105.296875 58.394531 L 105.296875 45.261719 C 105.296875 44.492188 105.929688 43.859375 106.703125 43.859375 C 107.476562 43.859375 108.105469 44.492188 108.105469 45.261719 L 108.105469 58.394531 C 108.105469 59.167969 107.476562 59.796875 106.703125 59.796875 Z M 106.703125 59.796875 " fill-opacity="1" fill-rule="evenodd"/><path fill="#c6f135" d="M 112.320312 59.796875 C 111.546875 59.796875 110.914062 59.167969 110.914062 58.394531 L 110.914062 44.070312 C 110.914062 43.296875 111.546875 42.664062 112.320312 42.664062 C 113.09375 42.664062 113.722656 43.296875 113.722656 44.070312 L 113.722656 58.394531 C 113.722656 59.167969 113.09375 59.796875 112.320312 59.796875 Z M 112.320312 59.796875 " fill-opacity="1" fill-rule="evenodd"/><path fill="#c6f135" d="M 103.894531 69.136719 C 93.992188 69.136719 85.917969 61.0625 85.917969 51.089844 C 85.917969 46.457031 87.746094 41.964844 91.183594 38.59375 C 94.625 35.222656 99.121094 33.328125 103.894531 33.328125 C 113.582031 33.328125 121.730469 41.472656 121.730469 51.089844 C 121.730469 55.867188 119.832031 60.429688 116.460938 63.800781 C 113.023438 67.242188 108.597656 69.136719 103.894531 69.136719 Z M 103.894531 36.136719 C 95.679688 36.136719 88.726562 43.015625 88.726562 51.089844 C 88.726562 59.515625 95.539062 66.328125 103.894531 66.328125 C 112.039062 66.328125 118.921875 59.375 118.921875 51.089844 C 118.921875 43.015625 112.039062 36.136719 103.894531 36.136719 Z M 103.894531 36.136719 " fill-opacity="1" fill-rule="evenodd"/><path fill="#c6f135" d="M 103.894531 75.949219 C 97.222656 75.949219 90.902344 73.351562 86.199219 68.714844 C 81.496094 64.082031 78.898438 57.832031 78.898438 51.089844 C 78.898438 37.46875 90.132812 26.304688 103.894531 26.304688 C 117.585938 26.304688 128.75 37.46875 128.75 51.089844 C 128.75 57.832031 126.152344 64.082031 121.449219 68.714844 C 116.742188 73.351562 110.566406 75.949219 103.894531 75.949219 Z M 103.894531 29.113281 C 91.675781 29.113281 81.707031 39.015625 81.707031 51.089844 C 81.707031 63.449219 91.464844 73.140625 103.894531 73.140625 C 116.042969 73.140625 125.941406 63.238281 125.941406 51.089844 C 125.941406 39.015625 116.042969 29.113281 103.894531 29.113281 Z M 103.894531 29.113281 " fill-opacity="1" fill-rule="evenodd"/><path fill="#c6f135" d="M 103.824219 75.949219 C 97.433594 75.949219 91.113281 73.5625 86.269531 68.714844 C 76.648438 59.097656 76.648438 43.367188 86.269531 33.746094 C 90.972656 28.972656 97.222656 26.304688 103.824219 26.304688 C 110.425781 26.304688 116.601562 28.972656 121.308594 33.746094 C 126.082031 38.453125 128.75 44.632812 128.75 51.230469 C 128.75 57.832031 126.082031 64.082031 121.308594 68.714844 C 116.460938 73.5625 110.144531 75.949219 103.824219 75.949219 Z M 103.824219 29.113281 C 97.925781 29.113281 92.449219 31.429688 88.304688 35.714844 C 79.738281 44.28125 79.738281 58.183594 88.304688 66.75 C 96.800781 75.316406 110.773438 75.316406 119.273438 66.75 C 123.554688 62.605469 125.941406 57.058594 125.941406 51.230469 C 125.941406 45.402344 123.554688 39.855469 119.339844 35.714844 C 119.339844 35.714844 119.273438 35.714844 119.273438 35.714844 C 115.128906 31.429688 109.652344 29.113281 103.824219 29.113281 Z M 103.824219 29.113281 " fill-opacity="1" fill-rule="evenodd"/><path fill="#c6f135" d="M 103.894531 36.136719 C 103.121094 36.136719 102.488281 35.503906 102.488281 34.730469 L 102.488281 27.710938 C 102.488281 26.9375 103.121094 26.304688 103.894531 26.304688 C 104.667969 26.304688 105.296875 26.9375 105.296875 27.710938 L 105.296875 34.730469 C 105.296875 35.503906 104.667969 36.136719 103.894531 36.136719 Z M 103.894531 36.136719 " fill-opacity="1" fill-rule="evenodd"/><path fill="#c6f135" d="M 115.410156 41.050781 C 115.058594 41.050781 114.636719 40.910156 114.425781 40.628906 C 113.863281 40.066406 113.863281 39.226562 114.425781 38.664062 L 119.339844 33.746094 C 119.832031 33.1875 120.746094 33.1875 121.308594 33.746094 C 121.871094 34.238281 121.871094 35.152344 121.308594 35.714844 L 116.394531 40.628906 C 116.113281 40.910156 115.761719 41.050781 115.410156 41.050781 Z M 115.410156 41.050781 " fill-opacity="1" fill-rule="evenodd"/><path fill="#c6f135" d="M 127.347656 52.496094 L 120.324219 52.496094 C 119.550781 52.496094 118.921875 51.863281 118.921875 51.089844 C 118.921875 50.320312 119.550781 49.6875 120.324219 49.6875 L 127.347656 49.6875 C 128.117188 49.6875 128.75 50.320312 128.75 51.089844 C 128.75 51.863281 128.117188 52.496094 127.347656 52.496094 Z M 127.347656 52.496094 " fill-opacity="1" fill-rule="evenodd"/><path fill="#c6f135" d="M 120.324219 69.136719 C 119.972656 69.136719 119.550781 68.996094 119.339844 68.714844 L 114.425781 63.800781 C 113.863281 63.238281 113.863281 62.394531 114.425781 61.835938 C 114.917969 61.273438 115.832031 61.273438 116.394531 61.835938 L 121.308594 66.75 C 121.871094 67.242188 121.871094 68.152344 121.308594 68.714844 C 121.027344 68.996094 120.675781 69.136719 120.324219 69.136719 Z M 120.324219 69.136719 " fill-opacity="1" fill-rule="evenodd"/><path fill="#c6f135" d="M 103.894531 75.949219 C 103.121094 75.949219 102.488281 75.316406 102.488281 74.542969 L 102.488281 67.734375 C 102.488281 66.960938 103.121094 66.328125 103.894531 66.328125 C 104.667969 66.328125 105.296875 66.960938 105.296875 67.734375 L 105.296875 74.542969 C 105.296875 75.316406 104.667969 75.949219 103.894531 75.949219 Z M 103.894531 75.949219 " fill-opacity="1" fill-rule="evenodd"/><path fill="#c6f135" d="M 51.230469 94.203125 C 33.46875 94.203125 33.46875 76.71875 33.46875 66.328125 C 33.46875 65.554688 34.097656 64.925781 34.871094 64.925781 C 35.644531 64.925781 36.277344 65.554688 36.277344 66.328125 C 36.277344 79.527344 37.398438 91.394531 51.230469 91.394531 C 64.925781 91.394531 65.976562 80.019531 65.976562 66.328125 C 65.976562 65.554688 66.609375 64.925781 67.382812 64.925781 C 68.152344 64.925781 68.785156 65.554688 68.785156 66.328125 C 68.785156 77.421875 68.785156 94.203125 51.230469 94.203125 Z M 51.230469 94.203125 " fill-opacity="1" fill-rule="evenodd"/><path fill="#c6f135" d="M 34.871094 67.734375 C 34.167969 67.734375 33.605469 67.242188 33.46875 66.539062 C 33.398438 65.765625 33.886719 65.0625 34.660156 64.925781 C 38.59375 64.292969 43.367188 62.535156 43.507812 57.832031 C 43.578125 57.199219 44 56.636719 44.632812 56.496094 C 45.261719 56.425781 45.964844 56.707031 46.175781 57.269531 C 48.5625 62.394531 55.515625 64.925781 67.382812 64.925781 C 68.152344 64.925781 68.785156 65.554688 68.785156 66.328125 C 68.785156 67.101562 68.152344 67.734375 67.382812 67.734375 C 60.148438 67.734375 50.460938 66.960938 45.542969 61.34375 C 44.070312 64.574219 40.417969 66.820312 35.082031 67.664062 C 35.011719 67.734375 34.941406 67.734375 34.871094 67.734375 Z M 34.871094 67.734375 " fill-opacity="1" fill-rule="evenodd"/><path fill="#c6f135" d="M 69.980469 123.695312 L 16.40625 123.695312 C 15.632812 123.695312 15 123.0625 15 122.289062 C 15 114.707031 16.683594 108.667969 20.125 104.246094 C 24.058594 99.191406 30.097656 96.382812 38.101562 96.03125 C 38.875 96.03125 39.503906 96.589844 39.574219 97.363281 C 39.574219 98.136719 39.015625 98.839844 38.242188 98.839844 C 25.109375 99.398438 18.230469 106.84375 17.808594 120.886719 L 69.980469 120.886719 C 70.75 120.886719 71.382812 121.519531 71.382812 122.289062 C 71.382812 123.0625 70.75 123.695312 69.980469 123.695312 Z M 73.492188 100.242188 C 73.351562 100.242188 73.210938 100.242188 73.070312 100.171875 C 70.820312 99.539062 68.292969 99.050781 65.414062 98.839844 C 64.644531 98.769531 64.082031 98.136719 64.152344 97.363281 C 64.222656 96.589844 64.855469 95.960938 65.625 96.03125 C 68.714844 96.3125 71.382812 96.730469 73.910156 97.503906 C 74.683594 97.714844 75.105469 98.488281 74.824219 99.261719 C 74.683594 99.890625 74.121094 100.242188 73.492188 100.242188 Z M 73.492188 100.242188 " fill-opacity="1" fill-rule="evenodd"/><path fill="#c6f135" d="M 38.171875 99.121094 C 37.890625 99.121094 37.679688 99.050781 37.46875 98.910156 C 36.765625 98.488281 36.554688 97.644531 36.976562 97.011719 C 37.046875 96.800781 39.363281 92.941406 41.472656 89.851562 C 41.894531 89.21875 42.734375 89.078125 43.367188 89.5 C 44 89.992188 44.210938 90.832031 43.71875 91.464844 C 41.683594 94.414062 39.363281 98.347656 39.363281 98.417969 C 39.085938 98.839844 38.664062 99.121094 38.171875 99.121094 Z M 38.171875 99.121094 " fill-opacity="1" fill-rule="evenodd"/><path fill="#c6f135" d="M 65.554688 99.121094 C 65.0625 99.121094 64.644531 98.839844 64.363281 98.417969 C 64.292969 98.417969 61.484375 93.992188 59.445312 90.695312 C 59.027344 90.0625 59.167969 89.21875 59.867188 88.796875 C 60.5 88.375 61.34375 88.515625 61.765625 89.21875 C 63.871094 92.449219 66.679688 96.871094 66.679688 96.941406 C 67.101562 97.574219 66.890625 98.417969 66.257812 98.839844 C 66.046875 99.050781 65.765625 99.121094 65.554688 99.121094 Z M 65.554688 99.121094 " fill-opacity="1" fill-rule="evenodd"/><path fill="#c6f135" d="M 51.933594 123.695312 C 51.652344 123.695312 51.371094 123.554688 51.089844 123.414062 C 43.859375 117.796875 37.117188 98.980469 36.835938 98.136719 C 36.554688 97.433594 36.90625 96.589844 37.679688 96.382812 C 38.382812 96.101562 39.226562 96.449219 39.503906 97.222656 C 39.574219 97.433594 46.246094 116.113281 52.847656 121.167969 C 53.410156 121.589844 53.550781 122.5 53.058594 123.132812 C 52.777344 123.484375 52.355469 123.695312 51.933594 123.695312 Z M 51.933594 123.695312 " fill-opacity="1" fill-rule="evenodd"/><path fill="#c6f135" d="M 51.933594 123.695312 C 51.511719 123.695312 51.160156 123.484375 50.878906 123.132812 C 50.390625 122.5 50.460938 121.660156 51.089844 121.167969 C 57.480469 116.113281 64.152344 97.433594 64.222656 97.222656 C 64.503906 96.519531 65.273438 96.101562 66.046875 96.382812 C 66.75 96.589844 67.171875 97.433594 66.890625 98.136719 C 66.609375 98.980469 59.867188 117.796875 52.847656 123.34375 C 52.566406 123.554688 52.285156 123.695312 51.933594 123.695312 Z M 51.933594 123.695312 " fill-opacity="1" fill-rule="evenodd"/><path fill="#c6f135" d="M 60.359375 111.265625 C 60.007812 111.265625 59.65625 111.125 59.375 110.84375 L 51.441406 102.277344 L 44.140625 110.355469 C 43.578125 110.914062 42.734375 110.984375 42.105469 110.425781 C 41.542969 109.933594 41.472656 109.019531 42.035156 108.457031 L 49.476562 100.171875 L 41.542969 91.605469 C 41.050781 91.042969 41.050781 90.132812 41.613281 89.640625 C 42.171875 89.078125 43.085938 89.148438 43.648438 89.710938 L 51.371094 98.066406 L 59.585938 89.007812 C 60.078125 88.445312 60.992188 88.375 61.554688 88.9375 C 62.183594 89.429688 62.183594 90.34375 61.695312 90.902344 L 53.339844 100.171875 L 61.414062 108.878906 C 61.976562 109.441406 61.90625 110.355469 61.34375 110.914062 C 61.0625 111.125 60.710938 111.265625 60.359375 111.265625 Z M 60.359375 111.265625 " fill-opacity="1" fill-rule="evenodd"/><path fill="#c6f135" d="M 121.941406 123.695312 L 69.980469 123.695312 C 68.714844 123.695312 67.453125 123.0625 66.75 122.082031 C 66.117188 121.238281 65.976562 120.253906 66.328125 119.273438 L 76.859375 81.847656 C 76.859375 81.777344 76.859375 81.777344 76.859375 81.707031 C 77.210938 80.933594 78.195312 78.476562 80.792969 78.476562 L 130.855469 78.476562 C 132.121094 78.476562 133.386719 79.039062 134.085938 79.878906 C 134.71875 80.582031 135 81.496094 134.789062 82.476562 C 134.789062 82.476562 134.789062 82.546875 134.789062 82.546875 L 125.660156 119.972656 C 125.238281 122.289062 123.835938 123.695312 121.941406 123.695312 Z M 79.527344 82.6875 L 68.996094 120.042969 C 68.996094 120.113281 68.996094 120.113281 68.996094 120.113281 C 68.925781 120.183594 68.925781 120.324219 68.996094 120.394531 C 69.207031 120.605469 69.558594 120.886719 69.980469 120.886719 L 121.941406 120.886719 C 122.429688 120.886719 122.710938 120.394531 122.921875 119.480469 C 122.921875 119.410156 122.921875 119.410156 122.921875 119.339844 L 132.050781 81.988281 C 132.050781 81.917969 132.050781 81.847656 131.910156 81.707031 C 131.769531 81.496094 131.347656 81.285156 130.855469 81.285156 L 80.722656 81.285156 C 80.511719 81.285156 80.089844 81.285156 79.527344 82.6875 Z M 79.527344 82.6875 " fill-opacity="1" fill-rule="evenodd"/><path fill="#c6f135" d="M 100.382812 109.863281 C 95.609375 109.863281 91.746094 105.859375 91.746094 100.945312 C 91.746094 96.171875 95.609375 92.308594 100.382812 92.308594 C 105.296875 92.308594 109.300781 96.171875 109.300781 100.945312 C 109.300781 105.929688 105.367188 109.863281 100.382812 109.863281 Z M 100.382812 95.117188 C 97.152344 95.117188 94.554688 97.714844 94.554688 100.945312 C 94.554688 104.386719 97.152344 107.054688 100.382812 107.054688 C 103.824219 107.054688 106.492188 104.386719 106.492188 100.945312 C 106.492188 97.714844 103.824219 95.117188 100.382812 95.117188 Z M 100.382812 95.117188 " fill-opacity="1" fill-rule="evenodd"/><path fill="#c6f135" d="M 35.082031 76.160156 L 34.871094 76.160156 C 31.5 76.160156 28.761719 73.421875 28.761719 70.050781 L 28.761719 67.242188 C 28.761719 65.0625 30.589844 63.308594 32.765625 63.308594 L 34.871094 63.308594 C 35.644531 63.308594 36.277344 63.941406 36.277344 64.714844 C 36.277344 65.484375 35.644531 66.117188 34.871094 66.117188 L 32.765625 66.117188 C 32.132812 66.117188 31.570312 66.609375 31.570312 67.242188 L 31.570312 70.050781 C 31.570312 71.875 33.046875 73.351562 34.871094 73.351562 L 35.082031 73.351562 C 35.855469 73.351562 36.484375 73.980469 36.484375 74.753906 C 36.484375 75.527344 35.855469 76.160156 35.082031 76.160156 Z M 35.082031 76.160156 " fill-opacity="1" fill-rule="evenodd"/><path fill="#c6f135" d="M 67.871094 76.160156 L 67.171875 76.160156 C 66.398438 76.160156 65.765625 75.527344 65.765625 74.753906 C 65.765625 73.980469 66.398438 73.351562 67.171875 73.351562 L 67.871094 73.351562 C 69.699219 73.351562 71.171875 71.875 71.171875 70.050781 L 71.171875 67.242188 C 71.171875 66.609375 70.542969 66.117188 69.769531 66.117188 L 67.382812 66.117188 C 66.609375 66.117188 65.976562 65.484375 65.976562 64.714844 C 65.976562 63.941406 66.609375 63.308594 67.382812 63.308594 L 69.769531 63.308594 C 72.085938 63.308594 73.980469 65.0625 73.980469 67.242188 L 73.980469 70.050781 C 73.980469 73.421875 71.242188 76.160156 67.871094 76.160156 Z M 67.871094 76.160156 " fill-opacity="1" fill-rule="evenodd"/><path fill="#c6f135" d="M 67.171875 67.734375 C 66.398438 67.734375 65.765625 67.101562 65.765625 66.328125 L 65.765625 56.496094 C 65.765625 51.863281 61.976562 48.070312 57.339844 48.070312 L 44.914062 48.070312 C 40.136719 48.070312 36.277344 51.863281 36.277344 56.496094 L 36.277344 66.328125 C 36.277344 67.101562 35.644531 67.734375 34.871094 67.734375 C 34.097656 67.734375 33.46875 67.101562 33.46875 66.328125 L 33.46875 56.496094 C 33.46875 50.320312 38.59375 45.261719 44.914062 45.261719 L 57.339844 45.261719 C 63.519531 45.261719 68.574219 50.320312 68.574219 56.496094 L 68.574219 66.328125 C 68.574219 67.101562 67.941406 67.734375 67.171875 67.734375 Z M 67.171875 67.734375 " fill-opacity="1" fill-rule="evenodd"/><path fill="#c6f135" d="M 43.789062 80.582031 C 40.699219 80.582031 38.171875 78.054688 38.171875 74.964844 C 38.171875 71.875 40.699219 69.347656 43.789062 69.347656 C 46.878906 69.347656 49.40625 71.875 49.40625 74.964844 C 49.40625 78.054688 46.878906 80.582031 43.789062 80.582031 Z M 43.789062 72.15625 C 42.171875 72.15625 40.980469 73.421875 40.980469 74.964844 C 40.980469 76.578125 42.171875 77.773438 43.789062 77.773438 C 45.332031 77.773438 46.597656 76.578125 46.597656 74.964844 C 46.597656 73.421875 45.332031 72.15625 43.789062 72.15625 Z M 43.789062 72.15625 " fill-opacity="1" fill-rule="evenodd"/><path fill="#c6f135" d="M 58.746094 80.582031 C 55.65625 80.582031 53.128906 78.054688 53.128906 74.964844 C 53.128906 71.875 55.65625 69.347656 58.746094 69.347656 C 61.835938 69.347656 64.363281 71.875 64.363281 74.964844 C 64.363281 78.054688 61.835938 80.582031 58.746094 80.582031 Z M 58.746094 72.15625 C 57.199219 72.15625 55.9375 73.421875 55.9375 74.964844 C 55.9375 76.578125 57.199219 77.773438 58.746094 77.773438 C 60.289062 77.773438 61.554688 76.578125 61.554688 74.964844 C 61.554688 73.421875 60.289062 72.15625 58.746094 72.15625 Z M 58.746094 72.15625 " fill-opacity="1" fill-rule="evenodd"/><path fill="#c6f135" d="M 67.171875 76.371094 L 62.957031 76.371094 C 62.183594 76.371094 61.554688 75.738281 61.554688 74.964844 C 61.554688 74.191406 62.183594 73.5625 62.957031 73.5625 L 67.171875 73.5625 C 67.941406 73.5625 68.574219 74.191406 68.574219 74.964844 C 68.574219 75.738281 67.941406 76.371094 67.171875 76.371094 Z M 67.171875 76.371094 " fill-opacity="1" fill-rule="evenodd"/><path fill="#c6f135" d="M 54.53125 76.160156 C 54.109375 76.160156 53.6875 75.949219 53.480469 75.667969 C 52.777344 74.753906 52.074219 74.332031 51.371094 74.332031 C 51.371094 74.332031 51.371094 74.332031 51.300781 74.332031 C 50.460938 74.332031 49.546875 75.035156 48.984375 75.667969 C 48.492188 76.300781 47.582031 76.300781 47.019531 75.808594 C 46.457031 75.246094 46.386719 74.402344 46.949219 73.769531 C 48.703125 71.875 50.320312 71.453125 51.441406 71.453125 C 52.917969 71.523438 54.320312 72.296875 55.585938 73.839844 C 56.078125 74.472656 56.007812 75.316406 55.445312 75.808594 C 55.164062 76.089844 54.8125 76.160156 54.53125 76.160156 Z M 54.53125 76.160156 " fill-opacity="1" fill-rule="evenodd"/><path fill="#c6f135" d="M 39.574219 76.371094 L 35.082031 76.371094 C 34.308594 76.371094 33.675781 75.738281 33.675781 74.964844 C 33.675781 74.191406 34.308594 73.5625 35.082031 73.5625 L 39.574219 73.5625 C 40.347656 73.5625 40.980469 74.191406 40.980469 74.964844 C 40.980469 75.738281 40.347656 76.371094 39.574219 76.371094 Z M 39.574219 76.371094 " fill-opacity="1" fill-rule="evenodd"/></svg>