<svg xmlns="http://www.w3.org/2000/svg" xmlns:xlink="http://www.w3.org/1999/xlink" width="200" zoomAndPan="magnify" viewBox="0 0 150 157.92" height="200" preserveAspectRatio="xMidYMid meet" version="1.0"><defs><clipPath id="c1173ad189"><path d="M 15.03125 15.21875 L 134.96875 15.21875 L 134.96875 134.40625 L 15.03125 134.40625 Z M 15.03125 15.21875 " clip-rule="nonzero"/></clipPath></defs><g clip-path="url(#c1173ad189)"><path fill="#c6f135" d="M 58.527344 118.152344 L 22.15625 118.152344 L 22.15625 45.664062 C 22.15625 45.359375 22.1875 45.054688 22.246094 44.753906 C 22.308594 44.453125 22.394531 44.164062 22.511719 43.878906 C 22.628906 43.597656 22.773438 43.328125 22.945312 43.074219 C 23.113281 42.816406 23.308594 42.582031 23.523438 42.367188 C 23.742188 42.148438 23.976562 41.957031 24.230469 41.785156 C 24.488281 41.613281 24.753906 41.472656 25.039062 41.355469 C 25.320312 41.234375 25.613281 41.148438 25.914062 41.085938 C 26.214844 41.027344 26.515625 40.996094 26.824219 40.996094 L 55.4375 40.996094 C 55.128906 43.046875 54.90625 45.175781 54.769531 47.394531 L 30.355469 47.394531 C 30.113281 47.394531 29.886719 47.4375 29.664062 47.53125 C 29.445312 47.621094 29.25 47.75 29.078125 47.921875 C 28.910156 48.089844 28.78125 48.285156 28.691406 48.503906 C 28.597656 48.726562 28.550781 48.957031 28.550781 49.195312 L 28.550781 109.960938 C 28.550781 110.203125 28.597656 110.429688 28.691406 110.652344 C 28.78125 110.871094 28.910156 111.066406 29.082031 111.234375 C 29.25 111.40625 29.445312 111.535156 29.664062 111.625 C 29.886719 111.71875 30.113281 111.765625 30.355469 111.765625 L 64.164062 111.765625 C 64.617188 112.988281 65.140625 114.179688 65.742188 115.339844 L 69.332031 122.308594 L 60.328125 122.308594 L 60.328125 119.953125 C 60.328125 119.714844 60.285156 119.484375 60.191406 119.265625 C 60.101562 119.042969 59.972656 118.847656 59.800781 118.679688 C 59.632812 118.511719 59.4375 118.382812 59.21875 118.289062 C 58.996094 118.199219 58.765625 118.152344 58.527344 118.152344 Z M 62.917969 98.410156 L 62.917969 92.011719 L 61.757812 92.011719 C 61.371094 92.011719 61.023438 91.898438 60.707031 91.671875 C 60.394531 91.445312 60.179688 91.148438 60.054688 90.78125 L 54.542969 96.300781 C 54.054688 96.796875 53.488281 97.183594 52.84375 97.453125 C 52.199219 97.722656 51.527344 97.859375 50.828125 97.863281 C 50.113281 97.859375 49.429688 97.722656 48.773438 97.453125 C 48.285156 97.253906 47.835938 96.992188 47.429688 96.660156 C 47.019531 96.328125 46.667969 95.945312 46.378906 95.507812 C 46.085938 95.070312 45.863281 94.601562 45.714844 94.097656 C 45.5625 93.59375 45.492188 93.078125 45.496094 92.554688 L 45.496094 79.570312 C 45.472656 77.945312 45.773438 76.378906 46.394531 74.878906 C 47.019531 73.375 47.914062 72.058594 49.078125 70.921875 L 55.257812 64.746094 C 54.929688 61.589844 54.71875 58.558594 54.636719 55.671875 C 54.59375 54.078125 54.589844 52.519531 54.621094 50.996094 L 32.15625 50.996094 L 32.15625 108.160156 L 63.171875 108.160156 C 62.640625 105.097656 63.027344 102.4375 64.34375 100.171875 C 63.929688 100.082031 63.585938 99.871094 63.320312 99.542969 C 63.050781 99.210938 62.917969 98.835938 62.917969 98.410156 Z M 20.9375 134.6875 L 129.0625 134.6875 C 129.449219 134.6875 129.832031 134.648438 130.210938 134.574219 C 130.589844 134.496094 130.957031 134.386719 131.3125 134.238281 C 131.671875 134.089844 132.007812 133.90625 132.328125 133.691406 C 132.652344 133.476562 132.949219 133.234375 133.222656 132.960938 C 133.496094 132.6875 133.738281 132.390625 133.953125 132.070312 C 134.167969 131.75 134.347656 131.410156 134.496094 131.054688 C 134.644531 130.695312 134.757812 130.328125 134.832031 129.949219 C 134.910156 129.570312 134.945312 129.1875 134.949219 128.800781 L 134.949219 121.753906 L 93.273438 121.753906 L 93.273438 124.113281 C 93.273438 124.351562 93.226562 124.582031 93.136719 124.800781 C 93.046875 125.023438 92.914062 125.21875 92.746094 125.386719 C 92.578125 125.554688 92.382812 125.683594 92.160156 125.777344 C 91.941406 125.867188 91.710938 125.914062 91.472656 125.914062 L 78.804688 125.914062 L 76.597656 130.195312 C 76.445312 130.496094 76.222656 130.734375 75.933594 130.910156 C 75.644531 131.085938 75.332031 131.171875 74.996094 131.171875 C 74.660156 131.171875 74.347656 131.085938 74.058594 130.910156 C 73.769531 130.734375 73.546875 130.496094 73.394531 130.195312 L 71.191406 125.914062 L 58.527344 125.914062 C 58.289062 125.914062 58.058594 125.867188 57.839844 125.777344 C 57.617188 125.683594 57.421875 125.554688 57.253906 125.386719 C 57.085938 125.21875 56.953125 125.023438 56.863281 124.800781 C 56.773438 124.582031 56.726562 124.351562 56.726562 124.113281 L 56.726562 121.757812 L 15.050781 121.757812 L 15.050781 128.800781 C 15.054688 129.1875 15.089844 129.570312 15.167969 129.949219 C 15.242188 130.328125 15.355469 130.695312 15.503906 131.054688 C 15.652344 131.410156 15.832031 131.75 16.046875 132.070312 C 16.261719 132.390625 16.503906 132.6875 16.777344 132.960938 C 17.050781 133.234375 17.347656 133.476562 17.671875 133.691406 C 17.992188 133.90625 18.332031 134.089844 18.6875 134.238281 C 19.042969 134.386719 19.410156 134.496094 19.789062 134.574219 C 20.167969 134.648438 20.550781 134.6875 20.9375 134.6875 Z M 74.996094 73.816406 C 74.5625 73.816406 74.148438 73.902344 73.75 74.066406 C 73.347656 74.234375 72.996094 74.46875 72.691406 74.777344 C 72.386719 75.082031 72.148438 75.4375 71.984375 75.835938 C 71.820312 76.234375 71.734375 76.652344 71.734375 77.085938 L 71.734375 88.410156 L 78.265625 88.410156 L 78.265625 77.085938 C 78.265625 76.652344 78.179688 76.234375 78.015625 75.835938 C 77.847656 75.433594 77.613281 75.082031 77.304688 74.773438 C 77 74.46875 76.648438 74.230469 76.246094 74.066406 C 75.847656 73.898438 75.429688 73.816406 74.996094 73.816406 Z M 49.097656 79.570312 L 49.097656 92.554688 C 49.089844 92.898438 49.179688 93.214844 49.375 93.503906 C 49.566406 93.792969 49.824219 93.996094 50.148438 94.121094 C 50.464844 94.257812 50.792969 94.292969 51.128906 94.222656 C 51.46875 94.15625 51.757812 94 51.996094 93.75 L 59.058594 86.683594 C 57.636719 80.5625 56.550781 74.75 55.804688 69.292969 L 51.628906 73.472656 C 50.800781 74.265625 50.164062 75.195312 49.726562 76.257812 C 49.285156 77.316406 49.074219 78.421875 49.097656 79.570312 Z M 66.519531 96.609375 L 83.480469 96.609375 L 83.480469 92.011719 L 66.519531 92.011719 Z M 119.644531 47.394531 C 119.886719 47.394531 120.113281 47.4375 120.335938 47.53125 C 120.554688 47.621094 120.75 47.753906 120.921875 47.921875 C 121.089844 48.089844 121.21875 48.285156 121.308594 48.503906 C 121.402344 48.726562 121.449219 48.957031 121.449219 49.195312 L 121.449219 109.960938 C 121.449219 110.203125 121.402344 110.429688 121.308594 110.652344 C 121.21875 110.871094 121.089844 111.066406 120.917969 111.234375 C 120.75 111.40625 120.554688 111.535156 120.335938 111.625 C 120.113281 111.71875 119.886719 111.765625 119.644531 111.765625 L 85.835938 111.765625 C 85.378906 112.988281 84.851562 114.179688 84.25 115.339844 L 80.660156 122.308594 L 89.671875 122.308594 L 89.671875 119.953125 C 89.671875 119.714844 89.714844 119.484375 89.808594 119.265625 C 89.898438 119.042969 90.03125 118.847656 90.199219 118.679688 C 90.367188 118.511719 90.5625 118.382812 90.78125 118.289062 C 91.003906 118.199219 91.234375 118.152344 91.472656 118.152344 L 127.84375 118.152344 L 127.84375 45.664062 C 127.84375 45.359375 127.8125 45.054688 127.753906 44.753906 C 127.691406 44.453125 127.605469 44.164062 127.488281 43.878906 C 127.371094 43.597656 127.226562 43.328125 127.054688 43.074219 C 126.886719 42.816406 126.691406 42.582031 126.476562 42.367188 C 126.257812 42.148438 126.023438 41.957031 125.769531 41.785156 C 125.511719 41.613281 125.246094 41.472656 124.960938 41.355469 C 124.679688 41.234375 124.386719 41.148438 124.085938 41.085938 C 123.785156 41.027344 123.484375 40.996094 123.175781 40.996094 L 94.5625 40.996094 C 94.871094 43.046875 95.09375 45.175781 95.230469 47.394531 Z M 63.167969 88.410156 C 57.246094 64.167969 56.632812 45.183594 61.335938 31.929688 L 88.667969 31.929688 C 93.367188 45.183594 92.753906 64.167969 86.832031 88.410156 L 81.867188 88.410156 L 81.867188 77.085938 C 81.867188 76.632812 81.824219 76.1875 81.734375 75.746094 C 81.648438 75.300781 81.515625 74.871094 81.34375 74.457031 C 81.171875 74.039062 80.960938 73.644531 80.710938 73.269531 C 80.457031 72.894531 80.175781 72.546875 79.855469 72.230469 C 79.535156 71.910156 79.191406 71.625 78.816406 71.375 C 78.441406 71.125 78.042969 70.914062 77.628906 70.742188 C 77.210938 70.566406 76.78125 70.4375 76.339844 70.347656 C 75.898438 70.261719 75.449219 70.21875 75 70.21875 C 74.550781 70.21875 74.101562 70.261719 73.660156 70.347656 C 73.21875 70.4375 72.789062 70.566406 72.371094 70.742188 C 71.957031 70.914062 71.558594 71.125 71.183594 71.375 C 70.808594 71.625 70.464844 71.910156 70.144531 72.230469 C 69.824219 72.546875 69.542969 72.894531 69.289062 73.269531 C 69.039062 73.644531 68.828125 74.039062 68.65625 74.457031 C 68.484375 74.871094 68.351562 75.300781 68.265625 75.746094 C 68.175781 76.1875 68.132812 76.632812 68.132812 77.085938 L 68.132812 88.410156 Z M 64.238281 48.320312 C 64.238281 49.023438 64.308594 49.726562 64.445312 50.417969 C 64.585938 51.109375 64.789062 51.785156 65.058594 52.4375 C 65.328125 53.089844 65.660156 53.710938 66.054688 54.296875 C 66.445312 54.882812 66.894531 55.429688 67.394531 55.925781 C 67.894531 56.425781 68.4375 56.871094 69.023438 57.265625 C 69.613281 57.65625 70.230469 57.988281 70.886719 58.257812 C 71.539062 58.527344 72.210938 58.734375 72.902344 58.871094 C 73.597656 59.007812 74.296875 59.078125 75.003906 59.078125 C 75.710938 59.078125 76.410156 59.007812 77.101562 58.871094 C 77.796875 58.730469 78.46875 58.527344 79.121094 58.257812 C 79.773438 57.984375 80.394531 57.652344 80.980469 57.261719 C 81.570312 56.867188 82.113281 56.421875 82.613281 55.921875 C 83.113281 55.421875 83.558594 54.878906 83.949219 54.292969 C 84.34375 53.703125 84.671875 53.082031 84.945312 52.429688 C 85.214844 51.777344 85.417969 51.105469 85.554688 50.410156 C 85.691406 49.71875 85.761719 49.019531 85.761719 48.3125 C 85.761719 47.605469 85.691406 46.90625 85.554688 46.210938 C 85.417969 45.519531 85.210938 44.847656 84.941406 44.195312 C 84.671875 43.542969 84.339844 42.921875 83.945312 42.332031 C 83.554688 41.746094 83.105469 41.203125 82.605469 40.703125 C 82.105469 40.203125 81.5625 39.757812 80.976562 39.367188 C 80.386719 38.972656 79.769531 38.640625 79.113281 38.371094 C 78.460938 38.101562 77.789062 37.898438 77.097656 37.761719 C 76.402344 37.621094 75.703125 37.554688 74.996094 37.554688 C 74.289062 37.554688 73.589844 37.625 72.898438 37.761719 C 72.207031 37.902344 71.53125 38.105469 70.878906 38.378906 C 70.226562 38.648438 69.609375 38.980469 69.019531 39.375 C 68.433594 39.765625 67.890625 40.210938 67.390625 40.710938 C 66.890625 41.210938 66.445312 41.753906 66.054688 42.34375 C 65.660156 42.929688 65.328125 43.550781 65.058594 44.203125 C 64.789062 44.855469 64.585938 45.527344 64.445312 46.21875 C 64.308594 46.914062 64.238281 47.613281 64.238281 48.320312 Z M 98.003906 93.753906 C 98.246094 94 98.535156 94.15625 98.875 94.226562 C 99.214844 94.292969 99.542969 94.253906 99.863281 94.117188 C 100.183594 93.992188 100.441406 93.785156 100.628906 93.5 C 100.820312 93.214844 100.914062 92.898438 100.902344 92.554688 L 100.902344 79.570312 C 100.925781 78.421875 100.714844 77.316406 100.277344 76.257812 C 99.835938 75.195312 99.203125 74.265625 98.375 73.472656 L 94.195312 69.292969 C 93.453125 74.753906 92.367188 80.5625 90.941406 86.683594 Z M 77.394531 16.039062 C 77.054688 15.769531 76.679688 15.5625 76.265625 15.421875 C 75.855469 15.277344 75.433594 15.207031 75 15.207031 C 74.5625 15.207031 74.140625 15.277344 73.730469 15.421875 C 73.316406 15.5625 72.941406 15.769531 72.601562 16.039062 C 68.445312 19.183594 65.164062 23.3125 62.8125 28.328125 L 87.1875 28.328125 C 84.832031 23.3125 81.550781 19.183594 77.394531 16.039062 Z M 74.996094 55.480469 C 75.464844 55.480469 75.933594 55.4375 76.394531 55.34375 C 76.855469 55.253906 77.304688 55.117188 77.738281 54.9375 C 78.171875 54.757812 78.585938 54.539062 78.976562 54.277344 C 79.367188 54.015625 79.730469 53.71875 80.0625 53.386719 C 80.398438 53.054688 80.695312 52.695312 80.957031 52.304688 C 81.21875 51.914062 81.4375 51.5 81.617188 51.066406 C 81.800781 50.632812 81.933594 50.183594 82.027344 49.722656 C 82.121094 49.261719 82.164062 48.792969 82.164062 48.324219 C 82.167969 47.855469 82.121094 47.386719 82.027344 46.925781 C 81.9375 46.464844 81.800781 46.015625 81.621094 45.582031 C 81.441406 45.148438 81.222656 44.734375 80.960938 44.34375 C 80.699219 43.953125 80.402344 43.589844 80.070312 43.257812 C 79.738281 42.925781 79.375 42.628906 78.984375 42.367188 C 78.59375 42.105469 78.183594 41.882812 77.746094 41.703125 C 77.3125 41.523438 76.863281 41.386719 76.402344 41.296875 C 75.941406 41.203125 75.476562 41.15625 75.007812 41.15625 C 74.535156 41.15625 74.070312 41.203125 73.609375 41.292969 C 73.148438 41.386719 72.699219 41.523438 72.265625 41.703125 C 71.828125 41.882812 71.417969 42.101562 71.027344 42.363281 C 70.632812 42.625 70.273438 42.921875 69.941406 43.253906 C 69.609375 43.585938 69.308594 43.949219 69.050781 44.339844 C 68.789062 44.730469 68.566406 45.144531 68.386719 45.578125 C 68.207031 46.011719 68.070312 46.460938 67.980469 46.921875 C 67.886719 47.382812 67.839844 47.847656 67.839844 48.320312 C 67.84375 48.789062 67.886719 49.253906 67.980469 49.714844 C 68.070312 50.175781 68.207031 50.625 68.386719 51.058594 C 68.566406 51.492188 68.789062 51.902344 69.050781 52.292969 C 69.308594 52.683594 69.605469 53.046875 69.9375 53.378906 C 70.269531 53.710938 70.632812 54.007812 71.023438 54.269531 C 71.414062 54.53125 71.824219 54.75 72.257812 54.933594 C 72.691406 55.113281 73.140625 55.25 73.601562 55.339844 C 74.0625 55.433594 74.527344 55.480469 74.996094 55.480469 Z M 101.234375 97.449219 C 100.574219 97.722656 99.886719 97.859375 99.171875 97.859375 C 98.472656 97.859375 97.800781 97.722656 97.15625 97.453125 C 96.511719 97.179688 95.945312 96.796875 95.457031 96.296875 L 89.945312 90.78125 C 89.820312 91.148438 89.605469 91.445312 89.292969 91.671875 C 88.976562 91.898438 88.628906 92.011719 88.242188 92.011719 L 87.082031 92.011719 L 87.082031 98.410156 C 87.082031 98.835938 86.949219 99.210938 86.679688 99.542969 C 86.410156 99.875 86.070312 100.082031 85.652344 100.171875 C 86.96875 102.429688 87.359375 105.09375 86.828125 108.160156 L 117.84375 108.160156 L 117.84375 50.996094 L 95.378906 50.996094 C 95.410156 52.519531 95.40625 54.078125 95.363281 55.671875 C 95.28125 58.558594 95.070312 61.589844 94.742188 64.746094 L 100.921875 70.921875 C 102.085938 72.058594 102.980469 73.375 103.605469 74.878906 C 104.226562 76.378906 104.527344 77.945312 104.503906 79.570312 L 104.503906 92.554688 C 104.507812 93.078125 104.4375 93.59375 104.289062 94.09375 C 104.136719 94.597656 103.917969 95.070312 103.625 95.503906 C 103.335938 95.941406 102.984375 96.324219 102.578125 96.65625 C 102.171875 96.988281 101.722656 97.25 101.234375 97.449219 Z M 67.109375 109.28125 C 67.148438 109.378906 67.179688 109.480469 67.203125 109.582031 C 67.671875 111 68.253906 112.367188 68.949219 113.691406 L 73.859375 123.230469 C 73.875 123.257812 73.890625 123.285156 73.90625 123.3125 L 74.996094 125.433594 L 81.046875 113.6875 C 81.75 112.355469 82.335938 110.972656 82.808594 109.539062 C 82.824219 109.46875 82.847656 109.394531 82.875 109.324219 C 84.035156 105.511719 83.535156 102.648438 81.375 100.484375 C 81.277344 100.390625 81.183594 100.300781 81.085938 100.210938 L 68.914062 100.210938 C 68.8125 100.304688 68.707031 100.398438 68.601562 100.503906 C 66.46875 102.640625 65.964844 105.488281 67.109375 109.28125 Z M 67.109375 109.28125 " fill-opacity="1" fill-rule="nonzero"/></g></svg>