<svg xmlns="http://www.w3.org/2000/svg" xmlns:xlink="http://www.w3.org/1999/xlink" width="200" zoomAndPan="magnify" viewBox="0 0 150 149.999998" height="200" preserveAspectRatio="xMidYMid meet" version="1.0"><defs><clipPath id="a6b04b63ee"><path d="M 8.277344 96 L 141.777344 96 L 141.777344 134.902344 L 8.277344 134.902344 Z M 8.277344 96 " clip-rule="nonzero"/></clipPath><clipPath id="caa3d1459e"><path d="M 56 19.402344 L 94 19.402344 L 94 57 L 56 57 Z M 56 19.402344 " clip-rule="nonzero"/></clipPath><clipPath id="df78b56bc9"><path d="M 56 19.402344 L 94 19.402344 L 94 57 L 56 57 Z M 56 19.402344 " clip-rule="nonzero"/></clipPath></defs><g clip-path="url(#a6b04b63ee)"><path fill="#c6f135" d="M 122.570312 134.996094 L 27.390625 134.996094 C 16.84375 134.996094 8.292969 126.410156 8.292969 115.898438 L 8.292969 104.8125 C 8.292969 100.078125 12.148438 96.191406 16.914062 96.191406 L 133.082031 96.191406 C 137.8125 96.191406 141.699219 100.046875 141.699219 104.8125 L 141.699219 115.898438 C 141.664062 126.441406 133.113281 134.996094 122.570312 134.996094 Z M 16.878906 100.28125 C 14.378906 100.28125 12.316406 102.3125 12.316406 104.84375 L 12.316406 115.933594 C 12.316406 124.210938 19.074219 130.972656 27.355469 130.972656 L 122.535156 130.972656 C 130.851562 130.972656 137.578125 124.210938 137.578125 115.933594 L 137.578125 104.84375 C 137.578125 102.34375 135.546875 100.28125 133.011719 100.28125 Z M 16.878906 100.28125 " fill-opacity="1" fill-rule="nonzero"/></g><g clip-path="url(#caa3d1459e)"><path fill="#c6f135" d="M 74.980469 56.242188 C 64.804688 56.242188 56.558594 47.960938 56.558594 37.820312 C 56.558594 27.648438 64.839844 19.402344 74.980469 19.402344 C 85.121094 19.402344 93.402344 27.683594 93.402344 37.820312 C 93.402344 47.996094 85.152344 56.242188 74.980469 56.242188 Z M 74.980469 23.457031 C 67.035156 23.457031 60.613281 29.914062 60.613281 37.820312 C 60.613281 45.765625 67.070312 52.1875 74.980469 52.1875 C 82.921875 52.1875 89.34375 45.730469 89.34375 37.820312 C 89.34375 29.878906 82.921875 23.457031 74.980469 23.457031 Z M 74.980469 23.457031 " fill-opacity="1" fill-rule="nonzero"/></g><path fill="#c6f135" d="M 104.757812 100.28125 L 74.980469 100.28125 C 73.863281 100.28125 72.953125 99.371094 72.953125 98.253906 C 72.953125 97.140625 73.863281 96.226562 74.980469 96.226562 L 102.730469 96.226562 L 102.730469 85.003906 C 102.730469 73.007812 92.960938 63.238281 80.960938 63.238281 L 74.980469 63.238281 C 73.863281 63.238281 72.953125 62.324219 72.953125 61.210938 C 72.953125 60.09375 73.863281 59.183594 74.980469 59.183594 L 80.960938 59.183594 C 95.191406 59.183594 106.785156 70.777344 106.785156 85.003906 L 106.785156 98.253906 C 106.785156 99.371094 105.871094 100.28125 104.757812 100.28125 Z M 104.757812 100.28125 " fill-opacity="1" fill-rule="nonzero"/><path fill="#c6f135" d="M 93.402344 99.066406 C 92.285156 99.066406 91.371094 98.152344 91.371094 97.039062 L 91.371094 84.058594 C 91.371094 82.945312 92.285156 82.03125 93.402344 82.03125 C 94.515625 82.03125 95.429688 82.945312 95.429688 84.058594 L 95.429688 97.039062 C 95.429688 98.152344 94.515625 99.066406 93.402344 99.066406 Z M 93.402344 99.066406 " fill-opacity="1" fill-rule="nonzero"/><path fill="#c6f135" d="M 133.621094 99.605469 C 132.507812 99.605469 131.59375 98.695312 131.59375 97.578125 L 131.59375 83.957031 C 131.59375 76.65625 125.679688 70.742188 118.378906 70.742188 L 106.414062 70.742188 C 105.296875 70.742188 104.386719 69.828125 104.386719 68.714844 C 104.386719 67.597656 105.296875 66.6875 106.414062 66.6875 L 118.378906 66.6875 C 127.910156 66.6875 135.648438 74.425781 135.648438 83.957031 L 135.648438 97.542969 C 135.648438 98.695312 134.738281 99.605469 133.621094 99.605469 Z M 133.621094 99.605469 " fill-opacity="1" fill-rule="nonzero"/><path fill="#c6f135" d="M 111.585938 63.238281 C 103.980469 63.238281 97.792969 57.054688 97.792969 49.449219 C 97.792969 41.84375 103.980469 35.660156 111.585938 35.660156 C 119.1875 35.660156 125.375 41.84375 125.375 49.449219 C 125.375 57.054688 119.1875 63.238281 111.585938 63.238281 Z M 111.585938 39.714844 C 106.210938 39.714844 101.851562 44.074219 101.851562 49.449219 C 101.851562 54.824219 106.210938 59.183594 111.585938 59.183594 C 116.957031 59.183594 121.320312 54.824219 121.320312 49.449219 C 121.320312 44.074219 116.957031 39.714844 111.585938 39.714844 Z M 111.585938 39.714844 " fill-opacity="1" fill-rule="nonzero"/><path fill="#c6f135" d="M 122.535156 99.066406 C 121.421875 99.066406 120.507812 98.152344 120.507812 97.039062 L 120.507812 85.679688 C 120.507812 84.566406 121.421875 83.652344 122.535156 83.652344 C 123.652344 83.652344 124.5625 84.566406 124.5625 85.679688 L 124.5625 97.039062 C 124.5625 98.152344 123.652344 99.066406 122.535156 99.066406 Z M 122.535156 99.066406 " fill-opacity="1" fill-rule="nonzero"/><g clip-path="url(#df78b56bc9)"><path fill="#c6f135" d="M 74.980469 56.242188 C 64.804688 56.242188 56.558594 47.960938 56.558594 37.820312 C 56.558594 27.648438 64.839844 19.402344 74.980469 19.402344 C 85.121094 19.402344 93.402344 27.683594 93.402344 37.820312 C 93.402344 47.996094 85.152344 56.242188 74.980469 56.242188 Z M 74.980469 23.457031 C 67.035156 23.457031 60.613281 29.914062 60.613281 37.820312 C 60.613281 45.765625 67.070312 52.1875 74.980469 52.1875 C 82.921875 52.1875 89.34375 45.730469 89.34375 37.820312 C 89.34375 29.878906 82.921875 23.457031 74.980469 23.457031 Z M 74.980469 23.457031 " fill-opacity="1" fill-rule="nonzero"/></g><path fill="#c6f135" d="M 74.980469 100.28125 L 45.203125 100.28125 C 44.085938 100.28125 43.175781 99.371094 43.175781 98.253906 L 43.175781 85.003906 C 43.175781 70.777344 54.769531 59.183594 68.996094 59.183594 L 74.980469 59.183594 C 76.09375 59.183594 77.007812 60.09375 77.007812 61.210938 C 77.007812 62.324219 76.09375 63.238281 74.980469 63.238281 L 68.996094 63.238281 C 57 63.238281 47.230469 73.007812 47.230469 85.003906 L 47.230469 96.226562 L 74.980469 96.226562 C 76.09375 96.226562 77.007812 97.140625 77.007812 98.253906 C 77.007812 99.371094 76.09375 100.28125 74.980469 100.28125 Z M 74.980469 100.28125 " fill-opacity="1" fill-rule="nonzero"/><path fill="#c6f135" d="M 56.558594 99.066406 C 55.445312 99.066406 54.53125 98.152344 54.53125 97.039062 L 54.53125 84.058594 C 54.53125 82.945312 55.445312 82.03125 56.558594 82.03125 C 57.675781 82.03125 58.585938 82.945312 58.585938 84.058594 L 58.585938 97.039062 C 58.585938 98.152344 57.675781 99.066406 56.558594 99.066406 Z M 56.558594 99.066406 " fill-opacity="1" fill-rule="nonzero"/><path fill="#c6f135" d="M 16.339844 99.605469 C 15.222656 99.605469 14.308594 98.695312 14.308594 97.578125 L 14.308594 83.957031 C 14.308594 74.425781 22.050781 66.6875 31.582031 66.6875 L 43.546875 66.6875 C 44.660156 66.6875 45.574219 67.597656 45.574219 68.714844 C 45.574219 69.828125 44.660156 70.742188 43.546875 70.742188 L 31.582031 70.742188 C 24.28125 70.742188 18.367188 76.65625 18.367188 83.957031 L 18.367188 97.542969 C 18.367188 98.695312 17.488281 99.605469 16.339844 99.605469 Z M 16.339844 99.605469 " fill-opacity="1" fill-rule="nonzero"/><path fill="#c6f135" d="M 38.375 63.238281 C 30.769531 63.238281 24.585938 57.054688 24.585938 49.449219 C 24.585938 41.84375 30.769531 35.660156 38.375 35.660156 C 45.980469 35.660156 52.164062 41.84375 52.164062 49.449219 C 52.164062 57.054688 45.980469 63.238281 38.375 63.238281 Z M 38.375 39.714844 C 33 39.714844 28.640625 44.074219 28.640625 49.449219 C 28.640625 54.824219 33 59.183594 38.375 59.183594 C 43.75 59.183594 48.109375 54.824219 48.109375 49.449219 C 48.109375 44.074219 43.714844 39.714844 38.375 39.714844 Z M 38.375 39.714844 " fill-opacity="1" fill-rule="nonzero"/><path fill="#c6f135" d="M 27.425781 99.066406 C 26.308594 99.066406 25.394531 98.152344 25.394531 97.039062 L 25.394531 85.679688 C 25.394531 84.566406 26.308594 83.652344 27.425781 83.652344 C 28.539062 83.652344 29.453125 84.566406 29.453125 85.679688 L 29.453125 97.039062 C 29.453125 98.152344 28.539062 99.066406 27.425781 99.066406 Z M 27.425781 99.066406 " fill-opacity="1" fill-rule="nonzero"/></svg>