<svg xmlns="http://www.w3.org/2000/svg" xmlns:xlink="http://www.w3.org/1999/xlink" width="200" zoomAndPan="magnify" viewBox="0 0 150 149.999998" height="200" preserveAspectRatio="xMidYMid meet" version="1.0"><defs><clipPath id="1337a77aa7"><path d="M 18.898438 15 L 131.398438 15 L 131.398438 135 L 18.898438 135 Z M 18.898438 15 " clip-rule="nonzero"/></clipPath></defs><g clip-path="url(#1337a77aa7)"><path fill="#c6f135" d="M 33.996094 36.347656 L 20.589844 36.347656 L 40.1875 16.746094 L 40.1875 30.15625 C 40.1875 31.859375 39.492188 33.40625 38.371094 34.527344 C 37.25 35.648438 35.703125 36.34375 34 36.34375 Z M 99.371094 109.273438 L 99.371094 118.730469 L 18.894531 118.730469 L 18.894531 39.738281 L 33.996094 39.738281 C 36.636719 39.738281 39.03125 38.664062 40.765625 36.925781 C 42.5 35.191406 43.578125 32.796875 43.578125 30.15625 L 43.578125 15.050781 L 99.371094 15.050781 L 99.371094 55.753906 C 94.085938 55.304688 88.613281 56.398438 83.679688 59.25 C 78.570312 62.199219 74.796875 66.585938 72.574219 71.613281 L 54.160156 71.613281 C 53.226562 71.613281 52.464844 72.371094 52.464844 73.308594 C 52.464844 74.246094 53.226562 75.003906 54.160156 75.003906 L 71.332031 75.003906 C 70.832031 76.722656 70.503906 78.496094 70.351562 80.289062 L 54.160156 80.289062 C 53.226562 80.289062 52.464844 81.046875 52.464844 81.984375 C 52.464844 82.921875 53.226562 83.679688 54.160156 83.679688 L 70.277344 83.679688 C 70.453125 87.867188 71.613281 92.070312 73.847656 95.945312 C 74.128906 96.429688 74.421875 96.902344 74.730469 97.363281 L 54.160156 97.363281 C 53.226562 97.363281 52.464844 98.121094 52.464844 99.058594 C 52.464844 99.996094 53.226562 100.753906 54.160156 100.753906 L 77.390625 100.753906 C 83.054688 106.878906 91.234375 109.949219 99.371094 109.277344 Z M 52.464844 24.910156 C 52.464844 25.847656 53.226562 26.605469 54.160156 26.605469 L 89.214844 26.605469 C 90.152344 26.605469 90.910156 25.847656 90.910156 24.910156 C 90.910156 23.972656 90.152344 23.214844 89.214844 23.214844 L 54.160156 23.214844 C 53.226562 23.214844 52.464844 23.972656 52.464844 24.910156 Z M 52.464844 33.589844 C 52.464844 34.527344 53.226562 35.285156 54.160156 35.285156 L 71.6875 35.285156 C 72.625 35.285156 73.382812 34.527344 73.382812 33.589844 C 73.382812 32.652344 72.625 31.894531 71.6875 31.894531 L 54.160156 31.894531 C 53.226562 31.894531 52.464844 32.652344 52.464844 33.589844 Z M 52.464844 47.554688 C 52.464844 48.492188 53.226562 49.25 54.160156 49.25 L 89.214844 49.25 C 90.152344 49.25 90.910156 48.492188 90.910156 47.554688 C 90.910156 46.617188 90.152344 45.859375 89.214844 45.859375 L 54.160156 45.859375 C 53.226562 45.859375 52.464844 46.617188 52.464844 47.554688 Z M 52.464844 56.234375 C 52.464844 57.171875 53.226562 57.929688 54.160156 57.929688 L 71.6875 57.929688 C 72.625 57.929688 73.382812 57.171875 73.382812 56.234375 C 73.382812 55.296875 72.625 54.539062 71.6875 54.539062 L 54.160156 54.539062 C 53.226562 54.539062 52.464844 55.296875 52.464844 56.234375 Z M 44.464844 95.972656 C 43.050781 94.761719 40.925781 94.925781 39.714844 96.339844 L 33.878906 103.144531 L 31.96875 101.019531 C 30.726562 99.636719 28.589844 99.523438 27.207031 100.769531 C 25.824219 102.015625 25.710938 104.148438 26.957031 105.53125 L 31.429688 110.511719 C 32.675781 111.898438 34.808594 112.007812 36.191406 110.761719 C 36.34375 110.621094 36.484375 110.476562 36.605469 110.316406 L 44.835938 100.71875 C 46.042969 99.304688 45.878906 97.179688 44.464844 95.96875 Z M 44.464844 70.21875 C 43.050781 69.011719 40.925781 69.175781 39.714844 70.585938 L 33.878906 77.394531 L 31.96875 75.265625 C 30.726562 73.882812 28.589844 73.769531 27.207031 75.015625 C 25.824219 76.261719 25.710938 78.394531 26.957031 79.777344 L 31.429688 84.757812 C 32.675781 86.144531 34.808594 86.253906 36.191406 85.007812 C 36.34375 84.871094 36.484375 84.722656 36.605469 84.566406 L 44.835938 74.964844 C 46.042969 73.550781 45.878906 71.425781 44.464844 70.214844 Z M 44.464844 44.464844 C 43.050781 43.257812 40.925781 43.421875 39.714844 44.835938 L 33.878906 51.640625 L 31.96875 49.515625 C 30.726562 48.128906 28.589844 48.015625 27.207031 49.265625 C 25.824219 50.507812 25.710938 52.644531 26.957031 54.027344 L 31.429688 59.007812 C 32.675781 60.390625 34.808594 60.503906 36.191406 59.253906 C 36.34375 59.117188 36.484375 58.96875 36.605469 58.8125 L 44.835938 49.214844 C 46.042969 47.800781 45.878906 45.675781 44.464844 44.464844 Z M 73.382812 107.734375 C 73.382812 106.796875 72.625 106.039062 71.6875 106.039062 L 54.160156 106.039062 C 53.226562 106.039062 52.464844 106.796875 52.464844 107.734375 C 52.464844 108.671875 53.226562 109.429688 54.160156 109.429688 L 71.6875 109.429688 C 72.625 109.429688 73.382812 108.671875 73.382812 107.734375 Z M 82.6875 78.644531 C 81.699219 82.339844 82.117188 86.410156 84.175781 89.980469 C 86.238281 93.542969 89.550781 95.941406 93.246094 96.929688 C 96.910156 97.910156 100.9375 97.507812 104.484375 95.492188 C 104.546875 95.453125 104.609375 95.417969 104.675781 95.386719 C 108.195312 93.320312 110.554688 90.03125 111.535156 86.375 C 112.515625 82.722656 112.117188 78.707031 110.121094 75.167969 C 110.0625 75.085938 110.015625 75.003906 109.972656 74.910156 C 107.90625 71.414062 104.628906 69.066406 100.976562 68.085938 C 97.3125 67.105469 93.277344 67.507812 89.726562 69.527344 C 89.699219 69.546875 89.675781 69.5625 89.648438 69.578125 C 86.078125 71.636719 83.679688 74.953125 82.6875 78.644531 Z M 117.226562 70.894531 C 123.640625 82.003906 119.835938 96.210938 108.722656 102.625 C 97.613281 109.039062 83.40625 105.234375 76.992188 94.125 C 70.578125 83.011719 74.386719 68.804688 85.496094 62.390625 C 96.605469 55.980469 110.8125 59.785156 117.226562 70.894531 Z M 88.054688 66.59375 C 88.019531 66.609375 87.984375 66.628906 87.949219 66.648438 C 83.570312 69.175781 80.628906 73.242188 79.414062 77.769531 C 78.203125 82.289062 78.71875 87.28125 81.25 91.664062 C 83.78125 96.046875 87.84375 98.992188 92.371094 100.203125 C 96.894531 101.414062 101.882812 100.898438 106.261719 98.375 L 106.269531 98.375 C 110.648438 95.84375 113.585938 91.777344 114.800781 87.25 C 116.011719 82.726562 115.5 77.738281 112.96875 73.359375 C 110.4375 68.972656 106.375 66.027344 101.851562 64.816406 C 97.359375 63.613281 92.414062 64.113281 88.054688 66.59375 Z M 130.742188 126.449219 L 122.078125 111.445312 C 121.339844 110.164062 119.6875 109.722656 118.40625 110.460938 L 117.953125 110.722656 L 113.8125 103.546875 C 112.792969 104.355469 111.699219 105.101562 110.539062 105.773438 C 109.378906 106.445312 108.1875 107.015625 106.972656 107.496094 L 111.113281 114.671875 L 110.664062 114.933594 C 109.386719 115.671875 108.941406 117.324219 109.679688 118.605469 L 118.34375 133.609375 C 119.082031 134.886719 120.734375 135.332031 122.015625 134.59375 L 129.757812 130.125 C 131.039062 129.386719 131.480469 127.734375 130.742188 126.453125 Z M 130.742188 126.449219 " fill-opacity="1" fill-rule="nonzero"/></g></svg>