<svg xmlns="http://www.w3.org/2000/svg" xmlns:xlink="http://www.w3.org/1999/xlink" width="200" zoomAndPan="magnify" viewBox="0 0 150 149.999998" height="200" preserveAspectRatio="xMidYMid meet" version="1.0"><defs><clipPath id="e195548373"><path d="M 28.019531 58 L 121.769531 58 L 121.769531 136.140625 L 28.019531 136.140625 Z M 28.019531 58 " clip-rule="nonzero"/></clipPath><clipPath id="3cbb857cf5"><path d="M 43 13.890625 L 107 13.890625 L 107 57 L 43 57 Z M 43 13.890625 " clip-rule="nonzero"/></clipPath></defs><rect x="-15" width="180" fill="#ffffff" y="-15" height="179.999997" fill-opacity="1"/><rect x="-15" width="180" fill="#1a2e22" y="-15" height="179.999997" fill-opacity="1"/><path fill="#c6f135" d="M 80.21875 89.792969 C 80.21875 89.070312 80.152344 88.355469 80.011719 87.644531 C 79.871094 86.9375 79.660156 86.25 79.386719 85.582031 C 79.109375 84.914062 78.769531 84.28125 78.371094 83.679688 C 77.96875 83.078125 77.511719 82.523438 77 82.011719 C 76.492188 81.5 75.933594 81.042969 75.335938 80.640625 C 74.734375 80.242188 74.101562 79.902344 73.433594 79.625 C 72.765625 79.347656 72.078125 79.140625 71.371094 79 C 70.660156 78.859375 69.945312 78.789062 69.222656 78.789062 C 68.5 78.789062 67.785156 78.859375 67.078125 79 C 66.367188 79.140625 65.679688 79.347656 65.011719 79.625 C 64.34375 79.902344 63.710938 80.242188 63.109375 80.640625 C 62.511719 81.042969 61.953125 81.5 61.445312 82.011719 C 60.933594 82.523438 60.476562 83.078125 60.078125 83.679688 C 59.675781 84.28125 59.335938 84.914062 59.0625 85.582031 C 58.785156 86.25 58.578125 86.9375 58.4375 87.644531 C 58.296875 88.355469 58.226562 89.070312 58.226562 89.792969 L 58.226562 99.863281 L 80.21875 99.863281 Z M 80.21875 89.792969 " fill-opacity="1" fill-rule="nonzero"/><path fill="#c6f135" d="M 43.519531 78.035156 C 43.9375 78.035156 44.339844 77.953125 44.726562 77.792969 C 45.113281 77.632812 45.457031 77.40625 45.75 77.109375 C 46.046875 76.816406 46.273438 76.472656 46.433594 76.085938 C 46.59375 75.699219 46.675781 75.296875 46.675781 74.878906 C 46.675781 74.460938 46.59375 74.058594 46.433594 73.671875 C 46.273438 73.285156 46.046875 72.945312 45.75 72.648438 C 45.457031 72.351562 45.113281 72.125 44.726562 71.964844 C 44.339844 71.804688 43.9375 71.726562 43.519531 71.726562 C 43.101562 71.726562 42.699219 71.804688 42.3125 71.964844 C 41.925781 72.125 41.585938 72.351562 41.289062 72.648438 C 40.992188 72.945312 40.765625 73.285156 40.605469 73.671875 C 40.445312 74.058594 40.367188 74.460938 40.367188 74.878906 C 40.367188 75.296875 40.445312 75.699219 40.605469 76.085938 C 40.765625 76.472656 40.996094 76.8125 41.289062 77.109375 C 41.585938 77.40625 41.925781 77.632812 42.3125 77.792969 C 42.699219 77.953125 43.101562 78.035156 43.519531 78.035156 Z M 43.519531 78.035156 " fill-opacity="1" fill-rule="nonzero"/><g clip-path="url(#e195548373)"><path fill="#c6f135" d="M 41.28125 104.078125 L 43.378906 99.199219 C 43.175781 99.070312 42.984375 98.925781 42.800781 98.769531 C 42.617188 98.613281 42.441406 98.445312 42.277344 98.269531 C 42.113281 98.09375 41.960938 97.90625 41.824219 97.710938 C 41.683594 97.515625 41.554688 97.308594 41.4375 97.097656 C 41.324219 96.886719 41.21875 96.667969 41.132812 96.445312 C 41.042969 96.222656 40.96875 95.992188 40.90625 95.757812 C 40.847656 95.527344 40.800781 95.289062 40.769531 95.050781 C 40.738281 94.8125 40.71875 94.570312 40.71875 94.332031 C 40.714844 94.089844 40.726562 93.851562 40.753906 93.609375 C 40.78125 93.371094 40.824219 93.132812 40.878906 92.898438 C 40.933594 92.664062 41.003906 92.433594 41.089844 92.210938 C 41.175781 91.984375 41.273438 91.765625 41.382812 91.550781 C 41.496094 91.335938 41.621094 91.128906 41.757812 90.933594 C 41.894531 90.734375 42.042969 90.542969 42.199219 90.363281 C 42.359375 90.183594 42.53125 90.011719 42.710938 89.855469 C 42.894531 89.695312 43.082031 89.546875 43.28125 89.410156 C 43.480469 89.273438 43.6875 89.152344 43.902344 89.039062 C 44.113281 88.929688 44.335938 88.832031 44.5625 88.75 C 44.789062 88.664062 45.015625 88.59375 45.25 88.539062 C 45.488281 88.484375 45.722656 88.441406 45.964844 88.417969 C 46.203125 88.390625 46.441406 88.378906 46.683594 88.382812 C 46.925781 88.382812 47.164062 88.402344 47.402344 88.433594 C 47.640625 88.46875 47.878906 88.515625 48.113281 88.574219 C 48.34375 88.636719 48.574219 88.710938 48.796875 88.800781 C 49.019531 88.890625 49.238281 88.996094 49.449219 89.109375 C 49.660156 89.226562 49.863281 89.355469 50.058594 89.496094 C 50.253906 89.636719 50.441406 89.789062 50.617188 89.953125 C 50.792969 90.117188 50.960938 90.292969 51.117188 90.476562 C 51.269531 90.660156 51.414062 90.855469 51.546875 91.054688 C 51.675781 91.257812 51.796875 91.46875 51.902344 91.683594 C 52.007812 91.898438 52.101562 92.121094 52.179688 92.351562 C 52.257812 92.578125 52.320312 92.808594 52.371094 93.046875 C 52.421875 93.28125 52.457031 93.519531 52.480469 93.757812 C 52.5 94 52.507812 94.238281 52.5 94.480469 C 52.488281 94.722656 52.464844 94.960938 52.429688 95.199219 C 52.390625 95.4375 52.339844 95.671875 52.273438 95.902344 C 52.207031 96.136719 52.125 96.363281 52.03125 96.582031 C 51.9375 96.804688 51.828125 97.019531 51.707031 97.230469 C 51.585938 97.4375 51.453125 97.636719 51.308594 97.828125 C 51.164062 98.023438 51.007812 98.203125 50.839844 98.378906 C 50.671875 98.550781 50.492188 98.710938 50.304688 98.863281 C 50.117188 99.015625 49.921875 99.152344 49.714844 99.28125 C 49.511719 99.40625 49.300781 99.523438 49.082031 99.625 C 48.863281 99.722656 48.636719 99.8125 48.40625 99.886719 C 48.179688 99.957031 47.945312 100.019531 47.707031 100.0625 C 47.472656 100.109375 47.234375 100.136719 46.992188 100.152344 C 46.753906 100.167969 46.511719 100.171875 46.269531 100.15625 C 46.03125 100.144531 45.792969 100.113281 45.554688 100.070312 L 43.234375 105.464844 C 43.101562 105.777344 42.875 105.992188 42.554688 106.105469 L 32.703125 109.648438 C 34.78125 114.082031 37.515625 118.070312 40.894531 121.613281 C 41.140625 121.929688 41.410156 122.222656 41.710938 122.488281 C 43.839844 124.648438 46.164062 126.578125 48.679688 128.273438 C 51.195312 129.972656 53.855469 131.402344 56.65625 132.566406 C 59.457031 133.734375 62.347656 134.613281 65.324219 135.203125 C 68.300781 135.792969 71.308594 136.082031 74.339844 136.070312 C 76.75 136.066406 79.140625 135.878906 81.519531 135.511719 C 83.898438 135.140625 86.234375 134.59375 88.527344 133.867188 C 90.824219 133.144531 93.050781 132.25 95.210938 131.183594 C 97.367188 130.121094 99.433594 128.898438 101.40625 127.519531 C 103.378906 126.140625 105.234375 124.621094 106.976562 122.957031 C 108.71875 121.296875 110.324219 119.511719 111.792969 117.605469 C 113.261719 115.699219 114.578125 113.695312 115.742188 111.585938 C 116.90625 109.480469 117.902344 107.296875 118.734375 105.039062 L 113.265625 105.039062 C 113.167969 105.476562 113.023438 105.898438 112.824219 106.300781 C 112.625 106.703125 112.378906 107.078125 112.089844 107.421875 C 111.796875 107.761719 111.472656 108.066406 111.105469 108.328125 C 110.742188 108.589844 110.351562 108.804688 109.933594 108.972656 C 109.515625 109.140625 109.085938 109.253906 108.640625 109.3125 C 108.195312 109.375 107.75 109.382812 107.304688 109.332031 C 106.855469 109.285156 106.421875 109.183594 106 109.027344 C 105.578125 108.875 105.183594 108.671875 104.808594 108.417969 C 104.4375 108.167969 104.101562 107.875 103.800781 107.539062 C 103.5 107.207031 103.246094 106.839844 103.035156 106.445312 C 102.824219 106.046875 102.664062 105.628906 102.558594 105.195312 C 102.449219 104.757812 102.394531 104.316406 102.394531 103.867188 C 102.394531 103.417969 102.449219 102.976562 102.558594 102.539062 C 102.664062 102.101562 102.824219 101.6875 103.035156 101.289062 C 103.246094 100.894531 103.5 100.527344 103.800781 100.191406 C 104.101562 99.859375 104.4375 99.566406 104.808594 99.3125 C 105.183594 99.0625 105.578125 98.859375 106 98.703125 C 106.421875 98.550781 106.855469 98.449219 107.304688 98.398438 C 107.75 98.351562 108.195312 98.359375 108.640625 98.417969 C 109.085938 98.480469 109.515625 98.59375 109.933594 98.761719 C 110.351562 98.925781 110.742188 99.140625 111.105469 99.40625 C 111.472656 99.667969 111.796875 99.96875 112.089844 100.3125 C 112.378906 100.65625 112.625 101.027344 112.824219 101.429688 C 113.023438 101.832031 113.167969 102.253906 113.265625 102.695312 L 119.589844 102.695312 C 121.007812 98.121094 121.714844 93.4375 121.710938 88.648438 L 121.710938 81.652344 L 111.792969 81.652344 C 111.46875 81.652344 111.191406 81.535156 110.960938 81.304688 L 105.257812 75.582031 C 104.355469 76.171875 103.367188 76.464844 102.292969 76.464844 C 101.882812 76.46875 101.480469 76.425781 101.082031 76.339844 C 100.683594 76.25 100.300781 76.121094 99.929688 75.949219 C 99.558594 75.777344 99.214844 75.566406 98.890625 75.316406 C 98.566406 75.070312 98.277344 74.789062 98.015625 74.476562 C 97.753906 74.160156 97.53125 73.824219 97.34375 73.460938 C 97.15625 73.097656 97.011719 72.71875 96.910156 72.324219 C 96.808594 71.929688 96.75 71.527344 96.738281 71.121094 C 96.722656 70.714844 96.753906 70.308594 96.832031 69.910156 C 96.90625 69.507812 97.023438 69.121094 97.1875 68.746094 C 97.347656 68.371094 97.546875 68.019531 97.789062 67.691406 C 98.027344 67.359375 98.300781 67.058594 98.605469 66.789062 C 98.910156 66.519531 99.242188 66.289062 99.601562 66.089844 C 99.957031 65.894531 100.332031 65.738281 100.722656 65.625 C 101.117188 65.511719 101.515625 65.441406 101.921875 65.417969 C 102.328125 65.394531 102.734375 65.414062 103.136719 65.476562 C 103.539062 65.542969 103.929688 65.648438 104.308594 65.800781 C 104.6875 65.949219 105.046875 66.140625 105.382812 66.371094 C 105.71875 66.601562 106.027344 66.867188 106.304688 67.164062 C 106.582031 67.460938 106.824219 67.785156 107.03125 68.136719 C 107.238281 68.488281 107.402344 68.859375 107.527344 69.246094 C 107.652344 69.636719 107.734375 70.035156 107.769531 70.4375 C 107.804688 70.84375 107.796875 71.25 107.746094 71.65625 C 107.691406 72.058594 107.597656 72.453125 107.457031 72.835938 C 107.316406 73.21875 107.136719 73.582031 106.914062 73.925781 L 112.273438 79.320312 L 121.703125 79.320312 L 121.703125 69.34375 C 121.703125 68.664062 121.636719 67.992188 121.503906 67.324219 C 121.371094 66.660156 121.175781 66.011719 120.914062 65.382812 C 120.652344 64.757812 120.335938 64.160156 119.957031 63.597656 C 119.578125 63.03125 119.152344 62.507812 118.671875 62.027344 C 118.191406 61.546875 117.667969 61.117188 117.101562 60.742188 C 116.539062 60.363281 115.941406 60.042969 115.3125 59.785156 C 114.6875 59.523438 114.039062 59.328125 113.375 59.191406 C 112.707031 59.058594 112.035156 58.992188 111.355469 58.992188 L 38.574219 58.992188 C 37.898438 58.992188 37.226562 59.058594 36.566406 59.191406 C 35.902344 59.324219 35.257812 59.519531 34.632812 59.777344 C 34.011719 60.035156 33.417969 60.355469 32.855469 60.730469 C 32.292969 61.105469 31.773438 61.53125 31.296875 62.011719 C 30.816406 62.488281 30.390625 63.007812 30.015625 63.570312 C 29.640625 64.132812 29.324219 64.722656 29.0625 65.347656 C 28.804688 65.972656 28.609375 66.617188 28.476562 67.28125 C 28.34375 67.941406 28.277344 68.613281 28.277344 69.289062 L 28.277344 82.277344 L 34.527344 82.277344 L 38.921875 77.878906 C 38.796875 77.691406 38.683594 77.496094 38.582031 77.292969 C 38.480469 77.089844 38.390625 76.878906 38.316406 76.664062 C 38.242188 76.453125 38.179688 76.234375 38.128906 76.011719 C 38.082031 75.789062 38.042969 75.566406 38.023438 75.339844 C 38 75.113281 37.992188 74.886719 38 74.660156 C 38.003906 74.433594 38.027344 74.210938 38.058594 73.984375 C 38.09375 73.761719 38.140625 73.539062 38.199219 73.320312 C 38.261719 73.101562 38.335938 72.886719 38.421875 72.675781 C 38.507812 72.46875 38.609375 72.265625 38.71875 72.066406 C 38.832031 71.867188 38.953125 71.679688 39.089844 71.496094 C 39.226562 71.3125 39.371094 71.140625 39.527344 70.976562 C 39.683594 70.8125 39.847656 70.65625 40.023438 70.511719 C 40.199219 70.367188 40.382812 70.234375 40.574219 70.113281 C 40.765625 69.992188 40.960938 69.878906 41.167969 69.78125 C 41.371094 69.683594 41.582031 69.601562 41.796875 69.527344 C 42.011719 69.457031 42.230469 69.394531 42.453125 69.351562 C 42.675781 69.304688 42.898438 69.273438 43.125 69.253906 C 43.351562 69.238281 43.578125 69.234375 43.804688 69.242188 C 44.03125 69.253906 44.257812 69.277344 44.480469 69.3125 C 44.707031 69.351562 44.925781 69.402344 45.144531 69.464844 C 45.363281 69.53125 45.574219 69.605469 45.78125 69.695312 C 45.992188 69.785156 46.191406 69.890625 46.386719 70.003906 C 46.585938 70.121094 46.773438 70.246094 46.953125 70.382812 C 47.132812 70.519531 47.304688 70.667969 47.464844 70.828125 C 47.628906 70.988281 47.78125 71.15625 47.921875 71.332031 C 48.0625 71.511719 48.195312 71.695312 48.3125 71.886719 C 48.433594 72.082031 48.539062 72.28125 48.632812 72.488281 C 48.726562 72.695312 48.808594 72.90625 48.878906 73.121094 C 48.945312 73.339844 49.003906 73.558594 49.042969 73.78125 C 49.085938 74.003906 49.113281 74.226562 49.128906 74.453125 C 49.144531 74.679688 49.144531 74.90625 49.128906 75.132812 C 49.117188 75.359375 49.089844 75.585938 49.050781 75.808594 C 49.007812 76.03125 48.953125 76.253906 48.886719 76.46875 C 48.820312 76.6875 48.738281 76.898438 48.644531 77.105469 C 48.550781 77.3125 48.445312 77.511719 48.328125 77.707031 C 48.210938 77.898438 48.082031 78.085938 47.941406 78.261719 C 47.800781 78.441406 47.648438 78.609375 47.488281 78.769531 C 47.324219 78.929688 47.15625 79.078125 46.976562 79.21875 C 46.796875 79.355469 46.609375 79.484375 46.414062 79.597656 C 46.21875 79.714844 46.015625 79.820312 45.808594 79.910156 C 45.601562 80 45.390625 80.078125 45.171875 80.144531 C 44.953125 80.210938 44.734375 80.261719 44.511719 80.300781 C 44.285156 80.339844 44.0625 80.363281 43.835938 80.375 C 43.609375 80.386719 43.382812 80.382812 43.15625 80.363281 C 42.929688 80.347656 42.703125 80.316406 42.480469 80.273438 C 42.257812 80.230469 42.039062 80.171875 41.824219 80.101562 C 41.609375 80.03125 41.398438 79.945312 41.195312 79.847656 C 40.988281 79.753906 40.789062 79.644531 40.597656 79.523438 L 35.84375 84.277344 C 35.613281 84.507812 35.335938 84.621094 35.011719 84.621094 L 28.277344 84.621094 L 28.277344 90.015625 C 28.273438 96.078125 29.421875 101.910156 31.722656 107.519531 Z M 91.769531 77.621094 C 91.769531 77.464844 91.800781 77.3125 91.859375 77.171875 C 91.917969 77.027344 92.003906 76.898438 92.113281 76.789062 C 92.222656 76.679688 92.351562 76.59375 92.496094 76.535156 C 92.636719 76.476562 92.789062 76.445312 92.945312 76.445312 C 93.097656 76.445312 93.25 76.476562 93.390625 76.535156 C 93.535156 76.59375 93.664062 76.679688 93.773438 76.789062 C 93.882812 76.898438 93.96875 77.027344 94.027344 77.171875 C 94.085938 77.3125 94.117188 77.464844 94.117188 77.621094 L 94.117188 117.445312 C 94.117188 117.601562 94.085938 117.75 94.027344 117.894531 C 93.96875 118.039062 93.882812 118.164062 93.773438 118.277344 C 93.664062 118.386719 93.535156 118.46875 93.390625 118.53125 C 93.25 118.589844 93.097656 118.617188 92.945312 118.617188 C 92.789062 118.617188 92.636719 118.589844 92.496094 118.53125 C 92.351562 118.46875 92.222656 118.386719 92.113281 118.277344 C 92.003906 118.164062 91.917969 118.039062 91.859375 117.894531 C 91.800781 117.75 91.769531 117.601562 91.769531 117.445312 Z M 55.878906 101.003906 L 55.878906 89.792969 C 55.878906 88.914062 55.964844 88.046875 56.136719 87.1875 C 56.308594 86.328125 56.5625 85.496094 56.894531 84.6875 C 57.230469 83.875 57.640625 83.105469 58.128906 82.378906 C 58.617188 81.652344 59.167969 80.976562 59.789062 80.355469 C 60.40625 79.738281 61.082031 79.183594 61.808594 78.699219 C 62.539062 78.210938 63.308594 77.800781 64.117188 77.464844 C 64.925781 77.128906 65.761719 76.875 66.621094 76.707031 C 67.480469 76.535156 68.347656 76.449219 69.222656 76.449219 C 70.097656 76.449219 70.964844 76.535156 71.824219 76.707031 C 72.683594 76.875 73.519531 77.128906 74.328125 77.464844 C 75.136719 77.800781 75.90625 78.210938 76.636719 78.699219 C 77.363281 79.183594 78.039062 79.738281 78.65625 80.355469 C 79.277344 80.976562 79.832031 81.652344 80.316406 82.378906 C 80.804688 83.105469 81.214844 83.875 81.550781 84.6875 C 81.886719 85.496094 82.136719 86.328125 82.308594 87.1875 C 82.480469 88.046875 82.566406 88.914062 82.566406 89.792969 L 82.566406 117.445312 C 82.566406 117.601562 82.535156 117.75 82.476562 117.894531 C 82.417969 118.039062 82.332031 118.164062 82.222656 118.277344 C 82.113281 118.386719 81.984375 118.46875 81.839844 118.53125 C 81.699219 118.589844 81.546875 118.617188 81.394531 118.617188 C 81.238281 118.617188 81.085938 118.589844 80.945312 118.53125 C 80.800781 118.46875 80.671875 118.386719 80.5625 118.277344 C 80.453125 118.164062 80.367188 118.039062 80.308594 117.894531 C 80.25 117.75 80.21875 117.601562 80.21875 117.445312 L 80.21875 102.210938 L 58.226562 102.210938 L 58.226562 117.445312 C 58.226562 117.601562 58.195312 117.75 58.136719 117.894531 C 58.078125 118.039062 57.992188 118.164062 57.882812 118.277344 C 57.773438 118.386719 57.644531 118.46875 57.503906 118.53125 C 57.359375 118.589844 57.207031 118.617188 57.054688 118.617188 C 56.898438 118.617188 56.746094 118.589844 56.605469 118.53125 C 56.460938 118.46875 56.332031 118.386719 56.222656 118.277344 C 56.113281 118.164062 56.027344 118.039062 55.96875 117.894531 C 55.910156 117.75 55.878906 117.601562 55.878906 117.445312 Z M 55.878906 101.003906 " fill-opacity="1" fill-rule="nonzero"/></g><path fill="#c6f135" d="M 49.632812 94.664062 C 49.632812 94.246094 49.554688 93.84375 49.394531 93.457031 C 49.234375 93.070312 49.003906 92.730469 48.710938 92.433594 C 48.414062 92.136719 48.074219 91.910156 47.6875 91.75 C 47.300781 91.589844 46.898438 91.507812 46.476562 91.507812 C 46.058594 91.507812 45.65625 91.589844 45.269531 91.75 C 44.882812 91.910156 44.542969 92.136719 44.246094 92.433594 C 43.953125 92.730469 43.722656 93.070312 43.5625 93.457031 C 43.402344 93.84375 43.324219 94.246094 43.324219 94.664062 C 43.324219 95.082031 43.402344 95.484375 43.5625 95.871094 C 43.722656 96.257812 43.953125 96.597656 44.246094 96.894531 C 44.542969 97.191406 44.882812 97.417969 45.269531 97.578125 C 45.65625 97.738281 46.058594 97.820312 46.476562 97.820312 C 46.898438 97.820312 47.300781 97.738281 47.683594 97.578125 C 48.070312 97.417969 48.414062 97.191406 48.707031 96.894531 C 49.003906 96.597656 49.234375 96.257812 49.394531 95.871094 C 49.554688 95.484375 49.632812 95.082031 49.632812 94.664062 Z M 49.632812 94.664062 " fill-opacity="1" fill-rule="nonzero"/><path fill="#c6f135" d="M 99.144531 70.960938 C 99.144531 71.597656 99.320312 72.183594 99.671875 72.710938 C 100.027344 73.242188 100.496094 73.628906 101.085938 73.875 C 101.671875 74.117188 102.28125 74.179688 102.90625 74.054688 C 103.53125 73.933594 104.070312 73.648438 104.519531 73.199219 L 104.53125 73.179688 C 104.714844 72.996094 104.871094 72.792969 105.003906 72.570312 C 105.132812 72.347656 105.238281 72.113281 105.3125 71.863281 C 105.382812 71.617188 105.425781 71.363281 105.4375 71.105469 C 105.449219 70.847656 105.429688 70.589844 105.378906 70.335938 C 105.328125 70.082031 105.246094 69.839844 105.132812 69.605469 C 105.023438 69.371094 104.882812 69.15625 104.71875 68.957031 C 104.554688 68.757812 104.367188 68.578125 104.15625 68.425781 C 103.949219 68.273438 103.726562 68.148438 103.484375 68.046875 C 103.246094 67.949219 103 67.882812 102.742188 67.84375 C 102.488281 67.808594 102.230469 67.800781 101.972656 67.828125 C 101.714844 67.855469 101.464844 67.910156 101.21875 68 C 100.976562 68.085938 100.746094 68.203125 100.53125 68.347656 C 100.316406 68.492188 100.125 68.660156 99.949219 68.851562 C 99.777344 69.042969 99.628906 69.253906 99.507812 69.484375 C 99.386719 69.710938 99.292969 69.949219 99.230469 70.203125 C 99.167969 70.453125 99.136719 70.707031 99.136719 70.96875 Z M 99.144531 70.960938 " fill-opacity="1" fill-rule="nonzero"/><g clip-path="url(#3cbb857cf5)"><path fill="#c6f135" d="M 58.121094 45.324219 C 58.125 44.769531 58.152344 44.21875 58.203125 43.667969 C 58.257812 43.121094 58.339844 42.574219 58.449219 42.03125 C 58.554688 41.492188 58.691406 40.957031 58.851562 40.425781 C 59.011719 39.898438 59.199219 39.378906 59.410156 38.871094 C 59.621094 38.359375 59.855469 37.859375 60.117188 37.375 C 60.378906 36.886719 60.660156 36.414062 60.96875 35.953125 C 61.277344 35.496094 61.605469 35.050781 61.957031 34.625 C 62.304688 34.199219 62.675781 33.789062 63.066406 33.398438 C 63.457031 33.007812 63.867188 32.636719 64.292969 32.289062 C 64.722656 31.9375 65.164062 31.609375 65.625 31.300781 C 66.082031 30.996094 66.554688 30.710938 67.042969 30.453125 C 67.53125 30.191406 68.027344 29.957031 68.539062 29.742188 C 69.050781 29.53125 69.570312 29.347656 70.097656 29.1875 C 70.625 29.027344 71.160156 28.890625 71.703125 28.785156 C 72.246094 28.675781 72.789062 28.59375 73.339844 28.542969 C 73.890625 28.488281 74.441406 28.460938 74.992188 28.460938 C 75.546875 28.460938 76.097656 28.488281 76.648438 28.542969 C 77.195312 28.59375 77.742188 28.675781 78.285156 28.785156 C 78.824219 28.890625 79.359375 29.027344 79.890625 29.1875 C 80.417969 29.347656 80.9375 29.53125 81.449219 29.742188 C 81.957031 29.957031 82.457031 30.191406 82.945312 30.453125 C 83.429688 30.710938 83.90625 30.996094 84.363281 31.300781 C 84.824219 31.609375 85.265625 31.9375 85.695312 32.289062 C 86.121094 32.636719 86.53125 33.007812 86.921875 33.398438 C 87.3125 33.789062 87.679688 34.199219 88.03125 34.625 C 88.382812 35.050781 88.710938 35.496094 89.019531 35.953125 C 89.324219 36.414062 89.609375 36.886719 89.871094 37.375 C 90.128906 37.859375 90.367188 38.359375 90.578125 38.871094 C 90.789062 39.378906 90.976562 39.898438 91.136719 40.425781 C 91.296875 40.957031 91.429688 41.492188 91.539062 42.03125 C 91.648438 42.574219 91.726562 43.121094 91.78125 43.667969 C 91.835938 44.21875 91.863281 44.769531 91.863281 45.324219 L 91.863281 56.640625 L 106.722656 56.640625 L 106.722656 45.324219 C 106.714844 44.289062 106.65625 43.261719 106.546875 42.234375 C 106.433594 41.207031 106.277344 40.1875 106.066406 39.175781 C 105.859375 38.167969 105.601562 37.167969 105.292969 36.179688 C 104.988281 35.195312 104.632812 34.226562 104.230469 33.277344 C 103.832031 32.324219 103.382812 31.394531 102.890625 30.488281 C 102.398438 29.578125 101.863281 28.699219 101.285156 27.84375 C 100.707031 26.988281 100.089844 26.160156 99.429688 25.367188 C 98.769531 24.570312 98.074219 23.8125 97.34375 23.082031 C 96.609375 22.355469 95.84375 21.667969 95.042969 21.015625 C 94.242188 20.363281 93.410156 19.75 92.550781 19.179688 C 91.691406 18.609375 90.804688 18.082031 89.890625 17.597656 C 88.980469 17.113281 88.046875 16.675781 87.089844 16.28125 C 86.136719 15.890625 85.164062 15.542969 84.175781 15.246094 C 83.1875 14.945312 82.1875 14.699219 81.175781 14.496094 C 80.160156 14.296875 79.140625 14.148438 78.113281 14.046875 C 77.085938 13.945312 76.054688 13.894531 75.023438 13.894531 C 73.992188 13.894531 72.960938 13.945312 71.933594 14.046875 C 70.90625 14.148438 69.886719 14.296875 68.871094 14.496094 C 67.859375 14.699219 66.859375 14.945312 65.871094 15.246094 C 64.882812 15.542969 63.910156 15.890625 62.953125 16.28125 C 62 16.675781 61.066406 17.113281 60.15625 17.597656 C 59.242188 18.082031 58.355469 18.609375 57.496094 19.179688 C 56.636719 19.75 55.804688 20.363281 55.003906 21.015625 C 54.203125 21.667969 53.4375 22.355469 52.703125 23.082031 C 51.96875 23.8125 51.273438 24.570312 50.617188 25.367188 C 49.957031 26.160156 49.339844 26.988281 48.761719 27.84375 C 48.179688 28.699219 47.644531 29.578125 47.152344 30.488281 C 46.660156 31.394531 46.214844 32.324219 45.8125 33.277344 C 45.414062 34.226562 45.058594 35.195312 44.753906 36.179688 C 44.445312 37.167969 44.1875 38.167969 43.980469 39.175781 C 43.769531 40.1875 43.609375 41.207031 43.5 42.234375 C 43.390625 43.261719 43.332031 44.289062 43.324219 45.324219 L 43.324219 56.640625 L 58.121094 56.640625 Z M 78.539062 20.480469 C 78.589844 20.339844 78.667969 20.214844 78.773438 20.105469 C 78.886719 19.988281 79.019531 19.902344 79.171875 19.847656 C 79.472656 19.726562 79.769531 19.726562 80.066406 19.847656 C 80.214844 19.898438 80.339844 19.984375 80.4375 20.105469 C 80.550781 20.210938 80.640625 20.335938 80.699219 20.480469 C 80.765625 20.621094 80.796875 20.769531 80.792969 20.925781 C 80.785156 21.25 80.667969 21.523438 80.4375 21.746094 C 80.339844 21.871094 80.214844 21.957031 80.066406 22.007812 C 79.921875 22.070312 79.773438 22.101562 79.621094 22.101562 C 79.464844 22.105469 79.316406 22.074219 79.171875 22.007812 C 79.019531 21.949219 78.886719 21.863281 78.773438 21.746094 C 78.550781 21.519531 78.441406 21.246094 78.445312 20.925781 C 78.441406 20.769531 78.472656 20.621094 78.539062 20.480469 Z M 53.582031 33.449219 C 53.121094 33.449219 52.78125 33.25 52.558594 32.847656 C 52.332031 32.449219 52.34375 32.050781 52.585938 31.660156 C 53.78125 29.726562 55.207031 27.980469 56.867188 26.425781 C 58.746094 24.699219 60.832031 23.269531 63.117188 22.140625 C 65.40625 21.007812 67.804688 20.21875 70.320312 19.773438 C 70.472656 19.746094 70.625 19.746094 70.777344 19.78125 C 70.929688 19.8125 71.066406 19.871094 71.195312 19.960938 C 71.324219 20.046875 71.429688 20.15625 71.515625 20.289062 C 71.601562 20.417969 71.65625 20.5625 71.683594 20.714844 C 71.714844 20.867188 71.710938 21.019531 71.679688 21.171875 C 71.644531 21.324219 71.585938 21.464844 71.496094 21.589844 C 71.410156 21.71875 71.300781 21.828125 71.171875 21.910156 C 71.039062 21.996094 70.898438 22.050781 70.746094 22.082031 C 68.453125 22.484375 66.261719 23.203125 64.175781 24.234375 C 62.085938 25.265625 60.1875 26.566406 58.46875 28.140625 C 56.964844 29.550781 55.671875 31.132812 54.585938 32.890625 C 54.359375 33.265625 54.023438 33.453125 53.582031 33.449219 Z M 53.582031 33.449219 " fill-opacity="1" fill-rule="nonzero"/></g><path fill="#c6f135" d="M 75.023438 30.832031 C 74.070312 30.828125 73.125 30.921875 72.191406 31.105469 C 71.253906 31.292969 70.347656 31.566406 69.464844 31.929688 C 68.585938 32.292969 67.746094 32.738281 66.953125 33.269531 C 66.160156 33.796875 65.425781 34.398438 64.75 35.070312 C 64.074219 35.742188 63.46875 36.476562 62.9375 37.265625 C 62.40625 38.058594 61.957031 38.894531 61.589844 39.773438 C 61.222656 40.652344 60.945312 41.5625 60.757812 42.496094 C 60.566406 43.429688 60.472656 44.375 60.46875 45.328125 L 60.46875 56.644531 L 89.519531 56.644531 L 89.519531 45.324219 C 89.515625 44.371094 89.421875 43.429688 89.238281 42.496094 C 89.050781 41.5625 88.773438 40.65625 88.410156 39.78125 C 88.046875 38.902344 87.597656 38.066406 87.070312 37.273438 C 86.542969 36.484375 85.941406 35.753906 85.269531 35.082031 C 84.59375 34.40625 83.863281 33.808594 83.070312 33.277344 C 82.28125 32.75 81.445312 32.304688 80.566406 31.9375 C 79.6875 31.574219 78.785156 31.296875 77.851562 31.113281 C 76.917969 30.925781 75.976562 30.832031 75.023438 30.832031 Z M 75.023438 30.832031 " fill-opacity="1" fill-rule="nonzero"/><path fill="#c6f135" d="M 104.742188 103.859375 C 104.742188 104.277344 104.824219 104.679688 104.984375 105.066406 C 105.144531 105.453125 105.371094 105.792969 105.667969 106.089844 C 105.964844 106.386719 106.304688 106.613281 106.691406 106.773438 C 107.078125 106.933594 107.480469 107.011719 107.898438 107.011719 C 108.320312 107.011719 108.722656 106.929688 109.105469 106.769531 C 109.492188 106.609375 109.835938 106.382812 110.128906 106.085938 C 110.425781 105.789062 110.652344 105.449219 110.8125 105.0625 C 110.972656 104.675781 111.054688 104.273438 111.054688 103.855469 C 111.050781 103.4375 110.972656 103.035156 110.8125 102.648438 C 110.652344 102.261719 110.421875 101.921875 110.128906 101.625 C 109.832031 101.328125 109.488281 101.101562 109.101562 100.941406 C 108.714844 100.78125 108.3125 100.703125 107.894531 100.703125 C 107.476562 100.703125 107.074219 100.78125 106.6875 100.945312 C 106.300781 101.105469 105.960938 101.332031 105.664062 101.628906 C 105.371094 101.925781 105.140625 102.265625 104.984375 102.652344 C 104.824219 103.039062 104.742188 103.441406 104.742188 103.859375 Z M 104.742188 103.859375 " fill-opacity="1" fill-rule="nonzero"/></svg>