<svg xmlns="http://www.w3.org/2000/svg" xmlns:xlink="http://www.w3.org/1999/xlink" width="200" zoomAndPan="magnify" viewBox="0 0 150 149.999998" height="200" preserveAspectRatio="xMidYMid meet" version="1.0"><defs><clipPath id="f0f78648d1"><path d="M 18.578125 19 L 106 19 L 106 107 L 18.578125 107 Z M 18.578125 19 " clip-rule="nonzero"/></clipPath><clipPath id="0a97943091"><path d="M 109 84 L 131.078125 84 L 131.078125 99 L 109 99 Z M 109 84 " clip-rule="nonzero"/></clipPath></defs><rect x="-15" width="180" fill="#ffffff" y="-15" height="179.999997" fill-opacity="1"/><rect x="-15" width="180" fill="#1a2e22" y="-15" height="179.999997" fill-opacity="1"/><path fill="#c6f135" d="M 113.976562 65.953125 C 113.976562 70.074219 110.992188 73.476562 107.0625 74.128906 C 106.621094 74.210938 106.136719 74.253906 105.675781 74.253906 C 105.484375 74.253906 105.316406 74.253906 105.148438 74.234375 C 102.753906 74.085938 100.652344 72.929688 99.242188 71.1875 C 98.066406 69.757812 97.375 67.929688 97.375 65.953125 C 97.375 61.371094 101.09375 57.652344 105.675781 57.652344 C 105.882812 57.652344 106.074219 57.652344 106.261719 57.671875 C 110.570312 57.988281 113.976562 61.582031 113.976562 65.953125 Z M 113.976562 65.953125 " fill-opacity="1" fill-rule="nonzero"/><g clip-path="url(#f0f78648d1)"><path fill="#c6f135" d="M 105.652344 53.976562 C 104.832031 50.046875 103.488281 46.304688 101.679688 42.816406 L 94.996094 46.679688 C 94.660156 46.871094 94.300781 46.953125 93.945312 46.953125 C 93.210938 46.953125 92.515625 46.574219 92.117188 45.902344 C 91.550781 44.894531 91.886719 43.613281 92.890625 43.023438 L 99.574219 39.175781 C 96.148438 33.882812 91.652344 29.363281 86.355469 25.957031 L 82.488281 32.640625 C 82.089844 33.3125 81.398438 33.691406 80.660156 33.691406 C 80.304688 33.691406 79.949219 33.589844 79.609375 33.398438 C 78.621094 32.832031 78.265625 31.527344 78.855469 30.539062 L 82.699219 23.835938 C 77.257812 21.019531 71.144531 19.339844 64.648438 19.023438 L 64.648438 26.714844 C 64.648438 27.894531 63.703125 28.816406 62.546875 28.816406 C 61.371094 28.816406 60.445312 27.890625 60.445312 26.714844 L 60.445312 19.023438 C 53.953125 19.339844 47.835938 21.019531 42.371094 23.835938 L 46.238281 30.539062 C 46.804688 31.527344 46.46875 32.832031 45.460938 33.398438 C 45.125 33.589844 44.769531 33.691406 44.410156 33.691406 C 43.695312 33.691406 42.980469 33.316406 42.582031 32.640625 L 38.734375 25.957031 C 33.441406 29.363281 28.921875 33.882812 25.515625 39.175781 L 32.199219 43.023438 C 33.1875 43.609375 33.546875 44.894531 32.957031 45.902344 C 32.578125 46.574219 31.863281 46.953125 31.148438 46.953125 C 30.792969 46.953125 30.414062 46.871094 30.097656 46.679688 L 23.394531 42.816406 C 20.574219 48.277344 18.894531 54.394531 18.578125 60.886719 L 26.273438 60.886719 C 27.449219 60.886719 28.375 61.8125 28.375 62.988281 C 28.375 64.144531 27.449219 65.089844 26.273438 65.089844 L 18.578125 65.089844 C 18.894531 71.585938 20.574219 77.699219 23.394531 83.144531 L 30.097656 79.296875 C 31.085938 78.710938 32.386719 79.046875 32.957031 80.054688 C 33.542969 81.0625 33.1875 82.34375 32.199219 82.933594 L 25.515625 86.800781 C 28.917969 92.09375 33.4375 96.59375 38.734375 100.019531 L 42.578125 93.335938 C 43.167969 92.328125 44.449219 91.992188 45.457031 92.558594 C 46.46875 93.148438 46.804688 94.429688 46.238281 95.4375 L 42.371094 102.121094 C 47.835938 104.9375 53.949219 106.621094 60.445312 106.933594 L 60.445312 99.242188 C 60.445312 98.085938 61.371094 97.140625 62.546875 97.140625 C 63.703125 97.140625 64.648438 98.085938 64.648438 99.242188 L 64.648438 106.933594 C 71.140625 106.621094 77.257812 104.9375 82.699219 102.121094 L 81.144531 99.410156 C 78.664062 100.902344 75.40625 100.628906 73.222656 98.546875 C 70.804688 96.238281 70.46875 92.640625 72.402344 89.953125 C 73.578125 88.292969 74.460938 86.925781 75.324219 85.601562 C 76.414062 83.898438 77.464844 82.28125 78.980469 80.265625 C 80.386719 78.351562 82.320312 76.796875 84.550781 75.785156 C 88.332031 74.105469 91.925781 72.78125 95.246094 71.835938 C 94.257812 70.09375 93.691406 68.074219 93.691406 65.953125 C 93.695312 59.332031 99.03125 53.996094 105.652344 53.976562 Z M 74.191406 82.894531 C 73.855469 83.105469 73.476562 83.1875 73.117188 83.1875 C 72.40625 83.1875 71.6875 82.808594 71.3125 82.136719 L 61.433594 65.257812 C 60.78125 64.144531 60.445312 62.863281 60.445312 61.582031 L 60.445312 36.109375 C 60.445312 34.953125 61.371094 34.007812 62.546875 34.007812 C 63.703125 34.007812 64.648438 34.957031 64.648438 36.109375 L 64.648438 61.582031 C 64.648438 62.128906 64.792969 62.675781 65.066406 63.136719 L 74.921875 80.035156 C 75.515625 81.023438 75.175781 82.304688 74.191406 82.894531 Z M 86 94.621094 C 85.496094 95.144531 84.949219 95.734375 84.300781 96.449219 L 86.105469 99.601562 C 86.148438 99.390625 86.210938 99.203125 86.273438 98.992188 C 86.503906 98.214844 86.734375 97.417969 86.96875 96.640625 L 87.238281 95.734375 C 87.597656 94.535156 87.953125 93.339844 88.292969 92.183594 C 87.492188 93.042969 86.800781 93.757812 86 94.621094 Z M 86 94.621094 " fill-opacity="1" fill-rule="nonzero"/></g><g clip-path="url(#0a97943091)"><path fill="#c6f135" d="M 130.933594 86.257812 C 130.113281 84.972656 128.476562 84.492188 127.089844 85.121094 L 116.097656 90.101562 C 115.71875 90.269531 115.277344 90.164062 115.023438 89.828125 C 114.203125 88.796875 113.386719 87.769531 112.542969 86.738281 C 112.0625 88.859375 111.492188 90.796875 110.777344 92.667969 C 110.441406 93.589844 110.109375 94.429688 109.8125 95.230469 C 110.421875 95.839844 111.03125 96.410156 111.640625 96.976562 C 113.070312 98.320312 115.191406 98.613281 116.933594 97.730469 C 121.664062 95.355469 125.425781 93.191406 129.882812 90.566406 C 131.398438 89.679688 131.859375 87.726562 130.933594 86.257812 Z M 130.933594 86.257812 " fill-opacity="1" fill-rule="nonzero"/></g><path fill="#c6f135" d="M 89.554688 107.609375 C 91.925781 109.058594 93.882812 110.171875 95.585938 111.054688 C 95.3125 111.683594 94.996094 112.359375 94.679688 113.007812 C 93.609375 115.152344 92.496094 117.046875 91.402344 118.664062 C 90.433594 120.113281 88.585938 120.660156 86.96875 120.03125 C 82.175781 118.179688 77.40625 116.332031 72.632812 114.480469 C 71.226562 113.9375 70.492188 112.382812 70.953125 110.953125 C 71.433594 109.5 72.949219 108.683594 74.398438 109.082031 C 77.761719 109.984375 81.101562 110.890625 84.445312 111.792969 C 85.054688 111.960938 85.683594 111.648438 85.914062 111.078125 C 86.585938 109.484375 87.28125 107.886719 87.953125 106.289062 C 88.398438 106.789062 88.945312 107.230469 89.554688 107.609375 Z M 89.554688 107.609375 " fill-opacity="1" fill-rule="nonzero"/><path fill="#c6f135" d="M 118.15625 130.8125 L 118.136719 130.8125 C 116.433594 131.359375 114.625 130.453125 114.035156 128.773438 C 112.398438 124.210938 109.414062 115.828125 108.679688 113.746094 C 108.574219 113.433594 108.34375 113.179688 108.070312 113.011719 C 104.097656 110.871094 101.511719 110.050781 96.953125 107.632812 C 95.394531 106.8125 93.609375 105.804688 91.46875 104.480469 C 90.582031 103.933594 89.972656 103.074219 89.742188 102.082031 L 89.742188 102.0625 C 89.574219 101.433594 89.574219 100.757812 89.785156 100.085938 C 90.121094 98.929688 90.457031 97.839844 90.773438 96.789062 C 90.773438 96.765625 90.773438 96.765625 90.773438 96.746094 L 90.796875 96.746094 C 92.664062 90.398438 93.925781 86.195312 93.96875 86.070312 C 93.96875 86.070312 93.988281 86.007812 93.96875 85.921875 C 93.949219 85.796875 93.820312 85.710938 93.675781 85.753906 C 91.824219 86.195312 89.449219 85.734375 88.105469 87.097656 C 85.394531 89.875 84.40625 90.945312 82.324219 93.132812 C 81.652344 93.867188 80.855469 94.707031 79.84375 95.78125 C 79.675781 95.949219 79.488281 96.09375 79.300781 96.222656 C 78.207031 96.914062 76.734375 96.808594 75.746094 95.886719 C 74.695312 94.875 74.550781 93.277344 75.390625 92.101562 C 78.101562 88.300781 79.300781 85.964844 81.925781 82.476562 C 83 81.027344 84.429688 79.890625 86.066406 79.15625 C 89.683594 77.539062 93.445312 76.109375 97.125 75.121094 C 97.355469 75.058594 97.585938 75.015625 97.816406 74.972656 C 100.148438 74.574219 102.460938 75.351562 104.394531 76.71875 L 104.394531 76.738281 L 104.414062 76.738281 C 104.917969 77.097656 105.402344 77.496094 105.84375 77.9375 C 107.023438 79.050781 107.964844 80.355469 108.578125 81.679688 C 108.617188 81.761719 108.660156 81.847656 108.683594 81.929688 C 109.355469 83.632812 109.039062 85.648438 109.039062 85.648438 C 108.722656 87.058594 108.21875 89.054688 107.359375 91.386719 C 107.230469 91.722656 107.105469 92.039062 106.980469 92.355469 L 106.980469 92.375 C 105.570312 96.074219 104.457031 98.703125 104.035156 99.710938 C 103.933594 99.984375 104.035156 100.277344 104.289062 100.40625 C 105.550781 101.054688 109.25 102.96875 113.558594 105.53125 C 114.1875 105.910156 114.652344 106.5 114.839844 107.214844 C 116.667969 113.769531 118.476562 120.347656 120.28125 126.90625 C 120.742188 128.5625 119.796875 130.289062 118.15625 130.8125 Z M 118.15625 130.8125 " fill-opacity="1" fill-rule="nonzero"/></svg>