<svg xmlns="http://www.w3.org/2000/svg" xmlns:xlink="http://www.w3.org/1999/xlink" width="200" zoomAndPan="magnify" viewBox="0 0 150 149.999998" height="200" preserveAspectRatio="xMidYMid meet" version="1.0"><defs><clipPath id="1a94cfced3"><path d="M 22.5 22.5 L 127.5 22.5 L 127.5 127.5 L 22.5 127.5 Z M 22.5 22.5 " clip-rule="nonzero"/></clipPath></defs><rect x="-15" width="180" fill="#ffffff" y="-15" height="179.999997" fill-opacity="1"/><rect x="-15" width="180" fill="#1a2e22" y="-15" height="179.999997" fill-opacity="1"/><g clip-path="url(#1a94cfced3)"><path fill="#c6f135" d="M 34.574219 43.117188 C 29.152344 37.332031 37.289062 29.210938 43.054688 34.636719 C 48.476562 40.421875 40.339844 48.546875 34.574219 43.117188 Z M 106.910156 43.117188 C 112.679688 48.546875 120.8125 40.417969 115.386719 34.636719 C 109.617188 29.203125 101.480469 37.347656 106.910156 43.117188 Z M 25.214844 75 C 25.214844 64.625 28.359375 54.75 34.300781 46.335938 C 33.53125 45.867188 32.796875 45.269531 32.210938 44.566406 C 21.082031 59.847656 19.367188 81.253906 27.855469 98.152344 C 28.660156 99.75 31.082031 98.550781 30.300781 96.945312 C 26.925781 90.089844 25.214844 82.707031 25.214844 75 Z M 53.082031 30.285156 C 69.042969 22.285156 89.25 23.878906 103.710938 34.332031 C 104.191406 33.542969 104.78125 32.847656 105.488281 32.25 C 90.210938 21.09375 68.789062 19.355469 51.878906 27.839844 C 50.289062 28.652344 51.453125 31.050781 53.082031 30.285156 Z M 111.152344 105.21875 C 107.929688 105.152344 105.085938 107.992188 105.15625 111.214844 C 105.046875 116.4375 111.761719 119.226562 115.386719 115.453125 C 119.164062 111.824219 116.375 105.109375 111.152344 105.21875 Z M 101.15625 89.726562 L 104.625 96.523438 L 96.460938 104.679688 L 89.671875 101.21875 C 89.261719 101.007812 88.847656 101.007812 88.433594 101.21875 C 87 101.953125 85.511719 102.566406 83.976562 103.0625 C 83.535156 103.203125 83.238281 103.5 83.09375 103.941406 L 80.75 111.1875 L 69.214844 111.1875 L 66.867188 103.941406 C 66.722656 103.5 66.429688 103.203125 65.984375 103.0625 C 64.449219 102.566406 62.964844 101.953125 61.527344 101.21875 C 61.117188 101.007812 60.703125 101.007812 60.289062 101.21875 L 53.5 104.679688 L 45.34375 96.523438 L 48.808594 89.726562 C 49.023438 89.308594 49.023438 88.890625 48.800781 88.476562 C 48.0625 87.050781 47.453125 85.574219 46.964844 84.046875 C 46.824219 83.597656 46.53125 83.300781 46.082031 83.160156 L 38.839844 80.8125 L 38.839844 69.277344 L 46.082031 66.929688 C 46.53125 66.785156 46.824219 66.492188 46.964844 66.042969 C 47.453125 64.507812 48.066406 63.027344 48.808594 61.597656 C 49.019531 61.183594 49.019531 60.765625 48.808594 60.351562 L 45.34375 53.5625 L 53.5 45.40625 L 60.289062 48.871094 C 60.703125 49.085938 61.117188 49.085938 61.535156 48.871094 C 62.964844 48.128906 64.445312 47.515625 65.980469 47.027344 C 66.429688 46.886719 66.722656 46.59375 66.867188 46.144531 L 69.214844 38.902344 L 80.75 38.902344 L 83.09375 46.144531 C 83.238281 46.59375 83.535156 46.886719 83.984375 47.027344 C 85.519531 47.515625 87 48.128906 88.429688 48.871094 C 88.847656 49.082031 89.261719 49.082031 89.679688 48.871094 L 96.46875 45.40625 L 104.625 53.5625 L 101.15625 60.351562 C 100.945312 60.765625 100.945312 61.183594 101.15625 61.597656 C 101.898438 63.027344 102.511719 64.507812 103 66.042969 C 103.140625 66.492188 103.433594 66.785156 103.878906 66.929688 L 111.125 69.277344 L 111.125 80.8125 L 103.878906 83.160156 C 103.433594 83.304688 103.140625 83.601562 103 84.046875 C 102.511719 85.574219 101.898438 87.050781 101.160156 88.476562 C 100.941406 88.890625 100.941406 89.308594 101.15625 89.726562 Z M 94.515625 75.046875 C 94.753906 66.699219 88.3125 59.671875 83.289062 57.703125 C 70.789062 51.660156 55.207031 61.207031 55.449219 75.046875 C 56.515625 100.457031 93.449219 100.453125 94.515625 75.046875 Z M 122.054688 51.660156 C 121.230469 50.074219 118.835938 51.25 119.609375 52.875 C 127.730469 68.875 126.167969 89.21875 115.644531 103.742188 C 116.410156 104.210938 117.152344 104.804688 117.734375 105.507812 C 128.953125 90.160156 130.65625 68.617188 122.054688 51.660156 Z M 97.125 119.609375 C 81.136719 127.726562 60.824219 126.167969 46.296875 115.671875 C 45.839844 116.4375 45.253906 117.1875 44.542969 117.773438 C 59.890625 128.960938 81.40625 130.648438 98.339844 122.050781 C 99.925781 121.230469 98.75 118.835938 97.125 119.609375 Z M 43.054688 106.972656 C 37.285156 101.542969 29.152344 109.671875 34.574219 115.453125 C 40.355469 120.875 48.472656 112.753906 43.054688 106.972656 Z M 43.054688 106.972656 " fill-opacity="1" fill-rule="nonzero"/></g></svg>