<svg xmlns="http://www.w3.org/2000/svg" xmlns:xlink="http://www.w3.org/1999/xlink" width="200" zoomAndPan="magnify" viewBox="0 0 150 149.999998" height="200" preserveAspectRatio="xMidYMid meet" version="1.0"><defs><clipPath id="0395e17cda"><path d="M 71 112 L 85 112 L 85 124.964844 L 71 124.964844 Z M 71 112 " clip-rule="nonzero"/></clipPath><clipPath id="df77cd6cab"><path d="M 20.066406 25.214844 L 129.566406 25.214844 L 129.566406 86 L 20.066406 86 Z M 20.066406 25.214844 " clip-rule="nonzero"/></clipPath></defs><rect x="-15" width="180" fill="#ffffff" y="-15" height="179.999997" fill-opacity="1"/><rect x="-15" width="180" fill="#1a2e22" y="-15" height="179.999997" fill-opacity="1"/><path fill="#c6f135" d="M 69.578125 119.320312 C 60.839844 117.824219 53.105469 112.800781 48.222656 105.371094 C 44.996094 100.488281 43.199219 94.882812 42.941406 89.085938 L 46.609375 89.085938 C 46.84375 94.15625 48.453125 99.085938 51.257812 103.363281 C 55.324219 109.507812 61.585938 113.808594 68.710938 115.417969 Z M 69.578125 119.320312 " fill-opacity="1" fill-rule="nonzero"/><path fill="#c6f135" d="M 107.007812 89.085938 C 106.984375 89.695312 106.9375 90.300781 106.867188 90.933594 C 106.144531 98.128906 102.964844 104.953125 97.941406 110.09375 C 97.59375 110.464844 97.101562 110.652344 96.632812 110.652344 C 96.167969 110.652344 95.722656 110.488281 95.347656 110.140625 C 94.625 109.4375 94.601562 108.269531 95.324219 107.546875 C 100.277344 102.476562 102.964844 95.863281 103.292969 89.109375 L 107.007812 89.109375 Z M 107.007812 89.085938 " fill-opacity="1" fill-rule="nonzero"/><g clip-path="url(#0395e17cda)"><path fill="#c6f135" d="M 84.109375 116.003906 L 74.53125 124.742188 L 72.894531 117.359375 L 72.894531 117.335938 L 72.847656 117.195312 L 71.726562 112.078125 Z M 84.109375 116.003906 " fill-opacity="1" fill-rule="nonzero"/></g><path fill="#c6f135" d="M 75.160156 63.316406 L 62.425781 60.769531 L 71.003906 51.023438 Z M 75.160156 63.316406 " fill-opacity="1" fill-rule="nonzero"/><path fill="#c6f135" d="M 85.441406 85.746094 C 84.648438 85.746094 83.945312 85.230469 83.691406 84.484375 C 83.550781 84.039062 83.363281 83.597656 83.152344 83.175781 C 82.800781 82.472656 82.917969 81.609375 83.480469 81.050781 L 85.910156 78.621094 L 83.761719 76.46875 L 81.328125 78.898438 C 80.769531 79.460938 79.90625 79.601562 79.203125 79.226562 C 78.78125 79.015625 78.339844 78.828125 77.894531 78.6875 C 77.148438 78.457031 76.632812 77.730469 76.632812 76.9375 L 76.632812 73.503906 L 73.597656 73.503906 L 73.597656 76.9375 C 73.597656 77.730469 73.082031 78.433594 72.335938 78.6875 C 71.890625 78.828125 71.445312 79.015625 71.027344 79.226562 C 70.324219 79.578125 69.460938 79.460938 68.898438 78.898438 L 66.46875 76.46875 L 64.320312 78.621094 L 66.75 81.050781 C 67.3125 81.609375 67.449219 82.472656 67.078125 83.175781 C 66.867188 83.597656 66.679688 84.039062 66.539062 84.484375 C 66.304688 85.230469 65.582031 85.746094 64.789062 85.746094 L 61.351562 85.746094 L 61.351562 88.78125 L 64.789062 88.78125 C 65.582031 88.78125 66.28125 89.296875 66.539062 90.042969 C 66.679688 90.488281 66.867188 90.933594 67.078125 91.351562 C 67.425781 92.054688 67.3125 92.917969 66.75 93.480469 L 64.320312 95.910156 L 66.46875 98.058594 L 68.898438 95.628906 C 69.460938 95.066406 70.324219 94.929688 71.027344 95.300781 C 71.445312 95.511719 71.890625 95.699219 72.335938 95.839844 C 73.082031 96.074219 73.597656 96.796875 73.597656 97.589844 L 73.597656 101.027344 L 76.632812 101.027344 L 76.632812 97.589844 C 76.632812 96.796875 77.148438 96.097656 77.894531 95.839844 C 78.339844 95.699219 78.78125 95.511719 79.203125 95.300781 C 79.90625 94.953125 80.769531 95.066406 81.328125 95.628906 L 83.761719 98.058594 L 85.910156 95.910156 L 83.480469 93.480469 C 82.917969 92.917969 82.777344 92.054688 83.152344 91.351562 C 83.363281 90.933594 83.550781 90.488281 83.691406 90.042969 C 83.921875 89.296875 84.648438 88.78125 85.441406 88.78125 L 88.875 88.78125 L 88.875 85.746094 Z M 75.113281 94.835938 C 70.933594 94.835938 67.519531 91.421875 67.519531 87.242188 C 67.519531 83.058594 70.933594 79.648438 75.113281 79.648438 C 79.296875 79.648438 82.707031 83.058594 82.707031 87.242188 C 82.707031 91.445312 79.296875 94.835938 75.113281 94.835938 Z M 75.113281 94.835938 " fill-opacity="1" fill-rule="nonzero"/><g clip-path="url(#df77cd6cab)"><path fill="#c6f135" d="M 118.644531 85.441406 L 106.9375 85.441406 C 106.539062 79.996094 104.765625 74.671875 101.726562 70.089844 C 96.050781 61.492188 86.679688 56.1875 76.445312 55.722656 L 73.457031 46.867188 C 73.246094 46.234375 72.730469 45.792969 72.078125 45.652344 C 71.445312 45.535156 70.769531 45.746094 70.347656 46.234375 L 57.589844 60.746094 C 57.148438 61.234375 57.03125 61.914062 57.242188 62.542969 C 57.449219 63.175781 57.964844 63.617188 58.617188 63.757812 L 77.542969 67.519531 C 77.660156 67.542969 77.777344 67.542969 77.894531 67.542969 C 78.410156 67.542969 78.921875 67.332031 79.273438 66.914062 C 79.695312 66.421875 79.835938 65.746094 79.625 65.113281 L 77.707031 59.4375 C 86.214844 60.253906 93.898438 64.855469 98.667969 72.054688 C 101.355469 76.140625 102.871094 80.746094 103.222656 85.394531 L 92.5 85.394531 L 92.5 83.875 C 92.5 82.871094 91.679688 82.054688 90.675781 82.054688 L 87.613281 82.054688 L 89.789062 79.882812 C 90.136719 79.53125 90.324219 79.0625 90.324219 78.597656 C 90.324219 78.105469 90.136719 77.636719 89.789062 77.3125 L 85.046875 72.566406 C 84.695312 72.21875 84.226562 72.03125 83.761719 72.03125 C 83.269531 72.03125 82.800781 72.21875 82.476562 72.566406 L 80.300781 74.742188 L 80.300781 71.679688 C 80.300781 70.675781 79.484375 69.855469 78.480469 69.855469 L 71.773438 69.855469 C 70.769531 69.855469 69.949219 70.675781 69.949219 71.679688 L 69.949219 74.765625 L 67.777344 72.589844 C 67.425781 72.242188 66.960938 72.054688 66.492188 72.054688 C 66.003906 72.054688 65.535156 72.242188 65.207031 72.589844 L 60.441406 77.335938 C 59.71875 78.058594 59.71875 79.203125 60.441406 79.925781 L 62.613281 82.101562 L 59.554688 82.101562 C 58.546875 82.101562 57.730469 82.917969 57.730469 83.921875 L 57.730469 85.441406 L 46.679688 85.441406 C 47.171875 79.226562 49.671875 73.386719 53.875 68.734375 C 54.554688 67.988281 54.484375 66.820312 53.734375 66.140625 C 52.988281 65.464844 51.820312 65.535156 51.140625 66.28125 C 46.328125 71.609375 43.5 78.339844 42.988281 85.441406 L 32.261719 85.441406 C 24.226562 82.894531 19.0625 74.8125 20.230469 66.539062 L 20.253906 66.351562 C 20.277344 66.257812 20.277344 66.140625 20.300781 66.046875 C 21.632812 58.175781 27.660156 53.6875 29.484375 52.519531 C 29.925781 52.238281 30.207031 51.773438 30.300781 51.257812 C 31.492188 43.175781 36.914062 36.796875 44.109375 34.996094 C 51.09375 33.242188 56.984375 36.65625 58.617188 37.730469 C 59.0625 38.035156 59.625 38.105469 60.136719 37.964844 C 60.652344 37.824219 61.070312 37.449219 61.304688 36.960938 C 64.460938 29.996094 71.257812 25.394531 78.644531 25.253906 C 88.714844 25.066406 94.625 33.359375 94.882812 33.710938 C 95.394531 34.433594 96.355469 34.691406 97.148438 34.320312 C 102.453125 31.867188 108.621094 32.402344 113.292969 35.695312 C 118.410156 39.320312 120.933594 45.722656 119.742188 52.03125 C 119.601562 52.777344 119.929688 53.546875 120.605469 53.945312 C 120.957031 54.15625 129.296875 59.273438 129.90625 69.0625 C 129.90625 69.226562 129.929688 69.390625 129.929688 69.554688 L 129.929688 69.601562 C 130.117188 76.679688 125.511719 83.175781 118.644531 85.441406 Z M 118.644531 85.441406 " fill-opacity="1" fill-rule="nonzero"/></g><path fill="#c6f135" d="M 79.039062 87.265625 C 79.039062 89.4375 77.289062 91.191406 75.113281 91.191406 C 72.941406 91.191406 71.1875 89.4375 71.1875 87.265625 C 71.1875 85.089844 72.941406 83.339844 75.113281 83.339844 C 77.289062 83.339844 79.039062 85.089844 79.039062 87.265625 Z M 79.039062 87.265625 " fill-opacity="1" fill-rule="nonzero"/></svg>