<svg xmlns="http://www.w3.org/2000/svg" xmlns:xlink="http://www.w3.org/1999/xlink" width="200" zoomAndPan="magnify" viewBox="0 0 150 149.999998" height="200" preserveAspectRatio="xMidYMid meet" version="1.0"><defs><clipPath id="5525aa364a"><path d="M 28.378906 21.179688 L 121.378906 21.179688 L 121.378906 129 L 28.378906 129 Z M 28.378906 21.179688 " clip-rule="nonzero"/></clipPath></defs><rect x="-15" width="180" fill="#ffffff" y="-15" height="179.999997" fill-opacity="1"/><rect x="-15" width="180" fill="#1a2e22" y="-15" height="179.999997" fill-opacity="1"/><g clip-path="url(#5525aa364a)"><path fill="#c6f135" d="M 28.386719 91.765625 L 28.386719 51.929688 C 28.386719 51.035156 28.78125 50.179688 29.484375 49.546875 C 30.1875 48.914062 31.140625 48.558594 32.136719 48.558594 L 40.558594 48.558594 L 40.558594 66.082031 C 37.542969 66.871094 35.140625 69.105469 34.292969 71.945312 Z M 44.144531 65.777344 L 44.144531 21.25 L 87.6875 21.25 L 87.6875 29.761719 C 87.6875 32.359375 89.792969 34.464844 92.390625 34.464844 L 100.902344 34.464844 L 100.902344 65.777344 Z M 53.578125 36.519531 L 78.839844 36.519531 C 79.828125 36.519531 80.632812 35.714844 80.632812 34.726562 C 80.632812 33.738281 79.828125 32.933594 78.839844 32.933594 L 53.578125 32.933594 C 52.589844 32.933594 51.789062 33.738281 51.789062 34.726562 C 51.789062 35.714844 52.589844 36.519531 53.578125 36.519531 Z M 53.578125 46.890625 L 88.777344 46.890625 C 89.765625 46.890625 90.570312 46.085938 90.570312 45.097656 C 90.570312 44.109375 89.765625 43.308594 88.777344 43.308594 L 53.578125 43.308594 C 52.589844 43.308594 51.789062 44.109375 51.789062 45.097656 C 51.789062 46.085938 52.589844 46.890625 53.578125 46.890625 Z M 53.578125 57.253906 L 88.777344 57.253906 C 89.765625 57.253906 90.570312 56.453125 90.570312 55.464844 C 90.570312 54.476562 89.765625 53.671875 88.777344 53.671875 L 53.578125 53.671875 C 52.589844 53.671875 51.789062 54.476562 51.789062 55.464844 C 51.789062 56.453125 52.589844 57.253906 53.578125 57.253906 Z M 104.488281 65.777344 L 104.488281 56.359375 L 105.660156 56.359375 C 107.730469 56.359375 109.410156 57.871094 109.410156 59.734375 L 109.410156 65.777344 Z M 100.902344 30.882812 L 92.390625 30.882812 C 91.773438 30.882812 91.273438 30.378906 91.273438 29.761719 L 91.273438 21.25 Z M 46.785156 107.683594 L 32.28125 107.683594 C 31.109375 107.683594 30.007812 107.191406 29.296875 106.359375 C 28.585938 105.527344 28.347656 104.441406 28.648438 103.425781 L 37.730469 72.972656 C 38.363281 70.839844 40.511719 69.359375 42.960938 69.359375 L 118.710938 69.359375 C 119.621094 69.359375 120.476562 69.738281 121.027344 70.386719 C 121.578125 71.035156 121.765625 71.875 121.53125 72.664062 L 112.210938 103.925781 C 111.550781 106.140625 109.316406 107.683594 106.765625 107.683594 L 104.394531 107.683594 C 104.453125 107.417969 104.488281 107.144531 104.488281 106.863281 L 104.488281 100.015625 C 104.488281 98.53125 103.574219 97.203125 102.191406 96.667969 L 99.675781 95.703125 C 99.253906 94.382812 98.726562 93.105469 98.09375 91.875 C 98.09375 91.875 99.1875 89.40625 99.1875 89.40625 C 99.785156 88.054688 99.492188 86.46875 98.445312 85.421875 L 93.601562 80.582031 C 92.554688 79.53125 90.96875 79.238281 89.613281 79.839844 L 87.144531 80.9375 C 85.917969 80.304688 84.644531 79.777344 83.332031 79.355469 L 82.363281 76.835938 C 81.832031 75.449219 80.5 74.535156 79.019531 74.535156 L 72.167969 74.535156 C 70.6875 74.535156 69.359375 75.449219 68.824219 76.832031 L 67.851562 79.355469 C 66.539062 79.777344 65.261719 80.304688 64.035156 80.9375 C 64.035156 80.9375 61.566406 79.839844 61.566406 79.839844 C 60.210938 79.238281 58.625 79.53125 57.578125 80.582031 L 52.734375 85.421875 C 51.6875 86.472656 51.390625 88.058594 51.996094 89.414062 L 53.089844 91.878906 C 52.460938 93.105469 51.929688 94.382812 51.507812 95.699219 C 51.507812 95.699219 48.988281 96.667969 48.988281 96.667969 C 47.605469 97.203125 46.691406 98.53125 46.691406 100.015625 L 46.691406 106.863281 C 46.691406 107.144531 46.722656 107.417969 46.785156 107.683594 Z M 80.632812 82.320312 C 82.867188 82.851562 85 83.734375 86.957031 84.941406 L 91.066406 83.113281 L 95.910156 87.957031 L 94.089844 92.066406 C 95.296875 94.027344 96.179688 96.15625 96.710938 98.398438 L 100.902344 100.015625 L 100.902344 106.863281 L 96.710938 108.476562 C 96.179688 110.710938 95.289062 112.84375 94.089844 114.800781 L 95.910156 118.914062 L 91.066406 123.753906 L 86.957031 121.933594 C 85.003906 123.140625 82.867188 124.023438 80.632812 124.554688 L 79.019531 128.75 L 72.167969 128.75 L 70.554688 124.554688 C 68.3125 124.023438 66.179688 123.136719 64.222656 121.933594 L 60.109375 123.753906 L 55.269531 118.914062 L 57.097656 114.800781 C 55.890625 112.851562 55.007812 110.710938 54.46875 108.476562 L 50.273438 106.863281 L 50.273438 100.015625 L 54.46875 98.398438 C 55.007812 96.15625 55.890625 94.027344 57.097656 92.066406 L 55.269531 87.957031 L 60.109375 83.113281 L 64.222656 84.941406 C 66.179688 83.734375 68.3125 82.851562 70.546875 82.320312 L 72.167969 78.121094 L 79.019531 78.121094 Z M 75.589844 91.488281 C 68.988281 91.488281 63.640625 96.832031 63.640625 103.433594 C 63.640625 110.035156 68.988281 115.390625 75.589844 115.390625 C 82.191406 115.390625 87.542969 110.035156 87.542969 103.433594 C 87.542969 96.832031 82.191406 91.488281 75.589844 91.488281 Z M 75.589844 91.488281 " fill-opacity="1" fill-rule="evenodd"/></g></svg>