<svg xmlns="http://www.w3.org/2000/svg" xmlns:xlink="http://www.w3.org/1999/xlink" width="200" zoomAndPan="magnify" viewBox="0 0 150 149.999998" height="200" preserveAspectRatio="xMidYMid meet" version="1.0"><defs><clipPath id="ae343273fa"><path d="M 20.289062 8.582031 L 129.789062 8.582031 L 129.789062 141.332031 L 20.289062 141.332031 Z M 20.289062 8.582031 " clip-rule="nonzero"/></clipPath></defs><rect x="-15" width="180" fill="#ffffff" y="-15" height="179.999997" fill-opacity="1"/><rect x="-15" width="180" fill="#1a2e22" y="-15" height="179.999997" fill-opacity="1"/><g clip-path="url(#ae343273fa)"><path fill="#c6f135" d="M 77.691406 101.921875 C 77.355469 102.207031 77.011719 102.480469 76.65625 102.742188 C 76.304688 103.003906 75.941406 103.253906 75.574219 103.496094 C 75.207031 103.734375 74.832031 103.960938 74.449219 104.179688 C 74.066406 104.394531 73.675781 104.597656 73.28125 104.789062 C 72.886719 104.984375 72.484375 105.164062 72.078125 105.328125 C 71.671875 105.496094 71.257812 105.652344 70.84375 105.792969 C 70.425781 105.933594 70.007812 106.0625 69.582031 106.179688 C 69.160156 106.292969 68.730469 106.394531 68.300781 106.484375 C 67.871094 106.574219 67.4375 106.648438 67 106.710938 C 66.566406 106.773438 66.128906 106.820312 65.691406 106.855469 C 65.253906 106.890625 64.816406 106.914062 64.375 106.921875 C 63.933594 106.929688 63.496094 106.921875 63.058594 106.902344 C 62.617188 106.882812 62.179688 106.847656 61.742188 106.800781 C 61.304688 106.753906 60.871094 106.695312 60.4375 106.621094 C 60.003906 106.546875 59.574219 106.457031 59.144531 106.359375 C 58.71875 106.257812 58.292969 106.144531 57.871094 106.015625 C 57.449219 105.890625 57.035156 105.75 56.621094 105.59375 C 56.210938 105.441406 55.804688 105.277344 55.402344 105.097656 C 55 104.921875 54.605469 104.730469 54.214844 104.527344 C 53.824219 104.324219 53.441406 104.109375 53.0625 103.882812 C 52.6875 103.65625 52.316406 103.417969 51.957031 103.167969 C 51.59375 102.917969 51.242188 102.65625 50.894531 102.382812 C 50.550781 102.113281 50.214844 101.832031 49.886719 101.539062 C 49.558594 101.246094 49.238281 100.941406 48.929688 100.628906 C 48.621094 100.316406 48.320312 99.996094 48.03125 99.664062 C 47.742188 99.332031 47.464844 98.992188 47.195312 98.644531 C 46.925781 98.296875 46.671875 97.941406 46.425781 97.574219 C 46.179688 97.210938 45.945312 96.839844 45.722656 96.460938 C 45.5 96.082031 45.289062 95.695312 45.089844 95.304688 C 44.890625 94.910156 44.703125 94.515625 44.53125 94.109375 C 44.355469 93.707031 44.195312 93.296875 44.046875 92.882812 C 43.898438 92.46875 43.761719 92.054688 43.636719 91.628906 C 43.515625 91.207031 43.40625 90.78125 43.308594 90.355469 C 43.214844 89.925781 43.128906 89.492188 43.0625 89.058594 C 42.992188 88.625 42.9375 88.1875 42.894531 87.75 C 42.851562 87.3125 42.824219 86.875 42.808594 86.4375 C 42.792969 85.996094 42.789062 85.558594 42.804688 85.117188 C 42.816406 84.679688 42.839844 84.238281 42.878906 83.800781 C 42.921875 83.363281 42.972656 82.929688 43.039062 82.492188 C 43.105469 82.058594 43.1875 81.628906 43.28125 81.199219 C 43.375 80.769531 43.480469 80.339844 43.601562 79.917969 C 43.71875 79.496094 43.851562 79.078125 44 78.664062 C 44.144531 78.246094 44.304688 77.835938 44.476562 77.433594 C 44.648438 77.027344 44.832031 76.628906 45.027344 76.234375 C 45.222656 75.84375 45.429688 75.457031 45.652344 75.074219 C 45.871094 74.695312 46.105469 74.320312 46.347656 73.957031 C 46.589844 73.589844 46.84375 73.230469 47.113281 72.882812 C 47.378906 72.53125 47.652344 72.1875 47.941406 71.855469 C 48.226562 71.523438 48.523438 71.199219 48.832031 70.886719 C 49.140625 70.570312 49.457031 70.265625 49.78125 69.972656 C 50.109375 69.675781 50.441406 69.390625 50.785156 69.117188 C 51.128906 68.84375 51.484375 68.582031 51.84375 68.328125 C 52.203125 68.078125 52.570312 67.835938 52.945312 67.605469 C 53.320312 67.378906 53.703125 67.160156 54.089844 66.953125 C 54.480469 66.75 54.875 66.554688 55.273438 66.375 C 55.675781 66.191406 56.082031 66.023438 56.492188 65.867188 C 56.902344 65.714844 57.320312 65.570312 57.738281 65.441406 C 58.160156 65.3125 58.582031 65.195312 59.011719 65.089844 C 59.4375 64.988281 59.867188 64.894531 60.300781 64.820312 C 60.734375 64.742188 61.167969 64.679688 61.605469 64.628906 C 62.042969 64.578125 62.480469 64.542969 62.917969 64.519531 C 63.355469 64.496094 63.796875 64.488281 64.234375 64.492188 C 64.675781 64.5 65.113281 64.515625 65.554688 64.546875 C 65.992188 64.582031 66.429688 64.625 66.863281 64.683594 C 66.902344 64.6875 66.9375 64.695312 66.972656 64.699219 C 68.085938 64.859375 69.179688 65.105469 70.253906 65.4375 C 71.328125 65.769531 72.367188 66.1875 73.375 66.683594 C 74.382812 67.183594 75.347656 67.757812 76.261719 68.40625 C 77.179688 69.058594 78.039062 69.777344 78.84375 70.5625 C 79.648438 71.347656 80.382812 72.195312 81.050781 73.097656 C 81.71875 74 82.3125 74.953125 82.832031 75.949219 C 83.351562 76.945312 83.785156 77.980469 84.140625 79.046875 C 84.496094 80.113281 84.765625 81.199219 84.945312 82.308594 C 85.285156 82.328125 85.625 82.339844 85.96875 82.339844 C 89.035156 82.34375 91.90625 81.589844 94.578125 80.082031 C 94.140625 79.8125 93.867188 79.425781 93.757812 78.929688 C 92.996094 75.585938 91.707031 72.460938 89.886719 69.550781 C 89.65625 69.222656 89.542969 68.859375 89.550781 68.460938 C 89.554688 68.058594 89.679688 67.699219 89.921875 67.378906 L 95.246094 60.351562 L 89.359375 54.464844 L 82.332031 59.792969 L 82.332031 59.789062 C 82.027344 60.019531 81.683594 60.144531 81.300781 60.160156 C 80.917969 60.175781 80.566406 60.082031 80.246094 59.878906 C 77.328125 58.042969 74.191406 56.738281 70.832031 55.964844 C 70.445312 55.886719 70.117188 55.707031 69.847656 55.421875 C 69.578125 55.132812 69.414062 54.796875 69.363281 54.40625 L 69.15625 52.914062 C 69.140625 52.832031 69.128906 52.753906 69.125 52.671875 L 68.160156 45.679688 L 64 45.679688 L 64 45.6875 L 59.832031 45.6875 L 58.632812 54.398438 C 58.582031 54.78125 58.425781 55.113281 58.167969 55.398438 C 57.90625 55.683594 57.589844 55.871094 57.210938 55.953125 C 53.871094 56.714844 50.746094 58.007812 47.835938 59.824219 C 47.511719 60.054688 47.144531 60.167969 46.746094 60.160156 C 46.34375 60.15625 45.984375 60.03125 45.664062 59.789062 L 38.636719 54.464844 L 32.75 60.351562 L 38.074219 67.378906 L 38.070312 67.378906 C 38.300781 67.683594 38.425781 68.027344 38.441406 68.410156 C 38.457031 68.789062 38.363281 69.144531 38.160156 69.464844 C 36.324219 72.382812 35.019531 75.519531 34.246094 78.878906 C 34.171875 79.265625 33.992188 79.59375 33.703125 79.863281 C 33.417969 80.132812 33.078125 80.296875 32.6875 80.347656 L 23.960938 81.550781 L 23.960938 85.714844 L 23.96875 85.714844 L 23.96875 89.878906 L 32.679688 91.078125 C 33.0625 91.128906 33.398438 91.28125 33.683594 91.542969 C 33.96875 91.804688 34.152344 92.121094 34.238281 92.5 C 35 95.84375 36.289062 98.96875 38.109375 101.875 C 38.339844 102.203125 38.449219 102.566406 38.445312 102.96875 C 38.4375 103.367188 38.316406 103.726562 38.074219 104.046875 L 32.75 111.074219 L 38.636719 116.960938 L 45.664062 111.636719 L 45.664062 111.640625 C 45.96875 111.410156 46.3125 111.285156 46.691406 111.269531 C 47.074219 111.253906 47.425781 111.347656 47.75 111.550781 C 50.667969 113.386719 53.804688 114.691406 57.164062 115.464844 C 57.550781 115.539062 57.878906 115.722656 58.148438 116.007812 C 58.417969 116.292969 58.578125 116.632812 58.628906 117.023438 L 59.832031 125.75 L 64 125.75 L 64 125.742188 L 68.164062 125.742188 L 69.363281 117.03125 C 69.414062 116.648438 69.566406 116.3125 69.828125 116.027344 C 70.089844 115.742188 70.40625 115.558594 70.785156 115.472656 C 74.125 114.710938 77.25 113.421875 80.160156 111.601562 C 80.488281 111.371094 80.851562 111.257812 81.25 111.265625 C 81.652344 111.273438 82.011719 111.394531 82.332031 111.636719 L 89.359375 116.960938 L 95.246094 111.074219 L 92.957031 108.054688 C 92.609375 108.363281 92.199219 108.515625 91.734375 108.515625 L 91.734375 108.519531 L 85.964844 108.519531 L 85.964844 108.515625 L 80.199219 108.515625 C 79.976562 108.515625 79.761719 108.476562 79.554688 108.398438 C 79.347656 108.320312 79.160156 108.207031 78.992188 108.058594 C 78.824219 107.914062 78.6875 107.742188 78.582031 107.546875 C 78.476562 107.351562 78.410156 107.144531 78.382812 106.921875 L 78.378906 106.921875 L 77.691406 101.925781 Z M 105.769531 138.195312 C 105.9375 138.367188 106.066406 138.566406 106.160156 138.792969 C 106.25 139.015625 106.292969 139.25 106.292969 139.492188 C 106.292969 139.734375 106.246094 139.96875 106.152344 140.191406 C 106.058594 140.417969 105.925781 140.613281 105.753906 140.785156 C 105.582031 140.957031 105.382812 141.089844 105.160156 141.183594 C 104.9375 141.277344 104.703125 141.324219 104.460938 141.324219 C 104.21875 141.328125 103.984375 141.28125 103.757812 141.191406 C 103.535156 141.101562 103.335938 140.96875 103.160156 140.800781 L 93.289062 130.929688 C 93.21875 130.859375 93.15625 130.785156 93.097656 130.707031 L 93.09375 130.699219 L 93.070312 130.667969 L 93.066406 130.664062 L 93.042969 130.628906 L 93.039062 130.625 L 93.019531 130.59375 L 93.015625 130.585938 L 92.992188 130.550781 C 92.976562 130.523438 92.964844 130.5 92.949219 130.472656 C 92.648438 129.902344 92.648438 129.328125 92.949219 128.757812 C 92.964844 128.730469 92.976562 128.707031 92.992188 128.679688 L 93.015625 128.644531 L 93.019531 128.636719 L 93.039062 128.605469 L 93.042969 128.601562 L 93.066406 128.566406 L 93.070312 128.5625 L 93.09375 128.53125 L 93.097656 128.523438 C 93.15625 128.445312 93.21875 128.371094 93.289062 128.300781 L 103.164062 118.429688 C 103.335938 118.257812 103.535156 118.128906 103.761719 118.035156 C 103.984375 117.945312 104.21875 117.902344 104.460938 117.902344 C 104.703125 117.902344 104.9375 117.953125 105.160156 118.042969 C 105.386719 118.136719 105.582031 118.269531 105.753906 118.441406 C 105.925781 118.613281 106.058594 118.8125 106.152344 119.035156 C 106.246094 119.257812 106.292969 119.492188 106.292969 119.734375 C 106.296875 119.976562 106.25 120.210938 106.160156 120.4375 C 106.070312 120.660156 105.9375 120.859375 105.769531 121.035156 L 99.03125 127.769531 L 126 127.769531 L 126 91.121094 C 126 90.875 126.046875 90.640625 126.140625 90.414062 C 126.234375 90.1875 126.367188 89.988281 126.539062 89.816406 C 126.710938 89.644531 126.910156 89.511719 127.136719 89.417969 C 127.363281 89.324219 127.597656 89.277344 127.84375 89.277344 C 128.085938 89.277344 128.320312 89.324219 128.546875 89.417969 C 128.773438 89.511719 128.972656 89.644531 129.144531 89.816406 C 129.316406 89.988281 129.453125 90.1875 129.546875 90.414062 C 129.636719 90.640625 129.683594 90.875 129.683594 91.121094 L 129.683594 129.613281 C 129.683594 129.859375 129.636719 130.09375 129.542969 130.320312 C 129.449219 130.546875 129.316406 130.746094 129.144531 130.917969 C 128.972656 131.089844 128.773438 131.222656 128.546875 131.316406 C 128.320312 131.410156 128.085938 131.457031 127.839844 131.457031 L 99.03125 131.457031 L 105.769531 138.191406 Z M 44.195312 11.773438 C 44.027344 11.597656 43.898438 11.398438 43.804688 11.175781 C 43.714844 10.949219 43.671875 10.714844 43.671875 10.472656 C 43.671875 10.230469 43.71875 9.996094 43.8125 9.773438 C 43.90625 9.550781 44.039062 9.351562 44.210938 9.179688 C 44.382812 9.007812 44.582031 8.875 44.804688 8.78125 C 45.027344 8.691406 45.261719 8.640625 45.503906 8.640625 C 45.746094 8.640625 45.980469 8.683594 46.207031 8.773438 C 46.429688 8.867188 46.628906 8.996094 46.804688 9.167969 L 56.675781 19.035156 C 56.746094 19.105469 56.808594 19.179688 56.867188 19.261719 L 56.871094 19.265625 L 56.894531 19.296875 L 56.898438 19.304688 L 56.921875 19.335938 L 56.925781 19.339844 L 56.945312 19.375 L 56.949219 19.378906 L 56.972656 19.414062 C 56.984375 19.441406 57 19.46875 57.015625 19.496094 C 57.3125 20.066406 57.3125 20.636719 57.015625 21.207031 C 57 21.234375 56.984375 21.261719 56.972656 21.285156 L 56.949219 21.320312 L 56.945312 21.328125 L 56.925781 21.359375 L 56.921875 21.367188 L 56.898438 21.398438 L 56.894531 21.40625 L 56.871094 21.433594 L 56.867188 21.441406 C 56.808594 21.519531 56.746094 21.597656 56.675781 21.664062 L 46.804688 31.535156 C 46.632812 31.710938 46.433594 31.847656 46.207031 31.945312 C 45.980469 32.039062 45.742188 32.089844 45.496094 32.089844 C 45.25 32.089844 45.011719 32.046875 44.785156 31.953125 C 44.558594 31.859375 44.355469 31.722656 44.183594 31.550781 C 44.007812 31.375 43.875 31.175781 43.78125 30.949219 C 43.6875 30.71875 43.640625 30.484375 43.644531 30.238281 C 43.644531 29.992188 43.691406 29.753906 43.789062 29.527344 C 43.886719 29.300781 44.019531 29.101562 44.195312 28.929688 L 50.933594 22.191406 L 23.96875 22.191406 L 23.96875 58.847656 C 23.96875 59.09375 23.921875 59.328125 23.828125 59.554688 C 23.734375 59.78125 23.601562 59.980469 23.425781 60.152344 C 23.253906 60.324219 23.054688 60.457031 22.828125 60.550781 C 22.605469 60.644531 22.367188 60.691406 22.125 60.691406 C 21.878906 60.691406 21.644531 60.644531 21.417969 60.550781 C 21.191406 60.457031 20.992188 60.324219 20.820312 60.152344 C 20.648438 59.980469 20.515625 59.78125 20.421875 59.554688 C 20.328125 59.328125 20.28125 59.09375 20.28125 58.847656 L 20.28125 20.351562 C 20.28125 20.109375 20.328125 19.871094 20.421875 19.648438 C 20.515625 19.421875 20.648438 19.222656 20.820312 19.046875 C 20.992188 18.875 21.195312 18.742188 21.417969 18.648438 C 21.644531 18.554688 21.878906 18.507812 22.125 18.507812 L 50.933594 18.507812 Z M 80.808594 97.609375 L 80.601562 96.113281 C 80.546875 95.722656 80.386719 95.386719 80.117188 95.097656 C 79.847656 94.8125 79.519531 94.632812 79.136719 94.554688 C 75.777344 93.78125 72.636719 92.476562 69.722656 90.640625 C 69.398438 90.4375 69.046875 90.34375 68.664062 90.359375 C 68.28125 90.375 67.941406 90.5 67.636719 90.730469 L 67.636719 90.726562 L 60.609375 96.054688 L 54.71875 90.164062 L 60.046875 83.140625 C 60.285156 82.820312 60.410156 82.460938 60.417969 82.058594 C 60.421875 81.65625 60.308594 81.292969 60.078125 80.964844 C 58.261719 78.058594 56.972656 74.933594 56.207031 71.589844 C 56.097656 71.089844 55.824219 70.707031 55.390625 70.433594 C 58.0625 68.925781 60.929688 68.171875 64 68.179688 C 64.339844 68.179688 64.679688 68.1875 65.019531 68.207031 C 65.203125 69.316406 65.46875 70.402344 65.824219 71.46875 C 66.179688 72.539062 66.613281 73.570312 67.132812 74.566406 C 67.652344 75.566406 68.246094 76.515625 68.914062 77.417969 C 69.582031 78.320312 70.320312 79.167969 71.121094 79.953125 C 71.925781 80.742188 72.785156 81.460938 73.703125 82.109375 C 74.617188 82.761719 75.582031 83.335938 76.589844 83.832031 C 77.597656 84.328125 78.636719 84.746094 79.710938 85.078125 C 80.785156 85.410156 81.878906 85.65625 82.992188 85.816406 C 83.027344 85.824219 83.066406 85.828125 83.105469 85.832031 C 84.054688 85.960938 85.011719 86.023438 85.96875 86.023438 C 86.820312 86.023438 87.667969 85.972656 88.511719 85.871094 C 89.359375 85.769531 90.195312 85.621094 91.019531 85.417969 C 91.847656 85.214844 92.65625 84.964844 93.453125 84.664062 C 94.25 84.363281 95.027344 84.019531 95.78125 83.625 C 96.535156 83.230469 97.261719 82.796875 97.964844 82.316406 C 98.667969 81.835938 99.339844 81.3125 99.976562 80.753906 C 100.617188 80.191406 101.222656 79.59375 101.789062 78.960938 C 102.355469 78.324219 102.882812 77.660156 103.371094 76.964844 C 103.859375 76.265625 104.304688 75.542969 104.703125 74.792969 C 105.105469 74.039062 105.457031 73.269531 105.765625 72.476562 C 106.074219 71.683594 106.332031 70.875 106.542969 70.046875 C 106.753906 69.222656 106.914062 68.390625 107.023438 67.546875 C 107.132812 66.703125 107.191406 65.855469 107.203125 65.003906 C 107.210938 64.152344 107.167969 63.304688 107.074219 62.460938 C 106.980469 61.613281 106.835938 60.777344 106.640625 59.949219 C 106.445312 59.121094 106.203125 58.308594 105.910156 57.507812 C 105.617188 56.710938 105.277344 55.929688 104.890625 55.171875 C 104.507812 54.414062 104.078125 53.679688 103.601562 52.976562 C 103.128906 52.269531 102.613281 51.59375 102.058594 50.949219 C 101.503906 50.304688 100.910156 49.695312 100.28125 49.121094 C 99.652344 48.546875 98.992188 48.015625 98.300781 47.519531 C 97.609375 47.027344 96.886719 46.574219 96.140625 46.167969 C 95.394531 45.761719 94.625 45.398438 93.835938 45.085938 C 93.042969 44.769531 92.238281 44.503906 91.414062 44.285156 C 90.59375 44.066406 89.761719 43.898438 88.917969 43.78125 C 88.074219 43.664062 87.230469 43.597656 86.378906 43.582031 C 85.527344 43.5625 84.679688 43.597656 83.832031 43.683594 C 82.984375 43.769531 82.148438 43.90625 81.316406 44.09375 C 80.488281 44.28125 79.671875 44.515625 78.871094 44.800781 C 78.066406 45.085938 77.285156 45.417969 76.523438 45.796875 C 75.761719 46.175781 75.027344 46.601562 74.316406 47.066406 C 73.605469 47.535156 72.925781 48.042969 72.273438 48.59375 L 71.585938 43.59375 C 71.554688 43.375 71.488281 43.167969 71.382812 42.972656 C 71.277344 42.773438 71.140625 42.605469 70.972656 42.457031 C 70.804688 42.3125 70.617188 42.199219 70.410156 42.121094 C 70.203125 42.042969 69.988281 42.003906 69.765625 42.003906 L 64 42.003906 L 64 41.996094 L 58.230469 41.996094 L 58.230469 42 C 57.765625 42 57.359375 42.15625 57.011719 42.464844 L 54.71875 39.441406 L 60.605469 33.554688 L 67.632812 38.878906 C 67.953125 39.121094 68.3125 39.246094 68.714844 39.25 C 69.117188 39.257812 69.480469 39.144531 69.804688 38.914062 C 72.714844 37.09375 75.839844 35.804688 79.183594 35.042969 C 79.558594 34.957031 79.878906 34.773438 80.136719 34.488281 C 80.398438 34.203125 80.554688 33.867188 80.601562 33.484375 L 81.800781 24.773438 L 85.964844 24.773438 L 85.964844 24.765625 L 90.132812 24.765625 L 91.332031 33.492188 C 91.386719 33.882812 91.546875 34.222656 91.816406 34.507812 C 92.085938 34.796875 92.414062 34.976562 92.800781 35.054688 C 96.160156 35.824219 99.296875 37.128906 102.210938 38.964844 C 102.535156 39.167969 102.886719 39.261719 103.269531 39.246094 C 103.652344 39.230469 103.996094 39.109375 104.300781 38.878906 L 111.324219 33.554688 L 117.214844 39.445312 L 111.890625 46.46875 C 111.648438 46.789062 111.527344 47.152344 111.519531 47.550781 C 111.515625 47.953125 111.625 48.316406 111.859375 48.644531 C 113.675781 51.550781 114.964844 54.675781 115.726562 58.019531 C 115.8125 58.398438 115.996094 58.714844 116.28125 58.976562 C 116.566406 59.234375 116.902344 59.390625 117.285156 59.441406 L 125.996094 60.640625 L 125.996094 64.804688 L 126.003906 64.804688 L 126.003906 68.96875 L 117.273438 70.171875 C 116.882812 70.222656 116.546875 70.382812 116.257812 70.65625 C 115.972656 70.925781 115.792969 71.253906 115.714844 71.640625 C 114.945312 74.996094 113.640625 78.136719 111.804688 81.050781 C 111.601562 81.375 111.507812 81.726562 111.523438 82.109375 C 111.539062 82.488281 111.660156 82.832031 111.890625 83.136719 L 117.214844 90.164062 L 111.328125 96.054688 L 104.300781 90.726562 C 103.980469 90.488281 103.621094 90.363281 103.222656 90.355469 C 102.820312 90.351562 102.457031 90.464844 102.128906 90.695312 C 99.222656 92.511719 96.097656 93.800781 92.753906 94.566406 C 92.378906 94.648438 92.058594 94.835938 91.800781 95.121094 C 91.539062 95.40625 91.382812 95.738281 91.335938 96.121094 L 90.136719 104.832031 L 85.964844 104.832031 L 85.964844 104.839844 L 81.800781 104.839844 L 80.839844 97.84375 C 80.832031 97.765625 80.824219 97.6875 80.808594 97.609375 Z M 80.808594 97.609375 " fill-opacity="1" fill-rule="evenodd"/></g></svg>