<svg xmlns="http://www.w3.org/2000/svg" xmlns:xlink="http://www.w3.org/1999/xlink" width="200" zoomAndPan="magnify" viewBox="0 0 150 149.999998" height="200" preserveAspectRatio="xMidYMid meet" version="1.0"><defs><clipPath id="f814032b30"><path d="M 11.28125 12.714844 L 130.53125 12.714844 L 130.53125 134.214844 L 11.28125 134.214844 Z M 11.28125 12.714844 " clip-rule="nonzero"/></clipPath></defs><g clip-path="url(#f814032b30)"><path fill="#c6f135" d="M 73.503906 30.828125 L 73.503906 39.445312 C 81.773438 39.804688 89.277344 43.113281 94.988281 48.34375 L 113.6875 29.644531 C 112.566406 28.070312 112.003906 26.21875 112.003906 24.367188 C 112.003906 22.039062 112.894531 19.710938 114.667969 17.933594 C 116.445312 16.160156 118.773438 15.269531 121.101562 15.269531 C 123.429688 15.269531 125.757812 16.160156 127.535156 17.933594 C 129.308594 19.710938 130.199219 22.039062 130.199219 24.367188 C 130.199219 26.695312 129.308594 29.023438 127.535156 30.800781 C 125.757812 32.574219 123.429688 33.464844 121.101562 33.464844 C 119.25 33.464844 117.398438 32.902344 115.824219 31.78125 L 97.125 50.480469 C 102.671875 56.539062 106.058594 64.613281 106.058594 73.476562 C 106.058594 82.339844 102.671875 90.410156 97.125 96.472656 L 103.21875 102.5625 C 104.792969 101.441406 106.640625 100.878906 108.492188 100.878906 C 110.820312 100.878906 113.148438 101.765625 114.925781 103.542969 C 116.703125 105.320312 117.59375 107.648438 117.59375 109.976562 C 117.59375 112.304688 116.703125 114.632812 114.925781 116.410156 C 113.148438 118.183594 110.820312 119.074219 108.492188 119.074219 C 106.164062 119.074219 103.835938 118.183594 102.0625 116.410156 C 100.285156 114.632812 99.394531 112.304688 99.394531 109.976562 C 99.394531 108.125 99.957031 106.273438 101.082031 104.699219 L 94.988281 98.609375 C 89.273438 103.839844 81.773438 107.148438 73.503906 107.507812 L 73.503906 116.125 C 75.414062 116.445312 77.117188 117.355469 78.425781 118.664062 C 80.070312 120.308594 81.089844 122.582031 81.089844 125.09375 C 81.089844 127.609375 80.074219 129.882812 78.425781 131.527344 C 76.78125 133.171875 74.503906 134.195312 71.992188 134.195312 C 69.480469 134.195312 67.207031 133.175781 65.5625 131.527344 C 63.914062 129.882812 62.894531 127.609375 62.894531 125.09375 C 62.894531 122.582031 63.914062 120.308594 65.5625 118.664062 C 66.867188 117.355469 68.578125 116.445312 70.480469 116.125 L 70.480469 107.507812 C 62.210938 107.148438 54.710938 103.839844 48.996094 98.609375 L 30.296875 117.308594 C 31.421875 118.882812 31.984375 120.730469 31.984375 122.582031 C 31.984375 124.910156 31.09375 127.238281 29.316406 129.015625 C 27.542969 130.792969 25.214844 131.683594 22.886719 131.683594 C 20.558594 131.683594 18.230469 130.792969 16.453125 129.015625 C 14.675781 127.238281 13.789062 124.910156 13.789062 122.582031 C 13.789062 120.253906 14.675781 117.925781 16.453125 116.152344 C 18.230469 114.375 20.558594 113.484375 22.886719 113.484375 C 24.738281 113.484375 26.585938 114.046875 28.160156 115.171875 L 46.859375 96.472656 C 41.628906 90.757812 38.324219 83.253906 37.960938 74.988281 L 29.34375 74.988281 C 29.023438 76.894531 28.113281 78.601562 26.804688 79.90625 C 25.160156 81.554688 22.886719 82.574219 20.375 82.574219 C 17.859375 82.574219 15.585938 81.554688 13.941406 79.90625 C 12.296875 78.261719 11.273438 75.988281 11.273438 73.476562 C 11.273438 70.964844 12.292969 68.6875 13.941406 67.042969 C 15.585938 65.398438 17.859375 64.378906 20.375 64.378906 C 22.886719 64.378906 25.160156 65.394531 26.804688 67.042969 C 28.113281 68.351562 29.023438 70.058594 29.34375 71.964844 L 37.960938 71.964844 C 38.347656 63.15625 42.074219 55.21875 47.90625 49.386719 C 53.738281 43.554688 61.679688 39.828125 70.484375 39.441406 L 70.484375 30.824219 C 68.578125 30.503906 66.871094 29.59375 65.5625 28.285156 C 63.917969 26.640625 62.898438 24.363281 62.898438 21.851562 C 62.898438 19.339844 63.914062 17.066406 65.5625 15.421875 C 67.207031 13.773438 69.484375 12.753906 71.996094 12.753906 C 74.507812 12.753906 76.78125 13.773438 78.429688 15.421875 C 80.074219 17.066406 81.09375 19.339844 81.09375 21.851562 C 81.09375 24.363281 80.074219 26.640625 78.429688 28.285156 C 77.117188 29.59375 75.414062 30.503906 73.507812 30.824219 Z M 93.945312 51.523438 C 88.328125 45.90625 80.566406 42.433594 71.992188 42.433594 C 63.417969 42.433594 55.660156 45.90625 50.039062 51.523438 C 44.421875 57.144531 40.949219 64.902344 40.949219 73.476562 C 40.949219 82.050781 44.421875 89.8125 50.039062 95.429688 C 55.660156 101.050781 63.417969 104.523438 71.992188 104.523438 C 80.566406 104.523438 88.328125 101.050781 93.945312 95.429688 C 99.566406 89.8125 103.039062 82.050781 103.039062 73.476562 C 103.039062 64.902344 99.566406 57.144531 93.945312 51.523438 Z M 28.957031 122.589844 C 28.957031 121.035156 28.363281 119.480469 27.179688 118.292969 C 25.992188 117.105469 24.4375 116.515625 22.882812 116.515625 C 21.328125 116.515625 19.773438 117.105469 18.585938 118.292969 C 17.398438 119.480469 16.808594 121.035156 16.808594 122.589844 C 16.808594 124.144531 17.398438 125.699219 18.585938 126.882812 C 19.773438 128.070312 21.328125 128.664062 22.882812 128.664062 C 24.4375 128.664062 25.992188 128.070312 27.179688 126.882812 C 28.363281 125.699219 28.957031 124.144531 28.957031 122.589844 Z M 127.179688 24.367188 C 127.179688 22.8125 126.585938 21.257812 125.398438 20.070312 C 124.214844 18.886719 122.660156 18.292969 121.105469 18.292969 C 119.550781 18.292969 117.996094 18.886719 116.808594 20.070312 C 115.621094 21.257812 115.03125 22.8125 115.03125 24.367188 C 115.03125 25.921875 115.621094 27.476562 116.808594 28.664062 C 117.996094 29.851562 119.550781 30.441406 121.105469 30.441406 C 122.660156 30.441406 124.214844 29.851562 125.398438 28.664062 C 126.585938 27.476562 127.179688 25.921875 127.179688 24.367188 Z M 24.667969 77.773438 C 25.765625 76.675781 26.445312 75.15625 26.445312 73.476562 C 26.445312 71.800781 25.765625 70.28125 24.667969 69.183594 C 23.566406 68.082031 22.046875 67.402344 20.371094 67.402344 C 18.691406 67.402344 17.171875 68.082031 16.074219 69.183594 C 14.976562 70.28125 14.296875 71.800781 14.296875 73.476562 C 14.296875 75.15625 14.976562 76.675781 16.074219 77.773438 C 17.171875 78.871094 18.691406 79.550781 20.371094 79.550781 C 22.046875 79.550781 23.566406 78.871094 24.667969 77.773438 Z M 76.289062 120.804688 C 75.191406 119.707031 73.671875 119.027344 71.992188 119.027344 C 70.316406 119.027344 68.796875 119.707031 67.699219 120.804688 C 66.597656 121.902344 65.917969 123.421875 65.917969 125.101562 C 65.917969 126.777344 66.597656 128.296875 67.699219 129.398438 C 68.796875 130.496094 70.316406 131.175781 71.992188 131.175781 C 73.671875 131.175781 75.191406 130.496094 76.289062 129.398438 C 77.386719 128.296875 78.066406 126.777344 78.066406 125.101562 C 78.066406 123.421875 77.386719 121.902344 76.289062 120.804688 Z M 108.496094 116.054688 C 110.050781 116.054688 111.605469 115.464844 112.792969 114.277344 C 113.980469 113.089844 114.570312 111.535156 114.570312 109.980469 C 114.570312 108.425781 113.980469 106.871094 112.792969 105.683594 C 111.605469 104.5 110.050781 103.90625 108.496094 103.90625 C 106.941406 103.90625 105.386719 104.5 104.199219 105.683594 C 103.015625 106.871094 102.421875 108.425781 102.421875 109.980469 C 102.421875 111.535156 103.015625 113.089844 104.199219 114.277344 C 105.386719 115.464844 106.941406 116.054688 108.496094 116.054688 Z M 76.289062 17.558594 C 75.191406 16.460938 73.671875 15.78125 71.992188 15.78125 C 70.316406 15.78125 68.796875 16.460938 67.699219 17.558594 C 66.597656 18.65625 65.917969 20.175781 65.917969 21.855469 C 65.917969 23.535156 66.597656 25.050781 67.699219 26.152344 C 68.796875 27.25 70.316406 27.929688 71.992188 27.929688 C 73.671875 27.929688 75.191406 27.25 76.289062 26.152344 C 77.386719 25.050781 78.066406 23.535156 78.066406 21.855469 C 78.066406 20.175781 77.386719 18.65625 76.289062 17.558594 Z M 76.289062 17.558594 " fill-opacity="1" fill-rule="evenodd"/></g><path fill="#c6f135" d="M 50.828125 94.640625 C 56.460938 100.273438 64.027344 103.40625 71.992188 103.40625 C 79.960938 103.40625 87.527344 100.273438 93.15625 94.640625 C 98.789062 89.011719 101.921875 81.445312 101.921875 73.476562 C 101.921875 65.511719 98.789062 57.945312 93.15625 52.3125 C 87.527344 46.683594 79.960938 43.546875 71.992188 43.546875 C 64.027344 43.546875 56.460938 46.683594 50.828125 52.3125 C 45.199219 57.945312 42.0625 65.511719 42.0625 73.476562 C 42.0625 81.445312 45.199219 89.011719 50.828125 94.640625 Z M 92.984375 91.328125 L 50.992188 91.328125 C 50.160156 91.328125 49.480469 90.652344 49.480469 89.816406 C 49.480469 88.984375 50.160156 88.304688 50.992188 88.304688 L 52.609375 88.304688 L 52.609375 55.867188 C 52.609375 55.035156 53.277344 54.355469 54.109375 54.355469 L 76.46875 54.355469 C 77.300781 54.355469 77.980469 55.035156 77.980469 55.867188 L 77.980469 67.027344 L 89.863281 67.027344 C 90.699219 67.027344 91.375 67.707031 91.375 68.539062 L 91.375 88.304688 L 92.980469 88.304688 C 93.816406 88.304688 94.492188 88.980469 94.492188 89.816406 C 94.492188 90.652344 93.8125 91.328125 92.980469 91.328125 Z M 92.984375 91.328125 " fill-opacity="1" fill-rule="evenodd"/><path fill="#c6f135" d="M 65.296875 73.960938 C 66.128906 73.960938 66.808594 74.636719 66.808594 75.472656 L 66.808594 77.144531 C 66.808594 77.980469 66.128906 78.65625 65.296875 78.65625 C 64.464844 78.65625 63.785156 77.980469 63.785156 77.144531 L 63.785156 75.472656 C 63.785156 74.636719 64.453125 73.960938 65.296875 73.960938 Z M 55.625 88.304688 L 69.371094 88.304688 L 69.371094 68.539062 C 69.371094 67.707031 70.039062 67.027344 70.882812 67.027344 L 74.957031 67.027344 L 74.957031 57.378906 L 55.621094 57.378906 L 55.621094 88.304688 Z M 69.371094 63.289062 L 69.371094 61.613281 C 69.371094 60.777344 70.039062 60.101562 70.882812 60.101562 C 71.726562 60.101562 72.394531 60.777344 72.394531 61.613281 L 72.394531 63.289062 C 72.394531 64.121094 71.714844 64.800781 70.882812 64.800781 C 70.050781 64.800781 69.371094 64.121094 69.371094 63.289062 Z M 66.808594 61.609375 L 66.808594 63.285156 C 66.808594 64.121094 66.128906 64.796875 65.296875 64.796875 C 64.464844 64.796875 63.785156 64.121094 63.785156 63.285156 L 63.785156 61.609375 C 63.785156 60.773438 64.453125 60.097656 65.296875 60.097656 C 66.140625 60.097656 66.808594 60.773438 66.808594 61.609375 Z M 66.808594 68.539062 L 66.808594 70.214844 C 66.808594 71.050781 66.128906 71.726562 65.296875 71.726562 C 64.464844 71.726562 63.785156 71.050781 63.785156 70.214844 L 63.785156 68.539062 C 63.785156 67.707031 64.453125 67.027344 65.296875 67.027344 C 66.140625 67.027344 66.808594 67.707031 66.808594 68.539062 Z M 66.808594 82.398438 L 66.808594 84.074219 C 66.808594 84.910156 66.128906 85.585938 65.296875 85.585938 C 64.464844 85.585938 63.785156 84.910156 63.785156 84.074219 L 63.785156 82.398438 C 63.785156 81.566406 64.453125 80.886719 65.296875 80.886719 C 66.140625 80.886719 66.808594 81.566406 66.808594 82.398438 Z M 61.210938 68.539062 L 61.210938 70.214844 C 61.210938 71.050781 60.542969 71.726562 59.707031 71.726562 C 58.875 71.726562 58.195312 71.050781 58.195312 70.214844 L 58.195312 68.539062 C 58.195312 67.707031 58.863281 67.027344 59.707031 67.027344 C 60.550781 67.027344 61.210938 67.707031 61.210938 68.539062 Z M 61.210938 75.472656 L 61.210938 77.144531 C 61.210938 77.980469 60.542969 78.65625 59.707031 78.65625 C 58.875 78.65625 58.195312 77.980469 58.195312 77.144531 L 58.195312 75.472656 C 58.195312 74.636719 58.863281 73.960938 59.707031 73.960938 C 60.550781 73.960938 61.210938 74.636719 61.210938 75.472656 Z M 61.210938 61.609375 L 61.210938 63.285156 C 61.210938 64.121094 60.542969 64.796875 59.707031 64.796875 C 58.875 64.796875 58.195312 64.121094 58.195312 63.285156 L 58.195312 61.609375 C 58.195312 60.773438 58.863281 60.097656 59.707031 60.097656 C 60.550781 60.097656 61.210938 60.773438 61.210938 61.609375 Z M 61.210938 82.398438 L 61.210938 84.074219 C 61.210938 84.910156 60.542969 85.585938 59.707031 85.585938 C 58.875 85.585938 58.195312 84.910156 58.195312 84.074219 L 58.195312 82.398438 C 58.195312 81.566406 58.863281 80.886719 59.707031 80.886719 C 60.550781 80.886719 61.210938 81.566406 61.210938 82.398438 Z M 61.210938 82.398438 " fill-opacity="1" fill-rule="evenodd"/><path fill="#c6f135" d="M 79.257812 73.859375 C 79.257812 74.695312 78.578125 75.371094 77.746094 75.371094 L 76.066406 75.371094 C 75.234375 75.371094 74.554688 74.691406 74.554688 73.859375 C 74.554688 73.023438 75.234375 72.347656 76.066406 72.347656 L 77.746094 72.347656 C 78.578125 72.347656 79.257812 73.023438 79.257812 73.859375 Z M 72.394531 70.050781 L 72.394531 88.304688 L 88.351562 88.304688 L 88.351562 70.050781 Z M 81.480469 73.859375 C 81.480469 73.023438 82.160156 72.347656 82.992188 72.347656 L 84.667969 72.347656 C 85.503906 72.347656 86.179688 73.023438 86.179688 73.859375 C 86.179688 74.691406 85.5 75.371094 84.667969 75.371094 L 82.992188 75.371094 C 82.15625 75.371094 81.480469 74.691406 81.480469 73.859375 Z M 74.554688 79.179688 C 74.554688 78.34375 75.234375 77.667969 76.066406 77.667969 L 77.746094 77.667969 C 78.578125 77.667969 79.257812 78.34375 79.257812 79.179688 C 79.257812 80.015625 78.578125 80.691406 77.746094 80.691406 L 76.066406 80.691406 C 75.234375 80.691406 74.554688 80.015625 74.554688 79.179688 Z M 81.480469 79.179688 C 81.480469 78.34375 82.160156 77.667969 82.992188 77.667969 L 84.667969 77.667969 C 85.503906 77.667969 86.179688 78.34375 86.179688 79.179688 C 86.179688 80.015625 85.5 80.691406 84.667969 80.691406 L 82.992188 80.691406 C 82.15625 80.691406 81.480469 80.015625 81.480469 79.179688 Z M 74.554688 84.5 C 74.554688 83.664062 75.234375 82.988281 76.066406 82.988281 L 77.746094 82.988281 C 78.578125 82.988281 79.257812 83.664062 79.257812 84.5 C 79.257812 85.332031 78.578125 86.011719 77.746094 86.011719 L 76.066406 86.011719 C 75.234375 86.011719 74.554688 85.335938 74.554688 84.5 Z M 81.480469 84.5 C 81.480469 83.664062 82.160156 82.988281 82.992188 82.988281 L 84.667969 82.988281 C 85.503906 82.988281 86.179688 83.664062 86.179688 84.5 C 86.179688 85.332031 85.5 86.011719 84.667969 86.011719 L 82.992188 86.011719 C 82.15625 86.011719 81.480469 85.335938 81.480469 84.5 Z M 81.480469 84.5 " fill-opacity="1" fill-rule="evenodd"/></svg>