<svg xmlns="http://www.w3.org/2000/svg" xmlns:xlink="http://www.w3.org/1999/xlink" width="200" zoomAndPan="magnify" viewBox="0 0 150 149.999998" height="200" preserveAspectRatio="xMidYMid meet" version="1.0"><defs><clipPath id="a2993fb3c0"><path d="M 21.277344 19.183594 L 128.527344 19.183594 L 128.527344 130.933594 L 21.277344 130.933594 Z M 21.277344 19.183594 " clip-rule="nonzero"/></clipPath></defs><g clip-path="url(#a2993fb3c0)"><path fill="#c6f135" d="M 127.457031 75.046875 C 126.066406 102.367188 104.410156 123.992188 77.082031 125.351562 C 76.605469 125.375 76.175781 125.644531 75.941406 126.058594 C 75.710938 126.472656 75.707031 126.980469 75.933594 127.398438 C 76.417969 128.285156 76.261719 129.40625 75.554688 130.125 C 74.660156 131.035156 73.191406 131.046875 72.28125 130.152344 L 67.25 125.210938 L 65.933594 123.917969 C 65.328125 123.320312 65.320312 122.34375 65.910156 121.738281 L 72.15625 115.386719 C 72.585938 114.949219 73.164062 114.703125 73.78125 114.699219 L 73.800781 114.699219 C 74.417969 114.699219 74.992188 114.9375 75.429688 115.363281 C 76.203125 116.125 76.339844 117.339844 75.757812 118.253906 C 75.476562 118.691406 75.464844 119.25 75.726562 119.695312 C 75.988281 120.144531 76.476562 120.410156 76.996094 120.382812 C 88.875 119.753906 100.0625 114.761719 108.484375 106.324219 C 116.910156 97.882812 121.886719 86.695312 122.5 74.808594 C 122.5625 73.5625 123.585938 72.59375 124.832031 72.59375 L 125.121094 72.59375 C 125.792969 72.59375 126.351562 72.832031 126.816406 73.316406 C 127.28125 73.808594 127.492188 74.375 127.457031 75.046875 Z M 127.183594 48.949219 C 126.28125 48.609375 125.246094 48.878906 124.617188 49.621094 C 124.3125 49.976562 123.847656 50.15625 123.382812 50.09375 C 122.921875 50.035156 122.515625 49.742188 122.3125 49.320312 C 113.515625 31.015625 94.710938 19.183594 74.410156 19.183594 C 63.949219 19.183594 53.828125 22.222656 45.140625 27.976562 C 44.5625 28.355469 44.230469 28.867188 44.121094 29.542969 C 44.007812 30.226562 44.160156 30.820312 44.585938 31.367188 L 44.765625 31.601562 C 45.519531 32.558594 46.871094 32.777344 47.898438 32.101562 C 55.765625 26.902344 64.933594 24.152344 74.410156 24.152344 C 83.890625 24.152344 92.714844 26.800781 100.488281 31.816406 C 108.050781 36.695312 114.085938 43.566406 117.9375 51.683594 C 118.164062 52.15625 118.097656 52.71875 117.773438 53.132812 C 117.449219 53.542969 116.917969 53.738281 116.402344 53.628906 C 116.25 53.597656 116.09375 53.582031 115.941406 53.582031 C 114.992188 53.582031 114.105469 54.175781 113.761719 55.09375 C 113.546875 55.667969 113.570312 56.292969 113.828125 56.859375 C 114.085938 57.425781 114.546875 57.851562 115.121094 58.066406 L 123.460938 61.179688 C 124.257812 61.476562 125.148438 61.066406 125.445312 60.269531 L 126.027344 58.703125 L 128.550781 51.929688 C 128.996094 50.734375 128.382812 49.398438 127.183594 48.949219 Z M 75.253906 60.414062 L 83.804688 60.414062 L 83.804688 53.726562 L 75.253906 53.726562 Z M 21.296875 72.300781 C 21.296875 92.132812 32.222656 110.179688 49.8125 119.386719 C 50.925781 119.96875 52.292969 119.570312 52.917969 118.484375 L 53.066406 118.234375 C 53.40625 117.644531 53.476562 117.066406 53.289062 116.410156 C 53.101562 115.765625 52.722656 115.304688 52.132812 115 C 36.175781 106.648438 26.265625 90.289062 26.265625 72.300781 C 26.265625 64.847656 27.917969 57.703125 31.179688 51.066406 C 31.402344 50.621094 31.84375 50.324219 32.34375 50.296875 C 32.84375 50.269531 33.316406 50.511719 33.585938 50.929688 C 34.085938 51.707031 34.988281 52.117188 35.882812 51.984375 C 37.148438 51.792969 38.019531 50.613281 37.832031 49.351562 L 36.523438 40.542969 C 36.398438 39.710938 35.609375 39.128906 34.769531 39.25 C 33.203125 39.484375 31.632812 39.71875 30.0625 39.949219 C 28.699219 40.152344 27.332031 40.355469 25.96875 40.558594 C 24.707031 40.746094 23.832031 41.925781 24.019531 43.191406 C 24.1875 44.332031 25.191406 45.183594 26.34375 45.160156 C 26.351562 45.160156 26.363281 45.160156 26.367188 45.160156 C 26.851562 45.160156 27.300781 45.410156 27.550781 45.824219 C 27.804688 46.242188 27.820312 46.765625 27.585938 47.199219 C 23.472656 54.859375 21.300781 63.539062 21.300781 72.296875 Z M 72.484375 46.472656 L 57.773438 46.472656 L 56.144531 50.960938 L 72.484375 50.960938 Z M 51.390625 67.054688 C 58.960938 67.054688 65.121094 73.214844 65.121094 80.785156 C 65.121094 88.359375 58.960938 94.527344 51.390625 94.527344 C 43.820312 94.527344 37.652344 88.363281 37.652344 80.785156 C 37.652344 73.210938 43.816406 67.054688 51.390625 67.054688 Z M 51.390625 72.414062 C 50.625 72.414062 50.007812 73.035156 50.007812 73.796875 L 50.007812 80.785156 C 50.007812 81.550781 50.628906 82.167969 51.390625 82.167969 L 58.242188 82.167969 C 59.007812 82.167969 59.625 81.546875 59.625 80.785156 C 59.625 80.023438 59.003906 79.402344 58.242188 79.402344 L 52.773438 79.402344 L 52.773438 73.796875 C 52.773438 73.03125 52.152344 72.414062 51.390625 72.414062 Z M 83.800781 46.472656 L 75.25 46.472656 L 75.25 50.960938 L 83.800781 50.960938 Z M 86.570312 46.472656 L 86.570312 50.960938 L 102.902344 50.960938 L 101.277344 46.472656 Z M 55.554688 53.730469 L 72.484375 53.730469 L 72.484375 61.800781 C 72.484375 62.566406 73.105469 63.183594 73.867188 63.183594 L 85.183594 63.183594 C 85.949219 63.183594 86.566406 62.5625 86.566406 61.800781 L 86.566406 53.730469 L 103.492188 53.730469 L 103.492188 91.667969 L 63.78125 91.667969 C 66.332031 88.761719 67.890625 84.953125 67.890625 80.785156 C 67.890625 73.125 62.640625 66.667969 55.550781 64.820312 L 55.550781 53.730469 Z M 86.785156 79.273438 C 86.785156 80.039062 87.402344 80.65625 88.167969 80.65625 L 98.167969 80.65625 C 98.933594 80.65625 99.550781 80.039062 99.550781 79.273438 C 99.550781 78.511719 98.933594 77.890625 98.167969 77.890625 L 88.167969 77.890625 C 87.402344 77.890625 86.785156 78.511719 86.785156 79.273438 Z M 86.785156 86.277344 C 86.785156 87.042969 87.402344 87.660156 88.167969 87.660156 L 98.167969 87.660156 C 98.933594 87.660156 99.550781 87.039062 99.550781 86.277344 C 99.550781 85.515625 98.933594 84.894531 98.167969 84.894531 L 88.167969 84.894531 C 87.402344 84.894531 86.785156 85.515625 86.785156 86.277344 Z M 86.785156 86.277344 " fill-opacity="1" fill-rule="nonzero"/></g></svg>