<svg xmlns="http://www.w3.org/2000/svg" xmlns:xlink="http://www.w3.org/1999/xlink" width="200" zoomAndPan="magnify" viewBox="0 0 150 149.999998" height="200" preserveAspectRatio="xMidYMid meet" version="1.0"><defs><clipPath id="aff404920f"><path d="M 15 14.46875 L 134.25 14.46875 L 134.25 104 L 15 104 Z M 15 14.46875 " clip-rule="nonzero"/></clipPath></defs><path fill="#c6f135" d="M 65.871094 40.675781 C 65.867188 40.675781 65.867188 40.675781 65.863281 40.675781 C 64.832031 40.675781 63.992188 41.507812 63.988281 42.539062 L 63.964844 47.023438 C 63.964844 47.0625 63.964844 47.101562 63.964844 47.140625 C 63.972656 47.242188 63.976562 47.347656 63.980469 47.453125 C 64.058594 49 64.183594 51.585938 67.265625 53.476562 C 67.28125 53.484375 67.300781 53.496094 67.316406 53.507812 L 72.136719 56.246094 C 72.171875 56.269531 72.214844 56.289062 72.253906 56.308594 C 73.171875 56.746094 74.160156 56.964844 75.144531 56.964844 C 76.132812 56.964844 77.121094 56.746094 78.039062 56.308594 C 78.972656 55.859375 79.367188 54.742188 78.921875 53.808594 C 78.476562 52.875 77.355469 52.476562 76.421875 52.925781 C 75.628906 53.304688 74.722656 53.3125 73.921875 52.949219 L 69.199219 50.265625 C 67.832031 49.414062 67.792969 48.605469 67.726562 47.273438 C 67.722656 47.175781 67.71875 47.082031 67.710938 46.988281 L 67.734375 42.5625 C 67.742188 41.523438 66.90625 40.679688 65.871094 40.675781 Z M 65.871094 40.675781 " fill-opacity="1" fill-rule="nonzero"/><path fill="#c6f135" d="M 76.375 120.777344 C 76.164062 119.765625 75.167969 119.117188 74.15625 119.332031 L 61.398438 122.011719 C 61.167969 122.042969 61.015625 121.929688 60.945312 121.859375 C 60.871094 121.785156 60.753906 121.625 60.792969 121.382812 L 61.433594 117.753906 C 61.53125 117.207031 61.378906 116.648438 61.023438 116.222656 C 60.667969 115.796875 60.140625 115.554688 59.585938 115.554688 L 56.683594 115.554688 C 55.648438 115.554688 54.808594 116.394531 54.808594 117.429688 C 54.808594 118.464844 55.648438 119.300781 56.683594 119.300781 L 57.355469 119.300781 L 57.101562 120.734375 C 56.859375 122.109375 57.304688 123.519531 58.292969 124.507812 C 59.101562 125.320312 60.199219 125.765625 61.328125 125.765625 C 61.574219 125.765625 61.820312 125.746094 62.066406 125.699219 C 62.085938 125.699219 62.109375 125.695312 62.128906 125.6875 L 69.023438 124.238281 L 69.734375 126.703125 C 69.96875 127.523438 70.71875 128.058594 71.535156 128.058594 C 71.707031 128.058594 71.882812 128.03125 72.054688 127.984375 C 73.050781 127.695312 73.621094 126.65625 73.335938 125.664062 L 72.703125 123.46875 L 74.929688 123 C 75.941406 122.785156 76.589844 121.792969 76.375 120.777344 Z M 76.375 120.777344 " fill-opacity="1" fill-rule="nonzero"/><path fill="#c6f135" d="M 49.855469 108.152344 C 50.214844 109.59375 51.664062 109.914062 53.5 110.320312 C 53.648438 110.355469 53.832031 110.394531 54.015625 110.4375 C 53.902344 110.960938 53.757812 111.566406 53.621094 112.101562 C 53.363281 113.105469 53.96875 114.125 54.972656 114.382812 C 55.128906 114.421875 55.285156 114.441406 55.4375 114.441406 C 56.273438 114.441406 57.035156 113.878906 57.253906 113.03125 C 57.585938 111.730469 57.980469 110.027344 57.980469 109.300781 C 57.980469 107.636719 56.4375 107.144531 54.800781 106.769531 C 54.878906 106.6875 54.953125 106.609375 55.023438 106.535156 C 57.355469 104.078125 58.46875 102.78125 58.613281 101.496094 C 58.800781 99.789062 57.792969 97.019531 57.410156 96.050781 C 56.488281 92.472656 58.519531 88.257812 60.964844 85.636719 C 64.867188 81.726562 69.828125 79.574219 74.941406 79.574219 C 78.320312 79.574219 81.292969 80.140625 83.539062 81.21875 C 84.472656 81.664062 85.59375 81.269531 86.039062 80.335938 C 86.488281 79.402344 86.089844 78.285156 85.15625 77.835938 C 82.367188 76.5 78.929688 75.824219 74.941406 75.824219 C 68.816406 75.824219 62.902344 78.378906 58.289062 83.011719 C 58.273438 83.023438 58.261719 83.039062 58.25 83.050781 C 56.539062 84.878906 55.140625 87.132812 54.316406 89.402344 C 53.34375 92.089844 53.171875 94.761719 53.816406 97.132812 C 53.835938 97.199219 53.859375 97.269531 53.886719 97.335938 C 54.425781 98.6875 54.875 100.332031 54.890625 100.960938 C 54.554688 101.585938 53.101562 103.113281 52.304688 103.953125 C 50.347656 106.015625 49.535156 106.871094 49.855469 108.152344 Z M 49.855469 108.152344 " fill-opacity="1" fill-rule="nonzero"/><path fill="#c6f135" d="M 98.179688 94.9375 C 96.554688 88.335938 92.792969 84.125 91.675781 82.992188 C 91.328125 82.636719 90.847656 82.433594 90.347656 82.433594 C 89.855469 82.429688 89.367188 82.628906 89.015625 82.980469 L 85.230469 86.765625 C 82.671875 85.308594 79.789062 84.542969 76.8125 84.542969 C 72.859375 84.542969 69.007812 85.925781 65.960938 88.4375 C 65.164062 89.097656 65.050781 90.277344 65.710938 91.078125 C 66.078125 91.527344 66.617188 91.757812 67.15625 91.757812 C 67.578125 91.757812 68 91.617188 68.347656 91.328125 C 70.722656 89.371094 73.726562 88.292969 76.8125 88.292969 C 78.78125 88.292969 80.699219 88.722656 82.453125 89.542969 L 79.875 92.121094 C 79.109375 91.902344 78.0625 91.691406 76.863281 91.691406 C 70.652344 91.691406 66.144531 96.199219 66.144531 102.410156 C 66.144531 108.320312 70.953125 113.128906 76.863281 113.128906 C 78.726562 113.128906 80.5625 112.640625 82.175781 111.71875 C 83.074219 111.207031 83.386719 110.0625 82.871094 109.164062 C 82.359375 108.265625 81.214844 107.953125 80.316406 108.464844 C 79.269531 109.0625 78.074219 109.378906 76.863281 109.378906 C 73.019531 109.378906 69.894531 106.253906 69.894531 102.410156 C 69.894531 98.941406 72.050781 95.441406 76.863281 95.441406 C 78.367188 95.441406 79.558594 95.976562 79.558594 95.980469 C 80.273438 96.320312 81.128906 96.171875 81.6875 95.609375 L 90.25 87.046875 C 91.609375 88.769531 93.535156 91.761719 94.539062 95.835938 C 96.585938 104.15625 94.082031 110.90625 87.09375 115.902344 C 86.414062 116.390625 86.136719 117.273438 86.421875 118.0625 L 89.558594 126.816406 C 89.832031 127.582031 90.554688 128.058594 91.324219 128.058594 C 91.53125 128.058594 91.746094 128.023438 91.957031 127.945312 C 92.929688 127.597656 93.4375 126.523438 93.085938 125.550781 L 90.417969 118.097656 C 99.699219 110.773438 99.800781 101.523438 98.179688 94.9375 Z M 98.179688 94.9375 " fill-opacity="1" fill-rule="nonzero"/><path fill="#c6f135" d="M 88.511719 102.179688 C 88.511719 101.144531 87.671875 100.308594 86.636719 100.308594 L 77.246094 100.308594 C 76.210938 100.308594 75.371094 101.144531 75.371094 102.179688 C 75.371094 103.214844 76.210938 104.054688 77.246094 104.054688 L 86.636719 104.054688 C 87.671875 104.054688 88.511719 103.214844 88.511719 102.179688 Z M 88.511719 102.179688 " fill-opacity="1" fill-rule="nonzero"/><g clip-path="url(#aff404920f)"><path fill="#c6f135" d="M 129.535156 84.046875 L 129.535156 63.699219 C 129.535156 59.207031 125.882812 55.554688 121.394531 55.554688 L 115.125 55.554688 C 114.089844 55.554688 113.25 56.394531 113.25 57.429688 L 113.25 63.421875 C 113.25 64.457031 114.089844 65.296875 115.125 65.296875 C 116.160156 65.296875 117 64.457031 117 63.421875 L 117 59.304688 L 121.394531 59.304688 C 123.816406 59.304688 125.785156 61.273438 125.785156 63.699219 C 125.785156 66.121094 123.816406 68.089844 121.394531 68.089844 L 101.109375 68.089844 C 100.386719 64.21875 97.578125 61.035156 93.78125 59.859375 L 88.117188 57.972656 L 88.117188 36.589844 C 88.363281 36.53125 88.609375 36.472656 88.859375 36.40625 C 89.628906 36.207031 90.1875 35.546875 90.257812 34.753906 C 90.882812 27.597656 87.28125 21.820312 80.625 19.300781 C 79.65625 18.933594 78.574219 19.421875 78.210938 20.390625 C 77.84375 21.359375 78.332031 22.441406 79.300781 22.808594 C 83.949219 24.566406 86.550781 28.28125 86.578125 33.105469 C 76.894531 35.359375 68.632812 34.703125 63.542969 33.804688 C 63.566406 33.683594 63.582031 33.554688 63.582031 33.421875 C 63.582031 29.136719 65.988281 25.285156 69.617188 23.324219 C 69.582031 23.457031 69.546875 23.585938 69.515625 23.71875 C 68.828125 26.730469 69.121094 29.304688 69.136719 29.410156 C 69.25 30.363281 70.058594 31.0625 70.996094 31.0625 C 71.070312 31.0625 71.144531 31.058594 71.21875 31.050781 C 72.246094 30.929688 72.980469 29.996094 72.859375 28.96875 C 72.847656 28.886719 71.980469 21.007812 77.859375 18.382812 C 78.804688 17.960938 79.226562 16.851562 78.804688 15.90625 C 78.382812 14.960938 77.273438 14.535156 76.328125 14.960938 C 74.503906 15.773438 72.996094 16.988281 71.828125 18.550781 C 65.007812 20.023438 60.035156 26.035156 59.84375 33 C 58.746094 32.710938 58.140625 32.496094 58.113281 32.484375 C 57.144531 32.128906 56.066406 32.625 55.707031 33.597656 C 55.347656 34.566406 55.847656 35.644531 56.820312 36.003906 C 57.203125 36.144531 63.519531 38.410156 73.160156 38.410156 C 76.527344 38.410156 80.300781 38.132812 84.367188 37.390625 L 84.367188 59.324219 C 84.367188 60.132812 84.882812 60.847656 85.648438 61.105469 L 92.617188 63.421875 C 92.628906 63.425781 92.644531 63.433594 92.65625 63.4375 C 94.898438 64.125 96.605469 65.890625 97.253906 68.089844 L 59.390625 68.089844 C 59.914062 65.8125 61.136719 64.4375 63.191406 63.804688 C 63.214844 63.796875 63.242188 63.789062 63.265625 63.78125 L 69.308594 61.632812 C 70.28125 61.289062 70.792969 60.214844 70.445312 59.242188 C 70.097656 58.265625 69.027344 57.753906 68.050781 58.101562 L 62.046875 60.234375 C 59.515625 61.023438 56.414062 63.035156 55.570312 68.089844 L 28.003906 68.089844 C 25.582031 68.089844 23.609375 66.121094 23.609375 63.699219 C 23.609375 61.273438 25.582031 59.304688 28.003906 59.304688 L 32.398438 59.304688 L 32.398438 63.421875 C 32.398438 64.457031 33.234375 65.296875 34.269531 65.296875 C 35.304688 65.296875 36.144531 64.457031 36.144531 63.421875 L 36.144531 57.429688 C 36.144531 56.394531 35.304688 55.554688 34.269531 55.554688 L 28.003906 55.554688 C 23.515625 55.554688 19.863281 59.207031 19.863281 63.699219 L 19.863281 84.050781 C 17.15625 84.234375 15.011719 86.488281 15.011719 89.238281 L 15.011719 98.171875 C 15.011719 101.039062 17.34375 103.375 20.214844 103.375 L 23.570312 103.375 C 26.441406 103.375 28.773438 101.039062 28.773438 98.171875 L 28.773438 89.238281 C 28.773438 86.382812 26.460938 84.058594 23.609375 84.035156 L 23.609375 70.546875 C 24.878906 71.363281 26.386719 71.839844 28.003906 71.839844 L 121.394531 71.839844 C 123.011719 71.839844 124.519531 71.363281 125.785156 70.546875 L 125.785156 84.039062 C 122.980469 84.113281 120.71875 86.414062 120.71875 89.238281 L 120.71875 98.171875 C 120.71875 101.039062 123.054688 103.375 125.921875 103.375 L 129.28125 103.375 C 132.148438 103.375 134.480469 101.039062 134.480469 98.171875 L 134.480469 89.238281 C 134.480469 86.453125 132.285156 84.179688 129.535156 84.046875 Z M 25.023438 89.238281 L 25.023438 98.171875 C 25.023438 98.972656 24.371094 99.625 23.570312 99.625 L 20.214844 99.625 C 19.410156 99.625 18.757812 98.972656 18.757812 98.171875 L 18.757812 89.238281 C 18.757812 88.433594 19.410156 87.78125 20.214844 87.78125 L 23.570312 87.78125 C 24.371094 87.78125 25.023438 88.433594 25.023438 89.238281 Z M 130.734375 98.171875 C 130.734375 98.972656 130.082031 99.625 129.28125 99.625 L 125.921875 99.625 C 125.121094 99.625 124.46875 98.972656 124.46875 98.171875 L 124.46875 89.238281 C 124.46875 88.433594 125.121094 87.78125 125.921875 87.78125 L 129.28125 87.78125 C 130.082031 87.78125 130.734375 88.433594 130.734375 89.238281 Z M 130.734375 98.171875 " fill-opacity="1" fill-rule="nonzero"/></g><path fill="#c6f135" d="M 127.660156 106.796875 C 126.625 106.796875 125.785156 107.636719 125.785156 108.671875 L 125.785156 123.972656 C 125.785156 127.933594 122.5625 131.160156 118.597656 131.160156 L 30.800781 131.160156 C 26.835938 131.160156 23.609375 127.933594 23.609375 123.972656 L 23.609375 108.671875 C 23.609375 107.636719 22.773438 106.796875 21.738281 106.796875 C 20.703125 106.796875 19.863281 107.636719 19.863281 108.671875 L 19.863281 123.972656 C 19.863281 130 24.769531 134.910156 30.800781 134.910156 L 118.597656 134.910156 C 124.628906 134.910156 129.535156 130 129.535156 123.972656 L 129.535156 108.671875 C 129.535156 107.636719 128.695312 106.796875 127.660156 106.796875 Z M 127.660156 106.796875 " fill-opacity="1" fill-rule="nonzero"/><path fill="#c6f135" d="M 105.101562 81.476562 L 114.964844 81.476562 C 116 81.476562 116.839844 80.636719 116.839844 79.601562 C 116.839844 78.566406 116 77.726562 114.964844 77.726562 L 105.101562 77.726562 C 104.066406 77.726562 103.230469 78.566406 103.230469 79.601562 C 103.230469 80.636719 104.066406 81.476562 105.101562 81.476562 Z M 105.101562 81.476562 " fill-opacity="1" fill-rule="nonzero"/><path fill="#c6f135" d="M 105.101562 88.292969 L 110.855469 88.292969 C 111.890625 88.292969 112.730469 87.453125 112.730469 86.417969 C 112.730469 85.382812 111.890625 84.542969 110.855469 84.542969 L 105.101562 84.542969 C 104.066406 84.542969 103.230469 85.382812 103.230469 86.417969 C 103.230469 87.453125 104.066406 88.292969 105.101562 88.292969 Z M 105.101562 88.292969 " fill-opacity="1" fill-rule="nonzero"/><path fill="#c6f135" d="M 42.1875 114.195312 L 32.324219 114.195312 C 31.289062 114.195312 30.453125 115.035156 30.453125 116.070312 C 30.453125 117.105469 31.289062 117.945312 32.324219 117.945312 L 42.1875 117.945312 C 43.222656 117.945312 44.0625 117.105469 44.0625 116.070312 C 44.0625 115.035156 43.222656 114.195312 42.1875 114.195312 Z M 42.1875 114.195312 " fill-opacity="1" fill-rule="nonzero"/><path fill="#c6f135" d="M 42.1875 121.011719 L 36.433594 121.011719 C 35.398438 121.011719 34.5625 121.851562 34.5625 122.886719 C 34.5625 123.921875 35.398438 124.761719 36.433594 124.761719 L 42.1875 124.761719 C 43.222656 124.761719 44.0625 123.921875 44.0625 122.886719 C 44.0625 121.851562 43.222656 121.011719 42.1875 121.011719 Z M 42.1875 121.011719 " fill-opacity="1" fill-rule="nonzero"/></svg>