<svg xmlns="http://www.w3.org/2000/svg" xmlns:xlink="http://www.w3.org/1999/xlink" width="200" zoomAndPan="magnify" viewBox="0 0 150 149.999998" height="200" preserveAspectRatio="xMidYMid meet" version="1.0"><defs><clipPath id="0d04b25ee0"><path d="M 36 29.25 L 119 29.25 L 119 39 L 36 39 Z M 36 29.25 " clip-rule="nonzero"/></clipPath><clipPath id="a228e75385"><path d="M 51 65 L 105 65 L 105 124.5 L 51 124.5 Z M 51 65 " clip-rule="nonzero"/></clipPath><clipPath id="24d1c185eb"><path d="M 103 36 L 140.25 36 L 140.25 61 L 103 61 Z M 103 36 " clip-rule="nonzero"/></clipPath></defs><path fill="#1a2e22" d="M 50.992188 61.398438 L 104.523438 61.398438 L 99.011719 43.027344 L 56.5 43.027344 Z M 50.992188 61.398438 " fill-opacity="1" fill-rule="nonzero"/><path fill="#1a2e22" d="M 15.136719 53.136719 L 46.332031 60.9375 L 51.902344 42.375 L 28.132812 36.433594 Z M 15.136719 53.136719 " fill-opacity="1" fill-rule="nonzero"/><g clip-path="url(#0d04b25ee0)"><path fill="#1a2e22" d="M 100.4375 29.25 L 55.078125 29.25 L 36.738281 33.851562 L 55.074219 38.4375 L 100.4375 38.4375 L 118.8125 33.84375 Z M 100.4375 29.25 " fill-opacity="1" fill-rule="nonzero"/></g><g clip-path="url(#a228e75385)"><path fill="#1a2e22" d="M 51.449219 65.992188 L 77.75 124.679688 L 104.066406 65.992188 Z M 51.449219 65.992188 " fill-opacity="1" fill-rule="nonzero"/></g><path fill="#1a2e22" d="M 17.742188 58.523438 L 69.429688 117.347656 L 46.265625 65.652344 Z M 17.742188 58.523438 " fill-opacity="1" fill-rule="nonzero"/><g clip-path="url(#24d1c185eb)"><path fill="#1a2e22" d="M 103.613281 42.375 L 109.183594 60.9375 L 140.375 53.136719 L 127.382812 36.433594 Z M 103.613281 42.375 " fill-opacity="1" fill-rule="nonzero"/></g><path fill="#1a2e22" d="M 86.070312 117.34375 L 137.769531 58.523438 L 109.25 65.652344 Z M 86.070312 117.34375 " fill-opacity="1" fill-rule="nonzero"/></svg>