<svg xmlns="http://www.w3.org/2000/svg" xmlns:xlink="http://www.w3.org/1999/xlink" width="200" zoomAndPan="magnify" viewBox="0 0 150 157.92" height="200" preserveAspectRatio="xMidYMid meet" version="1.0"><defs><clipPath id="f92eb7c54a"><path d="M 82 75 L 137.175781 75 L 137.175781 129.695312 L 82 129.695312 Z M 82 75 " clip-rule="nonzero"/></clipPath><clipPath id="78ef47bfe5"><path d="M 23 20.25 L 110 20.25 L 110 75 L 23 75 Z M 23 20.25 " clip-rule="nonzero"/></clipPath><clipPath id="79593ff8e6"><path d="M 12.738281 115 L 85 115 L 85 119 L 12.738281 119 Z M 12.738281 115 " clip-rule="nonzero"/></clipPath></defs><path fill="#c6f135" d="M 130.835938 100.78125 C 130.488281 96.191406 128.664062 92.011719 125.828125 88.71875 L 124.390625 90.15625 C 124.082031 90.464844 123.671875 90.621094 123.269531 90.621094 C 122.863281 90.621094 122.457031 90.464844 122.144531 90.15625 C 121.523438 89.535156 121.523438 88.53125 122.144531 87.910156 L 123.582031 86.472656 C 120.285156 83.636719 116.105469 81.8125 111.515625 81.464844 L 111.515625 83.507812 C 111.515625 84.382812 110.804688 85.09375 109.925781 85.09375 C 109.046875 85.09375 108.339844 84.382812 108.339844 83.507812 L 108.339844 81.464844 C 103.75 81.8125 99.566406 83.636719 96.273438 86.472656 L 97.710938 87.910156 C 98.332031 88.53125 98.332031 89.535156 97.710938 90.15625 C 97.402344 90.464844 96.996094 90.621094 96.589844 90.621094 C 96.179688 90.621094 95.773438 90.464844 95.464844 90.15625 L 94.027344 88.71875 C 91.195312 92.015625 89.367188 96.191406 89.019531 100.78125 L 91.0625 100.78125 C 91.9375 100.78125 92.652344 101.496094 92.652344 102.371094 C 92.652344 103.246094 91.9375 103.960938 91.0625 103.960938 L 89.019531 103.960938 C 89.367188 108.550781 91.195312 112.730469 94.027344 116.023438 L 95.464844 114.585938 C 96.085938 113.96875 97.089844 113.96875 97.710938 114.585938 C 98.332031 115.207031 98.332031 116.214844 97.710938 116.835938 L 96.277344 118.269531 C 99.570312 121.105469 103.75 122.929688 108.339844 123.277344 L 108.339844 121.238281 C 108.339844 120.359375 109.054688 119.648438 109.929688 119.648438 C 110.804688 119.648438 111.519531 120.359375 111.519531 121.238281 L 111.519531 123.277344 C 116.109375 122.929688 120.289062 121.105469 123.582031 118.269531 L 122.144531 116.835938 C 121.527344 116.214844 121.527344 115.207031 122.144531 114.585938 C 122.769531 113.96875 123.773438 113.96875 124.394531 114.585938 L 125.832031 116.023438 C 128.664062 112.726562 130.492188 108.550781 130.835938 103.960938 L 128.796875 103.960938 C 127.917969 103.960938 127.207031 103.25 127.207031 102.371094 C 127.207031 101.492188 127.917969 100.78125 128.796875 100.78125 Z M 111.515625 99.0625 C 112.746094 99.65625 113.601562 100.914062 113.601562 102.371094 C 113.601562 102.796875 113.527344 103.207031 113.390625 103.585938 L 117.070312 107.269531 C 117.691406 107.886719 117.691406 108.894531 117.070312 109.515625 C 116.761719 109.824219 116.355469 109.980469 115.945312 109.980469 C 115.539062 109.980469 115.132812 109.828125 114.824219 109.515625 L 111.140625 105.835938 C 110.761719 105.96875 110.351562 106.046875 109.925781 106.046875 C 107.902344 106.046875 106.25 104.398438 106.25 102.371094 C 106.25 100.914062 107.105469 99.65625 108.339844 99.0625 L 108.339844 90.796875 C 108.339844 89.917969 109.050781 89.207031 109.925781 89.207031 C 110.804688 89.207031 111.515625 89.917969 111.515625 90.796875 Z M 111.515625 99.0625 " fill-opacity="1" fill-rule="evenodd"/><path fill="#c6f135" d="M 110.425781 102.371094 C 110.425781 102.101562 110.195312 101.875 109.925781 101.875 C 109.65625 101.875 109.429688 102.101562 109.429688 102.371094 C 109.429688 102.640625 109.65625 102.867188 109.925781 102.867188 C 110.195312 102.867188 110.425781 102.640625 110.425781 102.371094 Z M 110.425781 102.371094 " fill-opacity="1" fill-rule="evenodd"/><g clip-path="url(#f92eb7c54a)"><path fill="#c6f135" d="M 109.925781 78.21875 C 123.246094 78.21875 134.078125 89.054688 134.078125 102.367188 C 134.078125 115.683594 123.246094 126.519531 109.925781 126.519531 C 96.609375 126.519531 85.777344 115.6875 85.777344 102.367188 C 85.777344 89.050781 96.609375 78.21875 109.925781 78.21875 Z M 109.925781 75.078125 C 94.878906 75.078125 82.632812 87.320312 82.632812 102.371094 C 82.632812 117.421875 94.878906 129.664062 109.925781 129.664062 C 124.976562 129.664062 137.222656 117.421875 137.222656 102.371094 C 137.222656 87.320312 124.976562 75.078125 109.925781 75.078125 Z M 109.925781 75.078125 " fill-opacity="1" fill-rule="evenodd"/></g><g clip-path="url(#78ef47bfe5)"><path fill="#c6f135" d="M 107.65625 33.773438 C 107.769531 33.734375 107.824219 33.671875 107.84375 33.546875 L 109.648438 21.09375 C 109.6875 20.835938 109.621094 20.640625 109.441406 20.460938 C 109.257812 20.277344 109.0625 20.210938 108.808594 20.246094 L 96.351562 22.054688 C 96.226562 22.074219 96.164062 22.125 96.125 22.242188 C 96.085938 22.359375 96.105469 22.441406 96.195312 22.527344 L 98.882812 25.214844 C 99.5 25.835938 99.5 26.839844 98.882812 27.464844 L 80.476562 45.867188 C 80.179688 46.167969 79.773438 46.332031 79.355469 46.332031 L 54.824219 46.332031 C 53.917969 46.332031 53.167969 46.605469 52.46875 47.183594 L 23.550781 71.097656 L 26.757812 74.972656 L 54.863281 51.726562 C 55.148438 51.488281 55.503906 51.359375 55.875 51.359375 L 80.5625 51.359375 C 81.59375 51.359375 82.449219 51.003906 83.179688 50.277344 L 102.4375 31.015625 C 103.058594 30.398438 104.0625 30.398438 104.6875 31.015625 L 107.375 33.703125 C 107.460938 33.792969 107.542969 33.8125 107.65625 33.769531 Z M 107.65625 33.773438 " fill-opacity="1" fill-rule="evenodd"/></g><g clip-path="url(#79593ff8e6)"><path fill="#c6f135" d="M 82.3125 115.238281 L 84.035156 118.417969 L 14.347656 118.417969 C 13.472656 118.417969 12.757812 117.703125 12.757812 116.828125 C 12.757812 115.949219 13.472656 115.238281 14.347656 115.238281 Z M 82.3125 115.238281 " fill-opacity="1" fill-rule="evenodd"/></g><path fill="#c6f135" d="M 23.445312 85.914062 L 34.347656 85.914062 L 34.347656 114.238281 L 23.445312 114.238281 Z M 23.445312 85.914062 " fill-opacity="1" fill-rule="nonzero"/><path fill="#c6f135" d="M 48.546875 74.347656 L 59.449219 74.347656 L 59.449219 114.238281 L 48.546875 114.238281 Z M 48.546875 74.347656 " fill-opacity="1" fill-rule="nonzero"/><path fill="#c6f135" d="M 73.652344 62.785156 L 73.652344 114.238281 L 81.863281 114.238281 C 80.316406 110.589844 79.457031 106.582031 79.457031 102.375 C 79.457031 96.148438 81.335938 90.347656 84.554688 85.519531 L 84.554688 62.789062 L 73.652344 62.789062 Z M 73.652344 62.785156 " fill-opacity="1" fill-rule="evenodd"/><path fill="#c6f135" d="M 98.757812 51.925781 L 98.757812 74.019531 C 102.140625 72.683594 105.816406 71.9375 109.660156 71.902344 L 109.660156 51.925781 Z M 98.757812 51.925781 " fill-opacity="1" fill-rule="evenodd"/></svg>