<svg xmlns="http://www.w3.org/2000/svg" xmlns:xlink="http://www.w3.org/1999/xlink" width="200" zoomAndPan="magnify" viewBox="0 0 150 157.92" height="200" preserveAspectRatio="xMidYMid meet" version="1.0"><defs><clipPath id="5fa94b0c48"><path d="M 16.65625 29.59375 L 133.597656 29.59375 L 133.597656 107 L 16.65625 107 Z M 16.65625 29.59375 " clip-rule="nonzero"/></clipPath><clipPath id="47105ec653"><path d="M 35 116 L 114 116 L 114 120.296875 L 35 120.296875 Z M 35 116 " clip-rule="nonzero"/></clipPath></defs><g clip-path="url(#5fa94b0c48)"><path fill="#1a2e22" d="M 126.480469 61.890625 C 122.699219 61.890625 119.628906 64.957031 119.628906 68.742188 C 119.628906 71.183594 120.910156 73.328125 122.835938 74.542969 L 119.699219 77.675781 C 115.609375 81.765625 108.609375 79.109375 108.261719 73.335938 L 107.488281 60.523438 C 107.488281 60.523438 107.492188 60.523438 107.496094 60.523438 C 111.277344 60.523438 114.347656 57.457031 114.347656 53.671875 C 114.347656 49.886719 111.28125 46.820312 107.496094 46.820312 C 103.710938 46.820312 100.644531 49.886719 100.644531 53.671875 C 100.644531 56.375 102.210938 58.714844 104.484375 59.828125 L 99.941406 66.695312 C 95.292969 73.714844 84.644531 72.519531 81.667969 64.640625 L 75.667969 48.753906 C 80.652344 48.410156 84.589844 44.261719 84.589844 39.1875 C 84.589844 34.113281 80.296875 29.59375 75 29.59375 C 69.703125 29.59375 65.410156 33.886719 65.410156 39.183594 C 65.410156 44.195312 69.246094 48.300781 74.144531 48.738281 L 68.136719 64.640625 C 65.160156 72.519531 54.511719 73.714844 49.867188 66.691406 L 45.367188 59.898438 C 47.722656 58.8125 49.359375 56.433594 49.359375 53.671875 C 49.359375 49.886719 46.292969 46.820312 42.507812 46.820312 C 38.722656 46.820312 35.65625 49.886719 35.65625 53.671875 C 35.65625 57.457031 38.621094 60.414062 42.316406 60.515625 L 41.542969 73.335938 C 41.195312 79.109375 34.195312 81.765625 30.105469 77.675781 L 27.046875 74.617188 C 29.039062 73.421875 30.371094 71.238281 30.371094 68.742188 C 30.371094 64.960938 27.304688 61.890625 23.519531 61.890625 C 19.734375 61.890625 16.667969 64.960938 16.667969 68.742188 C 16.667969 72.527344 19.734375 75.59375 23.519531 75.59375 C 24.019531 75.59375 24.503906 75.539062 24.96875 75.441406 L 33.796875 106.425781 C 51.804688 102.316406 74.902344 102.707031 74.902344 102.707031 C 74.902344 102.707031 98 102.3125 116.011719 106.425781 L 124.851562 75.398438 C 125.375 75.527344 125.917969 75.597656 126.484375 75.597656 C 130.265625 75.597656 133.335938 72.53125 133.335938 68.746094 C 133.335938 64.960938 130.269531 61.894531 126.484375 61.894531 Z M 126.480469 61.890625 " fill-opacity="1" fill-rule="nonzero"/></g><path fill="#1a2e22" d="M 113.464844 113.46875 C 113.464844 111.980469 114.039062 110.628906 114.972656 109.613281 C 114.519531 109.277344 113.972656 109.042969 113.363281 108.960938 C 87.765625 105.621094 61.84375 105.617188 36.246094 108.960938 C 35.636719 109.042969 35.089844 109.277344 34.636719 109.613281 C 35.574219 110.628906 36.144531 111.980469 36.144531 113.46875 C 36.144531 114.175781 36.019531 114.851562 35.78125 115.472656 C 36.203125 115.585938 36.652344 115.621094 37.109375 115.5625 C 62.132812 112.292969 87.476562 112.292969 112.5 115.5625 C 112.960938 115.621094 113.40625 115.585938 113.828125 115.472656 C 113.59375 114.851562 113.464844 114.175781 113.464844 113.46875 Z M 113.464844 113.46875 " fill-opacity="1" fill-rule="nonzero"/><g clip-path="url(#47105ec653)"><path fill="#1a2e22" d="M 113.855469 118.167969 C 113.855469 118.238281 113.792969 118.308594 113.667969 118.378906 C 113.542969 118.449219 113.355469 118.519531 113.105469 118.585938 C 112.855469 118.65625 112.542969 118.726562 112.171875 118.792969 C 111.796875 118.859375 111.367188 118.925781 110.875 118.992188 C 110.386719 119.054688 109.839844 119.121094 109.234375 119.183594 C 108.628906 119.246094 107.972656 119.304688 107.257812 119.363281 C 106.546875 119.421875 105.785156 119.480469 104.96875 119.535156 C 104.15625 119.589844 103.296875 119.640625 102.390625 119.691406 C 101.484375 119.738281 100.535156 119.789062 99.542969 119.832031 C 98.550781 119.875 97.523438 119.917969 96.457031 119.957031 C 95.390625 119.996094 94.292969 120.035156 93.160156 120.066406 C 92.03125 120.101562 90.875 120.128906 89.6875 120.15625 C 88.503906 120.183594 87.296875 120.207031 86.070312 120.226562 C 84.84375 120.25 83.601562 120.265625 82.34375 120.28125 C 81.085938 120.292969 79.820312 120.304688 78.542969 120.3125 C 77.269531 120.316406 75.988281 120.320312 74.707031 120.320312 C 73.425781 120.320312 72.144531 120.316406 70.871094 120.3125 C 69.59375 120.304688 68.328125 120.292969 67.070312 120.28125 C 65.8125 120.265625 64.570312 120.25 63.34375 120.226562 C 62.117188 120.207031 60.910156 120.183594 59.726562 120.15625 C 58.542969 120.128906 57.382812 120.101562 56.253906 120.066406 C 55.121094 120.035156 54.023438 119.996094 52.957031 119.957031 C 51.890625 119.917969 50.863281 119.875 49.871094 119.832031 C 48.878906 119.789062 47.929688 119.738281 47.023438 119.691406 C 46.117188 119.640625 45.257812 119.589844 44.445312 119.535156 C 43.632812 119.480469 42.867188 119.421875 42.15625 119.363281 C 41.445312 119.304688 40.785156 119.246094 40.179688 119.183594 C 39.578125 119.121094 39.027344 119.054688 38.539062 118.992188 C 38.046875 118.925781 37.617188 118.859375 37.246094 118.792969 C 36.871094 118.726562 36.5625 118.65625 36.3125 118.585938 C 36.0625 118.519531 35.871094 118.449219 35.746094 118.378906 C 35.621094 118.308594 35.558594 118.238281 35.558594 118.167969 C 35.558594 118.097656 35.621094 118.027344 35.746094 117.957031 C 35.871094 117.886719 36.0625 117.816406 36.3125 117.746094 C 36.5625 117.679688 36.871094 117.609375 37.246094 117.542969 C 37.617188 117.472656 38.046875 117.40625 38.539062 117.34375 C 39.027344 117.277344 39.578125 117.214844 40.179688 117.152344 C 40.785156 117.089844 41.445312 117.027344 42.15625 116.96875 C 42.867188 116.910156 43.632812 116.855469 44.445312 116.800781 C 45.257812 116.746094 46.117188 116.695312 47.023438 116.644531 C 47.929688 116.59375 48.878906 116.546875 49.871094 116.503906 C 50.863281 116.457031 51.890625 116.414062 52.957031 116.375 C 54.023438 116.335938 55.121094 116.300781 56.253906 116.269531 C 57.382812 116.234375 58.542969 116.203125 59.726562 116.175781 C 60.910156 116.148438 62.117188 116.125 63.34375 116.105469 C 64.570312 116.085938 65.8125 116.070312 67.070312 116.054688 C 68.328125 116.039062 69.59375 116.03125 70.871094 116.023438 C 72.144531 116.015625 73.425781 116.011719 74.707031 116.011719 C 75.988281 116.011719 77.269531 116.015625 78.542969 116.023438 C 79.820312 116.03125 81.085938 116.039062 82.34375 116.054688 C 83.601562 116.070312 84.84375 116.085938 86.070312 116.105469 C 87.296875 116.125 88.503906 116.148438 89.6875 116.175781 C 90.875 116.203125 92.03125 116.234375 93.160156 116.269531 C 94.292969 116.300781 95.390625 116.335938 96.457031 116.375 C 97.523438 116.414062 98.550781 116.457031 99.542969 116.503906 C 100.535156 116.546875 101.484375 116.59375 102.390625 116.644531 C 103.296875 116.695312 104.15625 116.746094 104.96875 116.800781 C 105.785156 116.855469 106.546875 116.910156 107.257812 116.96875 C 107.972656 117.027344 108.628906 117.089844 109.234375 117.152344 C 109.839844 117.214844 110.386719 117.277344 110.875 117.34375 C 111.367188 117.40625 111.796875 117.472656 112.171875 117.542969 C 112.542969 117.609375 112.855469 117.679688 113.105469 117.746094 C 113.355469 117.816406 113.542969 117.886719 113.667969 117.957031 C 113.792969 118.027344 113.855469 118.097656 113.855469 118.167969 Z M 113.855469 118.167969 " fill-opacity="1" fill-rule="nonzero"/></g></svg>